<?xml version="1.0" encoding="UTF-8"?>
<svg width="120px" height="105px" viewBox="0 0 120 105" version="1.1" xmlns="http://www.w3.org/2000/svg" xmlns:xlink="http://www.w3.org/1999/xlink">
    <!-- Generator: Sketch 46.2 (44496) - http://www.bohemiancoding.com/sketch -->
    <title>Slice</title>
    <desc>Created with Sketch.</desc>
    <defs></defs>
    <g id="Page-1" stroke="none" stroke-width="1" fill="none" fill-rule="evenodd">
        <path d="M75.5,88.547 C75.659,88.514 75.82,88.478 75.981,88.445 L75.913,87.076 L75.5,88.547" id="Fill-77" fill="#89B9BA"></path>
        <path d="M75.981,88.445 C76.3,88.377 76.617,88.305 76.933,88.233 C77.118,88.191 77.303,88.144 77.485,88.103 L75.913,87.076 L75.981,88.445" id="Fill-78" fill="#79AEB9"></path>
        <polyline id="Fill-79" fill="#D8E8BC" points="25.69 94.146 24.8 95.858 26.044 94.101 25.69 94.146"></polyline>
        <polyline id="Fill-80" fill="#CCE3BC" points="24.8 95.858 22.44 100.403 20.213 104.698 24.848 102.4 26.791 101.441 28.387 100.648 30.634 99.535 26.044 94.101 24.8 95.858"></polyline>
        <polyline id="Fill-81" fill="#C2DFBC" points="26.044 94.101 30.634 99.535 31.834 98.941 28.492 93.405 26.044 94.101"></polyline>
        <polyline id="Fill-82" fill="#BFDDBC" points="31.834 98.941 33.84 97.947 28.492 93.405 31.834 98.941"></polyline>
        <polyline id="Fill-83" fill="#B7DABC" points="33.84 97.947 36.815 96.473 38.295 95.739 28.492 93.405 33.84 97.947"></polyline>
        <path d="M63.415,90.093 C64.306,90.048 65.193,89.991 66.073,89.917 C67.159,89.827 68.239,89.714 69.308,89.58 C70.615,89.415 71.905,89.222 73.181,88.994 L75.913,87.076 L63.415,90.093" id="Fill-84" fill="#89C8BE"></path>
        <path d="M73.181,88.994 C73.96,88.856 74.733,88.705 75.5,88.547 L75.913,87.076 L73.181,88.994" id="Fill-85" fill="#8DC4BD"></path>
        <path d="M11.227,71.426 C11.831,72.062 12.454,72.688 13.096,73.3 L13.738,71.429 L11.227,71.426" id="Fill-86" fill="#CDE3BA"></path>
        <path d="M13.096,73.3 C13.747,73.921 14.418,74.526 15.113,75.117 C15.486,75.437 15.868,75.753 16.256,76.063 L13.738,71.429 L13.096,73.3" id="Fill-87" fill="#CBE2BB"></path>
        <polyline id="Fill-88" fill="#CBE2BB" points="25.875 93.787 25.69 94.146 26.044 94.101 25.875 93.787"></polyline>
        <polyline id="Fill-89" fill="#B2D8BA" points="26.044 94.101 26.272 93.021 25.875 93.787 26.044 94.101"></polyline>
        <path d="M13.738,71.429 L16.256,76.063 C19.029,78.299 22.109,80.319 25.439,82.083 C25.635,82.188 25.833,82.291 26.033,82.394 C26.77,82.771 27.516,83.14 28.274,83.495 L30.814,71.426 L13.738,71.429" id="Fill-90" fill="#B2D8BA"></path>
        <path d="M28.274,83.495 C28.674,83.683 29.077,83.864 29.479,84.044 L30.814,71.426 L28.274,83.495" id="Fill-91" fill="#B5D9BB"></path>
        <polyline id="Fill-92" fill="#B5D9BB" points="28.492 93.405 29.11 87.551 26.442 92.692 26.272 93.021 26.044 94.101 28.492 93.405"></polyline>
        <path d="M44.112,71.545 L30.814,71.426 L29.479,84.044 C29.874,84.217 30.267,84.387 30.665,84.554 L29.11,87.551 L28.492,93.405 L44.112,71.545" id="Fill-93" fill="#A1D2BB"></path>
        <polyline id="Fill-94" fill="#A4D4BB" points="28.492 93.405 38.295 95.739 42.736 93.543 44.813 92.513 44.112 71.545 28.492 93.405"></polyline>
        <path d="M44.813,92.513 L50.567,89.663 C51.993,89.821 53.432,89.949 54.888,90.039 L44.112,71.545 L44.813,92.513" id="Fill-95" fill="#96CFBD"></path>
        <path d="M44.112,71.545 L54.888,90.039 C55.417,90.071 55.948,90.102 56.482,90.122 L60.869,75.049 L44.112,71.545" id="Fill-96" fill="#82C8BD"></path>
        <path d="M60.869,75.049 L56.482,90.122 C57.174,90.152 57.87,90.173 58.571,90.186 L68.956,83.378 L60.869,75.049" id="Fill-97" fill="#7AC5BE"></path>
        <path d="M68.956,83.378 L58.571,90.186 C58.92,90.188 59.269,90.191 59.621,90.191 C60.086,90.191 60.555,90.188 61.024,90.18 C61.824,90.161 62.624,90.132 63.415,90.093 L75.913,87.076 L68.956,83.378" id="Fill-98" fill="#79C1BE"></path>
        <polyline id="Fill-99" fill="#68B2BC" points="75.913 87.076 88.508 78.277 68.956 83.378 75.913 87.076"></polyline>
        <path d="M75.913,87.076 L77.485,88.103 C78.864,87.773 80.218,87.413 81.549,87.016 C82.973,86.589 84.367,86.124 85.733,85.622 C86.415,85.374 87.088,85.111 87.757,84.843 C88.431,84.572 89.098,84.288 89.754,83.999 L88.508,78.277 L75.913,87.076" id="Fill-100" fill="#65A7B9"></path>
        <path d="M89.754,83.999 C90.667,83.596 91.565,83.178 92.445,82.742 C94.069,81.937 95.639,81.074 97.148,80.158 L88.508,78.277 L89.754,83.999" id="Fill-101" fill="#579BB8"></path>
        <path d="M0.478,47.447 C0.517,48.256 0.585,49.061 0.681,49.861 C1.108,53.437 2.095,56.88 3.573,60.148 C4.343,61.849 5.247,63.502 6.271,65.099 L7.443,63.114 L0.478,47.447" id="Fill-102" fill="#ACD6BC"></path>
        <path d="M7.443,63.114 L6.271,65.099 C6.524,65.493 6.784,65.887 7.053,66.274 C8.115,67.814 9.297,69.301 10.583,70.728 C10.794,70.964 11.009,71.192 11.227,71.426 L13.738,71.429 L7.443,63.114" id="Fill-103" fill="#BBDCBB"></path>
        <polyline id="Fill-104" fill="#ACD6BB" points="7.443 63.114 13.738 71.429 20.586 65.063 7.443 63.114"></polyline>
        <polyline id="Fill-105" fill="#A5D4BB" points="13.738 71.429 30.814 71.426 20.586 65.063 13.738 71.429"></polyline>
        <polyline id="Fill-106" fill="#94CEBC" points="20.586 65.063 30.814 71.426 34.063 63.233 20.586 65.063"></polyline>
        <polyline id="Fill-107" fill="#89CBBD" points="34.063 63.233 30.814 71.426 40.399 66.335 34.063 63.233"></polyline>
        <polyline id="Fill-108" fill="#89CABC" points="30.814 71.426 44.112 71.545 40.399 66.335 30.814 71.426"></polyline>
        <polyline id="Fill-109" fill="#73C4BE" points="40.399 66.335 44.112 71.545 60.361 63.526 40.399 66.335"></polyline>
        <polyline id="Fill-110" fill="#6FC0BE" points="60.361 63.526 44.112 71.545 60.869 75.049 60.361 63.526"></polyline>
        <polyline id="Fill-111" fill="#61ADBB" points="60.361 63.526 60.869 75.049 69.973 58.137 60.361 63.526"></polyline>
        <polyline id="Fill-112" fill="#66B4BD" points="60.869 75.049 68.956 83.378 69.973 58.137 60.869 75.049"></polyline>
        <polyline id="Fill-113" fill="#5CA8BA" points="68.956 83.378 88.508 78.277 69.973 58.137 68.956 83.378"></polyline>
        <polyline id="Fill-114" fill="#4795B8" points="88.508 78.277 92.237 66.179 69.973 58.137 88.508 78.277"></polyline>
        <path d="M88.508,78.277 L97.148,80.158 C98.154,79.549 99.133,78.914 100.085,78.257 L92.237,66.179 L88.508,78.277" id="Fill-115" fill="#4794B8"></path>
        <path d="M92.237,66.179 L100.085,78.257 C100.382,78.054 100.674,77.848 100.963,77.639 L96.794,63.39 L92.237,66.179" id="Fill-116" fill="#4188B7"></path>
        <path d="M100.963,77.639 L101.217,77.457 C102.899,76.237 104.49,74.94 105.979,73.58 C107.8,71.916 109.468,70.151 110.964,68.304 C112.7,66.162 114.205,63.902 115.455,61.551 L96.794,63.39 L100.963,77.639" id="Fill-117" fill="#4179B1"></path>
        <path d="M20.061,42.314 L0.448,45.05 C0.436,45.527 0.433,46.002 0.442,46.479 C0.448,46.806 0.463,47.124 0.478,47.447 L7.443,63.114 L20.061,42.314" id="Fill-118" fill="#99C9BC"></path>
        <polyline id="Fill-119" fill="#98CEBC" points="20.061 42.314 7.443 63.114 20.586 65.063 20.061 42.314"></polyline>
        <polyline id="Fill-120" fill="#83C0BC" points="25.928 44.486 20.061 42.314 20.586 65.063 25.928 44.486"></polyline>
        <polyline id="Fill-121" fill="#87C7BD" points="20.586 65.063 34.063 63.233 25.928 44.486 20.586 65.063"></polyline>
        <polyline id="Fill-122" fill="#75BBBC" points="25.928 44.486 34.063 63.233 39.51 49.294 25.928 44.486"></polyline>
        <polyline id="Fill-123" fill="#77C2BE" points="34.063 63.233 40.399 66.335 39.51 49.294 34.063 63.233"></polyline>
        <polyline id="Fill-124" fill="#68B6BE" points="39.51 49.294 40.399 66.335 58.413 52.857 39.51 49.294"></polyline>
        <polyline id="Fill-125" fill="#66B4BD" points="40.399 66.335 60.361 63.526 58.413 52.857 40.399 66.335"></polyline>
        <polyline id="Fill-126" fill="#56A2B9" points="58.413 52.857 60.361 63.526 69.973 58.137 58.413 52.857"></polyline>
        <polyline id="Fill-127" fill="#4694B9" points="58.413 52.857 69.973 58.137 69.079 44.522 58.413 52.857"></polyline>
        <polyline id="Fill-128" fill="#3D88B7" points="69.079 44.522 69.973 58.137 76.189 43.457 69.079 44.522"></polyline>
        <polyline id="Fill-129" fill="#3882B6" points="69.973 58.137 89.301 50.339 76.189 43.457 69.973 58.137"></polyline>
        <polyline id="Fill-130" fill="#3C86B7" points="69.973 58.137 92.237 66.179 89.301 50.339 69.973 58.137"></polyline>
        <polyline id="Fill-131" fill="#367EB4" points="92.237 66.179 96.794 63.39 89.301 50.339 92.237 66.179"></polyline>
        <polyline id="Fill-132" fill="#3572AB" points="89.301 50.339 96.794 63.39 107.645 53.019 89.301 50.339"></polyline>
        <polyline id="Fill-133" fill="#3A6AA5" points="96.794 63.39 108.926 54.061 107.645 53.019 96.794 63.39"></polyline>
        <path d="M96.794,63.39 L115.455,61.551 C115.542,61.39 115.628,61.229 115.715,61.067 C116.114,60.289 116.484,59.498 116.828,58.697 L108.926,54.061 L96.794,63.39" id="Fill-134" fill="#3C69A5"></path>
        <path d="M116.828,58.697 C117.036,58.218 117.236,57.734 117.421,57.247 C117.571,56.859 117.714,56.469 117.848,56.074 C119.065,52.538 119.729,48.841 119.761,45.039 C119.765,44.907 119.765,44.776 119.765,44.645 C119.765,44.441 119.761,44.238 119.758,44.039 C119.731,42.86 119.648,41.696 119.505,40.545 L108.926,54.061 L116.828,58.697" id="Fill-135" fill="#375998"></path>
        <path d="M0.577,42.693 C0.508,43.475 0.463,44.26 0.448,45.05 L20.061,42.314 L0.577,42.693" id="Fill-136" fill="#91BFBA"></path>
        <polyline id="Fill-137" fill="#6FADB9" points="37.454 39.375 20.061 42.314 25.928 44.486 37.454 39.375"></polyline>
        <polyline id="Fill-138" fill="#6AADBB" points="37.454 39.375 25.928 44.486 39.51 49.294 37.454 39.375"></polyline>
        <polyline id="Fill-139" fill="#5CA6B9" points="50.844 43.946 37.454 39.375 39.51 49.294 50.844 43.946"></polyline>
        <polyline id="Fill-140" fill="#5AA5B9" points="39.51 49.294 58.413 52.857 50.844 43.946 39.51 49.294"></polyline>
        <polyline id="Fill-141" fill="#529EB9" points="43.264 35.62 37.454 39.375 50.844 43.946 43.264 35.62"></polyline>
        <polyline id="Fill-142" fill="#4593B8" points="43.264 35.62 50.844 43.946 57.132 33.427 43.264 35.62"></polyline>
        <polyline id="Fill-143" fill="#408BB8" points="57.132 33.427 50.844 43.946 69.079 44.522 57.132 33.427"></polyline>
        <polyline id="Fill-144" fill="#4895B9" points="50.844 43.946 58.413 52.857 69.079 44.522 50.844 43.946"></polyline>
        <polyline id="Fill-145" fill="#3780B6" points="69.079 44.522 63.582 30.108 57.132 33.427 69.079 44.522"></polyline>
        <polyline id="Fill-146" fill="#357DB4" points="76.189 43.457 63.582 30.108 69.079 44.522 76.189 43.457"></polyline>
        <polyline id="Fill-147" fill="#3273AC" points="76.189 43.457 89.301 50.339 81.711 36.056 76.189 43.457"></polyline>
        <polyline id="Fill-148" fill="#31639F" points="89.301 50.339 99.28 29.171 81.711 36.056 89.301 50.339 140 -7"></polyline>
        <polyline id="Fill-149" fill="#325D9B" points="89.301 50.339 106.988 43.216 99.28 29.171 89.301 50.339"></polyline>
        <polyline id="Fill-150" fill="#3564A1" points="107.645 53.019 106.988 43.216 89.301 50.339 107.645 53.019"></polyline>
        <polyline id="Fill-151" fill="#36609D" points="108.926 54.061 106.988 43.216 107.645 53.019 108.926 54.061"></polyline>
        <path d="M108.926,54.061 L119.505,40.545 C119.469,40.248 119.427,39.956 119.386,39.664 L106.988,43.216 L108.926,54.061" id="Fill-152" fill="#325796"></path>
        <path d="M11.374,19.762 C11.269,19.872 11.162,19.981 11.06,20.093 C10.855,20.323 10.649,20.549 10.446,20.779 C9.338,22.035 8.315,23.337 7.377,24.677 C5.874,26.819 4.59,29.063 3.555,31.388 C2.967,32.704 2.457,34.051 2.03,35.417 C1.415,37.384 0.973,39.396 0.71,41.449 L14.134,20.296 L11.374,19.762" id="Fill-153" fill="#7DA5B4"></path>
        <path d="M14.134,20.296 L0.71,41.449 C0.667,41.807 0.625,42.165 0.591,42.526 L0.577,42.693 L20.061,42.314 L14.134,20.296" id="Fill-154" fill="#7EAFB7"></path>
        <polyline id="Fill-155" fill="#629BB5" points="14.134 20.296 20.061 42.314 39.754 22.674 14.134 20.296"></polyline>
        <polyline id="Fill-156" fill="#5D9FB6" points="39.754 22.674 20.061 42.314 37.454 39.375 39.754 22.674"></polyline>
        <polyline id="Fill-157" fill="#4D96B8" points="39.754 22.674 37.454 39.375 43.264 35.62 39.754 22.674"></polyline>
        <polyline id="Fill-158" fill="#4289B8" points="50.898 21.493 39.754 22.674 43.264 35.62 50.898 21.493"></polyline>
        <polyline id="Fill-159" fill="#3D87B7" points="57.132 33.427 50.898 21.493 43.264 35.62 57.132 33.427"></polyline>
        <polyline id="Fill-160" fill="#377CB3" points="63.582 30.108 50.898 21.493 57.132 33.427 63.582 30.108"></polyline>
        <polyline id="Fill-161" fill="#3271AA" points="80.099 29.586 63.582 30.108 76.189 43.457 80.099 29.586"></polyline>
        <polyline id="Fill-162" fill="#336BA6" points="81.711 36.056 80.099 29.586 76.189 43.457 81.711 36.056"></polyline>
        <polyline id="Fill-163" fill="#315F9C" points="89.989 23.268 80.099 29.586 81.711 36.056 89.989 23.268"></polyline>
        <polyline id="Fill-164" fill="#2F5998" points="99.28 29.171 89.989 23.268 81.711 36.056 99.28 29.171"></polyline>
        <polyline id="Fill-165" fill="#2D5091" points="106.988 43.216 108.656 21.794 99.28 29.171 106.988 43.216"></polyline>
        <path d="M106.988,43.216 L119.386,39.664 C119.254,38.792 119.087,37.927 118.893,37.073 L108.656,21.794 L106.988,43.216" id="Fill-166" fill="#2E4E90"></path>
        <path d="M118.893,37.073 C118.537,35.524 118.078,34.003 117.517,32.516 C115.854,28.1 113.314,23.973 110.048,20.244 L108.656,21.794 L118.893,37.073" id="Fill-167" fill="#2F4489"></path>
        <path d="M13.543,17.57 C12.792,18.284 12.069,19.016 11.374,19.762 L14.134,20.296 L13.543,17.57" id="Fill-168" fill="#7896B3"></path>
        <path d="M27.788,8.108 L23.989,9.809 C21.855,11.053 19.829,12.399 17.936,13.84 C16.384,15.022 14.919,16.27 13.543,17.57 L14.134,20.296 L27.788,8.108" id="Fill-169" fill="#698BB3"></path>
        <polyline id="Fill-170" fill="#5B88B4" points="27.788 8.108 14.134 20.296 39.754 22.674 27.788 8.108"></polyline>
        <polyline id="Fill-171" fill="#4A77AE" points="53.336 5.228 27.788 8.108 39.754 22.674 53.336 5.228"></polyline>
        <polyline id="Fill-172" fill="#4175AE" points="50.898 21.493 53.336 5.228 39.754 22.674 50.898 21.493"></polyline>
        <polyline id="Fill-173" fill="#3E64A0" points="64.268 3.584 53.336 5.228 50.898 21.493 64.268 3.584"></polyline>
        <polyline id="Fill-174" fill="#3B6AA5" points="63.582 30.108 64.268 3.584 50.898 21.493 63.582 30.108"></polyline>
        <polyline id="Fill-175" fill="#375D9B" points="79.887 12.423 64.268 3.584 63.582 30.108 79.887 12.423"></polyline>
        <polyline id="Fill-176" fill="#34619E" points="80.099 29.586 79.887 12.423 63.582 30.108 80.099 29.586"></polyline>
        <polyline id="Fill-177" fill="#305796" points="89.989 23.268 79.887 12.423 80.099 29.586 89.989 23.268"></polyline>
        <polyline id="Fill-179" fill="#2D4F91" points="99.28 29.171 95.74 14.829 89.989 23.268 99.28 29.171"></polyline>
        <polyline id="Fill-180" fill="#2D4B8E" points="108.656 21.794 95.74 14.829 99.28 29.171 108.656 21.794"></polyline>
        <path d="M108.656,21.794 L110.048,20.244 C109.814,19.979 109.582,19.717 109.343,19.457 C108.935,19.013 108.516,18.573 108.086,18.144 C107.794,17.846 107.496,17.554 107.194,17.264 C105.777,15.909 104.258,14.617 102.646,13.396 L95.74,14.829 L108.656,21.794" id="Fill-181" fill="#2F4388"></path>
        <path d="M27.74,7.792 C27.033,8.144 26.334,8.505 25.648,8.875 L27.788,8.108 L27.74,7.792" id="Fill-182" fill="#637BAE"></path>
        <path d="M25.648,8.875 C25.086,9.179 24.535,9.492 23.989,9.809 L27.788,8.108 L25.648,8.875" id="Fill-183" fill="#6988B3"></path>
        <polyline id="Fill-184" fill="#5D6DA5" points="27.776 7.773 27.74 7.792 27.788 8.108 27.776 7.773"></polyline>
        <path d="M47.257,1.489 C46.347,1.646 45.443,1.817 44.55,2.008 C43.581,2.211 42.623,2.434 41.676,2.673 C38.014,3.598 34.508,4.783 31.199,6.195 C30.208,6.619 29.238,7.06 28.283,7.52 C28.113,7.604 27.946,7.69 27.776,7.773 L27.788,8.108 L47.257,1.489" id="Fill-185" fill="#5269A3"></path>
        <path d="M53.336,5.228 L51.175,0.91 C50.973,0.934 50.767,0.958 50.564,0.984 C49.451,1.128 48.346,1.298 47.257,1.489 L27.788,8.108 L53.336,5.228" id="Fill-186" fill="#4869A4"></path>
        <path d="M64.268,3.584 L52.751,0.733 C52.226,0.787 51.701,0.847 51.175,0.91 L53.336,5.228 L64.268,3.584" id="Fill-187" fill="#3E5B99"></path>
        <path d="M62.373,0.34 C61.313,0.322 60.248,0.319 59.176,0.34 C58.508,0.354 57.842,0.378 57.18,0.409 C56.875,0.42 56.574,0.436 56.273,0.453 C55.292,0.51 54.315,0.582 53.348,0.674 C53.148,0.691 52.952,0.712 52.751,0.733 L64.268,3.584 L62.373,0.34" id="Fill-188" fill="#3C5696"></path>
        <path d="M65.411,0.459 C64.868,0.429 64.325,0.399 63.779,0.381 C63.309,0.361 62.841,0.352 62.373,0.34 L64.268,3.584 L65.411,0.459" id="Fill-189" fill="#375091"></path>
        <path d="M70.49,0.918 C68.819,0.712 67.124,0.558 65.411,0.459 L64.268,3.584 L70.49,0.918" id="Fill-190" fill="#324B8E"></path>
        <path d="M79.887,12.423 L81.722,3.187 C81.209,3.041 80.693,2.897 80.173,2.763 C77.055,1.951 73.82,1.33 70.49,0.918 L64.268,3.584 L79.887,12.423" id="Fill-191" fill="#314D90"></path>
        <path d="M89.45,5.882 C89.034,5.709 88.614,5.538 88.193,5.371 C87.643,5.153 87.091,4.945 86.534,4.741 C85.337,4.306 84.12,3.9 82.881,3.524 C82.496,3.407 82.11,3.297 81.722,3.187 L79.887,12.423 L89.45,5.882" id="Fill-192" fill="#30498C"></path>
        <path d="M95.74,14.829 L90.631,6.389 C90.304,6.243 89.975,6.1 89.644,5.959 L89.45,5.882 L79.887,12.423 L95.74,14.829" id="Fill-193" fill="#2E4A8D"></path>
        <path d="M96.212,9.182 C94.427,8.174 92.564,7.24 90.631,6.389 L95.74,14.829 L96.212,9.182" id="Fill-194" fill="#2F4489"></path>
        <path d="M100.384,11.769 C99.318,11.044 98.215,10.349 97.08,9.681 C96.794,9.514 96.504,9.346 96.212,9.182 L95.74,14.829 L100.384,11.769" id="Fill-195" fill="#2F4086"></path>
        <path d="M102.646,13.396 C102.273,13.116 101.899,12.835 101.518,12.561 C101.146,12.294 100.767,12.032 100.384,11.769 L95.74,14.829 L102.646,13.396" id="Fill-196" fill="#2F4086"></path>
        <polyline id="Fill-178" fill="#2E4F91" points="95.74 14.829 79.887 12.423 89.989 23.268 95.74 14.829"></polyline>
    </g>
</svg>