<?xml version="1.0" encoding="utf-8"?>
<!-- Generator: Adobe Illustrator 22.1.0, SVG Export Plug-In . SVG Version: 6.00 Build 0)  -->
<svg version="1.1" id="Regular" xmlns="http://www.w3.org/2000/svg" xmlns:xlink="http://www.w3.org/1999/xlink" x="0px" y="0px"
	 viewBox="0 0 24 24" style="enable-background:new 0 0 24 24;" xml:space="preserve">
<title>single-neutral-search</title>
<g>
	<path d="M23.25,24c-0.2,0-0.389-0.078-0.53-0.22l-5.349-5.349C15.459,20.09,13.033,21,10.5,21C4.71,21,0,16.29,0,10.5
		C0,4.71,4.71,0,10.5,0C16.29,0,21,4.71,21,10.5c0,2.533-0.91,4.959-2.569,6.871l5.349,5.349c0.142,0.142,0.22,0.33,0.22,0.53
		s-0.078,0.389-0.22,0.53S23.45,24,23.25,24z M10.5,1.5c-4.963,0-9,4.037-9,9s4.037,9,9,9s9-4.037,9-9S15.463,1.5,10.5,1.5z"/>
</g>
</svg>
