
<?xml version="1.0" encoding="UTF-8" standalone="no"?>
<svg width="181px" height="161px" viewBox="0 0 181 161" version="1.1" xmlns="http://www.w3.org/2000/svg" xmlns:xlink="http://www.w3.org/1999/xlink">
    <!-- Generator: Sketch 46 (44423) - http://www.bohemiancoding.com/sketch -->
    <title>confluence_rgb_slate</title>
    <desc>Created with Sketch.</desc>
    <defs></defs>
    <g id="Page-1" stroke="none" stroke-width="1" fill="none" fill-rule="evenodd">
        <g id="confluence_rgb_slate" fill-rule="nonzero" fill="#172B4D">
            <g id="Group">
                <path d="M128.158118,106.732867 C125.891683,102.258643 123.205913,97.736007 120.064832,93.1356853 C117.815261,89.838 115.403801,86.6303846 112.883292,83.4903217 C111.859124,82.2113287 112.288578,80.6215944 113.071037,79.8312308 C113.844503,79.0374895 114.62359,78.2448741 115.404925,77.4432517 C126.174988,66.4434615 137.312671,55.0698811 145.853398,42.7820909 C154.937124,29.7106923 159.970273,17.3114406 161.239522,4.55528671 C161.366559,3.27291608 160.785335,1.91286014 159.752174,1.1224965 C159.073143,0.604594406 158.253584,0.33551049 157.423907,0.33551049 C156.965224,0.33551049 156.498671,0.419951049 156.056851,0.589958042 C147.774696,3.76154545 139.365503,6.17091608 131.68818,7.96105594 C130.123261,8.32696503 128.858509,9.49111888 128.334621,10.8905804 C122.740484,26.2328671 108.459472,40.8422098 93.4769441,56.143965 C92.8754845,56.7159091 92.0323168,57.4702448 90.6618882,57.4702448 C89.2925839,57.4702448 88.4584099,56.7406783 87.8468323,56.143965 C72.8643043,40.8410839 58.5832919,26.2846573 52.9891553,10.9401189 C52.4641429,9.54403497 51.1982671,8.37875524 49.6355963,8.01172028 C41.9549006,6.22045455 33.540087,3.6073007 25.2691739,0.435713287 C24.8239814,0.266832168 24.3585528,0.181265734 23.8976211,0.181265734 C23.0690683,0.181265734 22.2483851,0.45034965 21.5704783,0.969377622 C20.5148323,1.77662937 19.9527205,3.07588811 20.0842547,4.39991608 C21.3535031,17.1583217 26.385528,29.7106923 35.4726273,42.7820909 C44.0122298,55.0698811 55.149913,66.4445874 65.9188509,77.4432517 C85.7613975,97.7022308 104.505578,116.845469 106.151441,139.043203 C106.298714,141.046133 107.964814,142.598713 109.972677,142.598713 L133.285702,142.598713 C134.335727,142.598713 135.338534,142.166378 136.063658,141.404161 C136.78541,140.641944 137.166522,139.620776 137.114807,138.568084 C136.90795,134.387713 136.301994,130.205091 135.320547,126.003329 L135.32954,125.994322 C135.300311,125.871601 135.27895,125.746629 135.27895,125.617154 C135.27895,124.764867 135.937745,124.061196 136.802273,124.061196 C136.875348,124.061196 136.947298,124.074706 137.019248,124.084839 L137.020373,124.083713 C156.052354,126.875881 168.088292,131.332091 168.10628,136.243154 L168.10628,136.254413 C168.10628,140.878378 157.285627,147.863301 139.699398,152.975895 L139.692652,152.98265 C138.128857,153.428497 136.988894,154.844846 136.988894,156.52465 C136.988894,158.561357 138.66736,160.216392 140.743801,160.216392 C141.030478,160.216392 141.307037,160.183741 141.574602,160.122944 C165.213652,154.646692 180.884205,145.443797 180.884205,135.054231 C180.886453,122.718028 159.701584,111.699098 128.158118,106.732867 Z" id="Shape"></path>
                <path d="M65.6456646,94.6995245 C65.1678696,94.1996364 64.2100311,93.5308671 62.922795,93.5308671 C61.1836211,93.5308671 60.1504596,94.6556154 59.7614783,95.2523287 C57.216236,99.130965 54.9947702,102.957811 53.0768447,106.746378 C21.5772236,111.72049 0.429453416,122.728161 0.429453416,135.055357 C0.429453416,145.455056 15.9887081,154.638811 39.6704783,160.111685 C39.6738509,160.112811 39.6963354,160.110559 39.7053292,160.109434 C39.9841366,160.17586 40.2708137,160.217517 40.5698571,160.217517 C42.6451739,160.217517 44.3236398,158.561357 44.3236398,156.525776 C44.3236398,154.850476 43.1814286,153.45214 41.6266273,153.000664 L41.6142609,152.975895 C24.0269068,147.863301 13.2073789,140.879503 13.2073789,136.254413 L13.2073789,136.243154 C13.2253665,131.341098 25.2275776,126.890517 44.2134658,124.097224 C44.2820435,124.085965 44.3472484,124.074706 44.4169503,124.074706 C45.2893478,124.074706 45.9560124,124.786259 45.9560124,125.646427 C45.9560124,125.778154 45.9346522,125.904252 45.9042981,126.026972 L45.9200373,126.04386 C44.9453354,130.227608 44.3483727,134.392217 44.1426398,138.553448 C44.0909255,139.598259 44.4754099,140.637441 45.1994099,141.400783 C45.9222857,142.159622 46.9397081,142.596462 47.9863602,142.596462 L71.3005093,142.596462 C73.3027516,142.596462 74.989087,141.026993 75.1363602,139.027441 C75.6433851,132.196762 77.7760373,125.349196 81.641118,118.153734 C82.9800683,115.664427 81.9401615,113.325986 81.1678199,112.32621 C77.3319689,107.331832 72.6338385,102.004196 65.6456646,94.6995245 Z" id="Shape"></path>
                <path d="M87.9704969,37.0232448 C88.8923602,37.9216923 89.936764,38.0894476 90.6562671,38.0894476 L90.6641366,38.0894476 C91.3858882,38.0894476 92.4291677,37.9216923 93.3521553,37.0232448 C101.572478,29.0182797 105.989553,19.6847832 106.957509,17.0896434 C107.099161,16.707972 107.241938,16.2756364 107.241938,15.671042 C107.241938,13.5994336 105.518503,12.120035 103.715248,12.120035 C102.226776,12.120035 97.9884534,12.5602517 90.6843727,12.5602517 L90.6360311,12.5602517 C83.3330745,12.5602517 79.0958758,12.120035 77.608528,12.120035 C75.8052733,12.120035 74.0795901,13.5994336 74.0795901,15.671042 C74.0795901,16.2756364 74.2223665,16.707972 74.3651429,17.0896434 C75.3308509,19.6836573 79.7490497,29.0171538 87.9704969,37.0232448 Z" id="Shape"></path>
            </g>
        </g>
    </g>
</svg>
