<?xml version="1.0" encoding="UTF-8"?>
<svg width="405px" height="145px" viewBox="0 -20 445 185" version="1.1" xmlns="http://www.w3.org/2000/svg" xmlns:xlink="http://www.w3.org/1999/xlink">
    <style>
        #Group-3 path {
            stroke: #111;
            stroke-width: 80px;
        }
    </style>
    <g id="Page-1" stroke="none" stroke-width="1" fill="none" fill-rule="evenodd">
        <g id="Group-3" fill="#fff">
            <path d="M142.492829,49.800113 C143.492829,50.2382434 146.556162,44.0317383 157.84869,42.5670847 C166.920725,41.3904316 174.000477,42.2616247 179.087947,45.1806641 L177.087947,79.0317383 C173.914739,77.9672852 170.479827,77.4747721 166.783212,77.5541992 C161.238291,77.6733398 156.764658,79.0317383 152.566416,82.722168 C148.368173,86.4125977 145.947641,92.0199296 145.947641,98.145874 C145.947641,104.271818 145.947641,108.209322 145.947641,118.235172 L145.947641,142.885498 L109.449861,143.008121 L109.449861,45.0317383 L140.492829,41.0317383 L142.492829,49.800113 Z" id="Path"></path>
            <polygon id="Path" points="301.928161 143.008121 301.928161 42.8051758 301.928161 40.5670847 337.971129 37.5670847 337.971129 143.008121"></polygon>
            <path d="M357.216871,109.031738 C357.216871,102.365072 357.216871,90.6962291 357.216871,74.0252107 L348.131845,74.0252107 L348.131845,37.940918 L357.216871,36.940918 L358.216871,19.987793 L392.381422,15.987793 L393.381422,35.940918 L404.618727,35.940918 L402.618727,71.0252107 L393.381422,72.0252107 C393.135616,76.076691 393.012712,83.590649 393.012712,94.5670847 C393.012712,102.843504 393.012712,118.929378 393.012712,142.824707 L357.216871,142.824707 C357.216871,132.604004 357.216871,121.339681 357.216871,109.031738 Z" id="Path"></path>
            <path d="M223.724269,0.0317382812 C223.737439,1.90936338 223.747316,3.3175822 223.753901,4.25639475 C223.812173,12.56411 223.89958,27.6923495 224.016123,49.6411133 C224.016123,49.6411133 232.760751,42.246582 248.365103,42.4521875 C265.132757,42.6731209 276.751273,48.9292365 282.89747,57.1157227 C290.716806,67.5307617 293.235361,75.8549047 293.231484,93.9845539 C293.22712,114.389699 286.448347,126.364707 274.106073,135.869539 C267.793371,140.730974 259.074228,144.101074 245.938578,143.635074 C237.181477,143.324407 229.90215,141.828373 224.100595,139.146973 L222.016123,142.955566 C200.131805,141.622233 188.607312,140.955566 187.442644,140.955566 C187.442644,135.943904 187.433238,90.6359613 187.414426,5.03173828 L223.724269,0.0317382812 Z M244.043359,112.010389 C256.401018,111.906133 261.271495,105.399624 262.070874,92.240501 C262.870254,79.081378 255.547226,71.1125575 243.748001,71.386575 C231.948776,71.6605924 223.898698,75.0979831 224.039095,92.0552156 C224.179492,109.012448 231.685701,112.114646 244.043359,112.010389 Z" id="Combined-Shape"></path>
            <path d="M15.5079048,131.486796 C5.85741984,122.379674 0.458993648,110.345625 0.458993648,92.7590344 C0.458993648,75.1724433 6.55152052,63.0040847 15.5079048,53.994786 C24.4642891,44.9854874 37.1205986,40.916018 51.1142124,40.916018 C65.1078262,40.916018 78.0827878,44.9803075 86.72052,53.994786 C95.3582522,63.0092646 101.769431,74.4437141 101.769431,92.7590344 C101.769431,111.074355 96.1041514,122.64085 86.72052,131.523283 C77.3368886,140.405715 65.7951134,144.602051 51.1142124,144.602051 C36.4333114,144.602051 25.1583897,140.593917 15.5079048,131.486796 Z M51.1604256,113.688443 C57.2914059,113.688443 62.3519511,111.291607 66.2030693,107.132399 C70.0541876,102.973191 70.4173072,98.9208236 70.4173072,92.7590344 C70.4173072,86.5972452 70.0541876,82.5448775 66.2030693,78.3856697 C62.3519511,74.226462 57.2605974,71.829626 51.0679992,71.829626 C44.9370189,71.829626 39.8764737,74.226462 36.0253555,78.3856697 C32.1742372,82.5448775 31.8111176,86.5972452 31.8111176,92.7590344 C31.8111176,98.9208236 32.1742372,102.973191 36.0253555,107.132399 C39.8764737,111.291607 44.9678274,113.688443 51.1604256,113.688443 Z" id="Combined-Shape"></path>
        </g>
        <g id="Group-4" fill="#fff">
            <path d="M142.492829,49.800113 C143.492829,50.2382434 146.556162,44.0317383 157.84869,42.5670847 C166.920725,41.3904316 174.000477,42.2616247 179.087947,45.1806641 L177.087947,79.0317383 C173.914739,77.9672852 170.479827,77.4747721 166.783212,77.5541992 C161.238291,77.6733398 156.764658,79.0317383 152.566416,82.722168 C148.368173,86.4125977 145.947641,92.0199296 145.947641,98.145874 C145.947641,104.271818 145.947641,108.209322 145.947641,118.235172 L145.947641,142.885498 L109.449861,143.008121 L109.449861,45.0317383 L140.492829,41.0317383 L142.492829,49.800113 Z" id="Path"></path>
            <polygon id="Path" points="301.928161 143.008121 301.928161 42.8051758 301.928161 40.5670847 337.971129 37.5670847 337.971129 143.008121"></polygon>
            <path d="M357.216871,109.031738 C357.216871,102.365072 357.216871,90.6962291 357.216871,74.0252107 L348.131845,74.0252107 L348.131845,37.940918 L357.216871,36.940918 L358.216871,19.987793 L392.381422,15.987793 L393.381422,35.940918 L404.618727,35.940918 L402.618727,71.0252107 L393.381422,72.0252107 C393.135616,76.076691 393.012712,83.590649 393.012712,94.5670847 C393.012712,102.843504 393.012712,118.929378 393.012712,142.824707 L357.216871,142.824707 C357.216871,132.604004 357.216871,121.339681 357.216871,109.031738 Z" id="Path"></path>
            <path d="M223.724269,0.0317382812 C223.737439,1.90936338 223.747316,3.3175822 223.753901,4.25639475 C223.812173,12.56411 223.89958,27.6923495 224.016123,49.6411133 C224.016123,49.6411133 232.760751,42.246582 248.365103,42.4521875 C265.132757,42.6731209 276.751273,48.9292365 282.89747,57.1157227 C290.716806,67.5307617 293.235361,75.8549047 293.231484,93.9845539 C293.22712,114.389699 286.448347,126.364707 274.106073,135.869539 C267.793371,140.730974 259.074228,144.101074 245.938578,143.635074 C237.181477,143.324407 229.90215,141.828373 224.100595,139.146973 L222.016123,142.955566 C200.131805,141.622233 188.607312,140.955566 187.442644,140.955566 C187.442644,135.943904 187.433238,90.6359613 187.414426,5.03173828 L223.724269,0.0317382812 Z M244.043359,112.010389 C256.401018,111.906133 261.271495,105.399624 262.070874,92.240501 C262.870254,79.081378 255.547226,71.1125575 243.748001,71.386575 C231.948776,71.6605924 223.898698,75.0979831 224.039095,92.0552156 C224.179492,109.012448 231.685701,112.114646 244.043359,112.010389 Z" id="Combined-Shape"></path>
            <path d="M15.5079048,131.486796 C5.85741984,122.379674 0.458993648,110.345625 0.458993648,92.7590344 C0.458993648,75.1724433 6.55152052,63.0040847 15.5079048,53.994786 C24.4642891,44.9854874 37.1205986,40.916018 51.1142124,40.916018 C65.1078262,40.916018 78.0827878,44.9803075 86.72052,53.994786 C95.3582522,63.0092646 101.769431,74.4437141 101.769431,92.7590344 C101.769431,111.074355 96.1041514,122.64085 86.72052,131.523283 C77.3368886,140.405715 65.7951134,144.602051 51.1142124,144.602051 C36.4333114,144.602051 25.1583897,140.593917 15.5079048,131.486796 Z M51.1604256,113.688443 C57.2914059,113.688443 62.3519511,111.291607 66.2030693,107.132399 C70.0541876,102.973191 70.4173072,98.9208236 70.4173072,92.7590344 C70.4173072,86.5972452 70.0541876,82.5448775 66.2030693,78.3856697 C62.3519511,74.226462 57.2605974,71.829626 51.0679992,71.829626 C44.9370189,71.829626 39.8764737,74.226462 36.0253555,78.3856697 C32.1742372,82.5448775 31.8111176,86.5972452 31.8111176,92.7590344 C31.8111176,98.9208236 32.1742372,102.973191 36.0253555,107.132399 C39.8764737,111.291607 44.9678274,113.688443 51.1604256,113.688443 Z" id="Combined-Shape"></path>
        </g>
    </g>
</svg>
