<?xml version="1.0" encoding="UTF-8"?>
<svg width="425px" height="142px" viewBox="0 0 425 142" version="1.1" xmlns="http://www.w3.org/2000/svg" xmlns:xlink="http://www.w3.org/1999/xlink">
    <!-- Generator: Sketch 46.2 (44496) - http://www.bohemiancoding.com/sketch -->
    <title>orbit</title>
    <desc>Created with Sketch.</desc>
    <defs></defs>
    <g id="Page-1" stroke="none" stroke-width="1" fill="none" fill-rule="evenodd">
        <g id="orbit" transform="translate(0.529297, 0.000000)" fill="#000000">
            <path d="M157.579734,38.7683748 C158.579734,39.2065051 161.643066,36 172.935594,34.5353465 C182.007629,33.3586934 188.754049,34.2298865 193.174852,37.1489258 L191.174852,71 C188.308935,70.194987 185.207357,69.702474 181.870117,69.5224609 C176.864258,69.2524414 170.812012,70.4916992 166.845703,73.9326172 C162.879395,77.3735352 160.983276,81.8083496 161.034546,86.1141357 C161.085815,90.4199219 161.034546,100.177584 161.034546,110.203433 L161.034546,138.85376 L124.536765,138.976383 L124.536765,37 L155.579734,33 L157.579734,38.7683748 Z" id="Path"></path>
            <polygon id="Path" points="319.015065 138.976383 319.015065 39.7734375 319.015065 34.5353465 355.058034 31.5353465 355.058034 138.976383"></polygon>
            <path d="M376.303776,105 C376.303776,98.3333333 376.303776,85.3311575 376.303776,65.9934724 L367.21875,63.9934724 L367.21875,33.9091797 L376.303776,31.9091797 L377.303776,15.9560547 L411.468327,13.9560547 L412.468327,30.9091797 L423.705631,31.9091797 L423.705631,61.9934724 L412.468327,64.9934724 C412.22252,71.0449527 412.099617,79.5589108 412.099617,90.5353465 C412.099617,98.811766 412.099617,114.89764 412.099617,138.792969 L376.303776,138.792969 C376.303776,128.572266 376.303776,117.307943 376.303776,105 Z" id="Path"></path>
            <path d="M237.811174,0 C237.824344,1.8776251 237.834221,3.28584392 237.840806,4.22465647 C237.899077,12.5323717 237.986485,24.9939445 238.103027,41.609375 C238.103027,41.609375 248.847656,34.2148438 264.452008,34.4204493 C281.219661,34.6413826 292.838178,40.8974982 298.984375,49.0839844 C306.803711,59.4990234 309.322266,69.8231664 309.318389,87.9528157 C309.314025,108.357961 302.535252,122.332969 290.192978,131.837801 C283.880276,136.699236 275.161133,140.069336 262.025482,139.603336 C253.268382,139.292669 245.322388,137.796635 238.1875,135.115234 L236.103027,138.923828 C214.21871,137.590495 202.694217,136.923828 201.529549,136.923828 C201.529549,131.912166 201.520143,87.2708897 201.501331,3 L237.811174,0 Z M260.171298,106.84735 C273.057412,106.738636 278.136167,99.9538863 278.969731,86.2320343 C279.803294,72.5101823 272.167109,64.2005879 259.863309,64.4863233 C247.559509,64.7720587 239.165183,68.3564438 239.311583,86.0388254 C239.457984,103.721207 247.285184,106.956065 260.171298,106.84735 Z" id="Combined-Shape"></path>
            <path d="M16.4975435,124.436566 C6.08251263,114.607946 0.37661446,100.661504 0.37661446,81.6816406 C0.37661446,62.701777 6.83160244,48.6103846 16.4975435,38.8873371 C26.1634845,29.1642895 38.5227216,21.7929687 57.8017488,21.7929687 C77.080776,21.7929687 89.78391,29.1586993 99.1059541,38.8873371 C108.427998,48.6159748 115.226883,61.9153152 115.226883,81.6816406 C115.226883,101.447966 109.23299,114.889813 99.1059541,124.475944 C88.9789179,134.062075 77.2927485,141.570313 57.8017488,141.570313 C38.3107491,141.570313 26.9125743,134.265186 16.4975435,124.436566 Z M57.8509943,104.841965 C64.3842626,104.841965 70.6344782,102.438039 74.7382899,98.0059224 C78.8421017,93.5738057 80.0866672,88.2477394 80.0866672,81.6816406 C80.0866672,75.1155418 78.8421017,69.7894755 74.7382899,65.3573588 C70.6344782,60.9252421 64.3514326,58.5213167 57.7525033,58.5213167 C51.219235,58.5213167 44.9690194,60.9252421 40.8652077,65.3573588 C36.7613959,69.7894755 35.5168305,75.1155418 35.5168305,81.6816406 C35.5168305,88.2477394 36.7613959,93.5738057 40.8652077,98.0059224 C44.9690194,102.438039 51.252065,104.841965 57.8509943,104.841965 Z" id="Combined-Shape"></path>
        </g>
        <g id="height-guides" opacity="0" transform="translate(-258.650264, -373.593750)" stroke="#979797">
            <rect id="Rectangle-3" x="101.423039" y="514.921819" width="603.344739" height="131.936986"></rect>
            <rect id="Rectangle-3" x="101.423039" y="512.635897" width="603.344739" height="131.936986"></rect>
            <rect id="Rectangle-3" x="101.423039" y="276.675419" width="603.344739" height="131.936986"></rect>
            <path d="M674.983328,480.307315 L118.642286,480.307315" id="Line-2" stroke-linecap="square"></path>
            <rect id="Rectangle-3" x="101.423039" y="309.788331" width="603.344739" height="131.936986"></rect>
            <ellipse id="Oval-7" cx="433.695132" cy="205.53378" rx="433.292756" ry="205.53378"></ellipse>
        </g>
    </g>
</svg>