<?xml version="1.0" encoding="UTF-8"?>
<svg width="417px" height="142px" viewBox="0 0 417 142" version="1.1" xmlns="http://www.w3.org/2000/svg" xmlns:xlink="http://www.w3.org/1999/xlink">
    <!-- Generator: Sketch 46.2 (44496) - http://www.bohemiancoding.com/sketch -->
    <title>orbit</title>
    <desc>Created with Sketch.</desc>
    <defs></defs>
    <g id="Page-1" stroke="none" stroke-width="1" fill="none" fill-rule="evenodd">
        <g id="orbit" transform="translate(-52.681641, 0.347656)" fill="#FFFFFF">
            <path d="M201.579734,38.7683748 C202.579734,39.2065051 205.643066,36 216.935594,34.5353465 C226.007629,33.3586934 232.754049,34.2298865 237.174852,37.1489258 L235.174852,71 C232.308935,70.194987 229.207357,69.702474 225.870117,69.5224609 C220.864258,69.2524414 214.812012,70.4916992 210.845703,73.9326172 C206.879395,77.3735352 204.983276,81.8083496 205.034546,86.1141357 C205.085815,90.4199219 205.034546,100.177584 205.034546,110.203433 L205.034546,138.85376 L168.536765,138.976383 L168.536765,37 L199.579734,33 L201.579734,38.7683748 Z" id="Path"></path>
            <polygon id="Path" points="365.015065 138.976383 365.015065 38.7734375 365.015065 36.5353465 401.058034 33.5353465 401.058034 138.976383"></polygon>
            <path d="M421.303776,105 C421.303776,98.3333333 421.303776,85.3311575 421.303776,65.9934724 L412.21875,63.9934724 L412.21875,33.9091797 L421.303776,31.9091797 L422.303776,15.9560547 L456.468327,13.9560547 L457.468327,30.9091797 L468.705631,31.9091797 L468.705631,61.9934724 L457.468327,64.9934724 C457.22252,71.0449527 457.099617,79.5589108 457.099617,90.5353465 C457.099617,98.811766 457.099617,114.89764 457.099617,138.792969 L421.303776,138.792969 C421.303776,128.572266 421.303776,117.307943 421.303776,105 Z" id="Path"></path>
            <path d="M282.811174,0 C282.824344,1.8776251 282.834221,3.28584392 282.840806,4.22465647 C282.899077,12.5323717 282.986485,24.9939445 283.103027,41.609375 C283.103027,41.609375 293.847656,34.2148438 309.452008,34.4204493 C326.219661,34.6413826 337.838178,40.8974982 343.984375,49.0839844 C351.803711,59.4990234 354.322266,69.8231664 354.318389,87.9528157 C354.314025,108.357961 347.535252,122.332969 335.192978,131.837801 C328.880276,136.699236 320.161133,140.069336 307.025482,139.603336 C298.268382,139.292669 290.322388,137.796635 283.1875,135.115234 L281.103027,138.923828 C259.21871,137.590495 247.694217,136.923828 246.529549,136.923828 C246.529549,131.912166 246.520143,87.2708897 246.501331,3 L282.811174,0 Z M305.130264,105.978651 C317.487923,105.874395 322.3584,99.3678858 323.157779,86.2087628 C323.957158,73.0496397 316.634131,65.0808192 304.834906,65.3548367 C293.035681,65.6288541 284.985603,69.0662448 285.126,86.0234773 C285.266397,102.98071 292.772605,106.082907 305.130264,105.978651 Z" id="Combined-Shape"></path>
            <path d="M68.411593,125.874297 C58.8705104,116.870418 53.6434067,104.094253 53.6434067,86.7070313 C53.6434067,69.3198098 59.5567424,56.4108573 68.411593,47.5036921 C77.2664436,38.596527 88.5885898,31.84375 106.249871,31.84375 C123.911153,31.84375 135.548339,38.5914059 144.08815,47.5036921 C152.627961,56.4159784 158.856336,68.5993418 158.856336,86.7070313 C158.856336,104.814721 153.365404,117.128633 144.08815,125.91037 C134.810895,134.692108 124.105338,141.570313 106.249871,141.570313 C88.3944044,141.570313 77.9526757,134.878176 68.411593,125.874297 Z M106.293562,107.254893 C112.089884,107.254893 117.635081,105.122128 121.275987,101.18995 C124.916893,97.2577718 126.021073,92.5324805 126.021073,86.7070312 C126.021073,80.881582 124.916893,76.1562907 121.275987,72.2241125 C117.635081,68.2919342 112.060757,66.1591692 106.206181,66.1591692 C100.409859,66.1591692 94.8646613,68.2919342 91.2237555,72.2241125 C87.5828497,76.1562907 86.47867,80.881582 86.47867,86.7070312 C86.47867,92.5324805 87.5828497,97.2577718 91.2237555,101.18995 C94.8646613,105.122128 100.438985,107.254893 106.293562,107.254893 Z" id="Combined-Shape"></path>
        </g>
    </g>
</svg>