<?xml version="1.0" encoding="UTF-8"?>
<svg width="443px" height="142px" viewBox="0 0 443 142" version="1.1" xmlns="http://www.w3.org/2000/svg" xmlns:xlink="http://www.w3.org/1999/xlink">
    <!-- Generator: Sketch 46.2 (44496) - http://www.bohemiancoding.com/sketch -->
    <title>orbit</title>
    <desc>Created with Sketch.</desc>
    <defs></defs>
    <g id="Page-1" stroke="none" stroke-width="1" fill="none" fill-rule="evenodd">
        <g id="orbit" transform="translate(-0.681641, 0.347656)">
            <path d="M176.579734,38.7683748 C177.579734,39.2065051 180.643066,36 191.935594,34.5353465 C201.007629,33.3586934 207.754049,34.2298865 212.174852,37.1489258 L210.174852,71 C207.308935,70.194987 204.207357,69.702474 200.870117,69.5224609 C195.864258,69.2524414 189.812012,70.4916992 185.845703,73.9326172 C181.879395,77.3735352 179.983276,81.8083496 180.034546,86.1141357 C180.085815,90.4199219 180.034546,100.177584 180.034546,110.203433 L180.034546,138.85376 L143.536765,138.976383 L143.536765,37 L174.579734,33 L176.579734,38.7683748 Z" id="Path" fill="#000000"></path>
            <polygon id="Path" fill="#000000" points="338.015065 138.976383 338.015065 38.7734375 338.015065 36.5353465 374.058034 33.5353465 374.058034 138.976383"></polygon>
            <path d="M395.303776,105 C395.303776,98.3333333 395.303776,85.3311575 395.303776,65.9934724 L386.21875,63.9934724 L386.21875,33.9091797 L395.303776,31.9091797 L396.303776,15.9560547 L430.468327,13.9560547 L431.468327,30.9091797 L442.705631,31.9091797 L442.705631,61.9934724 L431.468327,64.9934724 C431.22252,71.0449527 431.099617,79.5589108 431.099617,90.5353465 C431.099617,98.811766 431.099617,114.89764 431.099617,138.792969 L395.303776,138.792969 C395.303776,128.572266 395.303776,117.307943 395.303776,105 Z" id="Path" fill="#000000"></path>
            <path d="M256.811174,0 C256.824344,1.8776251 256.834221,3.28584392 256.840806,4.22465647 C256.899077,12.5323717 256.986485,24.9939445 257.103027,41.609375 C257.103027,41.609375 267.847656,34.2148438 283.452008,34.4204493 C300.219661,34.6413826 311.838178,40.8974982 317.984375,49.0839844 C325.803711,59.4990234 328.322266,69.8231664 328.318389,87.9528157 C328.314025,108.357961 321.535252,122.332969 309.192978,131.837801 C302.880276,136.699236 294.161133,140.069336 281.025482,139.603336 C272.268382,139.292669 264.322388,137.796635 257.1875,135.115234 L255.103027,138.923828 C233.21871,137.590495 221.694217,136.923828 220.529549,136.923828 C220.529549,131.912166 220.520143,87.2708897 220.501331,3 L256.811174,0 Z M279.130264,105.978651 C291.487923,105.874395 296.3584,99.3678858 297.157779,86.2087628 C297.957158,73.0496397 290.634131,65.0808192 278.834906,65.3548367 C267.035681,65.6288541 258.985603,69.0662448 259.126,86.0234773 C259.266397,102.98071 266.772605,106.082907 279.130264,105.978651 Z" id="Combined-Shape" fill="#000000"></path>
            <path d="M44.2444303,125.780981 C34.6466243,116.723573 29.3884446,103.871451 29.3884446,86.3808594 C29.3884446,68.8902679 35.3369361,55.9045693 44.2444303,46.9444495 C53.1519246,37.9843297 64.5413829,31.1914062 82.3076639,31.1914062 C100.073945,31.1914062 111.780316,37.9791781 120.370897,46.9444495 C128.961479,55.9097209 135.226883,68.1655165 135.226883,86.3808594 C135.226883,104.596202 129.703307,116.983323 120.370897,125.817269 C111.038488,134.651216 100.269285,141.570313 82.3076639,141.570313 C64.346043,141.570313 53.8422364,134.83839 44.2444303,125.780981 Z M82.3516143,107.050882 C88.1823964,107.050882 93.760561,104.905437 97.4231126,100.949882 C101.085664,96.9943259 102.196408,92.240942 102.196408,86.3808594 C102.196408,80.5207768 101.085664,75.7673928 97.4231126,71.8118371 C93.760561,67.8562813 88.1530965,65.7108367 82.2637135,65.7108367 C76.4329313,65.7108367 70.8547667,67.8562813 67.1922151,71.8118371 C63.5296635,75.7673928 62.4189192,80.5207768 62.4189192,86.3808594 C62.4189192,92.240942 63.5296635,96.9943259 67.1922151,100.949882 C70.8547667,104.905437 76.4622313,107.050882 82.3516143,107.050882 Z" id="Combined-Shape" fill="#000000"></path>
            <path d="M6.83199573,29.4976736 C14.911344,27.8817207 27.9767826,25.1803895 35.9541272,23.5280544 C42.9159767,22.0860572 47.276872,31.8170657 41.627843,35.9124879 C34.2516972,41.260032 27.2849607,47.9984957 23.543209,56.9049209 C21.5442905,61.6629113 13.7002029,61.9370134 11.2089072,56.9049209 C7.39630506,49.2039616 5.63839369,46.4008642 2.39234073,38.8349481 C0.521858996,34.4752202 3.77222498,30.1096592 6.83199573,29.4976736 Z" id="notch" fill="#8050C0" transform="translate(23.030240, 41.980257) rotate(-5.000000) translate(-23.030240, -41.980257) "></path>
        </g>
    </g>
</svg>