<?xml version="1.0" encoding="UTF-8"?>
<svg width="441px" height="169px" viewBox="0 0 441 169" version="1.1" xmlns="http://www.w3.org/2000/svg" xmlns:xlink="http://www.w3.org/1999/xlink">
    <!-- Generator: Sketch 46.2 (44496) - http://www.bohemiancoding.com/sketch -->
    <title>ORBIT</title>
    <desc>Created with Sketch.</desc>
    <defs></defs>
    <g id="Page-1" stroke="none" stroke-width="1" fill="none" fill-rule="evenodd">
        <g id="ORBIT" transform="translate(0.000000, 2.000000)" fill="#000000">
            <path d="M167.45664,55.7683748 C167.45664,56.2065051 171.364451,52.8631243 179.8125,50.5353465 C183.776971,49.4429751 187.203261,50.2769395 191.18955,50.3943513 C194.380865,50.4883481 196.001601,51.0732062 196.051758,52.1489258 L196.051758,84.9926758 C193.995768,85.6642253 192.418945,86 191.321289,86 C187.594798,86 184.069533,85.8285362 179.8125,86 C170.671875,86.3681641 168.45664,92.65625 167.976523,103.857422 C167.496406,115.058594 167.45664,112.177584 167.45664,122.203433 L166.976523,163.976383 L131.413671,163.976383 L131.413671,48 L167.45664,49.3943513 L167.45664,55.7683748 Z" id="Path"></path>
            <polygon id="Path" points="332.891971 163.976383 332.891971 47.5353465 369.93494 44.5353465 369.93494 163.976383"></polygon>
            <path d="M382.180682,130 C382.180682,123.333333 382.180682,107.664491 382.180682,82.9934724 L382.180682,53.5159334 L382.180682,42.3808594 L418.345232,38.3808594 L418.345232,48.5159334 L426.582537,48.5159334 L426.582537,82.9934724 L418.345232,82.9934724 C418.099426,93.7116194 417.976523,104.558911 417.976523,115.535346 C417.976523,132 420.988281,130.671875 427.867188,131.335938 C432.453125,131.778646 435.516927,131.778646 437.058594,131.335938 C439.532238,153.671875 440.706886,164.773112 440.582537,164.639648 C440.396014,164.439453 431.582537,166.639648 426.867188,166.639648 C401.488681,166.639648 382.180682,161 382.180682,130 Z" id="Path"></path>
            <path d="M242.426503,5.6033357 L242.426503,52.5353465 C247,51 257.338063,45.3550796 273.830078,45.4179687 C323,45.6054688 323,89.0005171 323,109.5 C323,138.325195 301.761719,166.132812 274.741211,166.132812 C271.060099,166.132812 274.672852,166.132813 268.976562,166.132812 C263.107275,166.132812 244.387695,160.959961 245.12793,161.103516 C244.958008,161.050781 242.426503,163.64155 242.426503,163.535346 C242.426503,163.429142 206.892043,163.535346 204.976523,163.535346 C204.976523,158.040251 204.984349,105.396247 205,5.6033357 L242.426503,5.6033357 Z M268.298467,133.653237 C288.242031,133.653237 291.901377,117.523344 291.584728,105.50203 C291.102206,87.1834451 285.7823,77.0449219 267.895423,77.0449219 C258.808194,77.0449219 242.033588,79.4929101 242.033588,101.729088 C242.033588,108.651316 242.033588,114.106909 242.033588,116.867548 C242.033588,130.458386 258.272814,133.653237 268.298467,133.653237 Z" id="Combined-Shape"></path>
            <path d="M16.2325825,148.479021 C10.8848635,143.118865 6.71474814,136.787732 3.72222102,129.841553 C-0.0801666895,121.015545 0.0632935989,111.196547 0.0632935989,101.114723 C0.0632935989,92.373384 -0.561038696,83.8383029 2.2795937,75.9809548 C5.31200307,67.5931408 9.96299098,59.9776593 16.2325825,53.7080677 C28.3752613,41.5653889 43.4827862,35.4941406 61.5556104,35.4941406 C79.6284347,35.4941406 94.7359596,41.5653889 106.878638,53.7080677 C113.288908,60.1183378 118.007123,67.9355742 121.033308,76.5467379 C123.739486,84.2473042 123.047927,92.582766 123.047927,101.114723 C123.047927,111.485329 123.093467,121.565623 119.095236,130.568313 C116.125761,137.254585 112.053567,143.34645 106.878638,148.521379 C94.7359596,160.664057 79.6284347,166.735306 61.5556104,166.735306 C43.4827862,166.735306 28.3752613,160.649938 16.2325825,148.479021 Z M61.6166717,128.82086 C69.7175139,128.82086 76.3120704,126.851353 81.400539,121.355807 C86.4890077,115.860261 89.0332039,109.256273 89.0332039,101.114723 C89.0332039,92.9731733 86.4890077,86.3691858 81.400539,80.8736396 C76.3120704,75.3780935 69.6768067,73.4085859 61.4945491,73.4085859 C53.393707,73.4085859 46.7991505,75.3780935 41.7106818,80.8736396 C36.6222132,86.3691858 34.078017,92.9731733 34.078017,101.114723 C34.078017,109.256273 36.6222132,115.860261 41.7106818,121.355807 C46.7991505,126.851353 53.4344141,128.82086 61.6166717,128.82086 Z" id="Combined-Shape"></path>
            <circle id="Oval-8" cx="351" cy="18" r="17.8603516"></circle>
        </g>
        <g id="height-guides" opacity="0.333050272" transform="translate(-339.000000, -383.000000)" stroke="#979797">
            <rect id="Rectangle-3" x="239.121289" y="548.941036" width="640" height="140"></rect>
            <rect id="Rectangle-3" x="239.121289" y="250.941036" width="640" height="140"></rect>
            <rect id="Rectangle-3" x="239.121289" y="256.941036" width="640" height="140"></rect>
            <rect id="Rectangle-3" x="239.121289" y="290.941036" width="640" height="140"></rect>
            <path d="M847.5,516.5 L257.41526,516.5" id="Line-2" stroke-linecap="square"></path>
            <rect id="Rectangle-3" x="239.121289" y="320.941036" width="640" height="140"></rect>
            <ellipse id="Oval-7" cx="567" cy="218" rx="567" ry="218"></ellipse>
        </g>
    </g>
</svg>