<?xml version="1.0" encoding="utf-8"?>
<!-- Generator: Adobe Illustrator 22.1.0, SVG Export Plug-In . SVG Version: 6.00 Build 0)  -->
<svg version="1.1" id="Regular" xmlns="http://www.w3.org/2000/svg" xmlns:xlink="http://www.w3.org/1999/xlink" x="0px" y="0px"
	 viewBox="0 0 24 24" style="enable-background:new 0 0 24 24;" xml:space="preserve">
<title>arrow-thick-left-bottom-corner</title>
<g>
	<path d="M1.65,23.999c-0.388,0-0.751-0.13-1.049-0.375c-0.34-0.28-0.551-0.676-0.594-1.114c-0.01-0.106-0.01-0.214,0-0.321
		L1.9,6.48c0.042-0.423,0.253-0.812,0.592-1.089c0.291-0.238,0.659-0.369,1.035-0.369c0.054,0,0.109,0.003,0.163,0.008
		c0.38,0.038,0.737,0.209,1.004,0.481L7.293,8.11l7.633-7.632c0.311-0.309,0.722-0.479,1.158-0.479
		C16.525,0,16.934,0.17,17.242,0.477c0.002,0.002,6.274,6.274,6.274,6.274c0.31,0.307,0.482,0.717,0.484,1.156
		c0.002,0.434-0.164,0.845-0.468,1.156l-7.643,7.643l2.604,2.603c0.308,0.303,0.481,0.712,0.484,1.149
		c0.003,0.438-0.163,0.85-0.469,1.161c-0.268,0.272-0.624,0.443-1.003,0.481L1.827,23.99C1.762,23.996,1.706,23.999,1.65,23.999z
		 M3.526,6.522c-0.032,0-0.061,0.01-0.086,0.031c-0.029,0.024-0.046,0.056-0.05,0.092L1.499,22.352
		c0.006,0.052,0.024,0.087,0.056,0.113c0.027,0.022,0.06,0.034,0.095,0.034l15.69-1.89c0.045-0.005,0.075-0.018,0.099-0.042
		c0.026-0.026,0.04-0.06,0.039-0.098c0-0.037-0.014-0.07-0.041-0.096l-3.139-3.138c-0.142-0.142-0.22-0.33-0.22-0.53
		c0-0.198,0.08-0.391,0.22-0.53l8.158-8.158C22.486,7.987,22.5,7.953,22.5,7.914c0-0.038-0.015-0.073-0.042-0.1l-6.271-6.272
		c-0.03-0.03-0.064-0.044-0.102-0.044c-0.038,0-0.073,0.014-0.1,0.041L7.823,9.701c-0.142,0.142-0.33,0.22-0.53,0.22
		s-0.389-0.078-0.53-0.22L3.629,6.567C3.603,6.54,3.573,6.526,3.542,6.523L3.526,6.522z"/>
</g>
</svg>
