<?xml version="1.0" encoding="utf-8"?>
<!-- Generator: Adobe Illustrator 22.1.0, SVG Export Plug-In . SVG Version: 6.00 Build 0)  -->
<svg version="1.1" id="Regular" xmlns="http://www.w3.org/2000/svg" xmlns:xlink="http://www.w3.org/1999/xlink" x="0px" y="0px"
	 viewBox="0 0 24 24" style="enable-background:new 0 0 24 24;" xml:space="preserve">
<title>arrow-thick-left-1</title>
<g>
	<path d="M10.735,22.999c-0.401,0-0.778-0.156-1.061-0.439l-9.016-9.015c-0.428-0.432-0.66-0.995-0.659-1.592
		c0-0.601,0.234-1.166,0.659-1.591l9.016-9.015c0.283-0.283,0.66-0.439,1.061-0.439c0.401,0,0.778,0.156,1.061,0.439l2.121,2.121
		c0.284,0.284,0.44,0.661,0.44,1.061c0,0.401-0.156,0.777-0.44,1.06l-3.362,3.36H22.5c0.827,0,1.5,0.673,1.5,1.5v3
		c0,0.827-0.673,1.5-1.5,1.5H10.553l3.365,3.368c0.283,0.283,0.439,0.66,0.438,1.061c0,0.401-0.156,0.778-0.439,1.061l-2.121,2.121
		C11.513,22.843,11.137,22.999,10.735,22.999z M1.719,11.423c-0.142,0.142-0.22,0.33-0.22,0.53c0,0.201,0.078,0.389,0.219,0.53
		c0.006,0.006,0.017,0.018,0.022,0.024l8.994,8.992l2.121-2.121L8.213,14.73c-0.215-0.216-0.279-0.537-0.162-0.817
		c0.117-0.281,0.389-0.463,0.693-0.463H22.5v-3H8.743c-0.305,0-0.577-0.182-0.693-0.463C7.934,9.705,7.997,9.384,8.213,9.169
		l4.644-4.64l-2.121-2.121L1.719,11.423z"/>
</g>
</svg>
