<?xml version="1.0" encoding="utf-8"?>
<!-- Generator: Adobe Illustrator 22.1.0, SVG Export Plug-In . SVG Version: 6.00 Build 0)  -->
<svg version="1.1" id="Regular" xmlns="http://www.w3.org/2000/svg" xmlns:xlink="http://www.w3.org/1999/xlink" x="0px" y="0px"
	 viewBox="0 0 24 24" style="enable-background:new 0 0 24 24;" xml:space="preserve">
<title>arrow-double-left</title>
<g>
	<path d="M6.547,20.75c-0.776-0.002-1.486-0.394-1.9-1.05l-4.293-6.742c-0.467-0.734-0.467-1.682,0-2.415L4.65,3.797
		C5.061,3.144,5.77,2.752,6.545,2.75h4.563c0.402,0.001,0.779,0.157,1.062,0.442c0.283,0.284,0.438,0.661,0.438,1.062
		c0,0.284-0.081,0.561-0.233,0.801L8.113,11.75l4.261,6.698c0.215,0.343,0.284,0.746,0.194,1.137
		c-0.09,0.391-0.326,0.723-0.666,0.936c-0.237,0.149-0.511,0.228-0.792,0.229c0,0-0.001,0-0.001,0H6.547z M6.548,4.25
		C6.291,4.251,6.055,4.381,5.917,4.6L1.62,11.348c-0.155,0.244-0.155,0.56,0,0.805l4.295,6.744c0.139,0.221,0.376,0.352,0.634,0.353
		h4.559l-4.517-7.097c-0.156-0.244-0.156-0.561,0-0.805l4.517-7.097L6.548,4.25z"/>
	<path d="M17.942,20.75c-0.777-0.001-1.487-0.394-1.9-1.05l-4.293-6.747c-0.467-0.734-0.467-1.682,0-2.415l4.301-6.75
		c0.412-0.653,1.121-1.045,1.897-1.047h4.556c0.829,0.001,1.501,0.676,1.5,1.504c0,0.284-0.081,0.561-0.233,0.801l-4.262,6.706
		l4.261,6.698c0.215,0.343,0.284,0.745,0.194,1.136s-0.326,0.724-0.666,0.937c-0.237,0.149-0.511,0.228-0.792,0.229
		c0,0-0.001,0-0.001,0H17.942z M17.948,4.24c-0.258,0-0.494,0.131-0.632,0.35l-4.302,6.753c-0.155,0.244-0.155,0.56,0,0.804
		l4.295,6.75c0.139,0.221,0.376,0.352,0.635,0.353h4.558l-4.517-7.097c-0.156-0.244-0.156-0.56,0-0.805l4.517-7.107L17.948,4.24z"/>
</g>
</svg>
