<?xml version="1.0" encoding="utf-8"?>
<!-- Generator: Adobe Illustrator 22.1.0, SVG Export Plug-In . SVG Version: 6.00 Build 0)  -->
<svg version="1.1" id="Regular" xmlns="http://www.w3.org/2000/svg" xmlns:xlink="http://www.w3.org/1999/xlink" x="0px" y="0px"
	 viewBox="0 0 24 24" style="enable-background:new 0 0 24 24;" xml:space="preserve">
<title>arrow-double-left-1</title>
<g>
	<path d="M11.748,23.998c-0.372,0-0.738-0.1-1.058-0.29l-6.892-4.376c-0.612-0.342-1.01-0.99-1.047-1.725L2.75,15.154
		c0-0.52,0.289-0.977,0.794-1.254c0.296-0.163,0.638-0.249,0.989-0.249c0.393,0,0.766,0.105,1.08,0.305l6.138,3.906l6.135-3.906
		c0.314-0.2,0.688-0.305,1.081-0.305c0.351,0,0.693,0.086,0.989,0.249c0.505,0.277,0.794,0.734,0.794,1.254v2.411
		c-0.037,0.764-0.442,1.424-1.083,1.783l-6.834,4.347C12.495,23.896,12.124,23.998,11.748,23.998z M4.25,17.57
		c0.01,0.182,0.131,0.371,0.316,0.475l6.908,4.385c0.074,0.044,0.173,0.07,0.274,0.07c0.105,0,0.209-0.028,0.299-0.082l6.85-4.357
		c0.22-0.125,0.343-0.315,0.353-0.533l-0.001-2.304c-0.005-0.003-0.01-0.006-0.016-0.01c-0.071-0.039-0.174-0.062-0.273-0.062
		c-0.072,0-0.178,0.012-0.269,0.07l-6.537,4.162c-0.121,0.077-0.26,0.117-0.403,0.117c-0.143,0-0.282-0.041-0.403-0.117l-6.54-4.162
		c-0.091-0.058-0.196-0.07-0.269-0.07c-0.1,0-0.203,0.023-0.274,0.062c-0.006,0.003-0.011,0.006-0.016,0.01V17.57z"/>
	<path d="M11.751,14.954c-0.371,0-0.737-0.1-1.057-0.288l-6.896-4.383c-0.612-0.341-1.01-0.99-1.047-1.725L2.75,6.75
		c0-0.52,0.289-0.976,0.793-1.253c0.296-0.163,0.639-0.249,0.99-0.249c0.393,0,0.766,0.105,1.08,0.305l6.137,3.906l6.136-3.906
		c0.314-0.2,0.688-0.305,1.081-0.305c0.351,0,0.694,0.086,0.99,0.249C20.461,5.774,20.75,6.23,20.75,6.75v1.771
		c-0.037,0.764-0.442,1.424-1.084,1.784l-6.83,4.348C12.498,14.852,12.126,14.954,11.751,14.954z M4.25,8.521
		c0.01,0.182,0.131,0.371,0.316,0.474l6.911,4.392c0.073,0.043,0.171,0.069,0.273,0.069c0.106,0,0.211-0.028,0.302-0.082
		l6.845-4.357c0.22-0.124,0.343-0.315,0.354-0.533L19.25,6.821c-0.005-0.003-0.01-0.006-0.016-0.009
		c-0.071-0.039-0.174-0.062-0.274-0.062c-0.073,0-0.178,0.012-0.27,0.07l-6.538,4.162c-0.121,0.077-0.26,0.117-0.403,0.117
		s-0.282-0.04-0.402-0.117L4.808,6.819c-0.091-0.058-0.196-0.07-0.269-0.07c-0.1,0-0.203,0.023-0.274,0.063
		C4.26,6.815,4.255,6.818,4.25,6.821V8.521z"/>
	<path d="M11.75,6.749c-0.155,0-0.303-0.047-0.43-0.135l-7.5-5.25C3.656,1.249,3.546,1.077,3.511,0.879
		C3.477,0.682,3.521,0.483,3.635,0.319c0.141-0.2,0.37-0.32,0.615-0.32c0.154,0,0.303,0.047,0.43,0.135l7.07,4.949l7.07-4.949
		c0.127-0.089,0.276-0.135,0.43-0.135c0.245,0,0.475,0.12,0.615,0.32c0.115,0.164,0.159,0.363,0.124,0.56
		c-0.035,0.197-0.144,0.369-0.308,0.484l-7.5,5.25C12.053,6.702,11.905,6.749,11.75,6.749z"/>
</g>
</svg>
