<?xml version="1.0" encoding="utf-8"?>
<!-- Generator: Adobe Illustrator 22.1.0, SVG Export Plug-In . SVG Version: 6.00 Build 0)  -->
<svg version="1.1" id="Regular" xmlns="http://www.w3.org/2000/svg" xmlns:xlink="http://www.w3.org/1999/xlink" x="0px" y="0px"
	 viewBox="0 0 24 24" style="enable-background:new 0 0 24 24;" xml:space="preserve">
<title>arrow-dot-left</title>
<g>
	<path d="M2.75,24C1.234,24,0,22.766,0,21.25V2.75C0,1.234,1.234,0,2.75,0h18.5C22.766,0,24,1.234,24,2.75v18.5
		c0,1.516-1.234,2.75-2.75,2.75H2.75z M2.75,1.5C2.061,1.5,1.5,2.061,1.5,2.75v18.5c0,0.689,0.561,1.25,1.25,1.25h18.5
		c0.689,0,1.25-0.561,1.25-1.25V2.75c0-0.689-0.561-1.25-1.25-1.25H2.75z"/>
	<circle cx="4.5" cy="12" r="1.125"/>
	<circle cx="7.875" cy="10.125" r="1.125"/>
	<circle cx="11.625" cy="10.125" r="1.125"/>
	<circle cx="11.625" cy="6.375" r="1.125"/>
	<circle cx="7.875" cy="13.875" r="1.125"/>
	<circle cx="11.625" cy="13.875" r="1.125"/>
	<circle cx="15.375" cy="10.125" r="1.125"/>
	<circle cx="15.375" cy="13.875" r="1.125"/>
	<circle cx="19.125" cy="10.125" r="1.125"/>
	<circle cx="19.125" cy="13.875" r="1.125"/>
	<circle cx="11.625" cy="17.625" r="1.125"/>
</g>
</svg>
