<?xml version="1.0" encoding="utf-8"?>
<!-- Generator: Adobe Illustrator 22.1.0, SVG Export Plug-In . SVG Version: 6.00 Build 0)  -->
<svg version="1.1" id="Regular" xmlns="http://www.w3.org/2000/svg" xmlns:xlink="http://www.w3.org/1999/xlink" x="0px" y="0px"
	 viewBox="0 0 24 24" style="enable-background:new 0 0 24 24;" xml:space="preserve">
<title>arrow-thick-circle-up</title>
<g>
	<path d="M12,24C5.383,24,0,18.617,0,12C0,5.383,5.383,0,12,0c6.617,0,12,5.383,12,12C24,18.617,18.617,24,12,24z M12,1.5
		C6.21,1.5,1.5,6.21,1.5,12c0,5.79,4.71,10.5,10.5,10.5c5.79,0,10.5-4.71,10.5-10.5C22.5,6.21,17.79,1.5,12,1.5z"/>
	<path d="M10.5,19.5C9.673,19.5,9,18.827,9,18v-4.5H7.56c-0.4,0-0.777-0.156-1.06-0.44C6.216,12.776,6.06,12.4,6.06,12
		c0-0.339,0.117-0.672,0.329-0.938l4.438-5.548c0.251-0.313,0.609-0.51,1.008-0.554c0.055-0.006,0.111-0.009,0.167-0.009
		c0.338,0,0.67,0.117,0.936,0.33c0.084,0.067,0.163,0.146,0.232,0.232l4.439,5.55c0.517,0.645,0.413,1.591-0.232,2.108
		c-0.266,0.213-0.599,0.33-0.938,0.33H15V18c0,0.827-0.673,1.5-1.5,1.5H10.5z M12,6.451L7.561,12l2.189,0
		c0.414,0,0.75,0.336,0.75,0.75V18h3v-5.25c0-0.414,0.336-0.75,0.75-0.75h2.19L12,6.451l0-0.375L12,6.451z"/>
</g>
</svg>
