<?xml version="1.0" encoding="utf-8"?>
<!-- Generator: Adobe Illustrator 22.1.0, SVG Export Plug-In . SVG Version: 6.00 Build 0)  -->
<svg version="1.1" id="Regular" xmlns="http://www.w3.org/2000/svg" xmlns:xlink="http://www.w3.org/1999/xlink" x="0px" y="0px"
	 viewBox="0 0 24 24" style="enable-background:new 0 0 24 24;" xml:space="preserve">
<title>arrow-rectangle-up</title>
<g>
	<path d="M2.75,24C1.234,24,0,22.766,0,21.25V2.75C0,1.234,1.234,0,2.75,0h18.5C22.766,0,24,1.234,24,2.75v18.5
		c0,1.516-1.234,2.75-2.75,2.75H2.75z M2.75,1.5C2.061,1.5,1.5,2.061,1.5,2.75v18.5c0,0.689,0.561,1.25,1.25,1.25h18.5
		c0.689,0,1.25-0.561,1.25-1.25V2.75c0-0.689-0.561-1.25-1.25-1.25H2.75z"/>
	<path d="M17.25,15.75c-0.233,0-0.449-0.106-0.592-0.29L12,9.471L7.342,15.46C7.198,15.645,6.983,15.75,6.75,15.75
		c-0.166,0-0.329-0.056-0.46-0.158c-0.158-0.123-0.259-0.3-0.284-0.499c-0.025-0.199,0.029-0.395,0.152-0.553l4.658-5.989
		c0.286-0.368,0.718-0.578,1.186-0.578c0.336,0,0.654,0.109,0.92,0.316c0.097,0.076,0.186,0.164,0.262,0.262l4.658,5.99
		c0.123,0.158,0.177,0.355,0.152,0.553c-0.025,0.199-0.126,0.376-0.284,0.499C17.58,15.694,17.416,15.75,17.25,15.75z"/>
</g>
</svg>
