<?xml version="1.0" encoding="utf-8"?>
<!-- Generator: Adobe Illustrator 22.1.0, SVG Export Plug-In . SVG Version: 6.00 Build 0)  -->
<svg version="1.1" id="Regular" xmlns="http://www.w3.org/2000/svg" xmlns:xlink="http://www.w3.org/1999/xlink" x="0px" y="0px"
	 viewBox="0 0 24 24" style="enable-background:new 0 0 24 24;" xml:space="preserve">
<title>arrow-thick-right-bottom-corner-4</title>
<g>
	<path d="M3.75,24C1.682,24,0,22.318,0,20.25V3.75C0,1.682,1.682,0,3.75,0h16.5C22.318,0,24,1.682,24,3.75v16.5
		c0,2.068-1.682,3.75-3.75,3.75H3.75z M3.75,1.5C2.509,1.5,1.5,2.509,1.5,3.75v16.5c0,1.241,1.009,2.25,2.25,2.25h16.5
		c1.241,0,2.25-1.009,2.25-2.25V3.75c0-1.241-1.009-2.25-2.25-2.25H3.75z"/>
	<path d="M8.325,18c-0.601,0-1.166-0.234-1.59-0.659L5.44,16.046c-0.585-0.585-0.584-1.537,0.001-2.122
		C5.724,13.642,6.1,13.486,6.5,13.486h2.743L5.053,9.295C4.468,8.711,4.468,7.759,5.052,7.174l2.117-2.121
		c0.282-0.284,0.66-0.442,1.063-0.442c0.399,0,0.774,0.154,1.056,0.434l4.197,4.197V6.5c0-0.401,0.156-0.778,0.44-1.061
		c0.283-0.283,0.659-0.439,1.06-0.439c0.401,0,0.777,0.156,1.06,0.438l1.301,1.301c0.425,0.425,0.659,0.99,0.659,1.59v8.17
		c0,0.827-0.673,1.5-1.5,1.5H8.325z M7.795,16.281C7.935,16.42,8.128,16.5,8.325,16.5h8.18V8.33c0-0.197-0.08-0.39-0.219-0.53
		l-1.3-1.3l0,4.554c0,0.305-0.182,0.577-0.463,0.693c-0.09,0.038-0.187,0.057-0.287,0.057c-0.2,0-0.388-0.078-0.53-0.22L8.235,6.113
		l-2.121,2.12l5.47,5.472c0.215,0.215,0.279,0.536,0.163,0.817c-0.116,0.281-0.388,0.463-0.693,0.463H6.501L7.795,16.281z"/>
</g>
</svg>
