<?xml version="1.0" encoding="utf-8"?>
<!-- Generator: Adobe Illustrator 22.1.0, SVG Export Plug-In . SVG Version: 6.00 Build 0)  -->
<svg version="1.1" id="Regular" xmlns="http://www.w3.org/2000/svg" xmlns:xlink="http://www.w3.org/1999/xlink" x="0px" y="0px"
	 viewBox="0 0 24 24" style="enable-background:new 0 0 24 24;" xml:space="preserve">
<title>arrow-button-left</title>
<g>
	<path d="M15.279,24c-0.392-0.008-0.762-0.169-1.037-0.456L4.056,13.068c-0.577-0.599-0.578-1.536-0.003-2.133L14.274,0.425
		c0.287-0.276,0.653-0.424,1.039-0.424c0.408,0,0.789,0.162,1.071,0.456L19.07,3.22c0.577,0.599,0.578,1.536,0.003,2.133
		l-6.464,6.648l6.46,6.644c0.584,0.595,0.585,1.533,0.002,2.136l-2.69,2.767c0.002-0.003,0.003-0.004,0.003-0.004
		c0,0-0.021,0.021-0.026,0.027C16.068,23.85,15.7,24,15.314,24C15.31,24,15.283,24,15.279,24z M5.131,11.978
		C5.12,11.99,5.12,12.011,5.134,12.025l10.179,10.469l2.682-2.758c0.01-0.01,0.017-0.027,0.003-0.041l-6.972-7.171
		c-0.285-0.293-0.285-0.753,0-1.046l6.969-7.168c0.011-0.012,0.011-0.033-0.003-0.047l-2.679-2.756L5.131,11.978z"/>
</g>
</svg>
