<?xml version="1.0" encoding="utf-8"?>
<!-- Generator: Adobe Illustrator 22.1.0, SVG Export Plug-In . SVG Version: 6.00 Build 0)  -->
<svg version="1.1" id="Regular" xmlns="http://www.w3.org/2000/svg" xmlns:xlink="http://www.w3.org/1999/xlink" x="0px" y="0px"
	 viewBox="0 0 24 24" style="enable-background:new 0 0 24 24;" xml:space="preserve">
<title>arrow-thick-left</title>
<g>
	<path d="M12,21.999c-0.343,0-0.68-0.12-0.947-0.339L0.565,13.427c-0.086-0.071-0.155-0.139-0.217-0.214
		c-0.531-0.644-0.439-1.598,0.203-2.128l10.514-8.253c0.249-0.204,0.585-0.322,0.941-0.329c0.411,0.004,0.786,0.163,1.066,0.449
		c0.281,0.286,0.433,0.664,0.429,1.064v2.985h9c0.831,0.003,1.503,0.68,1.5,1.509v7.485c0.003,0.827-0.669,1.503-1.497,1.506h-9.003
		v2.992c0.003,0.344-0.117,0.685-0.338,0.956c-0.253,0.31-0.613,0.503-1.011,0.543C12.102,21.996,12.051,21.999,12,21.999z
		 M1.492,12.253l10.5,8.236l0.01-3.739c0-0.414,0.336-0.75,0.75-0.75h9.75V8.507l-9.75-0.006c-0.414,0-0.75-0.336-0.75-0.75V4.008
		l0.001-0.006L1.492,12.253z"/>
</g>
</svg>
