<?xml version="1.0" encoding="utf-8"?>
<!-- Generator: Adobe Illustrator 22.1.0, SVG Export Plug-In . SVG Version: 6.00 Build 0)  -->
<svg version="1.1" id="Regular" xmlns="http://www.w3.org/2000/svg" xmlns:xlink="http://www.w3.org/1999/xlink" x="0px" y="0px"
	 viewBox="0 0 24 24" style="enable-background:new 0 0 24 24;" xml:space="preserve">
<title>arrow-thick-right-3</title>
<g>
	<path d="M10.757,21.25c-0.401-0.001-0.776-0.156-1.059-0.438c-0.585-0.584-0.586-1.536-0.002-2.121l3.44-3.44H1.5
		c-0.827,0-1.5-0.673-1.5-1.5v-3c0-0.827,0.673-1.5,1.5-1.5h11.636l-3.44-3.44C9.414,5.527,9.258,5.151,9.258,4.751
		c-0.001-0.827,0.672-1.5,1.499-1.501h3.933c0.593,0,1.173,0.24,1.591,0.659l7.28,7.281C23.844,11.474,24,11.85,24,12.251
		c0,0.401-0.156,0.777-0.44,1.06l-7.28,7.281c-0.418,0.419-0.998,0.659-1.59,0.659H10.757z M1.5,13.75h13.447
		c0.304,0,0.576,0.182,0.693,0.463s0.053,0.602-0.163,0.817l-4.72,4.72l3.932,0c0.198,0,0.391-0.08,0.531-0.219l7.28-7.281
		l-7.28-7.281C15.08,4.83,14.887,4.75,14.69,4.75h-3.932l4.72,4.72c0.215,0.215,0.279,0.536,0.163,0.818
		c-0.117,0.281-0.389,0.463-0.693,0.463H1.5V13.75z"/>
</g>
</svg>
