<?xml version="1.0" encoding="utf-8"?>
<!-- Generator: Adobe Illustrator 22.1.0, SVG Export Plug-In . SVG Version: 6.00 Build 0)  -->
<svg version="1.1" id="Regular" xmlns="http://www.w3.org/2000/svg" xmlns:xlink="http://www.w3.org/1999/xlink" x="0px" y="0px"
	 viewBox="0 0 24 24" style="enable-background:new 0 0 24 24;" xml:space="preserve">
<title>arrow-dot-corner-right-1</title>
<g>
	<path d="M20.127,19.818c-0.292,0-0.569-0.111-0.779-0.313c-0.228-0.227-0.346-0.508-0.346-0.809c0-0.294,0.111-0.571,0.314-0.782
		c0.005-0.005,0.02-0.02,0.025-0.025c0.203-0.203,0.485-0.32,0.786-0.32c0.301,0,0.583,0.117,0.795,0.329s0.33,0.494,0.33,0.795
		c0,0.301-0.116,0.583-0.329,0.796C20.711,19.701,20.428,19.818,20.127,19.818z"/>
	<path d="M16.415,18.757c-0.3,0-0.582-0.116-0.794-0.328c-0.439-0.439-0.44-1.153-0.002-1.592c0.212-0.213,0.495-0.33,0.796-0.33
		c0.3,0,0.583,0.117,0.795,0.329s0.33,0.495,0.33,0.795c0,0.301-0.116,0.583-0.329,0.796C16.999,18.64,16.716,18.757,16.415,18.757z
		"/>
	<path d="M13.767,16.106c-0.3,0-0.583-0.117-0.795-0.328c-0.212-0.212-0.33-0.494-0.33-0.795c0-0.301,0.116-0.583,0.328-0.796
		c0.003-0.003,0.018-0.017,0.021-0.02c0.207-0.199,0.484-0.311,0.776-0.311c0.302,0,0.584,0.118,0.796,0.33
		c0.212,0.213,0.329,0.496,0.329,0.796c-0.001,0.301-0.118,0.583-0.331,0.795C14.35,15.989,14.068,16.106,13.767,16.106z"/>
	<path d="M8.99,16.636c-0.301,0-0.583-0.117-0.795-0.329c-0.212-0.211-0.329-0.493-0.33-0.793s0.115-0.583,0.327-0.796
		c0.004-0.004,0.017-0.016,0.021-0.02c0.201-0.198,0.481-0.312,0.777-0.312c0.3,0,0.583,0.117,0.795,0.329
		c0.439,0.438,0.439,1.152,0.001,1.591C9.574,16.519,9.292,16.636,8.99,16.636z"/>
	<path d="M6.338,19.289c-0.3,0-0.583-0.116-0.795-0.328c-0.436-0.439-0.437-1.152-0.003-1.59c0.002-0.002,0.005-0.005,0.008-0.007
		c0.212-0.209,0.492-0.324,0.79-0.324c0.301,0,0.584,0.117,0.796,0.33c0.438,0.44,0.437,1.153-0.002,1.591
		C6.92,19.173,6.638,19.289,6.338,19.289z"/>
	<path d="M11.642,19.289c-0.3,0-0.582-0.116-0.794-0.328c-0.434-0.433-0.439-1.142-0.012-1.581c0.224-0.224,0.506-0.34,0.807-0.34
		c0.301,0,0.584,0.117,0.796,0.33c0.212,0.213,0.329,0.496,0.329,0.796s-0.118,0.583-0.331,0.795
		C12.224,19.173,11.942,19.289,11.642,19.289z"/>
	<path d="M19.067,16.105c-0.3,0-0.583-0.116-0.794-0.328c-0.436-0.438-0.437-1.148-0.006-1.586c0.003-0.003,0.006-0.006,0.009-0.009
		c0.212-0.21,0.492-0.325,0.791-0.325c0.301,0,0.584,0.117,0.796,0.33c0.212,0.213,0.329,0.496,0.329,0.796
		c-0.001,0.301-0.118,0.583-0.331,0.795C19.649,15.989,19.367,16.105,19.067,16.105z"/>
	<path d="M16.415,13.454c-0.301,0-0.583-0.117-0.795-0.329c-0.212-0.211-0.33-0.493-0.33-0.794c0-0.293,0.112-0.571,0.315-0.782
		c0.227-0.228,0.509-0.345,0.81-0.345c0.301,0,0.583,0.117,0.796,0.329c0.212,0.212,0.329,0.494,0.33,0.794
		c0,0.301-0.117,0.584-0.329,0.796S16.717,13.453,16.415,13.454C16.416,13.454,16.416,13.454,16.415,13.454z"/>
	<path d="M11.112,13.454c-0.301,0-0.583-0.117-0.795-0.329c-0.438-0.439-0.439-1.153-0.001-1.591c0.212-0.213,0.495-0.33,0.795-0.33
		c0.301,0,0.584,0.117,0.796,0.329c0.212,0.212,0.329,0.494,0.33,0.795c0,0.301-0.117,0.583-0.329,0.796
		C11.695,13.337,11.412,13.454,11.112,13.454z"/>
	<path d="M13.768,10.802c-0.301,0-0.583-0.117-0.796-0.329c-0.438-0.439-0.438-1.152-0.001-1.591c0.212-0.213,0.495-0.33,0.795-0.33
		c0.301,0,0.583,0.117,0.796,0.329c0.213,0.213,0.33,0.495,0.33,0.795c0,0.3-0.117,0.583-0.329,0.796
		C14.351,10.685,14.069,10.802,13.768,10.802L13.768,10.802z"/>
	<path d="M8.46,10.802c-0.301,0-0.583-0.117-0.795-0.329c-0.438-0.439-0.439-1.153-0.001-1.591c0.212-0.213,0.495-0.33,0.795-0.33
		c0.301,0,0.583,0.117,0.796,0.329c0.213,0.212,0.33,0.495,0.33,0.795c0,0.301-0.117,0.583-0.329,0.796
		C9.044,10.685,8.762,10.802,8.46,10.802z"/>
	<path d="M11.111,8.15c-0.3,0-0.582-0.116-0.794-0.328c-0.435-0.438-0.437-1.147-0.007-1.586c0.002-0.003,0.005-0.005,0.007-0.008
		c0.212-0.212,0.495-0.328,0.794-0.328c0.302,0,0.584,0.118,0.797,0.331c0.212,0.213,0.329,0.495,0.328,0.796
		c0,0.3-0.118,0.583-0.331,0.795C11.693,8.034,11.411,8.15,11.111,8.15z"/>
	<path d="M5.808,8.15c-0.3,0-0.582-0.116-0.795-0.328C4.579,7.39,4.574,6.681,5.001,6.241c0.225-0.224,0.507-0.341,0.806-0.341
		c0.302,0,0.584,0.118,0.797,0.331c0.212,0.213,0.329,0.495,0.328,0.796c0,0.3-0.118,0.583-0.331,0.795
		C6.39,8.034,6.108,8.15,5.808,8.15z"/>
	<path d="M8.46,5.499c-0.3,0-0.583-0.117-0.795-0.328c-0.439-0.437-0.44-1.15-0.003-1.589c0.002-0.002,0.005-0.005,0.007-0.007
		c0.212-0.21,0.492-0.325,0.79-0.325c0.301,0,0.583,0.117,0.796,0.329C9.694,4.017,9.695,4.73,9.256,5.169
		C9.044,5.382,8.761,5.499,8.46,5.499z"/>
	<path d="M16.946,8.681c-0.3,0-0.583-0.117-0.795-0.329c-0.439-0.437-0.44-1.15-0.003-1.589c0.222-0.217,0.501-0.332,0.797-0.332
		c0.301,0,0.584,0.117,0.796,0.329c0.213,0.213,0.33,0.495,0.33,0.795c0,0.3-0.116,0.583-0.329,0.796S17.246,8.681,16.946,8.681
		L16.946,8.681z"/>
	<path d="M19.597,6.029c-0.3,0-0.582-0.116-0.794-0.328c-0.434-0.433-0.439-1.142-0.013-1.581c0.003-0.003,0.015-0.015,0.018-0.018
		c0.207-0.206,0.489-0.323,0.789-0.323c0.301,0,0.584,0.117,0.796,0.33c0.212,0.213,0.329,0.496,0.329,0.796
		c-0.001,0.301-0.118,0.583-0.331,0.795C20.179,5.913,19.897,6.029,19.597,6.029z"/>
	<path d="M19.597,11.332c-0.3,0-0.582-0.116-0.794-0.328c-0.431-0.43-0.439-1.137-0.017-1.576c0.003-0.003,0.018-0.018,0.021-0.021
		c0.208-0.208,0.491-0.324,0.791-0.324c0.301,0,0.584,0.117,0.797,0.33c0.212,0.213,0.329,0.495,0.328,0.796
		c-0.001,0.301-0.118,0.583-0.331,0.795C20.179,11.216,19.897,11.332,19.597,11.332z"/>
</g>
</svg>
