<?xml version="1.0" encoding="utf-8"?>
<!-- Generator: Adobe Illustrator 22.1.0, SVG Export Plug-In . SVG Version: 6.00 Build 0)  -->
<svg version="1.1" id="Regular" xmlns="http://www.w3.org/2000/svg" xmlns:xlink="http://www.w3.org/1999/xlink" x="0px" y="0px"
	 viewBox="0 0 24 24" style="enable-background:new 0 0 24 24;" xml:space="preserve">
<title>arrow-thick-circle-bottom-right-corner-2</title>
<g>
	<path d="M12,24C5.383,24,0,18.617,0,12C0,5.383,5.383,0,12,0c6.617,0,12,5.383,12,12C24,18.617,18.617,24,12,24z M12,1.5
		C6.21,1.5,1.5,6.21,1.5,12c0,5.79,4.71,10.5,10.5,10.5c5.79,0,10.5-4.71,10.5-10.5C22.5,6.21,17.79,1.5,12,1.5z"/>
	<path d="M9.3,18c-1.296,0-2.35-1.05-2.35-2.341c0.004-0.635,0.25-1.225,0.695-1.665c0.392-0.387,0.897-0.62,1.439-0.667
		l-2.441-2.441c-0.566-0.567-0.878-1.32-0.878-2.122s0.312-1.555,0.878-2.12C6.652,6.635,6.661,6.626,6.67,6.618
		c0.554-0.551,1.297-0.854,2.095-0.854c0.802,0,1.555,0.313,2.121,0.879l2.441,2.444c0.108-1.203,1.113-2.138,2.331-2.138
		c0.635,0.004,1.225,0.25,1.665,0.695c0.44,0.444,0.68,1.034,0.677,1.659V16.5c0,0.827-0.673,1.5-1.5,1.5H9.3z M9.293,14.818
		c-0.224,0-0.435,0.086-0.593,0.243c-0.16,0.158-0.248,0.369-0.25,0.594c0,0.225,0.088,0.439,0.247,0.599
		c0.159,0.159,0.37,0.247,0.594,0.247H16.5V9.3c0.001-0.228-0.085-0.441-0.243-0.6c-0.158-0.16-0.369-0.248-0.594-0.25
		c-0.465,0-0.846,0.377-0.846,0.841l0,1.6c0,0.305-0.182,0.577-0.463,0.693c-0.091,0.038-0.188,0.057-0.287,0.057
		c-0.201,0-0.389-0.078-0.531-0.22L9.825,7.704C9.542,7.421,9.166,7.265,8.766,7.265c-0.401,0-0.777,0.156-1.06,0.439
		C7.12,8.292,7.121,9.241,7.703,9.825l3.713,3.713c0.215,0.215,0.279,0.536,0.163,0.817c-0.116,0.281-0.388,0.463-0.693,0.463H9.293
		z"/>
</g>
</svg>
