<?xml version="1.0" encoding="utf-8"?>
<!-- Generator: Adobe Illustrator 22.1.0, SVG Export Plug-In . SVG Version: 6.00 Build 0)  -->
<svg version="1.1" id="Regular" xmlns="http://www.w3.org/2000/svg" xmlns:xlink="http://www.w3.org/1999/xlink" x="0px" y="0px"
	 viewBox="0 0 24 24" style="enable-background:new 0 0 24 24;" xml:space="preserve">
<title>arrow-thick-right</title>
<g>
	<path d="M12.001,21.999c-0.051,0-0.102-0.003-0.153-0.008c-0.398-0.04-0.757-0.233-1.01-0.543
		c-0.221-0.271-0.342-0.613-0.338-0.963V17.5h-9c-0.403-0.001-0.78-0.159-1.063-0.445C0.154,16.77-0.002,16.392,0,15.991V8.506
		C-0.002,8.108,0.153,7.73,0.437,7.445C0.72,7.16,1.096,7.002,1.497,7H10.5V4.008c-0.004-0.395,0.149-0.772,0.43-1.057
		c0.281-0.286,0.656-0.445,1.055-0.449c0.359,0.002,0.699,0.123,0.963,0.339l10.488,8.233c0.323,0.266,0.519,0.631,0.557,1.033
		s-0.082,0.795-0.339,1.106c-0.062,0.074-0.13,0.143-0.204,0.204l-10.514,8.253C12.679,21.88,12.345,21.999,12.001,21.999z
		 M1.5,15.994L11.25,16c0.414,0,0.75,0.336,0.75,0.75v3.742l10.51-8.245l-10.5-8.236L12,7.75c0,0.414-0.336,0.75-0.75,0.75H1.503
		C1.503,8.5,1.5,15.994,1.5,15.994z"/>
</g>
</svg>
