<?xml version="1.0" encoding="utf-8"?>
<!-- Generator: Adobe Illustrator 22.1.0, SVG Export Plug-In . SVG Version: 6.00 Build 0)  -->
<svg version="1.1" id="Regular" xmlns="http://www.w3.org/2000/svg" xmlns:xlink="http://www.w3.org/1999/xlink" x="0px" y="0px"
	 viewBox="0 0 24 24" style="enable-background:new 0 0 24 24;" xml:space="preserve">
<title>arrow-thick-left-bottom-corner-4</title>
<g>
	<path d="M3.75,24C1.682,24,0,22.318,0,20.25V3.75C0,1.682,1.682,0,3.75,0h16.5C22.318,0,24,1.682,24,3.75v16.5
		c0,2.068-1.682,3.75-3.75,3.75H3.75z M3.75,1.5C2.509,1.5,1.5,2.509,1.5,3.75v16.5c0,1.241,1.009,2.25,2.25,2.25h16.5
		c1.241,0,2.25-1.009,2.25-2.25V3.75c0-1.241-1.009-2.25-2.25-2.25H3.75z"/>
	<path d="M7.5,18C6.673,18,6,17.327,6,16.5V8.33c0-0.601,0.234-1.165,0.658-1.59l1.294-1.299c0.284-0.284,0.66-0.44,1.06-0.44
		c0.828,0,1.501,0.672,1.502,1.499v2.744l4.187-4.187c0.292-0.29,0.668-0.445,1.067-0.445c0.403,0,0.781,0.157,1.065,0.443
		l2.115,2.12c0.283,0.283,0.439,0.66,0.439,1.061c0,0.401-0.156,0.777-0.439,1.061l-4.191,4.191h2.748
		c0.4,0,0.776,0.156,1.059,0.438c0.585,0.584,0.586,1.536,0.001,2.121l-1.301,1.296C16.84,17.766,16.276,18,15.675,18H7.5z
		 M7.72,7.799C7.578,7.942,7.5,8.13,7.5,8.33v8.17h8.175c0.2,0,0.388-0.078,0.53-0.219l1.301-1.296l-4.56,0.001
		c-0.304,0-0.576-0.182-0.693-0.463c-0.117-0.281-0.053-0.602,0.163-0.817l5.471-5.471l-2.117-2.122l-5.475,5.471
		c-0.141,0.142-0.33,0.22-0.53,0.22c-0.099,0-0.196-0.019-0.287-0.057c-0.281-0.116-0.463-0.388-0.463-0.693V6.501L7.72,7.799z"/>
</g>
</svg>
