<?xml version="1.0" encoding="utf-8"?>
<!-- Generator: Adobe Illustrator 22.1.0, SVG Export Plug-In . SVG Version: 6.00 Build 0)  -->
<svg version="1.1" id="Regular" xmlns="http://www.w3.org/2000/svg" xmlns:xlink="http://www.w3.org/1999/xlink" x="0px" y="0px"
	 viewBox="0 0 24 24" style="enable-background:new 0 0 24 24;" xml:space="preserve">
<title>arrow-rectangle-right</title>
<g>
	<path d="M2.75,24C1.234,24,0,22.766,0,21.25V2.75C0,1.234,1.234,0,2.75,0h18.5C22.766,0,24,1.234,24,2.75v18.5
		c0,1.516-1.234,2.75-2.75,2.75H2.75z M2.75,1.5C2.061,1.5,1.5,2.061,1.5,2.75v18.5c0,0.689,0.561,1.25,1.25,1.25h18.5
		c0.689,0,1.25-0.561,1.25-1.25V2.75c0-0.689-0.561-1.25-1.25-1.25H2.75z"/>
	<path d="M9,18c-0.233,0-0.449-0.105-0.592-0.289c-0.123-0.158-0.177-0.355-0.152-0.554c0.025-0.199,0.126-0.376,0.284-0.499
		L14.529,12L8.54,7.342C8.213,7.088,8.154,6.616,8.408,6.289C8.551,6.106,8.766,6,9,6c0.166,0,0.329,0.056,0.46,0.158l5.989,4.658
		c0.653,0.508,0.771,1.452,0.263,2.105c-0.077,0.099-0.165,0.187-0.262,0.262l-5.99,4.658C9.329,17.944,9.166,18,9,18z"/>
</g>
</svg>
