<?xml version="1.0" encoding="utf-8"?>
<!-- Generator: Adobe Illustrator 22.1.0, SVG Export Plug-In . SVG Version: 6.00 Build 0)  -->
<svg version="1.1" id="Regular" xmlns="http://www.w3.org/2000/svg" xmlns:xlink="http://www.w3.org/1999/xlink" x="0px" y="0px"
	 viewBox="0 0 24 24" style="enable-background:new 0 0 24 24;" xml:space="preserve">
<title>arrow-corner-left</title>
<g>
	<path d="M4.25,20.41c-0.088,0-0.175-0.016-0.26-0.047c-0.008-0.003-0.015-0.005-0.022-0.008c-0.188-0.077-0.336-0.226-0.412-0.41
		c-0.003-0.007-0.006-0.015-0.009-0.023C3.517,19.841,3.5,19.751,3.5,19.66v-15c0-0.414,0.336-0.75,0.75-0.75S5,4.246,5,4.66v13.19
		L19.63,3.22C19.771,3.078,19.96,3,20.16,3s0.389,0.078,0.53,0.22c0.142,0.141,0.22,0.33,0.22,0.53s-0.078,0.389-0.22,0.53
		L6.061,18.91H19.25c0.414,0,0.75,0.336,0.75,0.75s-0.336,0.75-0.75,0.75H4.25z"/>
</g>
</svg>
