<?xml version="1.0" encoding="utf-8"?>
<!-- Generator: Adobe Illustrator 22.1.0, SVG Export Plug-In . SVG Version: 6.00 Build 0)  -->
<svg version="1.1" id="Regular" xmlns="http://www.w3.org/2000/svg" xmlns:xlink="http://www.w3.org/1999/xlink" x="0px" y="0px"
	 viewBox="0 0 24 24" style="enable-background:new 0 0 24 24;" xml:space="preserve">
<title>arrow-double-up-1</title>
<g>
	<path d="M18.967,10.349c-0.393,0-0.766-0.105-1.08-0.305l-6.138-3.906l-6.135,3.906c-0.314,0.2-0.688,0.305-1.08,0.305l0,0
		c-0.351,0-0.693-0.086-0.99-0.249C3.039,9.823,2.75,9.366,2.75,8.846V6.435c0.037-0.764,0.442-1.424,1.083-1.783l6.834-4.347
		c0.337-0.2,0.709-0.302,1.085-0.302c0.372,0,0.738,0.1,1.058,0.29l6.892,4.381c0.612,0.341,1.01,0.99,1.047,1.725l0.001,2.448
		c0,0.52-0.289,0.977-0.794,1.254C19.66,10.263,19.317,10.349,18.967,10.349z M4.266,8.786C4.338,8.825,4.44,8.848,4.54,8.848
		c0.073,0,0.178-0.012,0.269-0.07l6.538-4.162c0.121-0.077,0.26-0.117,0.403-0.117c0.143,0,0.282,0.041,0.403,0.117l6.54,4.162
		c0.091,0.058,0.196,0.07,0.268,0.07c0.1,0,0.202-0.023,0.274-0.063c0.006-0.003,0.011-0.006,0.016-0.009V6.435
		c-0.01-0.182-0.131-0.371-0.316-0.474L12.026,1.57c-0.074-0.043-0.172-0.07-0.273-0.07c-0.106,0-0.209,0.028-0.3,0.082l-6.85,4.356
		C4.382,6.063,4.26,6.254,4.249,6.472L4.25,8.776C4.255,8.779,4.26,8.782,4.266,8.786z"/>
	<path d="M18.967,18.753c-0.392,0-0.766-0.106-1.08-0.306l-6.137-3.906l-6.136,3.906c-0.314,0.2-0.688,0.305-1.081,0.305
		c-0.351,0-0.693-0.086-0.99-0.249C3.039,18.226,2.75,17.77,2.75,17.25v-1.771c0.037-0.765,0.442-1.425,1.084-1.784l6.83-4.348
		c0.338-0.199,0.709-0.302,1.085-0.302c0.371,0,0.737,0.1,1.057,0.288l6.889,4.384c0.612,0.341,1.01,0.99,1.046,1.725l0.001,1.808
		c0.006,0.505-0.285,0.973-0.779,1.249C19.665,18.665,19.32,18.753,18.967,18.753z M11.75,12.902c0.143,0,0.282,0.041,0.403,0.117
		l6.539,4.162c0.091,0.058,0.197,0.07,0.269,0.07c0.1,0,0.201-0.023,0.272-0.063c0.003-0.002,0.007-0.004,0.01-0.005v-1.704
		c-0.01-0.182-0.131-0.371-0.316-0.474l-6.904-4.392c-0.073-0.043-0.171-0.069-0.273-0.069c-0.106,0-0.211,0.028-0.302,0.082
		l-6.845,4.357c-0.22,0.124-0.343,0.315-0.354,0.533l0.001,1.663c0.005,0.003,0.01,0.006,0.016,0.01
		c0.071,0.039,0.173,0.062,0.273,0.062c0.073,0,0.179-0.012,0.27-0.07l6.538-4.162C11.468,12.943,11.607,12.902,11.75,12.902z"/>
	<path d="M4.25,24.001c-0.245,0-0.474-0.119-0.615-0.32c-0.115-0.164-0.159-0.364-0.124-0.561s0.144-0.369,0.309-0.484l7.5-5.25
		c0.127-0.089,0.276-0.136,0.43-0.136s0.303,0.047,0.43,0.135l7.5,5.25c0.164,0.115,0.274,0.287,0.308,0.484
		c0.035,0.198-0.009,0.396-0.124,0.561c-0.14,0.2-0.369,0.32-0.615,0.32c-0.155,0-0.303-0.047-0.43-0.136l-7.07-4.948l-7.07,4.949
		C4.554,23.954,4.405,24.001,4.25,24.001z"/>
</g>
</svg>
