<?xml version="1.0" encoding="utf-8"?>
<!-- Generator: Adobe Illustrator 22.1.0, SVG Export Plug-In . SVG Version: 6.00 Build 0)  -->
<svg version="1.1" id="Regular" xmlns="http://www.w3.org/2000/svg" xmlns:xlink="http://www.w3.org/1999/xlink" x="0px" y="0px"
	 viewBox="0 0 24 24" style="enable-background:new 0 0 24 24;" xml:space="preserve">
<title>arrow-button-left-3</title>
<g>
	<path d="M13.507,24c-0.687,0-1.327-0.308-1.756-0.844L3.576,12.938c-0.44-0.552-0.441-1.323,0-1.875l8.176-10.219
		C12.18,0.308,12.82,0,13.507,0h5.219c0.401,0,0.777,0.156,1.061,0.438c0.283,0.283,0.44,0.66,0.44,1.06
		c0,0.34-0.116,0.674-0.329,0.939L12.248,12l7.65,9.562c0.25,0.313,0.364,0.704,0.32,1.102c-0.044,0.398-0.241,0.755-0.553,1.006
		C19.401,23.883,19.068,24,18.727,24H13.507z M13.508,1.5c-0.229,0-0.442,0.103-0.586,0.282L4.747,12l8.175,10.219
		c0.143,0.179,0.357,0.282,0.585,0.282h5.219l-8.025-10.031c-0.221-0.276-0.221-0.661,0-0.937L18.727,1.5L13.508,1.5L13.508,1.5z"/>
</g>
</svg>
