<?xml version="1.0" encoding="utf-8"?>
<!-- Generator: Adobe Illustrator 22.1.0, SVG Export Plug-In . SVG Version: 6.00 Build 0)  -->
<svg version="1.1" id="Regular" xmlns="http://www.w3.org/2000/svg" xmlns:xlink="http://www.w3.org/1999/xlink" x="0px" y="0px"
	 viewBox="0 0 24 24" style="enable-background:new 0 0 24 24;" xml:space="preserve">
<title>arrow-thick-left-3</title>
<g>
	<path d="M9.312,21c-0.602,0-1.166-0.234-1.591-0.658l-7.28-7.281c-0.584-0.584-0.585-1.535-0.001-2.119l7.281-7.282
		C8.146,3.234,8.711,3,9.312,3h3.932c0.401,0,0.778,0.157,1.061,0.44c0.283,0.284,0.438,0.661,0.438,1.061
		c0,0.399-0.156,0.775-0.438,1.058L10.865,9h11.636c0.827,0,1.5,0.673,1.5,1.5v3c0,0.827-0.673,1.5-1.5,1.5H10.865l3.44,3.44
		c0.283,0.283,0.439,0.66,0.438,1.062c0,0.401-0.156,0.778-0.44,1.06c-0.282,0.282-0.658,0.438-1.058,0.438
		C13.245,21,9.312,21,9.312,21z M9.312,4.5c-0.2,0-0.389,0.078-0.531,0.219L1.501,12l7.28,7.281c0.141,0.141,0.33,0.219,0.53,0.219
		h3.933l-4.72-4.72c-0.215-0.215-0.279-0.536-0.163-0.817C8.478,13.682,8.75,13.5,9.054,13.5h13.447v-3H9.054
		c-0.305,0-0.577-0.182-0.693-0.463C8.245,9.756,8.308,9.435,8.524,9.22l4.72-4.72L9.312,4.5z"/>
</g>
</svg>
