<?xml version="1.0" encoding="utf-8"?>
<!-- Generator: Adobe Illustrator 22.1.0, SVG Export Plug-In . SVG Version: 6.00 Build 0)  -->
<svg version="1.1" id="Regular" xmlns="http://www.w3.org/2000/svg" xmlns:xlink="http://www.w3.org/1999/xlink" x="0px" y="0px"
	 viewBox="0 0 24 24" style="enable-background:new 0 0 24 24;" xml:space="preserve">
<title>arrow-button-up-3</title>
<g>
	<path d="M1.502,19.478c-0.055,0-0.111-0.003-0.167-0.009c-0.399-0.044-0.756-0.241-1.006-0.553C0.117,18.651,0,18.317,0,17.976
		v-5.219c0-0.687,0.308-1.327,0.844-1.757l10.218-8.175c0.267-0.213,0.6-0.33,0.938-0.33s0.67,0.117,0.937,0.33l10.219,8.175
		c0.537,0.43,0.844,1.07,0.844,1.757v5.219c0,0.4-0.155,0.777-0.438,1.06c-0.283,0.284-0.66,0.44-1.061,0.44
		c-0.341,0-0.674-0.117-0.939-0.329L12,11.498l-9.562,7.65C2.169,19.364,1.845,19.478,1.502,19.478z M12,9.788
		c0.17,0,0.336,0.058,0.469,0.164L22.5,17.977l0-5.22c0-0.229-0.103-0.442-0.282-0.585L12,3.997l0-0.375l0,0.375
		c0,0-10.219,8.175-10.219,8.175C1.603,12.316,1.5,12.529,1.5,12.758v5.219l10.031-8.025C11.664,9.846,11.83,9.788,12,9.788z"/>
</g>
</svg>
