<?xml version="1.0" encoding="utf-8"?>
<!-- Generator: Adobe Illustrator 22.1.0, SVG Export Plug-In . SVG Version: 6.00 Build 0)  -->
<svg version="1.1" id="Regular" xmlns="http://www.w3.org/2000/svg" xmlns:xlink="http://www.w3.org/1999/xlink" x="0px" y="0px"
	 viewBox="0 0 24 24" style="enable-background:new 0 0 24 24;" xml:space="preserve">
<title>arrow-double-up</title>
<g>
	<path d="M19.247,12.608c-0.285,0-0.562-0.081-0.801-0.233L11.75,8.113l-6.697,4.261c-0.242,0.152-0.518,0.231-0.8,0.231
		c-0.521,0-0.997-0.263-1.273-0.703c-0.149-0.237-0.228-0.511-0.229-0.791V6.547C2.752,5.771,3.145,5.061,3.8,4.648l6.742-4.293
		c0.36-0.229,0.778-0.35,1.208-0.35c0.43,0,0.847,0.121,1.207,0.35l6.75,4.3c0.65,0.413,1.039,1.119,1.042,1.89v4.564
		c-0.001,0.402-0.157,0.779-0.442,1.062c-0.283,0.282-0.659,0.438-1.059,0.438H19.247z M11.75,6.474
		c0.143,0,0.282,0.041,0.403,0.117l7.097,4.517l0-4.561c-0.001-0.254-0.131-0.489-0.347-0.627l-6.75-4.3
		c-0.119-0.076-0.258-0.116-0.402-0.116c-0.144,0-0.283,0.04-0.403,0.116L4.603,5.915C4.382,6.054,4.251,6.291,4.25,6.549v4.559
		l7.097-4.517C11.468,6.515,11.607,6.474,11.75,6.474z"/>
	<path d="M19.247,24.002c-0.284,0-0.561-0.081-0.801-0.233l-6.696-4.261l-6.697,4.26C4.81,23.92,4.534,24,4.253,24
		c-0.113,0-0.226-0.013-0.337-0.038c-0.391-0.089-0.723-0.326-0.936-0.666c-0.149-0.238-0.228-0.511-0.229-0.791v-4.563
		c0.001-0.777,0.394-1.487,1.05-1.9l6.748-4.293c0.36-0.229,0.778-0.35,1.208-0.35c0.43,0,0.847,0.121,1.208,0.35l6.75,4.301
		c0.649,0.416,1.036,1.123,1.037,1.893v4.561c-0.001,0.827-0.675,1.5-1.501,1.5H19.247z M11.75,17.868
		c0.143,0,0.282,0.041,0.403,0.117l7.097,4.517l0-4.56c0-0.256-0.129-0.491-0.345-0.63l-6.748-4.299
		c-0.119-0.076-0.259-0.116-0.402-0.116s-0.283,0.04-0.402,0.116l-6.75,4.295c-0.221,0.139-0.352,0.376-0.353,0.635v4.558
		l7.097-4.517C11.468,17.909,11.607,17.868,11.75,17.868z"/>
</g>
</svg>
