<?xml version="1.0" encoding="utf-8"?>
<!-- Generator: Adobe Illustrator 22.1.0, SVG Export Plug-In . SVG Version: 6.00 Build 0)  -->
<svg version="1.1" id="Regular" xmlns="http://www.w3.org/2000/svg" xmlns:xlink="http://www.w3.org/1999/xlink" x="0px" y="0px"
	 viewBox="0 0 24 24" style="enable-background:new 0 0 24 24;" xml:space="preserve">
<title>arrow-button-circle-up-1</title>
<g>
	<path d="M12,24C5.383,24,0,18.617,0,12C0,5.383,5.383,0,12,0c6.617,0,12,5.383,12,12C24,18.617,18.617,24,12,24z M12,1.5
		C6.21,1.5,1.5,6.21,1.5,12c0,5.79,4.71,10.5,10.5,10.5c5.79,0,10.5-4.71,10.5-10.5C22.5,6.21,17.79,1.5,12,1.5z"/>
	<path d="M15.721,16.5c-0.687,0-1.327-0.308-1.757-0.845L12,13.201l-1.964,2.455c-0.43,0.537-1.07,0.844-1.757,0.844H6.1
		c-0.401-0.001-0.778-0.157-1.061-0.441c-0.283-0.284-0.438-0.661-0.438-1.062c0-0.349,0.124-0.689,0.347-0.957l5.9-7.079
		c0.287-0.342,0.707-0.538,1.153-0.538c0.351,0,0.693,0.124,0.962,0.349c0.069,0.057,0.133,0.122,0.19,0.191l5.899,7.078
		c0.257,0.308,0.378,0.697,0.341,1.096c-0.037,0.399-0.226,0.76-0.534,1.016c-0.268,0.224-0.609,0.347-0.959,0.347H15.721z
		 M12,11.25c0.229,0,0.443,0.103,0.586,0.282l2.55,3.187C15.279,14.897,15.492,15,15.721,15h2.18l-5.9-7.079L6.101,15l2.178,0
		c0.229,0,0.442-0.103,0.585-0.281l2.55-3.187C11.557,11.353,11.771,11.25,12,11.25z"/>
</g>
</svg>
