<?xml version="1.0" encoding="utf-8"?>
<!-- Generator: Adobe Illustrator 22.1.0, SVG Export Plug-In . SVG Version: 6.00 Build 0)  -->
<svg version="1.1" id="Regular" xmlns="http://www.w3.org/2000/svg" xmlns:xlink="http://www.w3.org/1999/xlink" x="0px" y="0px"
	 viewBox="0 0 24 24" style="enable-background:new 0 0 24 24;" xml:space="preserve">
<title>arrow-thick-left-4</title>
<g>
	<path d="M3.75,24C1.682,24,0,22.318,0,20.25V3.75C0,1.682,1.682,0,3.75,0h16.5C22.318,0,24,1.682,24,3.75v16.5
		c0,2.068-1.682,3.75-3.75,3.75H3.75z M3.75,1.5C2.509,1.5,1.5,2.509,1.5,3.75v16.5c0,1.241,1.009,2.25,2.25,2.25h16.5
		c1.241,0,2.25-1.009,2.25-2.25V3.75c0-1.241-1.009-2.25-2.25-2.25H3.75z"/>
	<path d="M11.121,19.5c-0.601,0-1.166-0.234-1.59-0.659L3.75,13.06c-0.284-0.284-0.44-0.661-0.439-1.061
		c0-0.4,0.156-0.776,0.44-1.06l5.781-5.781C9.955,4.734,10.52,4.5,11.121,4.5h2.068c0.401,0,0.777,0.156,1.061,0.439
		c0.283,0.283,0.44,0.66,0.44,1.06c0,0.401-0.156,0.777-0.438,1.061L12.311,9H18c0.827,0,1.5,0.673,1.5,1.5v3
		c0,0.827-0.673,1.5-1.5,1.5h-5.689l1.94,1.94c0.279,0.279,0.439,0.666,0.439,1.061c0,0.827-0.673,1.5-1.5,1.5H11.121z M11.121,6
		c-0.2,0-0.388,0.078-0.53,0.219L4.81,12l5.781,5.781C10.731,17.92,10.924,18,11.121,18h2.068L9.97,14.78
		c-0.215-0.215-0.279-0.536-0.163-0.817C9.923,13.682,10.195,13.5,10.5,13.5H18v-3h-7.5c-0.305,0-0.577-0.182-0.693-0.463
		C9.69,9.756,9.754,9.435,9.97,9.22L13.19,6L11.121,6z"/>
</g>
</svg>
