<?xml version="1.0" encoding="utf-8"?>
<!-- Generator: Adobe Illustrator 22.1.0, SVG Export Plug-In . SVG Version: 6.00 Build 0)  -->
<svg version="1.1" id="Regular" xmlns="http://www.w3.org/2000/svg" xmlns:xlink="http://www.w3.org/1999/xlink" x="0px" y="0px"
	 viewBox="0 0 24 24" style="enable-background:new 0 0 24 24;" xml:space="preserve">
<title>arrow-double-right-1</title>
<g>
	<path d="M15.151,20.75c-0.52,0-0.977-0.289-1.254-0.794c-0.349-0.636-0.327-1.468,0.056-2.07l3.906-6.137l-3.906-6.135
		c-0.383-0.603-0.406-1.434-0.056-2.07c0.277-0.505,0.734-0.794,1.254-0.794h2.411c0.764,0.037,1.424,0.442,1.783,1.083l4.347,6.83
		c0.398,0.671,0.4,1.488,0.013,2.143l-4.376,6.896c-0.342,0.613-0.99,1.011-1.725,1.047L15.151,20.75z M17.567,19.25
		c0.182-0.01,0.371-0.131,0.475-0.316l4.385-6.912c0.097-0.164,0.095-0.394-0.012-0.574l-4.356-6.846
		c-0.123-0.217-0.31-0.339-0.525-0.353l-2.312,0c-0.003,0.005-0.006,0.01-0.01,0.016c-0.075,0.137-0.094,0.383,0.007,0.542
		l4.162,6.537c0.156,0.245,0.156,0.561,0,0.805l-4.162,6.54c-0.101,0.159-0.083,0.405-0.007,0.542
		c0.003,0.006,0.007,0.011,0.01,0.016H17.567z"/>
	<path d="M6.747,20.75c-0.52,0-0.976-0.289-1.253-0.793c-0.349-0.636-0.327-1.468,0.056-2.07l3.906-6.137L5.55,5.614
		C5.168,5.011,5.145,4.179,5.494,3.543C5.771,3.039,6.228,2.75,6.747,2.75h1.771c0.764,0.037,1.424,0.442,1.784,1.084l4.348,6.831
		c0.396,0.671,0.399,1.487,0.013,2.141l-4.383,6.896c-0.341,0.612-0.99,1.01-1.725,1.047L6.747,20.75z M8.518,19.25
		c0.182-0.01,0.371-0.131,0.474-0.316l4.392-6.911c0.096-0.164,0.094-0.394-0.013-0.575L9.014,4.603
		c-0.123-0.218-0.31-0.34-0.525-0.353l-1.672,0C6.815,4.255,6.812,4.26,6.809,4.266C6.734,4.403,6.715,4.649,6.816,4.809
		l4.162,6.538c0.156,0.245,0.156,0.561,0,0.805l-4.162,6.539c-0.101,0.159-0.083,0.406-0.007,0.543
		c0.003,0.006,0.006,0.011,0.009,0.015H8.518z"/>
	<path d="M0.746,20c-0.154,0-0.303-0.047-0.43-0.136c-0.164-0.115-0.274-0.287-0.308-0.484s0.009-0.396,0.124-0.561l4.949-7.07
		L0.132,4.68C0.017,4.516-0.027,4.317,0.008,4.12C0.042,3.922,0.152,3.75,0.316,3.635C0.443,3.547,0.592,3.5,0.746,3.5
		c0.245,0,0.474,0.12,0.615,0.32l5.25,7.5c0.18,0.257,0.18,0.603,0,0.86l-5.25,7.5C1.221,19.88,0.991,20,0.746,20z"/>
</g>
</svg>
