<?xml version="1.0" encoding="utf-8"?>
<!-- Generator: Adobe Illustrator 22.1.0, SVG Export Plug-In . SVG Version: 6.00 Build 0)  -->
<svg version="1.1" id="Regular" xmlns="http://www.w3.org/2000/svg" xmlns:xlink="http://www.w3.org/1999/xlink" x="0px" y="0px"
	 viewBox="0 0 24 24" style="enable-background:new 0 0 24 24;" xml:space="preserve">
<title>arrow-thick-left-bottom-corner-3</title>
<g>
	<path d="M4.09,21.41c-0.827,0-1.5-0.673-1.5-1.5V9.721c0-0.601,0.234-1.166,0.659-1.591l2.781-2.78
		C6.313,5.067,6.688,4.911,7.088,4.91c0.402,0,0.778,0.156,1.061,0.439c0.283,0.283,0.44,0.66,0.44,1.06v4.758l8.228-8.228
		c0.284-0.284,0.661-0.44,1.061-0.44c0.401,0,0.778,0.156,1.061,0.44L21.06,5.06c0.284,0.284,0.44,0.661,0.439,1.061
		c0,0.4-0.156,0.777-0.439,1.06l-8.228,8.228h4.757c0.401,0.001,0.777,0.156,1.059,0.439c0.585,0.584,0.586,1.536,0.002,2.121
		l-2.781,2.781c-0.425,0.425-0.99,0.659-1.59,0.659H4.09z M4.309,9.19C4.168,9.332,4.09,9.52,4.09,9.721V19.91h10.189
		c0.201,0,0.389-0.078,0.531-0.219l2.78-2.781l-6.568,0c-0.305,0-0.577-0.182-0.693-0.463c-0.117-0.281-0.053-0.602,0.163-0.817
		L20,6.122C19.996,6.118,17.878,4,17.878,4L8.37,13.508c-0.141,0.142-0.33,0.22-0.53,0.22c-0.099,0-0.196-0.019-0.287-0.057
		c-0.281-0.117-0.463-0.389-0.463-0.693V6.411L4.309,9.19z"/>
</g>
</svg>
