<?xml version="1.0" encoding="utf-8"?>
<!-- Generator: Adobe Illustrator 22.1.0, SVG Export Plug-In . SVG Version: 6.00 Build 0)  -->
<svg version="1.1" id="Regular" xmlns="http://www.w3.org/2000/svg" xmlns:xlink="http://www.w3.org/1999/xlink" x="0px" y="0px"
	 viewBox="0 0 24 24" style="enable-background:new 0 0 24 24;" xml:space="preserve">
<title>arrow-button-circle-down-1</title>
<g>
	<path d="M12,24C5.383,24,0,18.617,0,12C0,5.383,5.383,0,12,0c6.617,0,12,5.383,12,12C24,18.617,18.617,24,12,24z M12,1.5
		C6.21,1.5,1.5,6.21,1.5,12c0,5.79,4.71,10.5,10.5,10.5c5.79,0,10.5-4.71,10.5-10.5C22.5,6.21,17.79,1.5,12,1.5z"/>
	<path d="M11.997,17.578c-0.35,0-0.692-0.124-0.961-0.35c-0.067-0.056-0.13-0.119-0.187-0.187l-5.9-7.082
		C4.692,9.652,4.571,9.263,4.608,8.864c0.036-0.399,0.226-0.76,0.534-1.016C5.41,7.624,5.75,7.5,6.099,7.5h2.18
		c0.687,0,1.327,0.308,1.757,0.844L12,10.8l1.965-2.455C14.394,7.808,15.034,7.5,15.721,7.5H17.9
		c0.402,0.001,0.778,0.157,1.061,0.441c0.283,0.284,0.438,0.661,0.438,1.061c0,0.349-0.124,0.688-0.347,0.957l-5.901,7.079
		c-0.258,0.309-0.62,0.498-1.019,0.533C12.086,17.576,12.042,17.578,11.997,17.578z M11.999,16.079L17.899,9l-2.178,0
		c-0.229,0-0.442,0.103-0.585,0.281l-2.551,3.187c-0.139,0.174-0.353,0.274-0.585,0.274c-0.233,0-0.446-0.1-0.586-0.274l-2.55-3.187
		C8.721,9.103,8.508,9,8.279,9L6.102,9L11.999,16.079z"/>
</g>
</svg>
