<?xml version="1.0" encoding="utf-8"?>
<!-- Generator: Adobe Illustrator 22.1.0, SVG Export Plug-In . SVG Version: 6.00 Build 0)  -->
<svg version="1.1" id="Regular" xmlns="http://www.w3.org/2000/svg" xmlns:xlink="http://www.w3.org/1999/xlink" x="0px" y="0px"
	 viewBox="0 0 24 24" style="enable-background:new 0 0 24 24;" xml:space="preserve">
<title>arrow-button-right-3</title>
<g>
	<path d="M5.754,24c-0.827,0-1.5-0.673-1.5-1.5c0-0.34,0.117-0.672,0.329-0.938L12.234,12l-7.65-9.562
		C4.066,1.792,4.171,0.847,4.816,0.329C5.082,0.117,5.415,0,5.754,0h5.219C11.66,0,12.3,0.308,12.73,0.844l8.175,10.218
		c0.441,0.552,0.441,1.323,0.001,1.874L12.73,23.156C12.3,23.692,11.66,24,10.973,24H5.754z M5.754,22.5l5.219,0
		c0.229,0,0.442-0.103,0.585-0.281L19.734,12L11.558,1.781C11.415,1.603,11.202,1.5,10.973,1.5H5.754l8.026,10.031
		c0.221,0.276,0.221,0.661,0,0.937L5.754,22.5l-0.292-0.235C5.462,22.265,5.754,22.5,5.754,22.5z"/>
</g>
</svg>
