<?xml version="1.0" encoding="utf-8"?>
<!-- Generator: Adobe Illustrator 22.1.0, SVG Export Plug-In . SVG Version: 6.00 Build 0)  -->
<svg version="1.1" id="Regular" xmlns="http://www.w3.org/2000/svg" xmlns:xlink="http://www.w3.org/1999/xlink" x="0px" y="0px"
	 viewBox="0 0 24 24" style="enable-background:new 0 0 24 24;" xml:space="preserve">
<title>arrow-button-up-2</title>
<g>
	<path d="M2.236,21.75c-0.265-0.005-0.518-0.074-0.738-0.201c-0.347-0.2-0.595-0.524-0.699-0.911
		c-0.104-0.387-0.05-0.791,0.15-1.138l9.759-17.242c0.133-0.238,0.331-0.436,0.571-0.569c0.22-0.122,0.468-0.187,0.718-0.187
		c0.137,0,0.274,0.019,0.407,0.057c0.38,0.108,0.695,0.358,0.887,0.703l9.761,17.244c0.124,0.215,0.193,0.465,0.198,0.719
		c0.006,0.401-0.143,0.781-0.422,1.068c-0.278,0.288-0.652,0.45-1.053,0.457c-0.002,0-0.004,0-0.006,0H2.236z M2.252,20.244
		l19.51,0.005L11.999,3.023L2.252,20.244z"/>
</g>
</svg>
