<?xml version="1.0" encoding="utf-8"?>
<!-- Generator: Adobe Illustrator 22.1.0, SVG Export Plug-In . SVG Version: 6.00 Build 0)  -->
<svg version="1.1" id="Regular" xmlns="http://www.w3.org/2000/svg" xmlns:xlink="http://www.w3.org/1999/xlink" x="0px" y="0px"
	 viewBox="0 0 24 24" style="enable-background:new 0 0 24 24;" xml:space="preserve">
<title>arrow-circle-right</title>
<g>
	<path d="M12,24C5.383,24,0,18.617,0,12C0,5.383,5.383,0,12,0c6.617,0,12,5.383,12,12C24,18.617,18.617,24,12,24z M12,1.5
		C6.21,1.5,1.5,6.21,1.5,12c0,5.79,4.71,10.5,10.5,10.5c5.79,0,10.5-4.71,10.5-10.5C22.5,6.21,17.79,1.5,12,1.5z"/>
	<path d="M9,18c-0.258,0-0.495-0.13-0.633-0.347c-0.108-0.169-0.143-0.37-0.099-0.566c0.043-0.196,0.161-0.363,0.33-0.47L15.853,12
		L8.597,7.383c-0.169-0.108-0.286-0.275-0.33-0.47S8.26,6.516,8.367,6.347C8.506,6.13,8.743,6,9,6c0.142,0,0.281,0.04,0.402,0.117
		l7.257,4.617c0.186,0.119,0.34,0.273,0.458,0.458c0.216,0.339,0.287,0.74,0.201,1.132c-0.086,0.392-0.32,0.726-0.658,0.942
		l-7.257,4.617C9.283,17.959,9.143,18,9,18z"/>
</g>
</svg>
