<?xml version="1.0" encoding="utf-8"?>
<!-- Generator: Adobe Illustrator 22.1.0, SVG Export Plug-In . SVG Version: 6.00 Build 0)  -->
<svg version="1.1" id="Regular" xmlns="http://www.w3.org/2000/svg" xmlns:xlink="http://www.w3.org/1999/xlink" x="0px" y="0px"
	 viewBox="0 0 24 24" style="enable-background:new 0 0 24 24;" xml:space="preserve">
<title>arrow-thick-left-2</title>
<g>
	<path d="M9.891,22.29c-0.802,0-1.555-0.313-2.121-0.881l-6.891-6.897C0.312,13.946,0,13.192,0,12.391
		c0-0.801,0.312-1.555,0.879-2.121L7.77,3.379c0.564-0.565,1.314-0.877,2.113-0.88c0.003,0,0.007,0,0.01,0
		c0.801,0,1.554,0.312,2.121,0.878c0.567,0.567,0.88,1.32,0.88,2.122c0,0.802-0.311,1.555-0.878,2.122l-1.773,1.773H21
		c1.654,0,3,1.346,3,3c0,0.805-0.313,1.558-0.88,2.124c-0.566,0.565-1.318,0.876-2.118,0.876H10.241l1.774,1.776
		c0.566,0.567,0.878,1.321,0.877,2.123s-0.313,1.555-0.88,2.121c-0.566,0.566-1.319,0.877-2.12,0.877H9.891z M9.892,3.999
		c-0.401,0-0.778,0.156-1.061,0.44L1.939,11.33C1.656,11.614,1.5,11.99,1.5,12.391c0,0.401,0.156,0.777,0.439,1.061l6.891,6.898
		c0.283,0.284,0.66,0.44,1.061,0.441c0.401,0,0.778-0.156,1.061-0.439c0.284-0.283,0.44-0.66,0.44-1.06
		c0-0.401-0.156-0.778-0.439-1.062l-3.053-3.056c-0.215-0.216-0.279-0.537-0.162-0.817c0.117-0.281,0.389-0.463,0.693-0.463H21
		c0.402,0,0.778-0.156,1.06-0.438c0.283-0.283,0.439-0.659,0.44-1.059c0,0,0-0.003,0-0.003c0-0.827-0.673-1.5-1.5-1.5H8.432
		c-0.305,0-0.577-0.182-0.693-0.463C7.622,10.15,7.686,9.829,7.902,9.614l3.053-3.053c0.283-0.283,0.439-0.66,0.439-1.062
		c0-0.401-0.156-0.778-0.44-1.061C10.67,4.155,10.293,3.999,9.892,3.999l0-0.375L9.892,3.999z"/>
</g>
</svg>
