<?xml version="1.0" encoding="utf-8"?>
<!-- Generator: Adobe Illustrator 22.1.0, SVG Export Plug-In . SVG Version: 6.00 Build 0)  -->
<svg version="1.1" id="Regular" xmlns="http://www.w3.org/2000/svg" xmlns:xlink="http://www.w3.org/1999/xlink" x="0px" y="0px"
	 viewBox="0 0 24 24" style="enable-background:new 0 0 24 24;" xml:space="preserve">
<title>arrow-thick-up</title>
<g>
	<path d="M8.256,24.002c-0.829,0-1.503-0.672-1.506-1.497v-9.003H3.758c-0.4-0.001-0.775-0.153-1.057-0.429
		c-0.286-0.281-0.445-0.656-0.449-1.056c-0.003-0.35,0.117-0.692,0.339-0.963l8.233-10.488c0.297-0.36,0.725-0.562,1.18-0.562
		c0.349,0,0.689,0.122,0.958,0.344c0.074,0.061,0.143,0.13,0.204,0.204l8.253,10.514c0.246,0.301,0.362,0.689,0.322,1.087
		c-0.04,0.398-0.233,0.757-0.543,1.011c-0.267,0.218-0.604,0.339-0.95,0.339H17.25v9c-0.003,0.828-0.678,1.5-1.503,1.5H8.256z
		 M12,1.502c-0.006,0-0.008,0.003-0.009,0.004L3.761,11.992l3.739,0.01c0.414,0,0.75,0.336,0.75,0.75v9.749l7.494,0.001l0.006-9.75
		c0-0.414,0.336-0.75,0.75-0.75h3.742c0-0.001,0.012-0.005,0.015-0.006l-8.26-10.504L12,1.502z"/>
</g>
</svg>
