<?xml version="1.0" encoding="utf-8"?>
<!-- Generator: Adobe Illustrator 22.1.0, SVG Export Plug-In . SVG Version: 6.00 Build 0)  -->
<svg version="1.1" id="Regular" xmlns="http://www.w3.org/2000/svg" xmlns:xlink="http://www.w3.org/1999/xlink" x="0px" y="0px"
	 viewBox="0 0 24 24" style="enable-background:new 0 0 24 24;" xml:space="preserve">
<title>arrow-thick-circle-bottom-right-corner-1</title>
<g>
	<path d="M12,24C5.383,24,0,18.617,0,12C0,5.383,5.383,0,12,0c6.617,0,12,5.383,12,12C24,18.617,18.617,24,12,24z M12,1.5
		C6.21,1.5,1.5,6.21,1.5,12c0,5.79,4.71,10.5,10.5,10.5c5.79,0,10.5-4.71,10.5-10.5C22.5,6.21,17.79,1.5,12,1.5z"/>
	<path d="M8.352,18.118c-0.827,0-1.5-0.673-1.5-1.5v-1.682c0-0.827,0.673-1.5,1.5-1.5h0.621L5.481,9.943
		C4.896,9.359,4.896,8.407,5.48,7.822l2.122-2.122c0.283-0.283,0.66-0.439,1.061-0.439c0.401,0,0.777,0.156,1.06,0.438l3.493,3.49
		V8.572c0-0.827,0.673-1.5,1.5-1.5H16.4c0.827,0,1.5,0.673,1.5,1.5v8.046c0,0.827-0.673,1.5-1.5,1.5H8.352z M8.352,16.618H16.4
		V8.572h-1.684V11c0,0.304-0.182,0.576-0.463,0.693c-0.092,0.038-0.188,0.057-0.287,0.057c-0.2,0-0.388-0.078-0.53-0.219
		L8.663,6.761L6.541,8.882l4.773,4.773c0.215,0.215,0.279,0.536,0.163,0.817c-0.116,0.281-0.388,0.463-0.693,0.463H8.352V16.618z"/>
</g>
</svg>
