<?xml version="1.0" encoding="utf-8"?>
<!-- Generator: Adobe Illustrator 22.1.0, SVG Export Plug-In . SVG Version: 6.00 Build 0)  -->
<svg version="1.1" id="Regular" xmlns="http://www.w3.org/2000/svg" xmlns:xlink="http://www.w3.org/1999/xlink" x="0px" y="0px"
	 viewBox="0 0 24 24" style="enable-background:new 0 0 24 24;" xml:space="preserve">
<title>arrow-dot-corner-down-left</title>
<g>
	<path d="M2.75,24C1.234,24,0,22.766,0,21.25V2.75C0,1.234,1.234,0,2.75,0h18.5C22.766,0,24,1.234,24,2.75v18.5
		c0,1.516-1.234,2.75-2.75,2.75H2.75z M2.75,1.5C2.061,1.5,1.5,2.061,1.5,2.75v18.5c0,0.689,0.561,1.25,1.25,1.25h18.5
		c0.689,0,1.25-0.561,1.25-1.25V2.75c0-0.689-0.561-1.25-1.25-1.25H2.75z"/>
	<path d="M7.5,8.625c-0.301,0-0.583-0.117-0.795-0.329c-0.213-0.212-0.33-0.495-0.33-0.795c0-0.301,0.117-0.583,0.329-0.796
		c0.211-0.212,0.493-0.33,0.793-0.33c0.302,0,0.583,0.116,0.796,0.327c0.441,0.441,0.441,1.154,0.003,1.593
		C8.084,8.508,7.801,8.625,7.5,8.625z"/>
	<path d="M8.249,13.875c-0.3,0-0.582-0.117-0.794-0.329c-0.213-0.212-0.33-0.495-0.33-0.795c0-0.301,0.117-0.583,0.329-0.796
		c0.212-0.213,0.495-0.33,0.796-0.33c0.3,0,0.581,0.116,0.793,0.327c0.218,0.222,0.332,0.501,0.332,0.797
		c0,0.301-0.117,0.583-0.329,0.796c-0.213,0.213-0.495,0.33-0.796,0.33H8.249z"/>
	<path d="M11.249,16.875c-0.3,0-0.582-0.117-0.794-0.329c-0.213-0.212-0.33-0.495-0.33-0.795c0-0.301,0.117-0.583,0.329-0.796
		c0.212-0.213,0.495-0.33,0.796-0.33c0.3,0,0.581,0.116,0.793,0.327c0.004,0.004,0.016,0.016,0.02,0.021
		c0.197,0.2,0.311,0.48,0.312,0.776c0,0.301-0.117,0.583-0.329,0.796c-0.213,0.213-0.495,0.33-0.796,0.33H11.249z"/>
	<path d="M10.5,11.625c-0.301,0-0.583-0.117-0.795-0.329c-0.213-0.212-0.33-0.495-0.33-0.795c0-0.301,0.117-0.583,0.329-0.796
		c0.211-0.212,0.493-0.33,0.793-0.33c0.302,0,0.583,0.116,0.796,0.327c0.441,0.441,0.441,1.154,0.003,1.593
		C11.084,11.508,10.801,11.625,10.5,11.625z"/>
	<path d="M13.5,14.625c-0.301,0-0.583-0.117-0.795-0.329c-0.212-0.211-0.329-0.494-0.33-0.794s0.116-0.583,0.329-0.796
		c0.006-0.006,0.023-0.023,0.03-0.029c0.195-0.189,0.472-0.301,0.764-0.302c0.301,0,0.583,0.116,0.795,0.327
		c0.219,0.226,0.332,0.503,0.332,0.797c0,0.301-0.116,0.583-0.329,0.796C14.083,14.508,13.801,14.625,13.5,14.625z"/>
	<path d="M12.75,9.375c-0.301,0-0.583-0.117-0.795-0.329c-0.213-0.212-0.33-0.495-0.33-0.795c0-0.3,0.117-0.583,0.329-0.795
		c0.212-0.212,0.494-0.33,0.794-0.331c0.302,0,0.584,0.116,0.796,0.328c0.439,0.449,0.436,1.158,0.003,1.592
		C13.334,9.258,13.051,9.375,12.75,9.375z"/>
	<path d="M15.75,12.375c-0.3,0-0.583-0.117-0.795-0.329c-0.212-0.212-0.33-0.495-0.33-0.795s0.116-0.583,0.329-0.796
		c0.212-0.212,0.494-0.33,0.794-0.331c0.302,0,0.584,0.116,0.796,0.328c0.439,0.449,0.436,1.158,0.003,1.592
		C16.334,12.258,16.051,12.375,15.75,12.375z"/>
	<path d="M15,7.125c-0.3,0-0.583-0.117-0.795-0.329c-0.212-0.212-0.33-0.495-0.33-0.795s0.116-0.583,0.329-0.796
		c0.212-0.212,0.494-0.33,0.794-0.331c0.302,0,0.584,0.116,0.796,0.328c0.439,0.449,0.436,1.158,0.003,1.592
		C15.584,7.008,15.301,7.125,15,7.125z"/>
	<path d="M18,10.125c-0.3,0-0.583-0.117-0.795-0.329c-0.212-0.212-0.33-0.495-0.33-0.795s0.116-0.583,0.329-0.796
		c0.212-0.212,0.494-0.33,0.794-0.331c0.302,0,0.584,0.116,0.796,0.328c0.439,0.449,0.436,1.158,0.003,1.592
		C18.584,10.008,18.301,10.125,18,10.125z"/>
	<path d="M7.499,17.625c-0.3,0-0.582-0.117-0.794-0.329c-0.213-0.212-0.33-0.495-0.33-0.795c0-0.301,0.117-0.583,0.329-0.796
		c0.212-0.213,0.495-0.33,0.796-0.33c0.3,0,0.581,0.116,0.793,0.327c0.004,0.004,0.016,0.016,0.02,0.021
		c0.197,0.2,0.312,0.48,0.312,0.776c0,0.301-0.117,0.583-0.329,0.796c-0.213,0.213-0.495,0.33-0.796,0.33H7.499z"/>
	<path d="M16.5,17.625c-0.301,0-0.583-0.117-0.795-0.329c-0.212-0.211-0.329-0.494-0.33-0.794s0.116-0.583,0.329-0.796
		c0.006-0.006,0.023-0.023,0.03-0.029c0.195-0.189,0.472-0.301,0.764-0.302c0.302,0,0.583,0.116,0.795,0.327
		c0.219,0.226,0.332,0.503,0.332,0.797c0,0.301-0.116,0.583-0.329,0.796C17.083,17.508,16.801,17.625,16.5,17.625z"/>
</g>
</svg>
