<?xml version="1.0" encoding="utf-8"?>
<!-- Generator: Adobe Illustrator 22.1.0, SVG Export Plug-In . SVG Version: 6.00 Build 0)  -->
<svg version="1.1" id="Regular" xmlns="http://www.w3.org/2000/svg" xmlns:xlink="http://www.w3.org/1999/xlink" x="0px" y="0px"
	 viewBox="0 0 24 24" style="enable-background:new 0 0 24 24;" xml:space="preserve">
<title>arrow-circle-up</title>
<g>
	<path d="M12,24C5.383,24,0,18.617,0,12C0,5.383,5.383,0,12,0c6.617,0,12,5.383,12,12C24,18.617,18.617,24,12,24z M12,1.5
		C6.21,1.5,1.5,6.21,1.5,12c0,5.79,4.71,10.5,10.5,10.5c5.79,0,10.5-4.71,10.5-10.5C22.5,6.21,17.79,1.5,12,1.5z"/>
	<path d="M6.75,15.75c-0.143,0-0.282-0.041-0.403-0.118c-0.168-0.107-0.286-0.274-0.329-0.47c-0.043-0.196-0.008-0.396,0.099-0.565
		l4.617-7.256c0.118-0.184,0.276-0.342,0.458-0.458c0.242-0.155,0.521-0.236,0.806-0.236c0.109,0,0.218,0.012,0.325,0.035
		c0.392,0.087,0.727,0.32,0.942,0.658l4.617,7.257c0.222,0.349,0.119,0.814-0.23,1.036c-0.121,0.077-0.26,0.117-0.403,0.117
		c-0.258,0-0.494-0.13-0.633-0.347L12,8.147l-4.617,7.256C7.244,15.62,7.008,15.75,6.75,15.75z"/>
</g>
</svg>
