<?xml version="1.0" encoding="utf-8"?>
<!-- Generator: Adobe Illustrator 22.1.0, SVG Export Plug-In . SVG Version: 6.00 Build 0)  -->
<svg version="1.1" id="Regular" xmlns="http://www.w3.org/2000/svg" xmlns:xlink="http://www.w3.org/1999/xlink" x="0px" y="0px"
	 viewBox="0 0 24 24" style="enable-background:new 0 0 24 24;" xml:space="preserve">
<title>arrow-thick-right-bottom-corner-3</title>
<g>
	<path d="M10.063,22.161c-0.602,0-1.166-0.234-1.591-0.658l-2.781-2.781c-0.283-0.283-0.439-0.66-0.439-1.061
		c0-0.401,0.157-0.777,0.44-1.061c0.282-0.282,0.658-0.438,1.058-0.439h4.759l-8.228-8.23C2.699,7.347,2.699,6.396,3.281,5.812
		L5.403,3.69c0.283-0.283,0.659-0.439,1.061-0.439c0.401,0,0.777,0.156,1.06,0.438l8.228,8.229V7.161
		c0-0.401,0.156-0.778,0.44-1.061c0.283-0.283,0.66-0.438,1.06-0.438c0.401,0,0.777,0.156,1.06,0.439l2.781,2.78
		c0.425,0.425,0.659,0.991,0.659,1.592v10.189c0,0.827-0.673,1.5-1.5,1.5H10.063z M6.752,17.661l2.781,2.781
		c0.141,0.141,0.329,0.219,0.53,0.219h10.19V10.472c0-0.198-0.08-0.391-0.219-0.531l-2.781-2.78l0,6.568
		c0,0.304-0.182,0.576-0.463,0.693c-0.091,0.038-0.188,0.057-0.287,0.057c-0.2,0-0.389-0.078-0.531-0.22L6.464,4.751L4.343,6.872
		l9.508,9.509c0.215,0.215,0.279,0.536,0.163,0.817s-0.389,0.463-0.693,0.463H6.752z"/>
</g>
</svg>
