<?xml version="1.0" encoding="utf-8"?>
<!-- Generator: Adobe Illustrator 22.1.0, SVG Export Plug-In . SVG Version: 6.00 Build 0)  -->
<svg version="1.1" id="Regular" xmlns="http://www.w3.org/2000/svg" xmlns:xlink="http://www.w3.org/1999/xlink" x="0px" y="0px"
	 viewBox="0 0 24 24" style="enable-background:new 0 0 24 24;" xml:space="preserve">
<title>arrow-thick-circle-down-1</title>
<g>
	<path d="M12,24C5.383,24,0,18.617,0,12C0,5.383,5.383,0,12,0c6.617,0,12,5.383,12,12C24,18.617,18.617,24,12,24z M12,1.5
		C6.21,1.5,1.5,6.21,1.5,12c0,5.79,4.71,10.5,10.5,10.5c5.79,0,10.5-4.71,10.5-10.5C22.5,6.21,17.79,1.5,12,1.5z"/>
	<path d="M12,19.939c-0.401,0-0.778-0.156-1.06-0.439L5.25,13.81c-0.284-0.284-0.44-0.661-0.439-1.061c0-0.4,0.156-0.777,0.44-1.06
		L6.44,10.5C6.723,10.216,7.1,10.06,7.5,10.06c0.401,0,0.777,0.156,1.061,0.44L9,10.939V6c0-0.827,0.673-1.5,1.5-1.5h3
		C14.327,4.5,15,5.173,15,6v4.939l0.44-0.44c0.284-0.283,0.66-0.439,1.06-0.439c0.401,0,0.778,0.156,1.061,0.44l1.189,1.189
		c0.283,0.284,0.439,0.66,0.439,1.061c0,0.401-0.156,0.777-0.439,1.06L13.06,19.5C12.777,19.783,12.4,19.939,12,19.939z M6.31,12.75
		L12,18.44l5.689-5.69L16.5,11.56l-1.719,1.72c-0.142,0.142-0.33,0.22-0.531,0.22c-0.099,0-0.196-0.02-0.288-0.058
		c-0.281-0.116-0.462-0.388-0.462-0.693V6h-3v6.75c0,0.304-0.182,0.576-0.463,0.693C9.946,13.481,9.849,13.5,9.75,13.5
		c-0.2,0-0.389-0.078-0.53-0.22L7.5,11.56L6.31,12.75z"/>
</g>
</svg>
