<?xml version="1.0" encoding="utf-8"?>
<!-- Generator: Adobe Illustrator 22.1.0, SVG Export Plug-In . SVG Version: 6.00 Build 0)  -->
<svg version="1.1" id="Regular" xmlns="http://www.w3.org/2000/svg" xmlns:xlink="http://www.w3.org/1999/xlink" x="0px" y="0px"
	 viewBox="0 0 24 24" style="enable-background:new 0 0 24 24;" xml:space="preserve">
<title>arrow-button-circle-right-1</title>
<g>
	<path d="M9,19.401c-0.447,0-0.868-0.197-1.153-0.54c-0.224-0.269-0.348-0.61-0.348-0.96v-2.18c0-0.688,0.307-1.328,0.845-1.758
		L10.799,12l-2.455-1.963C7.807,9.607,7.499,8.967,7.499,8.28V6.1c0.002-0.826,0.675-1.498,1.5-1.498
		c0.353,0.001,0.692,0.124,0.96,0.347l7.079,5.9c0.307,0.255,0.497,0.616,0.534,1.015c0.037,0.399-0.084,0.788-0.34,1.096
		c-0.057,0.069-0.122,0.135-0.194,0.194l-7.079,5.9C9.69,19.278,9.35,19.401,9,19.401z M8.998,6.102L8.999,8.28
		c0,0.229,0.103,0.442,0.281,0.585l3.188,2.549c0.179,0.143,0.282,0.356,0.282,0.586s-0.103,0.443-0.282,0.586l-3.188,2.55
		c-0.179,0.143-0.282,0.357-0.281,0.586v2.181l7.079-5.9L8.998,6.102L8.998,6.102L8.998,6.102z"/>
	<path d="M12,24C5.383,24,0,18.617,0,12C0,5.383,5.383,0,12,0c6.617,0,12,5.383,12,12C24,18.617,18.617,24,12,24z M12,1.5
		C6.21,1.5,1.5,6.21,1.5,12c0,5.79,4.71,10.5,10.5,10.5c5.79,0,10.5-4.71,10.5-10.5C22.5,6.21,17.79,1.5,12,1.5z"/>
</g>
</svg>
