<?xml version="1.0" encoding="utf-8"?>
<!-- Generator: Adobe Illustrator 22.1.0, SVG Export Plug-In . SVG Version: 6.00 Build 0)  -->
<svg version="1.1" id="Regular" xmlns="http://www.w3.org/2000/svg" xmlns:xlink="http://www.w3.org/1999/xlink" x="0px" y="0px"
	 viewBox="0 0 24 24" style="enable-background:new 0 0 24 24;" xml:space="preserve">
<title>arrow-right-2</title>
<g>
	<path d="M2.56,21c-1.241,0-2.25-1.009-2.25-2.25V5.25C0.31,4.009,1.319,3,2.56,3h12.128c0.601,0,1.166,0.234,1.591,0.658
		l7.28,7.281c0.584,0.584,0.585,1.535,0.001,2.119l-7.281,7.282C15.854,20.766,15.29,21,14.689,21H2.56z M2.56,4.5
		c-0.414,0-0.75,0.336-0.75,0.75v13.5c0,0.414,0.336,0.75,0.75,0.75h12.128c0.201,0,0.389-0.078,0.531-0.219L22.499,12l-7.28-7.281
		c-0.142-0.141-0.33-0.219-0.53-0.219H2.56z"/>
</g>
</svg>
