<?xml version="1.0" encoding="utf-8"?>
<!-- Generator: Adobe Illustrator 22.1.0, SVG Export Plug-In . SVG Version: 6.00 Build 0)  -->
<svg version="1.1" id="Regular" xmlns="http://www.w3.org/2000/svg" xmlns:xlink="http://www.w3.org/1999/xlink" x="0px" y="0px"
	 viewBox="0 0 24 24" style="enable-background:new 0 0 24 24;" xml:space="preserve">
<title>arrow-button-down-2</title>
<g>
	<path d="M12.002,22.25c-0.137,0-0.274-0.019-0.407-0.057c-0.38-0.108-0.695-0.358-0.887-0.703L0.948,4.245
		C0.824,4.029,0.755,3.779,0.75,3.525C0.737,2.698,1.398,2.015,2.225,2h19.539c0.265,0.004,0.518,0.074,0.738,0.201
		c0.347,0.2,0.595,0.524,0.699,0.911c0.104,0.387,0.05,0.791-0.15,1.138l-9.759,17.242c-0.133,0.238-0.331,0.436-0.571,0.569
		C12.5,22.185,12.252,22.25,12.002,22.25z M12.016,20.755L12.016,20.755z M12.001,20.728l9.747-17.222L2.253,3.5L12.001,20.728z"/>
</g>
</svg>
