<?xml version="1.0" encoding="utf-8"?>
<!-- Generator: Adobe Illustrator 22.1.0, SVG Export Plug-In . SVG Version: 6.00 Build 0)  -->
<svg version="1.1" id="Regular" xmlns="http://www.w3.org/2000/svg" xmlns:xlink="http://www.w3.org/1999/xlink" x="0px" y="0px"
	 viewBox="0 0 24 24" style="enable-background:new 0 0 24 24;" xml:space="preserve">
<title>arrow-button-circle-left</title>
<g>
	<path d="M12,24C5.383,24,0,18.617,0,12C0,5.383,5.383,0,12,0c6.617,0,12,5.383,12,12C24,18.617,18.617,24,12,24z M12,1.5
		C6.21,1.5,1.5,6.21,1.5,12c0,5.79,4.71,10.5,10.5,10.5c5.79,0,10.5-4.71,10.5-10.5C22.5,6.21,17.79,1.5,12,1.5z"/>
	<path d="M15.127,18.319c-0.22,0-0.44-0.058-0.635-0.169l-8.5-4.819c-0.017-0.009-0.035-0.021-0.052-0.032
		c-0.163-0.112-0.301-0.25-0.412-0.411c-0.237-0.347-0.325-0.765-0.248-1.178c0.078-0.413,0.311-0.771,0.658-1.008
		c0.016-0.011,0.034-0.022,0.052-0.032l8.502-4.819c0.195-0.11,0.414-0.169,0.635-0.169c0.226,0,0.45,0.061,0.647,0.176
		C16.222,6.12,16.5,6.627,16.5,7.183v9.636c0,0.556-0.278,1.063-0.725,1.324C15.577,18.258,15.353,18.319,15.127,18.319z
		 M6.774,11.951c-0.01,0.01-0.016,0.022-0.019,0.037c-0.004,0.02,0,0.037,0.011,0.054L15,16.714V7.288L6.774,11.951z"/>
</g>
</svg>
