<?xml version="1.0" encoding="utf-8"?>
<!-- Generator: Adobe Illustrator 22.1.0, SVG Export Plug-In . SVG Version: 6.00 Build 0)  -->
<svg version="1.1" id="Regular" xmlns="http://www.w3.org/2000/svg" xmlns:xlink="http://www.w3.org/1999/xlink" x="0px" y="0px"
	 viewBox="0 0 24 24" style="enable-background:new 0 0 24 24;" xml:space="preserve">
<title>arrow-down-2</title>
<g>
	<path d="M12,24c-0.393,0-0.763-0.151-1.044-0.426c-0.001-0.001-7.301-7.402-7.301-7.402C3.232,15.74,2.999,15.171,3,14.568V2.271
		C2.992,1.029,3.999,0.009,5.245,0H18.75c1.249,0.009,2.257,1.029,2.25,2.274v12.297c0.001,0.602-0.231,1.17-0.653,1.601
		l-7.283,7.382c-0.277,0.283-0.65,0.442-1.049,0.446c-0.001,0-0.002,0-0.004,0H12z M5.252,1.5C4.834,1.504,4.497,1.847,4.5,2.266
		v12.303c0,0.208,0.079,0.403,0.224,0.551l7.28,7.381l7.273-7.38c0.144-0.146,0.223-0.342,0.223-0.548V2.271
		c0.003-0.424-0.336-0.768-0.755-0.771H5.252z"/>
</g>
</svg>
