<?xml version="1.0" encoding="utf-8"?>
<!-- Generator: Adobe Illustrator 22.1.0, SVG Export Plug-In . SVG Version: 6.00 Build 0)  -->
<svg version="1.1" id="Regular" xmlns="http://www.w3.org/2000/svg" xmlns:xlink="http://www.w3.org/1999/xlink" x="0px" y="0px"
	 viewBox="0 0 24 24" style="enable-background:new 0 0 24 24;" xml:space="preserve">
<title>arrow-rectangle-down-1</title>
<g>
	<path d="M2.75,24C1.234,24,0,22.766,0,21.25V2.75C0,1.234,1.234,0,2.75,0h18.5C22.766,0,24,1.234,24,2.75v18.5
		c0,1.516-1.234,2.75-2.75,2.75H2.75z M2.75,1.5C2.061,1.5,1.5,2.061,1.5,2.75v18.5c0,0.689,0.561,1.25,1.25,1.25h18.5
		c0.689,0,1.25-0.561,1.25-1.25V2.75c0-0.689-0.561-1.25-1.25-1.25H2.75z"/>
	<path d="M11.998,17.75c-0.366,0-0.714-0.115-1.004-0.333l-5.628-4.378c-0.53-0.396-0.856-1.037-0.866-1.71V9.152
		c0-0.028,0.002-0.056,0.005-0.084C4.597,8.254,5.283,7.64,6.102,7.64c0.06,0,0.121,0.003,0.182,0.01
		C6.591,7.686,6.881,7.808,7.12,8.004L12,11.799l4.89-3.804c0.274-0.226,0.634-0.355,1.003-0.355c0.484,0,0.938,0.213,1.245,0.586
		c0.199,0.241,0.322,0.532,0.357,0.841C19.498,9.094,19.5,9.123,19.5,9.152v2.166c-0.01,0.683-0.338,1.328-0.879,1.731l-5.605,4.36
		C12.721,17.63,12.361,17.75,11.998,17.75z M6,11.318c0.003,0.199,0.108,0.404,0.275,0.528l5.63,4.379
		c0.021,0.016,0.056,0.027,0.093,0.027c0.039,0,0.077-0.012,0.107-0.035l5.608-4.362c0.179-0.134,0.284-0.337,0.287-0.548V9.215
		c-0.004-0.013-0.011-0.025-0.02-0.035c-0.028-0.034-0.064-0.039-0.084-0.039c-0.018,0-0.044,0.004-0.069,0.025l-5.366,4.175
		c-0.131,0.102-0.294,0.158-0.46,0.158c-0.166,0-0.33-0.056-0.461-0.158L6.189,9.179C6.155,9.152,6.136,9.143,6.114,9.141l-0.01,0
		C6.057,9.141,6.015,9.172,6,9.215V11.318z"/>
</g>
</svg>
