<?xml version="1.0" encoding="utf-8"?>
<!-- Generator: Adobe Illustrator 22.1.0, SVG Export Plug-In . SVG Version: 6.00 Build 0)  -->
<svg version="1.1" id="Regular" xmlns="http://www.w3.org/2000/svg" xmlns:xlink="http://www.w3.org/1999/xlink" x="0px" y="0px"
	 viewBox="0 0 24 24" style="enable-background:new 0 0 24 24;" xml:space="preserve">
<title>arrow-corner-right</title>
<g>
	<path d="M4.91,20.41c-0.414,0-0.75-0.336-0.75-0.75s0.336-0.75,0.75-0.75H18.1L3.47,4.28C3.328,4.139,3.25,3.95,3.25,3.75
		s0.078-0.389,0.22-0.53C3.611,3.078,3.8,3,4,3s0.389,0.078,0.53,0.22l14.63,14.63V4.66c0-0.414,0.336-0.75,0.75-0.75
		s0.75,0.336,0.75,0.75v15c0,0.087-0.016,0.174-0.046,0.258c-0.002,0.006-0.004,0.011-0.006,0.016
		c-0.08,0.195-0.229,0.344-0.412,0.419c-0.008,0.003-0.017,0.007-0.026,0.01c-0.082,0.031-0.17,0.047-0.259,0.047H4.91z"/>
</g>
</svg>
