<?xml version="1.0" encoding="utf-8"?>
<!-- Generator: Adobe Illustrator 22.1.0, SVG Export Plug-In . SVG Version: 6.00 Build 0)  -->
<svg version="1.1" id="Regular" xmlns="http://www.w3.org/2000/svg" xmlns:xlink="http://www.w3.org/1999/xlink" x="0px" y="0px"
	 viewBox="0 0 24 24" style="enable-background:new 0 0 24 24;" xml:space="preserve">
<title>arrow-up-2</title>
<g>
	<path d="M5.25,24.003c-0.608-0.004-1.175-0.244-1.599-0.674C3.227,22.899,2.996,22.33,3,21.727V9.432
		C2.999,8.83,3.231,8.261,3.654,7.83l7.282-7.383C11.217,0.16,11.595,0.002,12,0.002c0.393,0,0.764,0.151,1.044,0.426l7.301,7.402
		C20.769,8.261,21.001,8.83,21,9.433v12.299c0.009,1.242-0.999,2.262-2.245,2.271c-0.001,0-0.002,0-0.003,0H5.25z M4.723,8.882
		C4.579,9.029,4.5,9.224,4.5,9.431v12.3c-0.001,0.208,0.076,0.4,0.219,0.545s0.333,0.225,0.536,0.227H18.75
		c0.415-0.003,0.753-0.347,0.75-0.766V9.432c0-0.208-0.079-0.403-0.224-0.551L12,1.504L4.723,8.882z"/>
</g>
</svg>
