<?xml version="1.0" encoding="utf-8"?>
<!-- Generator: Adobe Illustrator 22.1.0, SVG Export Plug-In . SVG Version: 6.00 Build 0)  -->
<svg version="1.1" id="Regular" xmlns="http://www.w3.org/2000/svg" xmlns:xlink="http://www.w3.org/1999/xlink" x="0px" y="0px"
	 viewBox="0 0 24 24" style="enable-background:new 0 0 24 24;" xml:space="preserve">
<title>arrow-thick-circle-left-1</title>
<g>
	<path d="M12,24C5.383,24,0,18.617,0,12C0,5.383,5.383,0,12,0c6.617,0,12,5.383,12,12C24,18.617,18.617,24,12,24z M12,1.5
		C6.21,1.5,1.5,6.21,1.5,12c0,5.79,4.71,10.5,10.5,10.5c5.79,0,10.5-4.71,10.5-10.5C22.5,6.21,17.79,1.5,12,1.5z"/>
	<path d="M11.25,19.189c-0.401,0-0.778-0.156-1.06-0.439L4.5,13.06c-0.585-0.585-0.584-1.537,0-2.121l5.69-5.69
		c0.284-0.283,0.66-0.439,1.06-0.439c0.401,0,0.777,0.156,1.061,0.44l1.19,1.19c0.585,0.586,0.584,1.537,0,2.121L13.061,9H18
		c0.827,0,1.5,0.673,1.5,1.5v3c0,0.827-0.673,1.5-1.5,1.5h-4.939l0.44,0.44c0.284,0.284,0.44,0.661,0.439,1.061
		s-0.156,0.777-0.44,1.06L12.31,18.75C12.027,19.033,11.65,19.189,11.25,19.189z M5.56,12l5.69,5.689l1.189-1.19l-1.72-1.719
		c-0.215-0.215-0.279-0.536-0.163-0.817c0.116-0.281,0.388-0.463,0.693-0.463H18v-3h-6.75c-0.305,0-0.577-0.182-0.693-0.463
		C10.44,9.756,10.504,9.435,10.72,9.22l1.72-1.72L11.25,6.31L5.56,12z"/>
</g>
</svg>
