<?xml version="1.0" encoding="utf-8"?>
<!-- Generator: Adobe Illustrator 22.1.0, SVG Export Plug-In . SVG Version: 6.00 Build 0)  -->
<svg version="1.1" id="Regular" xmlns="http://www.w3.org/2000/svg" xmlns:xlink="http://www.w3.org/1999/xlink" x="0px" y="0px"
	 viewBox="0 0 24 24" style="enable-background:new 0 0 24 24;" xml:space="preserve">
<title>arrow-button-circle-left-1</title>
<g>
	<path d="M12,24C5.383,24,0,18.617,0,12C0,5.383,5.383,0,12,0c6.617,0,12,5.383,12,12C24,18.617,18.617,24,12,24z M12,1.5
		C6.21,1.5,1.5,6.21,1.5,12c0,5.79,4.71,10.5,10.5,10.5c5.79,0,10.5-4.71,10.5-10.5C22.5,6.21,17.79,1.5,12,1.5z"/>
	<path d="M14.998,19.399c-0.349,0-0.689-0.124-0.958-0.347l-7.08-5.901c-0.635-0.532-0.72-1.481-0.189-2.115
		c0.057-0.068,0.12-0.131,0.188-0.188l7.08-5.901C14.309,4.723,14.65,4.599,15,4.599c0.045,0,0.091,0.002,0.136,0.006
		c0.399,0.037,0.76,0.226,1.017,0.534c0.224,0.269,0.347,0.609,0.347,0.96v2.18c0,0.687-0.308,1.327-0.845,1.757L13.2,12
		l2.455,1.965c0.536,0.429,0.844,1.069,0.844,1.756V17.9c-0.001,0.401-0.157,0.778-0.441,1.061C15.776,19.243,15.4,19.399,15,19.399
		H14.998z M7.921,11.999l7.079,5.9v-2.178c0-0.229-0.103-0.442-0.281-0.585l-3.187-2.551C11.353,12.443,11.25,12.229,11.25,12
		c0-0.229,0.103-0.443,0.281-0.586l3.187-2.55C14.897,8.721,15,8.508,15,8.279v-2.18L7.921,11.999z"/>
</g>
</svg>
