<?xml version="1.0" encoding="utf-8"?>
<!-- Generator: Adobe Illustrator 22.1.0, SVG Export Plug-In . SVG Version: 6.00 Build 0)  -->
<svg version="1.1" id="Regular" xmlns="http://www.w3.org/2000/svg" xmlns:xlink="http://www.w3.org/1999/xlink" x="0px" y="0px"
	 viewBox="0 0 24 24" style="enable-background:new 0 0 24 24;" xml:space="preserve">
<title>arrow-dot-corner-left-1</title>
<g>
	<path d="M4.557,20.068c-0.301,0-0.583-0.117-0.795-0.328c-0.439-0.438-0.439-1.152-0.001-1.591c0.212-0.212,0.494-0.33,0.794-0.331
		c0.298,0,0.578,0.114,0.789,0.321c0.221,0.221,0.338,0.503,0.339,0.804c0,0.301-0.117,0.583-0.329,0.796
		C5.14,19.951,4.858,20.068,4.557,20.068z"/>
	<path d="M5.618,16.356c-0.301,0-0.583-0.117-0.796-0.33c-0.212-0.211-0.329-0.494-0.33-0.795c0-0.301,0.117-0.583,0.329-0.796
		c0.214-0.212,0.497-0.328,0.797-0.328c0.299,0,0.58,0.115,0.792,0.324c0.008,0.008,0.015,0.016,0.023,0.024
		c0.204,0.219,0.31,0.488,0.31,0.773c0,0.3-0.116,0.583-0.329,0.796C6.201,16.238,5.919,16.355,5.618,16.356
		C5.619,16.356,5.618,16.356,5.618,16.356z"/>
	<path d="M8.269,13.704c-0.302-0.001-0.584-0.118-0.796-0.331c-0.437-0.437-0.437-1.15,0-1.588c0.212-0.213,0.495-0.33,0.795-0.331
		c0.301,0,0.583,0.117,0.796,0.328c0.44,0.442,0.439,1.155,0,1.593C8.852,13.588,8.569,13.704,8.269,13.704L8.269,13.704z"/>
	<path d="M7.736,8.931c-0.3,0-0.583-0.117-0.795-0.328C6.502,8.164,6.502,7.451,6.94,7.012c0.212-0.213,0.495-0.33,0.796-0.33
		c0.3,0,0.581,0.116,0.793,0.327c0.214,0.214,0.332,0.497,0.332,0.797c0,0.301-0.117,0.583-0.329,0.796
		C8.32,8.814,8.037,8.931,7.736,8.931z"/>
	<path d="M5.087,6.279c-0.301,0-0.583-0.118-0.796-0.331c-0.437-0.438-0.437-1.151,0-1.589c0.214-0.212,0.497-0.329,0.797-0.329
		c0.3,0,0.582,0.116,0.793,0.326c0.441,0.442,0.44,1.156,0.001,1.594C5.67,6.162,5.387,6.279,5.087,6.279L5.087,6.279z"/>
	<path d="M5.087,11.582c-0.301,0-0.584-0.117-0.796-0.33c-0.437-0.438-0.437-1.151,0-1.589C4.505,9.45,4.787,9.334,5.088,9.334
		c0.297,0,0.577,0.114,0.789,0.322C5.879,9.658,5.882,9.66,5.884,9.663c0.438,0.439,0.437,1.153-0.002,1.591
		C5.67,11.465,5.388,11.582,5.087,11.582z"/>
	<path d="M8.269,19.007c-0.301,0-0.584-0.117-0.796-0.33c-0.437-0.438-0.437-1.151,0-1.589c0.212-0.213,0.494-0.33,0.795-0.331
		c0.302,0,0.584,0.117,0.796,0.329c0.214,0.215,0.331,0.498,0.33,0.798c0,0.301-0.118,0.583-0.33,0.795
		C8.852,18.89,8.57,19.007,8.269,19.007z"/>
	<path d="M10.92,16.356c-0.3,0-0.582-0.117-0.794-0.329c-0.212-0.211-0.329-0.494-0.33-0.795c0-0.301,0.117-0.583,0.329-0.796
		c0.213-0.213,0.495-0.329,0.796-0.329c0.3,0,0.583,0.117,0.795,0.328c0.213,0.212,0.33,0.495,0.33,0.795
		c0,0.3-0.116,0.583-0.329,0.796c-0.213,0.213-0.495,0.33-0.796,0.33H10.92z"/>
	<path d="M10.92,11.053c-0.3,0-0.582-0.117-0.794-0.329c-0.212-0.212-0.33-0.494-0.33-0.795c0-0.301,0.117-0.583,0.329-0.796
		c0.211-0.212,0.493-0.33,0.793-0.33c0.302,0,0.583,0.116,0.796,0.327c0.218,0.222,0.332,0.502,0.332,0.797
		c0,0.3-0.116,0.583-0.329,0.796c-0.212,0.213-0.495,0.33-0.795,0.33C10.921,11.053,10.92,11.053,10.92,11.053z"/>
	<path d="M13.573,13.704c-0.3,0-0.582-0.116-0.794-0.328c-0.439-0.439-0.44-1.153-0.002-1.591c0.214-0.213,0.496-0.33,0.797-0.33
		c0.301,0,0.583,0.117,0.794,0.328c0.212,0.212,0.33,0.494,0.33,0.795c0,0.301-0.116,0.583-0.329,0.796
		C14.157,13.587,13.874,13.704,13.573,13.704C13.573,13.704,13.573,13.704,13.573,13.704z"/>
	<path d="M13.573,8.4c-0.3,0-0.583-0.117-0.795-0.328c-0.439-0.439-0.439-1.152-0.001-1.591c0.214-0.212,0.497-0.328,0.797-0.328
		c0.297,0,0.576,0.113,0.787,0.319c0.002,0.002,0.005,0.005,0.007,0.007c0.213,0.212,0.33,0.495,0.33,0.795
		c0,0.301-0.116,0.583-0.329,0.796S13.874,8.4,13.573,8.4z"/>
	<path d="M16.224,11.052c-0.301,0-0.583-0.118-0.796-0.33c-0.437-0.438-0.437-1.151,0-1.589c0.212-0.213,0.494-0.33,0.794-0.33
		c0.301,0,0.582,0.116,0.794,0.327c0.001,0.002,0.003,0.003,0.005,0.005c0.212,0.213,0.328,0.495,0.328,0.796
		c0,0.3-0.118,0.583-0.331,0.795C16.807,10.935,16.524,11.052,16.224,11.052L16.224,11.052z"/>
	<path d="M16.224,5.749c-0.301,0-0.583-0.118-0.796-0.33c-0.437-0.438-0.437-1.151,0-1.589c0.212-0.213,0.494-0.33,0.795-0.33
		c0.301,0,0.582,0.116,0.794,0.327c0.001,0.002,0.003,0.003,0.005,0.005c0.212,0.213,0.328,0.495,0.328,0.796
		c0,0.3-0.118,0.583-0.331,0.795C16.807,5.632,16.524,5.749,16.224,5.749L16.224,5.749z"/>
	<path d="M18.876,8.4c-0.3,0-0.583-0.117-0.795-0.329c-0.212-0.212-0.33-0.494-0.33-0.795c0-0.301,0.116-0.583,0.329-0.796
		c0.004-0.005,0.021-0.02,0.025-0.024c0.202-0.194,0.479-0.306,0.771-0.306c0.3,0,0.582,0.117,0.795,0.328
		c0.213,0.212,0.33,0.495,0.33,0.795c0,0.301-0.116,0.583-0.329,0.796S19.177,8.4,18.876,8.4z"/>
	<path d="M15.694,16.89c-0.301,0-0.583-0.117-0.796-0.33c-0.212-0.212-0.33-0.495-0.33-0.795c0-0.301,0.117-0.583,0.33-0.796
		c0.211-0.212,0.494-0.33,0.795-0.33c0.3,0,0.581,0.116,0.793,0.327c0.003,0.003,0.017,0.018,0.02,0.021
		c0.199,0.206,0.312,0.483,0.312,0.777c0,0.302-0.117,0.584-0.33,0.796C16.278,16.772,15.995,16.889,15.694,16.89
		C15.695,16.89,15.695,16.89,15.694,16.89z"/>
	<path d="M18.346,19.537c-0.3,0-0.582-0.117-0.794-0.328c-0.439-0.438-0.44-1.152-0.002-1.591c0.215-0.212,0.497-0.328,0.797-0.328
		c0.299,0,0.58,0.115,0.791,0.324c0.216,0.215,0.333,0.498,0.333,0.799c0,0.3-0.117,0.583-0.329,0.795
		C18.929,19.42,18.646,19.537,18.346,19.537z"/>
	<path d="M13.042,19.537c-0.301,0-0.584-0.117-0.796-0.33c-0.437-0.438-0.437-1.15,0-1.589c0.215-0.213,0.497-0.329,0.797-0.329
		c0.299,0,0.581,0.115,0.793,0.325c0.004,0.004,0.007,0.007,0.01,0.011c0.208,0.212,0.321,0.491,0.321,0.788
		c0,0.301-0.118,0.583-0.331,0.795C13.625,19.42,13.342,19.537,13.042,19.537z"/>
</g>
</svg>
