<?xml version="1.0" encoding="utf-8"?>
<!-- Generator: Adobe Illustrator 22.1.0, SVG Export Plug-In . SVG Version: 6.00 Build 0)  -->
<svg version="1.1" id="Regular" xmlns="http://www.w3.org/2000/svg" xmlns:xlink="http://www.w3.org/1999/xlink" x="0px" y="0px"
	 viewBox="0 0 24 24" style="enable-background:new 0 0 24 24;" xml:space="preserve">
<title>arrow-dot-corner-down-right</title>
<g>
	<path d="M2.75,24C1.234,24,0,22.766,0,21.25V2.75C0,1.234,1.234,0,2.75,0h18.5C22.766,0,24,1.234,24,2.75v18.5
		c0,1.516-1.234,2.75-2.75,2.75H2.75z M2.75,1.5C2.061,1.5,1.5,2.061,1.5,2.75v18.5c0,0.689,0.561,1.25,1.25,1.25h18.5
		c0.689,0,1.25-0.561,1.25-1.25V2.75c0-0.689-0.561-1.25-1.25-1.25H2.75z"/>
	<path d="M16.5,8.625c-0.301,0-0.583-0.117-0.796-0.329c-0.433-0.435-0.437-1.144-0.008-1.582C15.919,6.491,16.2,6.375,16.5,6.375
		c0.303,0.001,0.585,0.118,0.796,0.331c0.212,0.212,0.329,0.495,0.329,0.796s-0.118,0.583-0.33,0.795
		C17.083,8.508,16.801,8.625,16.5,8.625L16.5,8.625z"/>
	<path d="M15.75,13.875c-0.301,0-0.584-0.117-0.796-0.33c-0.212-0.212-0.33-0.495-0.329-0.796c0-0.294,0.113-0.572,0.317-0.782
		c0.004-0.004,0.019-0.019,0.023-0.024c0.203-0.203,0.485-0.319,0.784-0.319c0.295,0.001,0.571,0.113,0.781,0.316
		c0.227,0.227,0.344,0.51,0.344,0.811s-0.118,0.583-0.331,0.796C16.333,13.758,16.051,13.875,15.75,13.875z"/>
	<path d="M12.75,16.875c-0.301,0-0.584-0.117-0.796-0.33c-0.212-0.212-0.329-0.495-0.329-0.796c0-0.294,0.113-0.572,0.317-0.782
		c0.227-0.226,0.508-0.343,0.808-0.343c0.294,0,0.571,0.113,0.781,0.316c0.227,0.227,0.344,0.51,0.344,0.811
		s-0.118,0.583-0.331,0.796C13.333,16.758,13.051,16.875,12.75,16.875z"/>
	<path d="M13.5,11.625c-0.301,0-0.583-0.117-0.796-0.329c-0.433-0.435-0.437-1.144-0.008-1.582C12.919,9.491,13.2,9.375,13.5,9.375
		c0.303,0.001,0.585,0.118,0.796,0.331c0.212,0.212,0.329,0.495,0.329,0.796s-0.118,0.583-0.33,0.795
		C14.083,11.508,13.801,11.625,13.5,11.625L13.5,11.625z"/>
	<path d="M10.5,14.625c-0.301,0-0.583-0.117-0.796-0.33C9.492,14.083,9.375,13.8,9.375,13.5c0-0.296,0.114-0.575,0.322-0.786
		c0.222-0.222,0.504-0.338,0.803-0.338c0.302,0.001,0.585,0.118,0.797,0.331c0.211,0.211,0.328,0.494,0.328,0.794
		c0,0.301-0.117,0.583-0.33,0.796C11.083,14.508,10.8,14.625,10.5,14.625z"/>
	<path d="M11.249,9.375c-0.301,0-0.583-0.117-0.795-0.329c-0.438-0.439-0.438-1.152,0.001-1.591c0.214-0.213,0.496-0.33,0.795-0.33
		c0.303,0.001,0.585,0.118,0.796,0.331c0.212,0.212,0.329,0.495,0.329,0.795c0,0.3-0.117,0.583-0.33,0.795
		C11.833,9.258,11.55,9.375,11.249,9.375L11.249,9.375z"/>
	<path d="M8.249,12.375c-0.301,0-0.583-0.117-0.795-0.329c-0.438-0.439-0.438-1.152,0.001-1.591c0.214-0.213,0.496-0.33,0.795-0.33
		c0.303,0.001,0.585,0.118,0.796,0.331c0.212,0.212,0.329,0.495,0.329,0.795c0,0.3-0.117,0.583-0.33,0.795
		C8.833,12.258,8.55,12.375,8.249,12.375L8.249,12.375z"/>
	<path d="M8.999,7.125c-0.301,0-0.583-0.117-0.795-0.329C7.766,6.357,7.766,5.643,8.205,5.205C8.419,4.991,8.701,4.875,9,4.875
		c0.303,0.001,0.585,0.118,0.796,0.331c0.212,0.212,0.329,0.495,0.329,0.795c0,0.3-0.117,0.583-0.33,0.795
		C9.583,7.008,9.3,7.125,8.999,7.125L8.999,7.125z"/>
	<path d="M5.999,10.125c-0.301,0-0.583-0.117-0.795-0.329C4.766,9.357,4.766,8.643,5.205,8.205C5.419,7.991,5.701,7.875,6,7.875
		c0.303,0.001,0.585,0.118,0.796,0.331c0.212,0.212,0.329,0.495,0.329,0.795c0,0.3-0.117,0.583-0.33,0.795
		C6.583,10.008,6.3,10.125,5.999,10.125L5.999,10.125z"/>
	<path d="M16.5,17.625c-0.301,0-0.584-0.117-0.796-0.33c-0.212-0.212-0.33-0.495-0.329-0.796c0-0.294,0.113-0.572,0.317-0.782
		c0.004-0.004,0.019-0.019,0.023-0.023c0.203-0.203,0.485-0.319,0.784-0.319c0.294,0,0.571,0.113,0.781,0.316
		c0.227,0.227,0.344,0.51,0.344,0.811s-0.118,0.583-0.331,0.796C17.083,17.508,16.801,17.625,16.5,17.625z"/>
	<path d="M7.5,17.625c-0.301,0-0.583-0.117-0.796-0.33C6.492,17.083,6.375,16.8,6.375,16.5c0-0.296,0.114-0.575,0.322-0.786
		C6.919,15.491,7.2,15.375,7.5,15.375c0.303,0,0.585,0.118,0.797,0.331c0.211,0.211,0.328,0.494,0.328,0.794
		c0,0.301-0.117,0.583-0.33,0.796C8.083,17.508,7.8,17.625,7.5,17.625z"/>
</g>
</svg>
