<?xml version="1.0" encoding="utf-8"?>
<!-- Generator: Adobe Illustrator 22.1.0, SVG Export Plug-In . SVG Version: 6.00 Build 0)  -->
<svg version="1.1" id="Regular" xmlns="http://www.w3.org/2000/svg" xmlns:xlink="http://www.w3.org/1999/xlink" x="0px" y="0px"
	 viewBox="0 0 24 24" style="enable-background:new 0 0 24 24;" xml:space="preserve">
<title>arrow-rectangle-left-2</title>
<g>
	<path d="M2.75,24C1.234,24,0,22.766,0,21.25V2.75C0,1.234,1.234,0,2.75,0h18.5C22.766,0,24,1.234,24,2.75v18.5
		c0,1.516-1.234,2.75-2.75,2.75H2.75z M2.75,1.5C2.061,1.5,1.5,2.061,1.5,2.75v18.5c0,0.689,0.561,1.25,1.25,1.25h18.5
		c0.689,0,1.25-0.561,1.25-1.25V2.75c0-0.689-0.561-1.25-1.25-1.25H2.75z"/>
	<path d="M12.082,19.501c-0.682-0.01-1.327-0.338-1.73-0.877l-4.36-5.608c-0.453-0.6-0.454-1.431-0.007-2.024l4.376-5.627
		c0.396-0.53,1.037-0.856,1.71-0.866H16.5c0.028,0,0.057,0.002,0.085,0.005c0.882,0.102,1.516,0.901,1.415,1.782
		c-0.035,0.307-0.157,0.595-0.353,0.834L13.85,12l3.804,4.891c0.262,0.316,0.389,0.73,0.348,1.158
		c-0.04,0.428-0.244,0.815-0.575,1.088c-0.241,0.2-0.533,0.324-0.844,0.359c-0.026,0.003-0.055,0.005-0.084,0.005H12.082z M12.085,6
		c-0.204,0.004-0.407,0.109-0.531,0.275l-4.378,5.629c-0.039,0.052-0.038,0.14,0.007,0.2l4.362,5.61
		c0.133,0.178,0.337,0.283,0.548,0.286h4.342c0.013-0.004,0.024-0.01,0.034-0.019c0.023-0.02,0.036-0.044,0.039-0.074
		c0.003-0.029-0.006-0.056-0.025-0.079l-4.176-5.369c-0.211-0.271-0.211-0.65,0-0.921c0,0,4.178-5.37,4.183-5.375
		c0.008-0.009,0.016-0.028,0.018-0.05C16.515,6.064,16.483,6.016,16.436,6H12.085z"/>
</g>
</svg>
