<?xml version="1.0" encoding="utf-8"?>
<!-- Generator: Adobe Illustrator 22.1.0, SVG Export Plug-In . SVG Version: 6.00 Build 0)  -->
<svg version="1.1" id="Regular" xmlns="http://www.w3.org/2000/svg" xmlns:xlink="http://www.w3.org/1999/xlink" x="0px" y="0px"
	 viewBox="0 0 24 24" style="enable-background:new 0 0 24 24;" xml:space="preserve">
<title>arrow-thick-dot-corner-down-left</title>
<g>
	<path d="M5.626,19.75c-0.301,0-0.583-0.118-0.796-0.33c-0.438-0.439-0.437-1.152,0.001-1.59c0.213-0.212,0.495-0.329,0.796-0.329
		c0.301,0,0.583,0.117,0.796,0.329c0.217,0.222,0.33,0.502,0.33,0.798c-0.001,0.3-0.118,0.582-0.331,0.794
		C6.209,19.633,5.927,19.75,5.626,19.75C5.626,19.75,5.626,19.75,5.626,19.75z"/>
	<path d="M11.626,19.75c-0.301,0-0.583-0.118-0.796-0.33c-0.438-0.439-0.437-1.152,0.001-1.59c0.213-0.212,0.495-0.329,0.796-0.329
		c0.301,0,0.583,0.117,0.796,0.329c0.217,0.222,0.33,0.502,0.33,0.798c-0.001,0.3-0.118,0.582-0.331,0.794
		C12.209,19.633,11.927,19.75,11.626,19.75C11.626,19.75,11.626,19.75,11.626,19.75z"/>
	<path d="M5.626,7.75c-0.301,0-0.584-0.117-0.796-0.33C4.392,6.981,4.393,6.268,4.831,5.829C5.044,5.617,5.326,5.5,5.626,5.5
		c0.301,0,0.584,0.117,0.796,0.33c0.214,0.214,0.33,0.497,0.33,0.797c-0.001,0.3-0.118,0.582-0.331,0.794
		C6.209,7.633,5.927,7.75,5.626,7.75z"/>
	<path d="M10.126,15.25c-0.301,0-0.584-0.117-0.796-0.33c-0.438-0.439-0.437-1.152,0.001-1.59c0.213-0.212,0.495-0.329,0.796-0.329
		c0.301,0,0.583,0.117,0.796,0.329c0.217,0.222,0.33,0.502,0.33,0.798c-0.001,0.3-0.118,0.582-0.331,0.794
		C10.709,15.133,10.427,15.25,10.126,15.25z"/>
	<path d="M14.626,10.75c-0.301,0-0.583-0.117-0.796-0.329c-0.212-0.213-0.329-0.496-0.329-0.796c0-0.301,0.117-0.583,0.33-0.795
		c0.212-0.212,0.494-0.328,0.795-0.328c0.301,0,0.583,0.117,0.796,0.33c0.007,0.007,0.021,0.021,0.027,0.028
		c0.412,0.421,0.406,1.13-0.028,1.563c-0.003,0.003-0.017,0.016-0.02,0.019C15.195,10.639,14.919,10.75,14.626,10.75z"/>
	<path d="M19.126,6.25c-0.301,0-0.583-0.117-0.796-0.329c-0.212-0.213-0.329-0.496-0.329-0.796c0-0.301,0.117-0.583,0.33-0.795
		c0.212-0.212,0.494-0.328,0.794-0.328c0.301,0,0.584,0.117,0.796,0.33c0.007,0.007,0.02,0.021,0.027,0.028
		c0.412,0.421,0.406,1.13-0.028,1.563c-0.003,0.003-0.017,0.016-0.02,0.019C19.695,6.139,19.419,6.25,19.126,6.25z"/>
	<path d="M5.626,13.75c-0.301,0-0.584-0.117-0.796-0.33c-0.438-0.439-0.437-1.152,0.001-1.59c0.212-0.212,0.495-0.329,0.795-0.329
		c0.301,0,0.583,0.117,0.796,0.329c0.005,0.004,0.016,0.016,0.02,0.021c0.197,0.201,0.31,0.48,0.31,0.777
		c-0.001,0.3-0.118,0.582-0.331,0.794C6.209,13.633,5.927,13.75,5.626,13.75z"/>
	<path d="M17.625,19.75c-0.301,0-0.583-0.118-0.795-0.332c-0.211-0.211-0.328-0.494-0.328-0.795c0-0.3,0.117-0.583,0.33-0.795
		c0.212-0.212,0.494-0.329,0.795-0.329c0.301,0,0.584,0.117,0.796,0.33c0.212,0.212,0.329,0.494,0.329,0.795
		c0,0.301-0.118,0.583-0.33,0.795c-0.214,0.213-0.496,0.33-0.795,0.33H17.625z"/>
</g>
</svg>
