<?xml version="1.0" encoding="utf-8"?>
<!-- Generator: Adobe Illustrator 22.1.0, SVG Export Plug-In . SVG Version: 6.00 Build 0)  -->
<svg version="1.1" id="Regular" xmlns="http://www.w3.org/2000/svg" xmlns:xlink="http://www.w3.org/1999/xlink" x="0px" y="0px"
	 viewBox="0 0 24 24" style="enable-background:new 0 0 24 24;" xml:space="preserve">
<title>arrow-thick-right-2</title>
<g>
	<path d="M14.107,22.291c-0.8,0-1.553-0.312-2.12-0.877c-0.566-0.565-0.879-1.319-0.879-2.121s0.31-1.556,0.876-2.122l1.774-1.776H3
		c-1.654,0-3-1.346-3-3c0-1.654,1.346-3,3-3h10.76l-1.773-1.773c-1.17-1.17-1.17-3.073,0-4.243c0.567-0.567,1.32-0.879,2.121-0.879
		s1.555,0.312,2.121,0.879l6.894,6.894c0.567,0.567,0.879,1.32,0.879,2.121c0,0.801-0.312,1.555-0.879,2.121l-6.894,6.895
		c-0.563,0.564-1.312,0.876-2.109,0.88C14.117,22.291,14.112,22.291,14.107,22.291z M3,10.894c-0.827,0-1.5,0.673-1.5,1.5
		s0.673,1.5,1.5,1.5h12.568c0.304,0,0.576,0.182,0.693,0.463c0.116,0.281,0.053,0.602-0.162,0.817l-3.053,3.056
		c-0.584,0.585-0.584,1.537,0.001,2.122c0.281,0.28,0.653,0.436,1.05,0.439c0.004,0,0.008,0,0.012,0c0.4,0,0.777-0.156,1.06-0.44
		l6.894-6.895c0.283-0.283,0.439-0.66,0.439-1.061s-0.156-0.777-0.439-1.061L15.17,4.44C14.887,4.156,14.51,4,14.109,4
		s-0.777,0.156-1.061,0.439c-0.585,0.585-0.585,1.536,0,2.121l3.053,3.053c0.215,0.215,0.279,0.536,0.163,0.818
		c-0.117,0.281-0.389,0.463-0.693,0.463H3z"/>
</g>
</svg>
