<?xml version="1.0" encoding="utf-8"?>
<!-- Generator: Adobe Illustrator 22.1.0, SVG Export Plug-In . SVG Version: 6.00 Build 0)  -->
<svg version="1.1" id="Regular" xmlns="http://www.w3.org/2000/svg" xmlns:xlink="http://www.w3.org/1999/xlink" x="0px" y="0px"
	 viewBox="0 0 24 24" style="enable-background:new 0 0 24 24;" xml:space="preserve">
<title>arrow-rectangle-left-1</title>
<g>
	<path d="M2.75,24C1.234,24,0,22.766,0,21.25V2.75C0,1.234,1.234,0,2.75,0h18.5C22.766,0,24,1.234,24,2.75v18.5
		c0,1.516-1.234,2.75-2.75,2.75H2.75z M2.75,1.5C2.061,1.5,1.5,2.061,1.5,2.75v18.5c0,0.689,0.561,1.25,1.25,1.25h18.5
		c0.689,0,1.25-0.561,1.25-1.25V2.75c0-0.689-0.561-1.25-1.25-1.25H2.75z"/>
	<path d="M12.681,19.501c-0.682-0.01-1.326-0.337-1.73-0.877L6.59,13.017c-0.45-0.6-0.452-1.429-0.008-2.021l4.378-5.629
		c0.395-0.531,1.036-0.857,1.71-0.867h2.177c0.028,0,0.057,0.002,0.085,0.005c0.428,0.049,0.81,0.262,1.077,0.599
		c0.267,0.337,0.387,0.757,0.338,1.184c-0.035,0.305-0.156,0.593-0.351,0.832L12.2,12l3.804,4.891
		c0.262,0.316,0.389,0.73,0.348,1.158c-0.041,0.428-0.245,0.814-0.575,1.088c-0.242,0.2-0.535,0.325-0.847,0.36
		c-0.025,0.003-0.054,0.005-0.083,0.005H12.681z M12.684,6.001c-0.204,0.004-0.407,0.109-0.53,0.275l-4.38,5.631
		c-0.039,0.052-0.037,0.14,0.008,0.2l4.362,5.608c0.134,0.178,0.336,0.283,0.548,0.286h2.094c0.013-0.004,0.025-0.011,0.036-0.02
		c0.022-0.018,0.035-0.043,0.038-0.073c0.003-0.03-0.005-0.056-0.024-0.079l-4.177-5.369c-0.211-0.271-0.211-0.65,0-0.921
		c0,0,4.176-5.367,4.18-5.372c0.008-0.01,0.016-0.03,0.019-0.05c0.003-0.031-0.004-0.058-0.023-0.081
		c-0.014-0.017-0.031-0.029-0.05-0.036H12.684z"/>
</g>
</svg>
