<?xml version="1.0" encoding="utf-8"?>
<!-- Generator: Adobe Illustrator 22.1.0, SVG Export Plug-In . SVG Version: 6.00 Build 0)  -->
<svg version="1.1" id="Regular" xmlns="http://www.w3.org/2000/svg" xmlns:xlink="http://www.w3.org/1999/xlink" x="0px" y="0px"
	 viewBox="0 0 24 24" style="enable-background:new 0 0 24 24;" xml:space="preserve">
<title>arrow-thick-right-bottom-corner-2</title>
<g>
	<path d="M7.978,21.75c-1.654,0-3-1.346-3-3s1.346-3,3-3h2.511l-7.61-7.607C2.311,7.576,1.999,6.822,1.999,6.021
		c0-0.801,0.313-1.554,0.879-2.12C3.446,3.333,4.199,3.021,5,3.021c0.803,0,1.556,0.313,2.122,0.88l7.606,7.606V9
		c0-1.654,1.346-3,3-3s3,1.346,3,3v9.75c0,1.654-1.346,3-3,3H7.978z M7.978,17.25c-0.827,0-1.5,0.673-1.5,1.5s0.673,1.5,1.5,1.5
		h9.75c0.827,0,1.5-0.673,1.5-1.5V9c0-0.827-0.673-1.5-1.5-1.5s-1.5,0.673-1.5,1.5v4.318c0,0.304-0.182,0.576-0.463,0.693
		c-0.09,0.038-0.187,0.057-0.287,0.057c-0.2,0-0.388-0.078-0.531-0.22L6.06,4.961c-0.283-0.283-0.66-0.44-1.06-0.44
		c-0.401,0-0.777,0.156-1.06,0.439C3.656,5.245,3.5,5.621,3.499,6.021c0,0.401,0.156,0.777,0.439,1.06l8.892,8.888
		c0.215,0.215,0.279,0.536,0.163,0.817S12.604,17.25,12.3,17.25H7.978z"/>
</g>
</svg>
