<?xml version="1.0" encoding="utf-8"?>
<!-- Generator: Adobe Illustrator 22.1.0, SVG Export Plug-In . SVG Version: 6.00 Build 0)  -->
<svg version="1.1" id="Regular" xmlns="http://www.w3.org/2000/svg" xmlns:xlink="http://www.w3.org/1999/xlink" x="0px" y="0px"
	 viewBox="0 0 24 24" style="enable-background:new 0 0 24 24;" xml:space="preserve">
<title>arrow-button-circle-up</title>
<g>
	<path d="M12,24C5.383,24,0,18.617,0,12C0,5.383,5.383,0,12,0c6.617,0,12,5.383,12,12C24,18.617,18.617,24,12,24z M12,1.5
		C6.21,1.5,1.5,6.21,1.5,12c0,5.79,4.71,10.5,10.5,10.5c5.79,0,10.5-4.71,10.5-10.5C22.5,6.21,17.79,1.5,12,1.5z"/>
	<path d="M7.182,16.5c-0.555,0-1.062-0.277-1.323-0.723c-0.234-0.399-0.239-0.878-0.013-1.281l4.823-8.504
		c0.011-0.02,0.022-0.037,0.034-0.055c0.109-0.16,0.247-0.297,0.408-0.408c0.264-0.181,0.57-0.276,0.887-0.276
		c0.097,0,0.195,0.009,0.292,0.027c0.414,0.077,0.772,0.311,1.009,0.658c0.011,0.017,0.023,0.036,0.034,0.056l4.817,8.499
		c0.229,0.403,0.226,0.882-0.007,1.282c-0.261,0.447-0.768,0.725-1.324,0.725H7.182z M16.713,15l-4.663-8.226
		c-0.01-0.01-0.023-0.016-0.037-0.019l-0.014-0.001c-0.014,0-0.028,0.004-0.04,0.013L7.284,15H16.713z"/>
</g>
</svg>
