<?xml version="1.0" encoding="utf-8"?>
<!-- Generator: Adobe Illustrator 22.1.0, SVG Export Plug-In . SVG Version: 6.00 Build 0)  -->
<svg version="1.1" id="Regular" xmlns="http://www.w3.org/2000/svg" xmlns:xlink="http://www.w3.org/1999/xlink" x="0px" y="0px"
	 viewBox="0 0 24 24" style="enable-background:new 0 0 24 24;" xml:space="preserve">
<title>arrow-thick-circle-bottom-left-corner-2</title>
<g>
	<path d="M12,24C5.383,24,0,18.617,0,12C0,5.383,5.383,0,12,0c6.617,0,12,5.383,12,12C24,18.617,18.617,24,12,24z M12,1.5
		C6.21,1.5,1.5,6.21,1.5,12c0,5.79,4.71,10.5,10.5,10.5c5.79,0,10.5-4.71,10.5-10.5C22.5,6.21,17.79,1.5,12,1.5z"/>
	<path d="M7.5,18C6.673,18,6,17.327,6,16.5V9.3c0-1.296,1.05-2.35,2.341-2.35c0.635,0.004,1.225,0.25,1.665,0.695
		c0.388,0.392,0.62,0.897,0.667,1.439l2.441-2.441c0.009-0.009,0.018-0.018,0.027-0.026c0.554-0.55,1.297-0.853,2.094-0.853
		c0.802,0,1.555,0.313,2.121,0.879c0.568,0.568,0.879,1.321,0.879,2.123c0,0.801-0.312,1.554-0.879,2.12l-2.441,2.441
		c1.195,0.105,2.135,1.111,2.135,2.332c-0.001,0.629-0.246,1.219-0.69,1.66C15.918,17.758,15.332,18,14.709,18H7.5z M8.347,8.45
		C7.88,8.451,7.5,8.828,7.5,9.291V16.5h7.205c0.228,0,0.438-0.087,0.597-0.245c0.159-0.158,0.247-0.369,0.248-0.594
		c0-0.465-0.377-0.843-0.841-0.843h-1.595c-0.304,0-0.576-0.182-0.693-0.463s-0.053-0.602,0.163-0.817l3.712-3.712
		c0.283-0.283,0.439-0.66,0.44-1.06c0-0.401-0.156-0.777-0.438-1.06c-0.284-0.284-0.661-0.44-1.062-0.44
		c-0.401,0-0.777,0.155-1.059,0.438c-0.009,0.009-0.018,0.018-0.028,0.026l-3.686,3.687c-0.142,0.142-0.33,0.22-0.53,0.22
		c-0.099,0-0.196-0.019-0.288-0.057c-0.281-0.116-0.462-0.388-0.462-0.693V9.3c0.001-0.228-0.085-0.441-0.243-0.6
		C8.781,8.54,8.571,8.452,8.347,8.45z"/>
</g>
</svg>
