<?xml version="1.0" encoding="utf-8"?>
<!-- Generator: Adobe Illustrator 22.1.0, SVG Export Plug-In . SVG Version: 6.00 Build 0)  -->
<svg version="1.1" id="Regular" xmlns="http://www.w3.org/2000/svg" xmlns:xlink="http://www.w3.org/1999/xlink" x="0px" y="0px"
	 viewBox="0 0 24 24" style="enable-background:new 0 0 24 24;" xml:space="preserve">
<title>arrow-rectangle-down</title>
<g>
	<path d="M2.75,24C1.234,24,0,22.766,0,21.25V2.75C0,1.234,1.234,0,2.75,0h18.5C22.766,0,24,1.234,24,2.75v18.5
		c0,1.516-1.234,2.75-2.75,2.75H2.75z M2.75,1.5C2.061,1.5,1.5,2.061,1.5,2.75v18.5c0,0.689,0.561,1.25,1.25,1.25h18.5
		c0.689,0,1.25-0.561,1.25-1.25V2.75c0-0.689-0.561-1.25-1.25-1.25H2.75z"/>
	<path d="M11.999,16.028c-0.336,0-0.654-0.109-0.919-0.315c-0.098-0.077-0.187-0.165-0.263-0.263L6.158,9.46
		C5.904,9.134,5.963,8.662,6.289,8.408C6.421,8.306,6.584,8.25,6.75,8.25c0.233,0,0.449,0.105,0.592,0.289L12,14.529l4.658-5.989
		c0.142-0.184,0.358-0.29,0.592-0.29c0.166,0,0.329,0.056,0.46,0.158c0.158,0.123,0.259,0.3,0.283,0.499
		c0.025,0.199-0.029,0.395-0.152,0.553l-4.658,5.989C12.898,15.817,12.466,16.028,11.999,16.028z"/>
</g>
</svg>
