<?xml version="1.0" encoding="utf-8"?>
<!-- Generator: Adobe Illustrator 22.1.0, SVG Export Plug-In . SVG Version: 6.00 Build 0)  -->
<svg version="1.1" id="Regular" xmlns="http://www.w3.org/2000/svg" xmlns:xlink="http://www.w3.org/1999/xlink" x="0px" y="0px"
	 viewBox="0 0 24 24" style="enable-background:new 0 0 24 24;" xml:space="preserve">
<title>arrow-thick-circle-left</title>
<g>
	<path d="M12,24C5.383,24,0,18.617,0,12C0,5.383,5.383,0,12,0c6.617,0,12,5.383,12,12C24,18.617,18.617,24,12,24z M12,1.5
		C6.21,1.5,1.5,6.21,1.5,12c0,5.79,4.71,10.5,10.5,10.5c5.79,0,10.5-4.71,10.5-10.5C22.5,6.21,17.79,1.5,12,1.5z"/>
	<path d="M12,17.94c-0.34,0-0.673-0.117-0.938-0.33l-5.548-4.438c-0.313-0.25-0.51-0.608-0.554-1.007
		c-0.044-0.398,0.07-0.79,0.321-1.103c0.068-0.085,0.146-0.163,0.232-0.233l5.55-4.439c0.265-0.212,0.597-0.329,0.935-0.329
		c0.055,0,0.111,0.003,0.167,0.009c0.398,0.044,0.755,0.24,1.006,0.553C13.383,6.887,13.5,7.22,13.5,7.56V9H18
		c0.827,0,1.5,0.673,1.5,1.5v3c0,0.827-0.673,1.5-1.5,1.5h-4.5v1.44c0,0.401-0.156,0.778-0.44,1.061
		C12.777,17.784,12.4,17.94,12,17.94L12,17.94z M6.451,11.999L12,16.439l0-2.189c0-0.414,0.336-0.75,0.75-0.75H18v-3h-5.25
		c-0.414,0-0.75-0.336-0.75-0.75V7.56L6.451,11.999z"/>
</g>
</svg>
