<?xml version="1.0" encoding="utf-8"?>
<!-- Generator: Adobe Illustrator 22.1.0, SVG Export Plug-In . SVG Version: 6.00 Build 0)  -->
<svg version="1.1" id="Regular" xmlns="http://www.w3.org/2000/svg" xmlns:xlink="http://www.w3.org/1999/xlink" x="0px" y="0px"
	 viewBox="0 0 24 24" style="enable-background:new 0 0 24 24;" xml:space="preserve">
<title>arrow-button-circle-down</title>
<g>
	<path d="M12,24C5.383,24,0,18.617,0,12C0,5.383,5.383,0,12,0c6.617,0,12,5.383,12,12C24,18.617,18.617,24,12,24z M12,1.5
		C6.21,1.5,1.5,6.21,1.5,12c0,5.79,4.71,10.5,10.5,10.5c5.79,0,10.5-4.71,10.5-10.5C22.5,6.21,17.79,1.5,12,1.5z"/>
	<path d="M12.002,18.751c-0.097,0-0.196-0.009-0.292-0.027c-0.413-0.077-0.771-0.311-1.008-0.658
		c-0.012-0.018-0.023-0.035-0.034-0.054L5.85,9.508C5.622,9.104,5.625,8.625,5.858,8.225C6.119,7.778,6.626,7.5,7.182,7.5h9.636
		c0.554,0,1.062,0.277,1.323,0.723c0.234,0.399,0.239,0.878,0.013,1.281l-4.824,8.509c-0.01,0.018-0.022,0.036-0.033,0.054
		c-0.11,0.161-0.248,0.299-0.409,0.409C12.624,18.656,12.318,18.751,12.002,18.751z M11.95,17.231
		c0.01,0.01,0.022,0.016,0.036,0.018c0.003,0,0.007,0,0.01,0c0.022,0,0.033-0.004,0.044-0.011L16.716,9H7.287L11.95,17.231z"/>
</g>
</svg>
