<?xml version="1.0" encoding="utf-8"?>
<!-- Generator: Adobe Illustrator 22.1.0, SVG Export Plug-In . SVG Version: 6.00 Build 0)  -->
<svg version="1.1" id="Regular" xmlns="http://www.w3.org/2000/svg" xmlns:xlink="http://www.w3.org/1999/xlink" x="0px" y="0px"
	 viewBox="0 0 24 24" style="enable-background:new 0 0 24 24;" xml:space="preserve">
<title>arrow-left-x</title>
<g>
	<path d="M7.993,21.25c-0.678,0-1.312-0.301-1.741-0.825L0.341,13.2c-0.452-0.551-0.452-1.35,0.001-1.901l5.91-7.224
		C6.681,3.551,7.316,3.25,7.993,3.25h13.539c1.241,0,2.25,1.009,2.25,2.25V19c0,1.241-1.009,2.25-2.25,2.25H7.993z M7.993,4.75
		c-0.226,0-0.438,0.1-0.581,0.275L1.502,12.25l5.911,7.225c0.143,0.175,0.354,0.275,0.58,0.275h13.539c0.414,0,0.75-0.336,0.75-0.75
		V5.5c0-0.414-0.336-0.75-0.75-0.75H7.993z"/>
	<path d="M18.532,16.75c-0.2,0-0.389-0.078-0.53-0.22l-3.22-3.22l-3.22,3.22c-0.142,0.142-0.33,0.22-0.53,0.22
		s-0.389-0.078-0.53-0.22c-0.292-0.292-0.292-0.768,0-1.061l3.22-3.22l-3.22-3.22c-0.142-0.141-0.22-0.33-0.22-0.53
		s0.078-0.389,0.22-0.53c0.141-0.142,0.33-0.22,0.53-0.22s0.389,0.078,0.53,0.22l3.22,3.22l3.22-3.22
		c0.142-0.142,0.33-0.22,0.53-0.22s0.389,0.078,0.53,0.22c0.142,0.141,0.22,0.33,0.22,0.53s-0.078,0.389-0.22,0.53l-3.22,3.22
		l3.22,3.22c0.292,0.292,0.292,0.768,0,1.061C18.921,16.672,18.733,16.75,18.532,16.75z"/>
</g>
</svg>
