<?xml version="1.0" encoding="utf-8"?>
<!-- Generator: Adobe Illustrator 22.1.0, SVG Export Plug-In . SVG Version: 6.00 Build 0)  -->
<svg version="1.1" id="Regular" xmlns="http://www.w3.org/2000/svg" xmlns:xlink="http://www.w3.org/1999/xlink" x="0px" y="0px"
	 viewBox="0 0 24 24" style="enable-background:new 0 0 24 24;" xml:space="preserve">
<title>arrow-button-up</title>
<g>
	<path d="M4.287,19.502c-0.398,0-0.776-0.153-1.065-0.431L0.424,16.35C0.14,16.055-0.007,15.679,0,15.282
		c0.008-0.397,0.17-0.767,0.456-1.042L10.932,4.054c0.291-0.28,0.67-0.433,1.069-0.433c0.398,0,0.776,0.153,1.065,0.431
		l10.482,10.192c-0.002-0.002-0.003-0.003-0.003-0.003s0.024,0.024,0.027,0.027c0.286,0.297,0.437,0.676,0.429,1.073
		c-0.008,0.397-0.17,0.767-0.456,1.042l-2.763,2.686c-0.291,0.28-0.67,0.433-1.068,0.433l0,0c-0.398,0-0.776-0.153-1.065-0.43
		L12,12.607c0,0-6.644,6.46-6.648,6.464C5.063,19.349,4.685,19.502,4.287,19.502z M4.265,17.993
		c0.005,0.005,0.013,0.008,0.022,0.008c0.01,0,0.018-0.003,0.025-0.01l7.165-6.967c0.141-0.137,0.326-0.212,0.523-0.212l0,0
		c0.196,0,0.382,0.075,0.522,0.212l7.168,6.969c0.012,0.003,0.021,0.004,0.028,0.004c0.01,0,0.015-0.003,0.019-0.007l2.756-2.679
		L12.022,5.129L12,5.121c-0.014,0-0.023,0.008-0.025,0.011L1.506,15.311L4.265,17.993z"/>
</g>
</svg>
