<?xml version="1.0" encoding="utf-8"?>
<!-- Generator: Adobe Illustrator 22.1.0, SVG Export Plug-In . SVG Version: 6.00 Build 0)  -->
<svg version="1.1" id="Regular" xmlns="http://www.w3.org/2000/svg" xmlns:xlink="http://www.w3.org/1999/xlink" x="0px" y="0px"
	 viewBox="0 0 24 24" style="enable-background:new 0 0 24 24;" xml:space="preserve">
<title>arrow-thick-right-4</title>
<g>
	<path d="M3.75,24C1.682,24,0,22.318,0,20.25V3.75C0,1.682,1.682,0,3.75,0h16.5C22.318,0,24,1.682,24,3.75v16.5
		c0,2.068-1.682,3.75-3.75,3.75H3.75z M3.75,1.5C2.509,1.5,1.5,2.509,1.5,3.75v16.5c0,1.241,1.009,2.25,2.25,2.25h16.5
		c1.241,0,2.25-1.009,2.25-2.25V3.75c0-1.241-1.009-2.25-2.25-2.25H3.75z"/>
	<path d="M10.811,19.5c-0.401,0-0.777-0.156-1.061-0.439c-0.283-0.283-0.44-0.66-0.44-1.061c0-0.395,0.16-0.782,0.439-1.061
		l1.94-1.94H6c-0.827,0-1.5-0.673-1.5-1.5v-3C4.5,9.673,5.173,9,6,9h5.689L9.75,7.06C9.466,6.777,9.311,6.4,9.311,5.999
		c0-0.401,0.156-0.777,0.44-1.061c0.284-0.283,0.66-0.439,1.06-0.439h2.068c0.601,0,1.165,0.234,1.59,0.658l5.781,5.781
		c0.584,0.584,0.585,1.535,0.001,2.119l-5.782,5.782c-0.425,0.425-0.99,0.659-1.59,0.659H10.811z M6,13.5h7.5
		c0.304,0,0.576,0.182,0.693,0.463s0.053,0.602-0.163,0.817L10.81,18l2.069,0c0.2,0,0.388-0.078,0.53-0.219L19.19,12l-5.781-5.781
		C13.267,6.078,13.079,6,12.879,6h-2.068l3.219,3.22c0.215,0.215,0.279,0.536,0.163,0.818C14.076,10.318,13.804,10.5,13.5,10.5H6
		V13.5z"/>
</g>
</svg>
