<?xml version="1.0" encoding="utf-8"?>
<!-- Generator: Adobe Illustrator 22.1.0, SVG Export Plug-In . SVG Version: 6.00 Build 0)  -->
<svg version="1.1" id="Regular" xmlns="http://www.w3.org/2000/svg" xmlns:xlink="http://www.w3.org/1999/xlink" x="0px" y="0px"
	 viewBox="0 0 24 24" style="enable-background:new 0 0 24 24;" xml:space="preserve">
<title>arrow-button-left-2</title>
<g>
	<path d="M20.247,23.25c-0.263,0-0.523-0.07-0.75-0.202L2.256,13.29c-0.239-0.133-0.436-0.331-0.57-0.572
		c-0.192-0.344-0.238-0.744-0.13-1.124c0.108-0.38,0.358-0.695,0.703-0.887l17.244-9.76c0.216-0.125,0.466-0.194,0.722-0.198
		c0.412,0.002,0.789,0.152,1.068,0.423c0.288,0.279,0.45,0.653,0.456,1.054v19.537c-0.004,0.265-0.074,0.519-0.202,0.74
		C21.28,22.964,20.782,23.25,20.247,23.25z M20.242,21.747l0.006-19.498L3.018,12.001L20.242,21.747z"/>
</g>
</svg>
