<?xml version="1.0" encoding="utf-8"?>
<!-- Generator: Adobe Illustrator 22.1.0, SVG Export Plug-In . SVG Version: 6.00 Build 0)  -->
<svg version="1.1" id="Regular" xmlns="http://www.w3.org/2000/svg" xmlns:xlink="http://www.w3.org/1999/xlink" x="0px" y="0px"
	 viewBox="0 0 24 24" style="enable-background:new 0 0 24 24;" xml:space="preserve">
<title>arrow-thick-circle-left-2</title>
<g>
	<path d="M12,24C5.383,24,0,18.617,0,12C0,5.383,5.383,0,12,0c6.617,0,12,5.383,12,12C24,18.617,18.617,24,12,24z M12,1.5
		C6.21,1.5,1.5,6.21,1.5,12c0,5.79,4.71,10.5,10.5,10.5c5.79,0,10.5-4.71,10.5-10.5C22.5,6.21,17.79,1.5,12,1.5z"/>
	<path d="M11.255,18.844c-0.626,0-1.213-0.243-1.655-0.684l-5.1-5.1c-0.284-0.284-0.44-0.661-0.439-1.061
		c0-0.4,0.156-0.776,0.44-1.06l5.095-5.095c0.442-0.441,1.03-0.684,1.656-0.684c0.626,0,1.214,0.243,1.655,0.684
		C13.767,6.707,13.814,8.081,13.047,9H16.5c1.654,0,3,1.346,3,3c0,1.654-1.346,3-3,3h-3.452c0.771,0.919,0.726,2.296-0.137,3.16
		C12.469,18.601,11.881,18.844,11.255,18.844L11.255,18.844z M11.25,6.66c-0.225,0-0.437,0.087-0.595,0.246L5.56,12l5.1,5.099
		c0.158,0.158,0.37,0.245,0.595,0.245s0.436-0.087,0.595-0.245c0.327-0.328,0.327-0.861,0-1.189l-1.13-1.13
		c-0.215-0.215-0.279-0.536-0.163-0.817c0.116-0.281,0.388-0.463,0.693-0.463h5.25c0.827,0,1.5-0.673,1.5-1.5s-0.673-1.5-1.5-1.5
		h-5.25c-0.305,0-0.577-0.182-0.693-0.463C10.44,9.756,10.504,9.435,10.72,9.22l1.125-1.125c0.327-0.328,0.327-0.862,0-1.19
		C11.686,6.747,11.475,6.66,11.25,6.66z"/>
</g>
</svg>
