<?xml version="1.0" encoding="utf-8"?>
<!-- Generator: Adobe Illustrator 22.1.0, SVG Export Plug-In . SVG Version: 6.00 Build 0)  -->
<svg version="1.1" id="Regular" xmlns="http://www.w3.org/2000/svg" xmlns:xlink="http://www.w3.org/1999/xlink" x="0px" y="0px"
	 viewBox="0 0 24 24" style="enable-background:new 0 0 24 24;" xml:space="preserve">
<title>arrow-button-left-1</title>
<g>
	<path d="M11.689,24c-0.2,0-0.389-0.078-0.53-0.22L0.44,13.06C0.156,12.778,0,12.401,0,12.001c0-0.4,0.155-0.777,0.438-1.06
		L11.159,0.22C11.3,0.078,11.488,0,11.689,0s0.389,0.078,0.531,0.22c0.142,0.141,0.22,0.33,0.22,0.53c0,0.2-0.078,0.389-0.22,0.53
		L1.5,12L12.219,22.72c0.292,0.292,0.292,0.768,0,1.061C12.078,23.922,11.889,24,11.689,24z"/>
	<path d="M22.939,24c-0.2,0-0.389-0.078-0.53-0.22L11.69,13.06c-0.584-0.584-0.585-1.535-0.001-2.119L22.409,0.22
		C22.55,0.078,22.739,0,22.939,0s0.389,0.078,0.53,0.22c0.142,0.141,0.22,0.33,0.22,0.53c0,0.2-0.078,0.389-0.22,0.53L12.75,12
		L23.469,22.72c0.292,0.292,0.292,0.768,0,1.061C23.327,23.922,23.139,24,22.939,24z"/>
</g>
</svg>
