<?xml version="1.0" encoding="utf-8"?>
<!-- Generator: Adobe Illustrator 22.1.0, SVG Export Plug-In . SVG Version: 6.00 Build 0)  -->
<svg version="1.1" id="Regular" xmlns="http://www.w3.org/2000/svg" xmlns:xlink="http://www.w3.org/1999/xlink" x="0px" y="0px"
	 viewBox="0 0 24 24" style="enable-background:new 0 0 24 24;" xml:space="preserve">
<title>arrow-thick-circle-right</title>
<g>
	<path d="M12,24C5.383,24,0,18.617,0,12C0,5.383,5.383,0,12,0c6.617,0,12,5.383,12,12C24,18.617,18.617,24,12,24z M12,1.5
		C6.21,1.5,1.5,6.21,1.5,12c0,5.79,4.71,10.5,10.5,10.5c5.79,0,10.5-4.71,10.5-10.5C22.5,6.21,17.79,1.5,12,1.5z"/>
	<path d="M12.002,17.94c-0.055,0-0.111-0.003-0.167-0.009c-0.398-0.044-0.756-0.24-1.006-0.553
		c-0.213-0.266-0.329-0.599-0.329-0.938V15H6c-0.827,0-1.5-0.673-1.5-1.5v-3C4.5,9.673,5.173,9,6,9h4.5V7.56
		c0-0.401,0.156-0.778,0.44-1.061C11.223,6.216,11.599,6.06,12,6.06c0.34,0,0.673,0.117,0.938,0.329l5.549,4.439
		c0.313,0.251,0.509,0.609,0.553,1.007s-0.07,0.791-0.321,1.103c-0.068,0.085-0.146,0.164-0.233,0.233l-5.549,4.439
		C12.669,17.826,12.345,17.94,12.002,17.94z M6,13.5h5.25c0.414,0,0.75,0.336,0.75,0.75v2.19L17.55,12L12,7.561l0,2.189
		c0,0.414-0.336,0.75-0.75,0.75H6V13.5z"/>
</g>
</svg>
