<?xml version="1.0" encoding="utf-8"?>
<!-- Generator: Adobe Illustrator 22.1.0, SVG Export Plug-In . SVG Version: 6.00 Build 0)  -->
<svg version="1.1" id="Regular" xmlns="http://www.w3.org/2000/svg" xmlns:xlink="http://www.w3.org/1999/xlink" x="0px" y="0px"
	 viewBox="0 0 24 24" style="enable-background:new 0 0 24 24;" xml:space="preserve">
<title>arrow-thick-circle-bottom-left-corner-1</title>
<g>
	<path d="M12,24C5.383,24,0,18.617,0,12C0,5.383,5.383,0,12,0c6.617,0,12,5.383,12,12C24,18.617,18.617,24,12,24z M12,1.5
		C6.21,1.5,1.5,6.21,1.5,12c0,5.79,4.71,10.5,10.5,10.5c5.79,0,10.5-4.71,10.5-10.5C22.5,6.21,17.79,1.5,12,1.5z"/>
	<path d="M7.6,18.118c-0.827,0-1.5-0.673-1.5-1.5V8.572c0-0.827,0.673-1.5,1.5-1.5h1.684c0.827,0,1.5,0.673,1.5,1.5V9.19l3.493-3.49
		c0.284-0.283,0.661-0.439,1.061-0.439c0.401,0,0.778,0.156,1.061,0.44l2.121,2.121c0.284,0.284,0.44,0.661,0.439,1.061
		c0,0.4-0.156,0.777-0.439,1.06l-3.493,3.493h0.619c0.827,0,1.5,0.673,1.5,1.5v1.682c0,0.827-0.673,1.5-1.5,1.5H7.6z M7.6,16.618
		h8.046v-1.682h-2.43c-0.304,0-0.576-0.182-0.693-0.463s-0.053-0.602,0.163-0.817l4.773-4.773l-2.121-2.121l-4.774,4.769
		c-0.142,0.142-0.33,0.219-0.531,0.219c-0.099,0-0.195-0.019-0.287-0.057C9.466,11.576,9.284,11.304,9.284,11V8.572H7.6V16.618z"/>
</g>
</svg>
