<?xml version="1.0" encoding="utf-8"?>
<!-- Generator: Adobe Illustrator 22.1.0, SVG Export Plug-In . SVG Version: 6.00 Build 0)  -->
<svg version="1.1" id="Regular" xmlns="http://www.w3.org/2000/svg" xmlns:xlink="http://www.w3.org/1999/xlink" x="0px" y="0px"
	 viewBox="0 0 24 24" style="enable-background:new 0 0 24 24;" xml:space="preserve">
<title>arrow-thick-right-1</title>
<g>
	<path d="M13.263,23.251c-0.401,0-0.778-0.156-1.061-0.439l-2.121-2.121c-0.284-0.284-0.44-0.661-0.44-1.061
		c0-0.401,0.156-0.778,0.44-1.061l3.364-3.365H1.498c-0.827,0-1.5-0.673-1.5-1.5v-3c0-0.827,0.673-1.5,1.5-1.5h11.947L10.081,5.84
		c-0.284-0.283-0.44-0.66-0.44-1.061c0-0.401,0.156-0.777,0.44-1.061l2.126-2.121c0.283-0.282,0.659-0.438,1.06-0.438
		c0.401,0,0.778,0.156,1.061,0.439l9.011,9.017c0.877,0.878,0.877,2.306,0,3.183l-9.016,9.015
		C14.04,23.095,13.664,23.251,13.263,23.251z M1.498,13.704h13.757c0.304,0,0.576,0.182,0.693,0.463
		c0.117,0.281,0.053,0.603-0.163,0.818l-4.644,4.646l2.121,2.121l9.017-9.015c0.292-0.292,0.293-0.768,0-1.061l-9.011-9.018
		L11.141,4.78l4.645,4.644c0.215,0.215,0.279,0.536,0.163,0.818c-0.117,0.281-0.389,0.463-0.693,0.463H1.498V13.704z"/>
</g>
</svg>
