<?xml version="1.0" encoding="utf-8"?>
<!-- Generator: Adobe Illustrator 22.1.0, SVG Export Plug-In . SVG Version: 6.00 Build 0)  -->
<svg version="1.1" id="Regular" xmlns="http://www.w3.org/2000/svg" xmlns:xlink="http://www.w3.org/1999/xlink" x="0px" y="0px"
	 viewBox="0 0 24 24" style="enable-background:new 0 0 24 24;" xml:space="preserve">
<title>arrow-rectangle-left</title>
<g>
	<path d="M2.75,24C1.234,24,0,22.766,0,21.25V2.75C0,1.234,1.234,0,2.75,0h18.5C22.766,0,24,1.234,24,2.75v18.5
		c0,1.516-1.234,2.75-2.75,2.75H2.75z M2.75,1.5C2.061,1.5,1.5,2.061,1.5,2.75v18.5c0,0.689,0.561,1.25,1.25,1.25h18.5
		c0.689,0,1.25-0.561,1.25-1.25V2.75c0-0.689-0.561-1.25-1.25-1.25H2.75z"/>
	<path d="M15,18c-0.166,0-0.329-0.056-0.46-0.158l-5.989-4.658c-0.316-0.246-0.517-0.6-0.567-0.998s0.058-0.791,0.304-1.107
		c0.076-0.098,0.164-0.186,0.263-0.263l5.989-4.658C14.67,6.056,14.833,6,15,6c0.234,0,0.45,0.106,0.593,0.29
		c0.123,0.158,0.177,0.354,0.152,0.553c-0.025,0.199-0.125,0.376-0.284,0.499L9.471,12l5.989,4.658
		c0.158,0.123,0.259,0.3,0.284,0.499c0.025,0.199-0.029,0.395-0.152,0.553C15.449,17.894,15.233,18,15,18z"/>
</g>
</svg>
