<?xml version="1.0" encoding="utf-8"?>
<!-- Generator: Adobe Illustrator 22.1.0, SVG Export Plug-In . SVG Version: 6.00 Build 0)  -->
<svg version="1.1" id="Regular" xmlns="http://www.w3.org/2000/svg" xmlns:xlink="http://www.w3.org/1999/xlink" x="0px" y="0px"
	 viewBox="0 0 24 24" style="enable-background:new 0 0 24 24;" xml:space="preserve">
<title>arrow-button-down-3</title>
<g>
	<path d="M11.999,20.254c-0.337,0-0.669-0.117-0.935-0.329L0.844,11.749C0.308,11.319,0,10.679,0,9.992V4.773
		c-0.001-0.826,0.672-1.5,1.498-1.501c0.341,0,0.674,0.117,0.939,0.329L12,11.252l9.562-7.65c0.265-0.212,0.597-0.329,0.937-0.329
		c0.459,0,0.886,0.205,1.172,0.562C23.883,4.1,24,4.433,24,4.774v5.218c0,0.687-0.308,1.327-0.845,1.757l-10.218,8.175
		c-0.267,0.213-0.6,0.33-0.938,0.33H11.999z M1.5,9.992c0,0.229,0.103,0.442,0.281,0.585L12,18.753l10.219-8.175
		c0.179-0.143,0.282-0.356,0.282-0.585V4.773l-10.031,8.025c-0.132,0.106-0.299,0.165-0.469,0.165c-0.17,0-0.336-0.059-0.469-0.165
		L1.5,4.773l0,0L1.5,9.992z"/>
</g>
</svg>
