<?xml version="1.0" encoding="utf-8"?>
<!-- Generator: Adobe Illustrator 22.1.0, SVG Export Plug-In . SVG Version: 6.00 Build 0)  -->
<svg version="1.1" id="Regular" xmlns="http://www.w3.org/2000/svg" xmlns:xlink="http://www.w3.org/1999/xlink" x="0px" y="0px"
	 viewBox="0 0 24 24" style="enable-background:new 0 0 24 24;" xml:space="preserve">
<title>arrow-thick-circle-bottom-right-corner</title>
<g>
	<path d="M12,24C5.383,24,0,18.617,0,12C0,5.383,5.383,0,12,0c6.617,0,12,5.383,12,12C24,18.617,18.617,24,12,24z M12,1.5
		C6.21,1.5,1.5,6.21,1.5,12c0,5.79,4.71,10.5,10.5,10.5c5.79,0,10.5-4.71,10.5-10.5C22.5,6.21,17.79,1.5,12,1.5z"/>
	<path d="M15.925,17.424c-0.056,0-0.112-0.003-0.167-0.01l-7.063-0.784c-0.4-0.045-0.757-0.243-1.007-0.556
		c-0.25-0.314-0.363-0.706-0.318-1.104c0.038-0.335,0.19-0.651,0.428-0.89l1.02-1.019L5.636,9.878
		C5.353,9.595,5.196,9.219,5.196,8.819c0-0.4,0.155-0.777,0.438-1.06l2.123-2.123c0.283-0.283,0.659-0.439,1.059-0.439
		c0.401,0,0.777,0.156,1.06,0.438l3.184,3.184L14.078,7.8c0.284-0.283,0.661-0.438,1.061-0.438c0.403,0,0.78,0.157,1.063,0.441
		c0.238,0.239,0.39,0.556,0.427,0.891l0.784,7.065c0.044,0.397-0.068,0.788-0.318,1.101c-0.25,0.313-0.606,0.51-1.004,0.554
		C16.038,17.42,15.982,17.424,15.925,17.424z M6.696,8.818l3.713,3.713c0.14,0.14,0.22,0.333,0.22,0.53
		c0,0.201-0.078,0.389-0.22,0.531L8.86,15.14l7.064,0.784l-0.784-7.063l-1.548,1.548c-0.137,0.137-0.331,0.216-0.531,0.216
		s-0.394-0.078-0.53-0.215L8.818,6.696L6.696,8.818z"/>
</g>
</svg>
