<?xml version="1.0" encoding="utf-8"?>
<!-- Generator: Adobe Illustrator 22.1.0, SVG Export Plug-In . SVG Version: 6.00 Build 0)  -->
<svg version="1.1" id="Regular" xmlns="http://www.w3.org/2000/svg" xmlns:xlink="http://www.w3.org/1999/xlink" x="0px" y="0px"
	 viewBox="0 0 24 24" style="enable-background:new 0 0 24 24;" xml:space="preserve">
<title>arrow-thick-up-4</title>
<g>
	<path d="M3.75,24C1.682,24,0,22.318,0,20.25V3.75C0,1.682,1.682,0,3.75,0h16.5C22.318,0,24,1.682,24,3.75v16.5
		c0,2.068-1.682,3.75-3.75,3.75H3.75z M3.75,1.5C2.509,1.5,1.5,2.509,1.5,3.75v16.5c0,1.241,1.009,2.25,2.25,2.25h16.5
		c1.241,0,2.25-1.009,2.25-2.25V3.75c0-1.241-1.009-2.25-2.25-2.25H3.75z"/>
	<path d="M10.5,19.5C9.673,19.5,9,18.827,9,18v-5.689l-1.94,1.94C6.777,14.533,6.4,14.689,6,14.689c-0.401,0-0.777-0.156-1.061-0.44
		C4.656,13.965,4.5,13.589,4.5,13.188v-2.068c0-0.601,0.234-1.165,0.658-1.59L10.94,3.75C11.223,3.466,11.6,3.31,12,3.31
		c0.401,0,0.778,0.156,1.061,0.44l5.781,5.781c0.425,0.425,0.659,0.99,0.659,1.59v2.068c0,0.401-0.156,0.777-0.438,1.06
		c-0.283,0.284-0.66,0.44-1.061,0.44c-0.401,0-0.778-0.156-1.061-0.438L15,12.311V18c0,0.827-0.673,1.5-1.5,1.5H10.5z M9.75,9.75
		c0.099,0,0.196,0.019,0.287,0.057C10.318,9.923,10.5,10.195,10.5,10.5V18h3v-7.5c0-0.305,0.182-0.577,0.463-0.693
		c0.092-0.038,0.188-0.057,0.287-0.057c0.2,0,0.389,0.078,0.53,0.22L18,13.19l0-2.069c0-0.197-0.08-0.39-0.219-0.53L12,4.81
		l-5.781,5.781C6.078,10.733,6,10.921,6,11.121v2.068L9.22,9.97C9.361,9.828,9.55,9.75,9.75,9.75z"/>
</g>
</svg>
