<?xml version="1.0" encoding="utf-8"?>
<!-- Generator: Adobe Illustrator 22.1.0, SVG Export Plug-In . SVG Version: 6.00 Build 0)  -->
<svg version="1.1" id="Regular" xmlns="http://www.w3.org/2000/svg" xmlns:xlink="http://www.w3.org/1999/xlink" x="0px" y="0px"
	 viewBox="0 0 24 24" style="enable-background:new 0 0 24 24;" xml:space="preserve">
<title>arrow-button-right-1</title>
<g>
	<path d="M12.31,24c-0.2,0-0.389-0.078-0.53-0.22c-0.292-0.292-0.292-0.768,0-1.061L22.499,12L11.78,1.28
		c-0.142-0.142-0.22-0.33-0.22-0.53c0-0.2,0.078-0.389,0.22-0.53C11.921,0.078,12.11,0,12.31,0c0.2,0,0.389,0.078,0.53,0.22
		l10.719,10.72c0.584,0.584,0.585,1.535,0.001,2.119L12.84,23.78C12.699,23.922,12.51,24,12.31,24z"/>
	<path d="M1.06,24c-0.2,0-0.389-0.078-0.53-0.22c-0.292-0.292-0.292-0.768,0-1.061L11.249,12L0.53,1.28
		C0.388,1.139,0.31,0.95,0.31,0.75c0-0.2,0.078-0.389,0.22-0.53C0.671,0.078,0.86,0,1.06,0s0.389,0.078,0.53,0.22l10.719,10.72
		c0.283,0.283,0.439,0.659,0.44,1.059s-0.155,0.777-0.438,1.06L1.59,23.78C1.449,23.922,1.261,24,1.06,24z"/>
</g>
</svg>
