<?xml version="1.0" encoding="utf-8"?>
<!-- Generator: Adobe Illustrator 22.1.0, SVG Export Plug-In . SVG Version: 6.00 Build 0)  -->
<svg version="1.1" id="Regular" xmlns="http://www.w3.org/2000/svg" xmlns:xlink="http://www.w3.org/1999/xlink" x="0px" y="0px"
	 viewBox="0 0 24 24" style="enable-background:new 0 0 24 24;" xml:space="preserve">
<title>arrow-thick-down-1</title>
<g>
	<path d="M12.045,23.998c-0.602,0-1.167-0.234-1.591-0.658l-9.015-9.016c-0.283-0.283-0.44-0.66-0.44-1.061
		c0-0.401,0.156-0.778,0.44-1.061l2.121-2.121c0.284-0.284,0.66-0.44,1.061-0.44c0.401,0,0.778,0.156,1.061,0.44l3.367,3.365V1.499
		c0-0.827,0.673-1.5,1.5-1.5h3c0.827,0,1.5,0.673,1.5,1.5v11.945l3.358-3.362c0.284-0.284,0.661-0.44,1.061-0.44
		c0.401,0,0.778,0.156,1.061,0.44l2.122,2.126c0.283,0.283,0.439,0.659,0.438,1.061c0,0.401-0.156,0.778-0.439,1.061l-9.015,9.011
		C13.211,23.765,12.646,23.998,12.045,23.998z M4.62,11.142l-2.121,2.121l9.015,9.017c0.141,0.142,0.33,0.219,0.531,0.219
		c0.201,0,0.389-0.078,0.53-0.219l9.016-9.011l-2.122-2.127l-4.639,4.645c-0.142,0.142-0.33,0.22-0.531,0.22
		c-0.099,0-0.196-0.019-0.287-0.057c-0.281-0.116-0.463-0.388-0.463-0.693V1.499h-3v13.757c0,0.304-0.182,0.576-0.463,0.693
		c-0.091,0.038-0.188,0.057-0.287,0.057c-0.2,0-0.388-0.078-0.53-0.219l-4.648-4.644l0-0.375L4.62,11.142z"/>
</g>
</svg>
