<?xml version="1.0" encoding="utf-8"?>
<!-- Generator: Adobe Illustrator 22.1.0, SVG Export Plug-In . SVG Version: 6.00 Build 0)  -->
<svg version="1.1" id="Regular" xmlns="http://www.w3.org/2000/svg" xmlns:xlink="http://www.w3.org/1999/xlink" x="0px" y="0px"
	 viewBox="0 0 24 24" style="enable-background:new 0 0 24 24;" xml:space="preserve">
<title>arrow-double-right</title>
<g>
	<path d="M12.892,21.26c-0.401-0.001-0.778-0.157-1.062-0.442c-0.283-0.284-0.439-0.661-0.438-1.062
		c0.001-0.284,0.081-0.561,0.233-0.801l4.262-6.705l-4.261-6.698c-0.442-0.704-0.23-1.633,0.472-2.073
		c0.237-0.149,0.511-0.228,0.791-0.229h4.564c0.777,0.002,1.486,0.395,1.899,1.05l4.298,6.747c0.467,0.734,0.467,1.682,0,2.416
		l-4.301,6.75c-0.411,0.653-1.12,1.045-1.895,1.047c0,0-0.001,0-0.001,0H12.892z M17.409,11.847c0.156,0.245,0.156,0.561,0,0.805
		l-4.517,7.107l4.561,0.001c0.257-0.001,0.493-0.132,0.631-0.35l4.302-6.753c0.155-0.244,0.155-0.56,0-0.804l-4.3-6.75
		c-0.139-0.221-0.376-0.353-0.635-0.353h-4.555L17.409,11.847z"/>
	<path d="M1.498,21.26c-0.402-0.001-0.779-0.157-1.062-0.442c-0.283-0.284-0.438-0.661-0.438-1.062c0-0.284,0.081-0.561,0.233-0.801
		l4.262-6.705L0.232,5.556c-0.443-0.7-0.235-1.63,0.464-2.073c0.24-0.152,0.517-0.233,0.801-0.233h4.561
		C6.835,3.252,7.545,3.644,7.959,4.3l4.298,6.747c0.467,0.734,0.467,1.682,0,2.415l-4.3,6.75c-0.412,0.654-1.121,1.046-1.897,1.047
		C6.059,21.26,1.498,21.26,1.498,21.26z M6.015,11.847c0.156,0.245,0.156,0.561,0,0.805l-4.517,7.107l4.56,0.001
		c0.257,0,0.494-0.131,0.631-0.35l4.302-6.753c0.155-0.244,0.155-0.56,0-0.805l-4.3-6.749C6.552,4.882,6.315,4.751,6.057,4.75
		l-4.557,0L6.015,11.847z"/>
</g>
</svg>
