<?xml version="1.0" encoding="utf-8"?>
<!-- Generator: Adobe Illustrator 22.1.0, SVG Export Plug-In . SVG Version: 6.00 Build 0)  -->
<svg version="1.1" id="Regular" xmlns="http://www.w3.org/2000/svg" xmlns:xlink="http://www.w3.org/1999/xlink" x="0px" y="0px"
	 viewBox="0 0 24 24" style="enable-background:new 0 0 24 24;" xml:space="preserve">
<title>arrow-thick-down-3</title>
<g>
	<path d="M11.999,24c-0.401,0-0.777-0.156-1.06-0.44l-7.281-7.28C3.24,15.862,3,15.282,3,14.689v-3.932
		c0-0.4,0.156-0.777,0.439-1.059C3.722,9.414,4.099,9.258,4.5,9.258c0.401,0,0.777,0.156,1.06,0.438L9,13.136V1.5
		C9,0.673,9.673,0,10.5,0h3C14.327,0,15,0.673,15,1.5v11.636l3.44-3.44c0.283-0.283,0.659-0.439,1.059-0.439
		c0.401,0,0.778,0.156,1.061,0.438c0.283,0.283,0.44,0.66,0.44,1.06v3.933c0,0.592-0.24,1.172-0.659,1.591l-7.281,7.28
		C12.777,23.844,12.4,24,11.999,24L11.999,24z M4.5,14.689c0,0.198,0.08,0.391,0.219,0.531L12,22.5l7.281-7.28
		c0.139-0.14,0.219-0.333,0.219-0.53v-3.932l-4.72,4.72c-0.142,0.142-0.33,0.22-0.531,0.22c-0.099,0-0.196-0.019-0.287-0.057
		c-0.281-0.117-0.463-0.389-0.463-0.693V1.5h-3v13.447c0,0.304-0.182,0.576-0.463,0.693c-0.091,0.038-0.188,0.057-0.287,0.057
		c-0.2,0-0.389-0.078-0.53-0.22l-4.72-4.72L4.5,14.689z"/>
</g>
</svg>
