<?xml version="1.0" encoding="utf-8"?>
<!-- Generator: Adobe Illustrator 22.1.0, SVG Export Plug-In . SVG Version: 6.00 Build 0)  -->
<svg version="1.1" id="Regular" xmlns="http://www.w3.org/2000/svg" xmlns:xlink="http://www.w3.org/1999/xlink" x="0px" y="0px"
	 viewBox="0 0 24 24" style="enable-background:new 0 0 24 24;" xml:space="preserve">
<title>arrow-button-right-2</title>
<g>
	<path d="M3.501,23.25c-0.813,0-1.486-0.662-1.5-1.475V2.236c0.004-0.265,0.074-0.518,0.201-0.738
		c0.2-0.347,0.524-0.595,0.911-0.699c0.128-0.034,0.259-0.052,0.39-0.052c0.261,0,0.52,0.07,0.748,0.202l17.242,9.759
		c0.238,0.133,0.436,0.331,0.57,0.571c0.192,0.345,0.238,0.744,0.13,1.124c-0.108,0.38-0.358,0.695-0.703,0.887L4.245,23.052
		c-0.215,0.124-0.464,0.193-0.719,0.198c-0.002,0-0.005,0-0.007,0H3.501z M3.501,21.762l17.227-9.763L3.501,2.249L3.501,21.762z
		 M20.755,11.984L20.755,11.984z"/>
</g>
</svg>
