<?xml version="1.0" encoding="utf-8"?>
<!-- Generator: Adobe Illustrator 22.1.0, SVG Export Plug-In . SVG Version: 6.00 Build 0)  -->
<svg version="1.1" id="Regular" xmlns="http://www.w3.org/2000/svg" xmlns:xlink="http://www.w3.org/1999/xlink" x="0px" y="0px"
	 viewBox="0 0 24 24" style="enable-background:new 0 0 24 24;" xml:space="preserve">
<title>arrow-thick-right-bottom-corner</title>
<g>
	<path d="M22.348,24c-0.053,0-0.106-0.002-0.159-0.008L6.479,22.1c-0.423-0.042-0.812-0.253-1.089-0.592
		c-0.276-0.338-0.405-0.764-0.361-1.199c0.038-0.38,0.209-0.736,0.481-1.003l2.599-2.598L0.477,9.074
		c-0.31-0.312-0.48-0.725-0.479-1.164s0.173-0.85,0.484-1.159l6.268-6.268C7.057,0.174,7.468,0.002,7.906,0
		C8.36,0.005,8.76,0.169,9.069,0.475l7.636,7.636l2.603-2.604c0.306-0.312,0.72-0.484,1.162-0.484c0.433,0,0.841,0.167,1.148,0.469
		c0.272,0.268,0.443,0.624,0.481,1.003l1.889,15.677c0.044,0.452-0.086,0.885-0.366,1.225c-0.28,0.341-0.676,0.552-1.115,0.594
		C22.454,23.998,22.402,24,22.348,24z M7.913,1.5c-0.038,0-0.073,0.015-0.099,0.042L1.542,7.813
		c-0.03,0.029-0.044,0.064-0.044,0.102c0,0.038,0.014,0.073,0.041,0.1L9.7,16.177c0.14,0.14,0.22,0.333,0.22,0.53
		c0,0.2-0.078,0.389-0.22,0.53L6.566,20.37c-0.027,0.026-0.041,0.056-0.045,0.089c-0.004,0.037,0.007,0.072,0.03,0.1
		s0.055,0.046,0.092,0.05l15.707,1.892c0.052-0.006,0.087-0.024,0.113-0.056c0.026-0.031,0.038-0.069,0.033-0.11L20.609,6.661
		c-0.005-0.045-0.018-0.075-0.042-0.098c-0.035-0.034-0.075-0.039-0.096-0.039c-0.021,0-0.063,0.005-0.098,0.041l-3.137,3.138
		c-0.137,0.137-0.33,0.215-0.531,0.215c-0.2,0-0.393-0.078-0.53-0.215L8.012,1.539C7.985,1.514,7.952,1.5,7.913,1.5L7.912,1.125
		L7.913,1.5z"/>
</g>
</svg>
