<?xml version="1.0" encoding="utf-8"?>
<!-- Generator: Adobe Illustrator 22.1.0, SVG Export Plug-In . SVG Version: 6.00 Build 0)  -->
<svg version="1.1" id="Regular" xmlns="http://www.w3.org/2000/svg" xmlns:xlink="http://www.w3.org/1999/xlink" x="0px" y="0px"
	 viewBox="0 0 24 24" style="enable-background:new 0 0 24 24;" xml:space="preserve">
<title>arrow-rectangle-up-1</title>
<g>
	<path d="M2.75,24C1.234,24,0,22.766,0,21.25V2.75C0,1.234,1.234,0,2.75,0h18.5C22.766,0,24,1.234,24,2.75v18.5
		c0,1.516-1.234,2.75-2.75,2.75H2.75z M2.75,1.5C2.061,1.5,1.5,2.061,1.5,2.75v18.5c0,0.689,0.561,1.25,1.25,1.25h18.5
		c0.689,0,1.25-0.561,1.25-1.25V2.75c0-0.689-0.561-1.25-1.25-1.25H2.75z"/>
	<path d="M6.104,16.359c-0.051,0-0.101-0.002-0.152-0.007c-0.428-0.04-0.815-0.245-1.089-0.575c-0.2-0.242-0.324-0.534-0.36-0.846
		c-0.003-0.028-0.005-0.056-0.005-0.084v-2.166c0.01-0.682,0.337-1.326,0.877-1.73l5.607-4.361c0.295-0.221,0.655-0.341,1.018-0.341
		c0.361,0,0.718,0.118,1.004,0.333l5.629,4.378c0.53,0.396,0.856,1.037,0.865,1.71v2.177c0,0.029-0.002,0.058-0.005,0.087
		c-0.048,0.424-0.26,0.807-0.596,1.074c-0.288,0.229-0.634,0.349-1,0.349l0,0c-0.06,0-0.121-0.003-0.182-0.01
		c-0.308-0.035-0.596-0.157-0.835-0.352L12,12.2l-4.891,3.804C6.837,16.23,6.476,16.359,6.104,16.359z M5.999,14.785
		c0.004,0.013,0.011,0.025,0.019,0.035c0.019,0.023,0.044,0.036,0.073,0.039c0.001,0,0.002,0,0.003,0
		c0.035,0,0.057-0.008,0.076-0.024l5.369-4.177C11.671,10.556,11.834,10.5,12,10.5s0.329,0.056,0.46,0.158l5.351,4.162
		c0.032,0.026,0.052,0.034,0.073,0.037c0.002,0,0.004,0,0.006,0c0.034,0,0.055-0.008,0.073-0.022
		c0.017-0.014,0.029-0.031,0.036-0.05v-2.104c-0.003-0.199-0.108-0.404-0.275-0.528l-5.63-4.379
		c-0.021-0.016-0.057-0.027-0.094-0.027c-0.039,0-0.078,0.013-0.108,0.035l-5.607,4.362c-0.178,0.134-0.283,0.337-0.286,0.548
		V14.785z"/>
</g>
</svg>
