<?xml version="1.0" encoding="utf-8"?>
<!-- Generator: Adobe Illustrator 22.1.0, SVG Export Plug-In . SVG Version: 6.00 Build 0)  -->
<svg version="1.1" id="Regular" xmlns="http://www.w3.org/2000/svg" xmlns:xlink="http://www.w3.org/1999/xlink" x="0px" y="0px"
	 viewBox="0 0 24 24" style="enable-background:new 0 0 24 24;" xml:space="preserve">
<title>arrow-button-circle-right</title>
<g>
	<path d="M12,24C5.383,24,0,18.617,0,12C0,5.383,5.383,0,12,0c6.617,0,12,5.383,12,12C24,18.617,18.617,24,12,24z M12,1.5
		C6.21,1.5,1.5,6.21,1.5,12c0,5.79,4.71,10.5,10.5,10.5c5.79,0,10.5-4.71,10.5-10.5C22.5,6.21,17.79,1.5,12,1.5z"/>
	<path d="M8.873,18.318c-0.226,0-0.45-0.061-0.648-0.176C7.778,17.881,7.5,17.374,7.5,16.818V7.182c0-0.555,0.277-1.062,0.723-1.323
		C8.422,5.742,8.647,5.68,8.875,5.68c0.218,0,0.436,0.057,0.629,0.165l8.504,4.823c0.02,0.012,0.037,0.022,0.053,0.033
		c0.162,0.111,0.299,0.248,0.409,0.408c0.238,0.348,0.326,0.766,0.249,1.179c-0.077,0.413-0.311,0.771-0.657,1.009
		c-0.017,0.012-0.037,0.024-0.058,0.036l-8.496,4.816C9.313,18.26,9.093,18.318,8.873,18.318z M9,16.713l8.226-4.663
		c0.01-0.01,0.016-0.022,0.019-0.037c0.004-0.02,0-0.038-0.011-0.054L9,7.284V16.713z"/>
</g>
</svg>
