<?xml version="1.0" encoding="utf-8"?>
<!-- Generator: Adobe Illustrator 22.1.0, SVG Export Plug-In . SVG Version: 6.00 Build 0)  -->
<svg version="1.1" id="Regular" xmlns="http://www.w3.org/2000/svg" xmlns:xlink="http://www.w3.org/1999/xlink" x="0px" y="0px"
	 viewBox="0 0 24 24" style="enable-background:new 0 0 24 24;" xml:space="preserve">
<title>arrow-double-down</title>
<g>
	<path d="M11.745,24.001c-0.43,0-0.847-0.121-1.207-0.35L3.797,19.35c-0.653-0.411-1.045-1.12-1.047-1.895v-4.563
		c0.001-0.402,0.157-0.779,0.442-1.062c0.283-0.282,0.659-0.438,1.059-0.438c0.287,0,0.564,0.081,0.804,0.233l6.695,4.261
		l6.698-4.261c0.242-0.152,0.518-0.231,0.8-0.231c0.521,0,0.997,0.263,1.273,0.703c0.149,0.238,0.229,0.511,0.229,0.792v4.563
		c-0.002,0.776-0.394,1.486-1.05,1.899l-6.747,4.298C12.593,23.88,12.175,24.001,11.745,24.001z M4.25,17.453
		c0.001,0.257,0.131,0.493,0.35,0.631l6.743,4.302c0.119,0.076,0.258,0.116,0.401,0.116c0.144,0,0.283-0.04,0.403-0.116l6.749-4.299
		c0.221-0.139,0.352-0.376,0.353-0.635v-4.559l-7.097,4.517c-0.12,0.077-0.26,0.117-0.403,0.117s-0.282-0.041-0.403-0.117
		l-7.096-4.517c0.002,0.001,0.001,0.001,0,0.001L4.25,17.453z"/>
	<path d="M11.745,12.607c-0.43,0-0.847-0.121-1.207-0.35L3.797,7.956C3.143,7.544,2.751,6.835,2.75,6.06V1.498
		c0.001-0.402,0.157-0.779,0.442-1.062c0.283-0.282,0.659-0.438,1.059-0.438c0.287,0,0.564,0.081,0.804,0.233l6.695,4.261
		l6.698-4.261c0.242-0.152,0.518-0.231,0.8-0.231c0.521,0,0.997,0.263,1.273,0.703c0.149,0.237,0.229,0.511,0.229,0.791v4.563
		c-0.001,0.777-0.394,1.487-1.05,1.9l-6.747,4.298C12.593,12.486,12.175,12.607,11.745,12.607L11.745,12.607z M4.25,6.058
		c0,0.257,0.131,0.494,0.35,0.631l6.743,4.302c0.119,0.076,0.258,0.116,0.402,0.116s0.283-0.04,0.402-0.116l6.75-4.3
		c0.221-0.139,0.352-0.376,0.353-0.635V1.498l-7.097,4.517c-0.12,0.077-0.26,0.117-0.403,0.117s-0.282-0.041-0.403-0.117L4.25,1.498
		L4.25,6.058z"/>
</g>
</svg>
