<?xml version="1.0" encoding="utf-8"?>
<!-- Generator: Adobe Illustrator 22.1.0, SVG Export Plug-In . SVG Version: 6.00 Build 0)  -->
<svg version="1.1" id="Regular" xmlns="http://www.w3.org/2000/svg" xmlns:xlink="http://www.w3.org/1999/xlink" x="0px" y="0px"
	 viewBox="0 0 24 24" style="enable-background:new 0 0 24 24;" xml:space="preserve">
<title>arrow-thick-circle-up-2</title>
<g>
	<path d="M12,24C5.383,24,0,18.617,0,12C0,5.383,5.383,0,12,0c6.617,0,12,5.383,12,12C24,18.617,18.617,24,12,24z M12,1.5
		C6.21,1.5,1.5,6.21,1.5,12c0,5.79,4.71,10.5,10.5,10.5c5.79,0,10.5-4.71,10.5-10.5C22.5,6.21,17.79,1.5,12,1.5z"/>
	<path d="M12,19.5c-1.654,0-3-1.346-3-3v-3.452c-0.421,0.354-0.948,0.546-1.505,0.546c-0.626,0-1.213-0.243-1.655-0.684
		C4.928,11.998,4.928,10.513,5.839,9.6l5.1-5.1C11.223,4.216,11.6,4.06,12,4.06c0.401,0,0.778,0.156,1.061,0.44l5.094,5.095
		c0.912,0.913,0.912,2.398,0,3.31c-0.442,0.442-1.03,0.685-1.656,0.685c0,0,0,0,0,0c-0.555,0-1.08-0.191-1.5-0.542V16.5
		C15,18.154,13.654,19.5,12,19.5z M9.75,10.5c0.099,0,0.196,0.019,0.287,0.057c0.281,0.116,0.463,0.388,0.463,0.693v5.25
		c0,0.827,0.673,1.5,1.5,1.5s1.5-0.673,1.5-1.5v-5.25c0-0.305,0.182-0.577,0.463-0.693c0.092-0.038,0.188-0.057,0.287-0.057
		c0.2,0,0.389,0.078,0.531,0.219l1.125,1.125c0.158,0.158,0.37,0.245,0.595,0.245s0.437-0.087,0.595-0.246
		c0.327-0.328,0.327-0.861-0.001-1.189L12,5.56L6.9,10.66c-0.327,0.328-0.327,0.862,0,1.19c0.158,0.158,0.369,0.245,0.594,0.245
		c0.225,0,0.437-0.087,0.595-0.246l1.13-1.13C9.361,10.578,9.55,10.5,9.75,10.5z"/>
</g>
</svg>
