<?xml version="1.0" encoding="utf-8"?>
<!-- Generator: Adobe Illustrator 22.1.0, SVG Export Plug-In . SVG Version: 6.00 Build 0)  -->
<svg version="1.1" id="Regular" xmlns="http://www.w3.org/2000/svg" xmlns:xlink="http://www.w3.org/1999/xlink" x="0px" y="0px"
	 viewBox="0 0 24 24" style="enable-background:new 0 0 24 24;" xml:space="preserve">
<title>arrow-rectangle-up-2</title>
<g>
	<path d="M2.75,24C1.234,24,0,22.766,0,21.25V2.75C0,1.234,1.234,0,2.75,0h18.5C22.766,0,24,1.234,24,2.75v18.5
		c0,1.516-1.234,2.75-2.75,2.75H2.75z M2.75,1.5C2.061,1.5,1.5,2.061,1.5,2.75v18.5c0,0.689,0.561,1.25,1.25,1.25h18.5
		c0.689,0,1.25-0.561,1.25-1.25V2.75c0-0.689-0.561-1.25-1.25-1.25H2.75z"/>
	<path d="M6.106,18.011c-0.483,0-0.935-0.212-1.242-0.583c-0.2-0.242-0.324-0.534-0.359-0.845c-0.003-0.027-0.005-0.056-0.005-0.084
		v-4.417c0.01-0.682,0.338-1.327,0.877-1.73l5.607-4.36C11.277,5.77,11.637,5.65,12,5.65c0.362,0,0.719,0.119,1.006,0.335
		l5.627,4.376c0.53,0.396,0.855,1.037,0.865,1.71V16.5c0,0.029-0.002,0.058-0.005,0.087c-0.094,0.81-0.78,1.422-1.594,1.422h0
		c-0.062,0-0.126-0.004-0.189-0.011c-0.306-0.036-0.593-0.157-0.831-0.352L12,13.85l-4.891,3.805
		C6.836,17.882,6.476,18.011,6.106,18.011z M5.999,16.436c0.004,0.013,0.011,0.024,0.02,0.035c0.028,0.033,0.064,0.039,0.084,0.039
		c0.018,0,0.044-0.004,0.068-0.024l5.369-4.177c0.131-0.102,0.294-0.158,0.46-0.158s0.33,0.056,0.461,0.158l5.351,4.163
		c0.033,0.027,0.052,0.034,0.073,0.037c0.001,0,0.003,0,0.005,0c0.035,0,0.056-0.008,0.075-0.022
		c0.017-0.013,0.029-0.03,0.035-0.049v-4.354c-0.003-0.199-0.108-0.404-0.275-0.528l-5.63-4.378C12.072,7.159,12.037,7.148,12,7.148
		c-0.038,0-0.076,0.012-0.106,0.035l-5.609,4.362c-0.178,0.133-0.283,0.337-0.286,0.548V16.436z"/>
</g>
</svg>
