<?xml version="1.0" encoding="utf-8"?>
<!-- Generator: Adobe Illustrator 22.1.0, SVG Export Plug-In . SVG Version: 6.00 Build 0)  -->
<svg version="1.1" id="Regular" xmlns="http://www.w3.org/2000/svg" xmlns:xlink="http://www.w3.org/1999/xlink" x="0px" y="0px"
	 viewBox="0 0 24 24" style="enable-background:new 0 0 24 24;" xml:space="preserve">
<title>arrow-thick-circle-right-1</title>
<g>
	<path d="M12,24C5.383,24,0,18.617,0,12C0,5.383,5.383,0,12,0c6.617,0,12,5.383,12,12C24,18.617,18.617,24,12,24z M12,1.5
		C6.21,1.5,1.5,6.21,1.5,12c0,5.79,4.71,10.5,10.5,10.5c5.79,0,10.5-4.71,10.5-10.5C22.5,6.21,17.79,1.5,12,1.5z"/>
	<path d="M12.749,19.19c-0.401,0-0.777-0.156-1.06-0.44L10.5,17.56c-0.284-0.284-0.44-0.661-0.439-1.061
		c0-0.4,0.156-0.777,0.44-1.06L10.939,15H6c-0.827,0-1.5-0.673-1.5-1.5v-3C4.5,9.673,5.173,9,6,9h4.939L10.5,8.56
		c-0.284-0.284-0.44-0.661-0.439-1.061c0-0.4,0.156-0.776,0.44-1.06l1.19-1.19c0.284-0.283,0.66-0.439,1.06-0.439
		c0.401,0,0.778,0.156,1.061,0.44L19.5,10.94c0.585,0.586,0.584,1.537,0,2.121l-5.69,5.689C13.527,19.034,13.15,19.19,12.749,19.19
		L12.749,19.19z M6,13.5h6.75c0.304,0,0.576,0.182,0.693,0.463s0.053,0.602-0.163,0.817l-1.72,1.72l1.19,1.189L18.44,12L12.75,6.31
		L11.56,7.5l1.72,1.719c0.215,0.215,0.279,0.536,0.163,0.818c-0.117,0.281-0.389,0.463-0.693,0.463H6V13.5z"/>
</g>
</svg>
