<?xml version="1.0" encoding="utf-8"?>
<!-- Generator: Adobe Illustrator 22.1.0, SVG Export Plug-In . SVG Version: 6.00 Build 0)  -->
<svg version="1.1" id="Regular" xmlns="http://www.w3.org/2000/svg" xmlns:xlink="http://www.w3.org/1999/xlink" x="0px" y="0px"
	 viewBox="0 0 24 24" style="enable-background:new 0 0 24 24;" xml:space="preserve">
<title>arrow-thick-circle-right-2</title>
<g>
	<path d="M12,24C5.383,24,0,18.617,0,12C0,5.383,5.383,0,12,0c6.617,0,12,5.383,12,12C24,18.617,18.617,24,12,24z M12,1.5
		C6.21,1.5,1.5,6.21,1.5,12c0,5.79,4.71,10.5,10.5,10.5c5.79,0,10.5-4.71,10.5-10.5C22.5,6.21,17.79,1.5,12,1.5z"/>
	<path d="M12.749,18.839c-0.625,0-1.213-0.243-1.654-0.684c-0.862-0.863-0.909-2.237-0.142-3.156H7.5c-1.654,0-3-1.346-3-3
		c0-1.654,1.346-3,3-3h3.461c-0.776-0.917-0.732-2.299,0.133-3.165c0.442-0.441,1.03-0.684,1.656-0.684
		c0.626,0,1.213,0.243,1.655,0.684l5.096,5.101c0.283,0.284,0.439,0.661,0.439,1.061s-0.156,0.777-0.44,1.06l-5.094,5.1
		C13.963,18.596,13.376,18.839,12.749,18.839L12.749,18.839z M7.5,10.5C6.673,10.5,6,11.173,6,12s0.673,1.5,1.5,1.5h5.25
		c0.304,0,0.576,0.182,0.693,0.463s0.053,0.602-0.163,0.817l-1.125,1.125c-0.327,0.328-0.327,0.862,0,1.19
		c0.158,0.158,0.369,0.245,0.594,0.245c0.225,0,0.437-0.087,0.596-0.246l5.094-5.099l-5.095-5.1
		C13.187,6.737,12.975,6.65,12.75,6.65s-0.437,0.087-0.595,0.245c-0.327,0.328-0.327,0.861,0.001,1.189l1.127,1.137
		c0.214,0.216,0.276,0.536,0.16,0.816c-0.117,0.281-0.389,0.462-0.692,0.462H7.5z"/>
</g>
</svg>
