<?xml version="1.0" encoding="utf-8"?>
<!-- Generator: Adobe Illustrator 22.1.0, SVG Export Plug-In . SVG Version: 6.00 Build 0)  -->
<svg version="1.1" id="Regular" xmlns="http://www.w3.org/2000/svg" xmlns:xlink="http://www.w3.org/1999/xlink" x="0px" y="0px"
	 viewBox="0 0 24 24" style="enable-background:new 0 0 24 24;" xml:space="preserve">
<title>arrow-thick-circle-bottom-left-corner</title>
<g>
	<path d="M12,24C5.383,24,0,18.617,0,12C0,5.383,5.383,0,12,0c6.617,0,12,5.383,12,12C24,18.617,18.617,24,12,24z M12,1.5
		C6.21,1.5,1.5,6.21,1.5,12c0,5.79,4.71,10.5,10.5,10.5c5.79,0,10.5-4.71,10.5-10.5C22.5,6.21,17.79,1.5,12,1.5z"/>
	<path d="M8.073,17.424c-0.342,0-0.664-0.113-0.933-0.328c-0.313-0.25-0.51-0.606-0.554-1.004c-0.013-0.111-0.013-0.223,0-0.335
		L7.37,8.695c0.045-0.399,0.243-0.757,0.556-1.007C8.194,7.474,8.517,7.361,8.86,7.361c0.056,0,0.113,0.003,0.169,0.009
		C9.365,7.409,9.681,7.56,9.92,7.798l1.019,1.02l3.183-3.182c0.283-0.283,0.659-0.439,1.059-0.439c0.401,0,0.777,0.156,1.06,0.438
		l2.123,2.123c0.584,0.584,0.585,1.535,0.001,2.119l-3.184,3.184l1.018,1.018c0.585,0.588,0.583,1.54-0.003,2.124
		c-0.24,0.238-0.556,0.39-0.891,0.427l-7.064,0.784C8.185,17.421,8.129,17.424,8.073,17.424z M15.139,15.139l-1.549-1.548
		c-0.142-0.142-0.22-0.33-0.22-0.53c0-0.198,0.08-0.391,0.22-0.53l3.713-3.713l-2.122-2.121l-3.712,3.713
		c-0.142,0.142-0.33,0.22-0.53,0.22c-0.201,0-0.389-0.078-0.531-0.22L8.86,8.86V8.486l0,0.375c0,0,0.001,0,0.001,0
		c0,0-0.785,7.063-0.785,7.064L15.139,15.139z"/>
</g>
</svg>
