<?xml version="1.0" encoding="utf-8"?>
<!-- Generator: Adobe Illustrator 22.1.0, SVG Export Plug-In . SVG Version: 6.00 Build 0)  -->
<svg version="1.1" id="Regular" xmlns="http://www.w3.org/2000/svg" xmlns:xlink="http://www.w3.org/1999/xlink" x="0px" y="0px"
	 viewBox="0 0 24 24" style="enable-background:new 0 0 24 24;" xml:space="preserve">
<title>arrow-right-x</title>
<g>
	<path d="M2.468,21.25c-1.241,0-2.25-1.009-2.25-2.25V5.5c0-1.241,1.009-2.25,2.25-2.25h13.539c0.677,0,1.312,0.301,1.741,0.825
		l5.911,7.225c0.452,0.55,0.452,1.35-0.001,1.901l-5.91,7.224c-0.429,0.524-1.064,0.825-1.742,0.825H2.468z M2.468,4.75
		c-0.414,0-0.75,0.336-0.75,0.75V19c0,0.414,0.336,0.75,0.75,0.75h13.539c0.226,0,0.438-0.1,0.581-0.275l5.91-7.225l-5.911-7.225
		C16.444,4.85,16.232,4.75,16.007,4.75H2.468z"/>
	<path d="M12.968,16.75c-0.2,0-0.389-0.078-0.53-0.22l-3.22-3.22l-3.22,3.22c-0.142,0.142-0.33,0.22-0.53,0.22
		s-0.389-0.078-0.53-0.22c-0.142-0.142-0.22-0.33-0.22-0.53s0.078-0.389,0.22-0.53l3.22-3.22l-3.22-3.22
		C4.796,8.889,4.718,8.7,4.718,8.5s0.078-0.389,0.22-0.53c0.141-0.142,0.33-0.22,0.53-0.22s0.389,0.078,0.53,0.22l3.22,3.22
		l3.22-3.22c0.142-0.142,0.33-0.22,0.53-0.22s0.389,0.078,0.53,0.22c0.142,0.141,0.22,0.33,0.22,0.53s-0.078,0.389-0.22,0.53
		l-3.22,3.22l3.22,3.22c0.292,0.292,0.292,0.768,0,1.061C13.356,16.672,13.168,16.75,12.968,16.75z"/>
</g>
</svg>
