<?xml version="1.0" encoding="utf-8"?>
<!-- Generator: Adobe Illustrator 22.1.0, SVG Export Plug-In . SVG Version: 6.00 Build 0)  -->
<svg version="1.1" id="Regular" xmlns="http://www.w3.org/2000/svg" xmlns:xlink="http://www.w3.org/1999/xlink" x="0px" y="0px"
	 viewBox="0 0 24 24" style="enable-background:new 0 0 24 24;" xml:space="preserve">
<title>arrow-thick-up-2</title>
<g>
	<path d="M11.894,24c-1.654,0-3-1.346-3-3V10.241l-1.773,1.771C6.555,12.578,5.802,12.89,5,12.89c-0.802,0-1.555-0.312-2.121-0.878
		C2.312,11.446,2,10.692,2,9.891C2,9.09,2.312,8.336,2.879,7.77l6.894-6.891C10.339,0.312,11.093,0,11.894,0
		s1.555,0.312,2.121,0.879L20.91,7.77c0.567,0.566,0.88,1.319,0.88,2.121c0.001,0.801-0.311,1.555-0.877,2.122
		c-0.566,0.567-1.32,0.879-2.123,0.879c0,0,0,0,0,0c-0.802,0-1.554-0.311-2.12-0.876l-1.776-1.774V21
		C14.894,22.654,13.548,24,11.894,24z M9.644,7.682c0.099,0,0.196,0.019,0.287,0.057c0.281,0.116,0.463,0.388,0.463,0.693V21
		c0,0.827,0.673,1.5,1.5,1.5s1.5-0.673,1.5-1.5V8.432c0-0.304,0.182-0.576,0.463-0.693c0.092-0.038,0.188-0.057,0.287-0.057
		c0.2,0,0.389,0.078,0.53,0.219l3.056,3.053c0.283,0.282,0.659,0.438,1.06,0.438c0.402,0,0.779-0.156,1.062-0.439
		c0.283-0.284,0.439-0.66,0.438-1.061c0-0.401-0.156-0.777-0.44-1.061L12.955,1.94c-0.283-0.283-0.659-0.439-1.061-0.439
		c-0.401,0-0.778,0.156-1.061,0.438L3.939,8.831C3.656,9.114,3.5,9.49,3.5,9.891s0.156,0.777,0.439,1.061
		C4.222,11.234,4.599,11.39,5,11.39s0.778-0.156,1.061-0.438l3.053-3.05C9.255,7.76,9.444,7.682,9.644,7.682z"/>
</g>
</svg>
