<?xml version="1.0" encoding="utf-8"?>
<!-- Generator: Adobe Illustrator 22.1.0, SVG Export Plug-In . SVG Version: 6.00 Build 0)  -->
<svg version="1.1" id="Regular" xmlns="http://www.w3.org/2000/svg" xmlns:xlink="http://www.w3.org/1999/xlink" x="0px" y="0px"
	 viewBox="0 0 24 24" style="enable-background:new 0 0 24 24;" xml:space="preserve">
<title>arrow-thick-left-bottom-corner-2</title>
<g>
	<path d="M5.522,22c-1.654,0-3-1.346-3-3V9.25c0-1.654,1.346-3,3-3s3,1.346,3,3v2.507l7.607-7.607
		c0.567-0.567,1.321-0.879,2.121-0.879c0.8,0,1.551,0.311,2.116,0.874c0.573,0.573,0.884,1.326,0.884,2.127
		c0,0.801-0.312,1.554-0.879,2.12L12.764,16h2.508c1.654,0,3,1.346,3,3s-1.346,3-3,3H5.522z M5.522,7.75c-0.827,0-1.5,0.673-1.5,1.5
		V19c0,0.827,0.673,1.5,1.5,1.5h9.75c0.827,0,1.5-0.673,1.5-1.5s-0.673-1.5-1.5-1.5h-4.318c-0.305,0-0.577-0.182-0.693-0.463
		c-0.117-0.281-0.053-0.602,0.163-0.817l8.887-8.887c0.283-0.283,0.439-0.66,0.44-1.06c0-0.397-0.153-0.771-0.432-1.053
		c-0.002-0.002-0.003-0.003-0.004-0.004c-0.287-0.287-0.663-0.443-1.064-0.444c-0.401,0-0.777,0.156-1.06,0.439l-8.889,8.888
		c-0.141,0.142-0.33,0.22-0.53,0.22c-0.099,0-0.196-0.019-0.288-0.058c-0.281-0.116-0.462-0.388-0.462-0.693V9.25
		C7.022,8.423,6.349,7.75,5.522,7.75z"/>
</g>
</svg>
