<?xml version="1.0" encoding="utf-8"?>
<!-- Generator: Adobe Illustrator 22.1.0, SVG Export Plug-In . SVG Version: 6.00 Build 0)  -->
<svg version="1.1" id="Regular" xmlns="http://www.w3.org/2000/svg" xmlns:xlink="http://www.w3.org/1999/xlink" x="0px" y="0px"
	 viewBox="0 0 24 24" style="enable-background:new 0 0 24 24;" xml:space="preserve">
<title>arrow-thick-down</title>
<g>
	<path d="M12.002,24c-0.048,0-0.096-0.002-0.145-0.007c-0.403-0.038-0.766-0.231-1.023-0.543L2.581,12.936
		c-0.214-0.261-0.333-0.601-0.329-0.951C2.26,11.166,2.932,10.5,3.751,10.5H6.75v-9C6.753,0.672,7.428,0,8.253,0h7.491
		c0.829,0,1.503,0.672,1.506,1.497V10.5h2.992c0.353,0,0.689,0.12,0.956,0.339c0.31,0.253,0.503,0.612,0.543,1.011
		c0.04,0.398-0.077,0.788-0.331,1.099l-8.233,10.488c-0.071,0.086-0.14,0.156-0.215,0.219C12.691,23.877,12.351,24,12.002,24z
		 M3.751,12.001l8.252,10.509l8.236-10.5L16.5,12c-0.414,0-0.75-0.336-0.75-0.75V1.5H8.256L8.25,11.25C8.25,11.664,7.914,12,7.5,12
		H3.754C3.752,12,3.752,12.001,3.751,12.001z"/>
</g>
</svg>
