<?xml version="1.0" encoding="utf-8"?>
<!-- Generator: Adobe Illustrator 22.1.0, SVG Export Plug-In . SVG Version: 6.00 Build 0)  -->
<svg version="1.1" id="Regular" xmlns="http://www.w3.org/2000/svg" xmlns:xlink="http://www.w3.org/1999/xlink" x="0px" y="0px"
	 viewBox="0 0 24 24" style="enable-background:new 0 0 24 24;" xml:space="preserve">
<title>arrow-thick-circle-up-1</title>
<g>
	<path d="M12,24C5.383,24,0,18.617,0,12C0,5.383,5.383,0,12,0c6.617,0,12,5.383,12,12C24,18.617,18.617,24,12,24z M12,1.5
		C6.21,1.5,1.5,6.21,1.5,12c0,5.79,4.71,10.5,10.5,10.5c5.79,0,10.5-4.71,10.5-10.5C22.5,6.21,17.79,1.5,12,1.5z"/>
	<path d="M10.5,19.5C9.673,19.5,9,18.827,9,18v-4.939L8.56,13.5c-0.284,0.283-0.66,0.439-1.061,0.439
		c-0.401,0-0.777-0.156-1.06-0.439L5.25,12.31c-0.284-0.284-0.44-0.661-0.439-1.061c0-0.4,0.156-0.776,0.44-1.06l5.69-5.69
		C11.223,4.217,11.6,4.061,12,4.061c0.401,0,0.777,0.156,1.06,0.439l5.69,5.69c0.585,0.586,0.584,1.537,0,2.121L17.56,13.5
		c-0.284,0.283-0.66,0.439-1.06,0.439c-0.401,0-0.778-0.156-1.061-0.44L15,13.061V18c0,0.827-0.673,1.5-1.5,1.5H10.5z M9.75,10.5
		c0.099,0,0.196,0.019,0.287,0.057c0.281,0.116,0.463,0.388,0.463,0.693V18h3v-6.75c0-0.305,0.182-0.577,0.463-0.693
		c0.092-0.038,0.188-0.057,0.287-0.057c0.2,0,0.389,0.078,0.531,0.219l1.72,1.72l1.189-1.19L12,5.56L6.31,11.25L7.5,12.44
		l1.719-1.72C9.361,10.578,9.55,10.5,9.75,10.5z"/>
</g>
</svg>
