<?xml version="1.0" encoding="utf-8"?>
<!-- Generator: Adobe Illustrator 22.1.0, SVG Export Plug-In . SVG Version: 6.00 Build 0)  -->
<svg version="1.1" id="Regular" xmlns="http://www.w3.org/2000/svg" xmlns:xlink="http://www.w3.org/1999/xlink" x="0px" y="0px"
	 viewBox="0 0 24 24" style="enable-background:new 0 0 24 24;" xml:space="preserve">
<title>arrow-thick-dot-corner-down-right</title>
<g>
	<path d="M18.375,19.25c-0.301,0-0.583-0.117-0.795-0.329c-0.212-0.211-0.329-0.493-0.33-0.793
		c-0.001-0.301,0.115-0.583,0.327-0.795c0.215-0.215,0.497-0.332,0.798-0.332s0.583,0.117,0.795,0.329
		c0.212,0.211,0.329,0.494,0.33,0.794c0,0.301-0.116,0.583-0.329,0.796C18.959,19.133,18.676,19.25,18.375,19.25z"/>
	<path d="M12.375,19.251c-0.3,0-0.583-0.117-0.795-0.329c-0.439-0.438-0.439-1.152-0.001-1.591c0.212-0.213,0.495-0.33,0.797-0.33
		c0.3,0,0.581,0.116,0.793,0.328c0.214,0.214,0.331,0.497,0.331,0.797s-0.117,0.583-0.329,0.796
		C12.959,19.133,12.677,19.251,12.375,19.251C12.375,19.251,12.375,19.251,12.375,19.251z"/>
	<path d="M18.375,7.251c-0.301,0-0.583-0.117-0.796-0.329c-0.212-0.212-0.329-0.495-0.33-0.795c0-0.301,0.117-0.584,0.33-0.796
		c0.211-0.212,0.494-0.33,0.795-0.33c0.3,0,0.581,0.116,0.793,0.327c0.005,0.005,0.016,0.017,0.021,0.021
		C19.386,5.551,19.5,5.83,19.5,6.126c0,0.3-0.116,0.583-0.329,0.796S18.676,7.251,18.375,7.251L18.375,7.251z"/>
	<path d="M13.875,14.75c-0.301,0-0.583-0.117-0.795-0.329c-0.438-0.436-0.44-1.149-0.002-1.588c0.215-0.215,0.497-0.332,0.798-0.332
		c0.301,0,0.583,0.117,0.795,0.329C14.883,13.042,15,13.324,15,13.625c0,0.301-0.116,0.583-0.329,0.796
		C14.459,14.633,14.176,14.75,13.875,14.75z"/>
	<path d="M9.375,10.25c-0.3,0-0.583-0.117-0.795-0.328C8.368,9.711,8.25,9.429,8.25,9.128c0-0.3,0.116-0.583,0.327-0.796
		c0.214-0.214,0.497-0.331,0.798-0.331c0.3,0,0.583,0.117,0.795,0.328c0.439,0.438,0.439,1.152,0.002,1.591
		C9.959,10.133,9.676,10.25,9.375,10.25z"/>
	<path d="M4.875,5.75c-0.3,0-0.583-0.117-0.795-0.328C3.868,5.211,3.75,4.929,3.75,4.628c0-0.3,0.116-0.583,0.327-0.796
		c0.214-0.214,0.497-0.331,0.798-0.331c0.3,0,0.583,0.117,0.795,0.328C6.109,4.268,6.109,4.982,5.672,5.42
		C5.459,5.633,5.176,5.75,4.875,5.75z"/>
	<path d="M18.375,13.251c-0.3,0-0.582-0.117-0.795-0.329c-0.439-0.439-0.439-1.152-0.001-1.591c0.212-0.213,0.495-0.33,0.796-0.33
		c0.3,0,0.582,0.116,0.793,0.327c0.214,0.214,0.331,0.497,0.331,0.797s-0.117,0.583-0.329,0.796
		c-0.212,0.212-0.494,0.329-0.794,0.33C18.376,13.251,18.375,13.251,18.375,13.251z"/>
	<path d="M6.375,19.251c-0.3,0-0.583-0.117-0.795-0.329c-0.439-0.438-0.439-1.152-0.001-1.591c0.213-0.213,0.495-0.33,0.796-0.33
		c0.295,0,0.573,0.113,0.784,0.318c0.45,0.449,0.45,1.163,0.012,1.602C6.959,19.134,6.676,19.251,6.375,19.251z"/>
</g>
</svg>
