<?xml version="1.0" encoding="utf-8"?>
<!-- Generator: Adobe Illustrator 22.1.0, SVG Export Plug-In . SVG Version: 6.00 Build 0)  -->
<svg version="1.1" id="Regular" xmlns="http://www.w3.org/2000/svg" xmlns:xlink="http://www.w3.org/1999/xlink" x="0px" y="0px"
	 viewBox="0 0 24 24" style="enable-background:new 0 0 24 24;" xml:space="preserve">
<title>arrow-thick-up-3</title>
<g>
	<path d="M10.5,24.001c-0.827,0-1.5-0.673-1.5-1.5V10.865l-3.44,3.44c-0.284,0.283-0.66,0.439-1.06,0.439
		c-0.401,0-0.777-0.156-1.06-0.438C3.157,14.022,3,13.645,3,13.245V9.312c0-0.601,0.234-1.166,0.658-1.591l7.281-7.28
		c0.283-0.283,0.66-0.439,1.06-0.439c0.401,0,0.777,0.156,1.06,0.439l7.281,7.28C20.766,8.146,21,8.711,21,9.313v3.932
		c-0.001,0.401-0.156,0.777-0.438,1.059c-0.283,0.284-0.66,0.44-1.062,0.44l0,0c-0.401,0-0.777-0.156-1.06-0.438L15,10.865v11.636
		c0,0.827-0.673,1.5-1.5,1.5H10.5z M9.75,8.304c0.099,0,0.196,0.019,0.287,0.057C10.318,8.478,10.5,8.75,10.5,9.054v13.447h3V9.054
		c0-0.305,0.182-0.577,0.463-0.693c0.091-0.038,0.188-0.057,0.287-0.057c0.2,0,0.388,0.078,0.53,0.219l4.72,4.72l0-3.932
		c0-0.201-0.078-0.389-0.219-0.531L12,1.501l-7.281,7.28C4.578,8.923,4.5,9.112,4.5,9.312v3.932l4.72-4.72
		C9.361,8.382,9.55,8.304,9.75,8.304z"/>
</g>
</svg>
