<?xml version="1.0" encoding="utf-8"?>
<!-- Generator: Adobe Illustrator 22.1.0, SVG Export Plug-In . SVG Version: 6.00 Build 0)  -->
<svg version="1.1" id="Regular" xmlns="http://www.w3.org/2000/svg" xmlns:xlink="http://www.w3.org/1999/xlink" x="0px" y="0px"
	 viewBox="0 0 24 24" style="enable-background:new 0 0 24 24;" xml:space="preserve">
<title>arrow-rectangle-right-1</title>
<g>
	<path d="M2.75,24C1.234,24,0,22.766,0,21.25V2.75C0,1.234,1.234,0,2.75,0h18.5C22.766,0,24,1.234,24,2.75v18.5
		c0,1.516-1.234,2.75-2.75,2.75H2.75z M2.75,1.5C2.061,1.5,1.5,2.061,1.5,2.75v18.5c0,0.689,0.561,1.25,1.25,1.25h18.5
		c0.689,0,1.25-0.561,1.25-1.25V2.75c0-0.689-0.561-1.25-1.25-1.25H2.75z"/>
	<path d="M9.153,19.5c-0.029,0-0.059-0.002-0.088-0.005c-0.424-0.048-0.806-0.26-1.074-0.597c-0.267-0.336-0.388-0.757-0.339-1.183
		c0.035-0.308,0.157-0.597,0.353-0.836L11.8,12L7.997,7.11c-0.264-0.318-0.39-0.733-0.349-1.16s0.246-0.813,0.575-1.086
		c0.241-0.2,0.533-0.324,0.845-0.359C9.097,4.502,9.125,4.5,9.153,4.5h2.167c0.682,0.01,1.327,0.338,1.729,0.878l4.361,5.606
		c0.45,0.6,0.452,1.429,0.008,2.021l-4.378,5.629c-0.394,0.53-1.035,0.856-1.708,0.866c-0.002,0-0.004,0-0.006,0H9.153z M11.32,18
		c0.198-0.003,0.403-0.108,0.527-0.275l4.38-5.63c0.039-0.052,0.037-0.14-0.008-0.2l-4.362-5.608C11.723,6.108,11.52,6.003,11.309,6
		H9.216C9.203,6.004,9.191,6.011,9.181,6.019C9.135,6.057,9.128,6.126,9.167,6.172l4.175,5.368c0.211,0.271,0.211,0.649,0,0.921
		l-4.161,5.351c-0.027,0.034-0.036,0.053-0.038,0.073c-0.003,0.03,0.004,0.057,0.023,0.08c0.013,0.017,0.03,0.029,0.05,0.035H11.32z
		"/>
</g>
</svg>
