<?xml version="1.0" encoding="utf-8"?>
<!-- Generator: Adobe Illustrator 22.1.0, SVG Export Plug-In . SVG Version: 6.00 Build 0)  -->
<svg version="1.1" id="Regular" xmlns="http://www.w3.org/2000/svg" xmlns:xlink="http://www.w3.org/1999/xlink" x="0px" y="0px"
	 viewBox="0 0 24 24" style="enable-background:new 0 0 24 24;" xml:space="preserve">
<title>arrow-thick-down-2</title>
<g>
	<path d="M11.861,24.003c-0.802,0-1.555-0.312-2.121-0.879l-6.9-6.893c-1.171-1.17-1.172-3.074-0.002-4.245
		c0.565-0.565,1.315-0.877,2.113-0.88c0.003,0,0.007,0,0.01,0c0.801,0,1.554,0.312,2.121,0.878l1.774,1.773V3c0-1.654,1.346-3,3-3
		s3,1.346,3,3v10.76l1.773-1.773c0.566-0.566,1.319-0.877,2.121-0.877c0.802,0,1.555,0.312,2.121,0.877
		c1.17,1.17,1.17,3.073,0,4.243l-6.888,6.894C13.416,23.691,12.662,24.003,11.861,24.003L11.861,24.003z M4.96,12.607
		c-0.401,0-0.778,0.156-1.061,0.44C3.314,13.632,3.314,14.585,3.9,15.17l6.9,6.893c0.284,0.284,0.66,0.44,1.061,0.44
		c0.401,0,0.777-0.156,1.061-0.439l6.888-6.894c0.585-0.585,0.585-1.537,0-2.122c-0.283-0.283-0.66-0.439-1.061-0.439
		c-0.4,0-0.777,0.156-1.061,0.439l-3.053,3.053c-0.142,0.142-0.33,0.22-0.531,0.22c-0.099,0-0.196-0.019-0.287-0.057
		c-0.281-0.116-0.462-0.388-0.462-0.693V3c0-0.827-0.673-1.5-1.5-1.5c-0.827,0-1.5,0.673-1.5,1.5v12.568
		c0,0.304-0.182,0.576-0.463,0.693c-0.091,0.038-0.188,0.057-0.287,0.057c-0.2,0-0.389-0.078-0.531-0.22l-3.054-3.053
		C5.738,12.763,5.362,12.607,4.96,12.607l0-0.375L4.96,12.607z"/>
</g>
</svg>
