<?xml version="1.0" encoding="utf-8"?>
<!-- Generator: Adobe Illustrator 22.1.0, SVG Export Plug-In . SVG Version: 6.00 Build 0)  -->
<svg version="1.1" id="Regular" xmlns="http://www.w3.org/2000/svg" xmlns:xlink="http://www.w3.org/1999/xlink" x="0px" y="0px"
	 viewBox="0 0 24 24" style="enable-background:new 0 0 24 24;" xml:space="preserve">
<title>arrow-circle-left</title>
<g>
	<path d="M12,24C5.383,24,0,18.617,0,12C0,5.383,5.383,0,12,0c6.617,0,12,5.383,12,12C24,18.617,18.617,24,12,24z M12,1.5
		C6.21,1.5,1.5,6.21,1.5,12c0,5.79,4.71,10.5,10.5,10.5c5.79,0,10.5-4.71,10.5-10.5C22.5,6.21,17.79,1.5,12,1.5z"/>
	<path d="M15,18c-0.143,0-0.282-0.041-0.403-0.117l-7.256-4.617c-0.184-0.118-0.342-0.276-0.459-0.458
		c-0.216-0.337-0.287-0.739-0.2-1.131c0.086-0.391,0.32-0.726,0.658-0.942l7.257-4.618C14.718,6.041,14.857,6,15,6
		c0.258,0,0.494,0.13,0.633,0.347c0.222,0.349,0.119,0.814-0.23,1.036L8.147,12l7.256,4.617c0.349,0.222,0.452,0.687,0.23,1.035
		C15.494,17.87,15.258,18,15,18z"/>
</g>
</svg>
