<?xml version="1.0" encoding="utf-8"?>
<!-- Generator: Adobe Illustrator 22.1.0, SVG Export Plug-In . SVG Version: 6.00 Build 0)  -->
<svg version="1.1" id="Regular" xmlns="http://www.w3.org/2000/svg" xmlns:xlink="http://www.w3.org/1999/xlink" x="0px" y="0px"
	 viewBox="0 0 24 24" style="enable-background:new 0 0 24 24;" xml:space="preserve">
<title>arrow-thick-circle-down-2</title>
<g>
	<path d="M12,24C5.383,24,0,18.617,0,12C0,5.383,5.383,0,12,0c6.617,0,12,5.383,12,12C24,18.617,18.617,24,12,24z M12,1.5
		C6.21,1.5,1.5,6.21,1.5,12c0,5.79,4.71,10.5,10.5,10.5c5.79,0,10.5-4.71,10.5-10.5C22.5,6.21,17.79,1.5,12,1.5z"/>
	<path d="M12.004,19.939c-0.401,0-0.777-0.156-1.059-0.439l-5.099-5.094c-0.912-0.913-0.912-2.398-0.001-3.311
		c0.442-0.441,1.03-0.684,1.656-0.684c0.555,0,1.08,0.191,1.5,0.542V7.5c0-1.654,1.346-3,3-3c1.654,0,3,1.346,3,3v3.461
		c0.42-0.356,0.95-0.55,1.51-0.55c0.626,0,1.214,0.243,1.655,0.684c0.912,0.913,0.912,2.398,0.001,3.31l-5.101,5.096
		C12.782,19.783,12.405,19.939,12.004,19.939L12.004,19.939z M7.5,11.91c-0.225,0-0.437,0.087-0.595,0.245
		c-0.327,0.328-0.327,0.861,0.001,1.19l5.099,5.094l5.1-5.095c0.327-0.327,0.327-0.861,0-1.189
		c-0.158-0.158-0.369-0.245-0.594-0.245c-0.225,0-0.437,0.087-0.596,0.246l-1.137,1.127c-0.141,0.14-0.328,0.217-0.528,0.217
		c-0.099,0-0.196-0.019-0.288-0.057c-0.281-0.117-0.462-0.389-0.462-0.693V7.5C13.5,6.673,12.827,6,12,6s-1.5,0.673-1.5,1.5v5.25
		c0,0.304-0.182,0.576-0.463,0.693C9.946,13.481,9.849,13.5,9.75,13.5c-0.2,0-0.389-0.078-0.53-0.22l-1.125-1.125
		C7.936,11.997,7.725,11.91,7.5,11.91z"/>
</g>
</svg>
