<?xml version="1.0" encoding="utf-8"?>
<!-- Generator: Adobe Illustrator 22.1.0, SVG Export Plug-In . SVG Version: 6.00 Build 0)  -->
<svg version="1.1" id="Regular" xmlns="http://www.w3.org/2000/svg" xmlns:xlink="http://www.w3.org/1999/xlink" x="0px" y="0px"
	 viewBox="0 0 24 24" style="enable-background:new 0 0 24 24;" xml:space="preserve">
<title>arrow-left-2</title>
<g>
	<path d="M9.311,21c-0.602,0-1.166-0.234-1.591-0.659L0.44,13.06C0.156,12.778,0,12.401,0,12.001c0-0.4,0.155-0.777,0.438-1.06
		L7.72,3.659C8.144,3.234,8.709,3,9.31,3h12.128c1.241,0,2.25,1.009,2.25,2.25v13.5c0,1.241-1.009,2.25-2.25,2.25H9.311z M9.31,4.5
		c-0.2,0-0.389,0.078-0.53,0.219L1.5,12l7.28,7.281C8.92,19.42,9.113,19.5,9.31,19.5h12.129c0.414,0,0.75-0.336,0.75-0.75V5.25
		c0-0.414-0.336-0.75-0.75-0.75H9.31z"/>
</g>
</svg>
