<?xml version="1.0" encoding="utf-8"?>
<!-- Generator: Adobe Illustrator 22.1.0, SVG Export Plug-In . SVG Version: 6.00 Build 0)  -->
<svg version="1.1" id="Regular" xmlns="http://www.w3.org/2000/svg" xmlns:xlink="http://www.w3.org/1999/xlink" x="0px" y="0px"
	 viewBox="0 0 24 24" style="enable-background:new 0 0 24 24;" xml:space="preserve">
<title>arrow-thick-left bottom-corner-1</title>
<g>
	<path d="M4.5,21.751c-1.241,0-2.25-1.009-2.25-2.25V6.751c0-0.827,0.673-1.5,1.5-1.5h3c0.827,0,1.5,0.673,1.5,1.5v4.757
		l8.448-8.448c0.283-0.283,0.66-0.439,1.061-0.439s0.778,0.156,1.061,0.439l2.121,2.121c0.284,0.284,0.44,0.661,0.439,1.061
		c0,0.401-0.156,0.777-0.439,1.061l-8.448,8.447h4.757c0.827,0,1.5,0.673,1.5,1.5v3c0,0.827-0.673,1.5-1.5,1.5H4.5z M3.75,19.501
		c0,0.414,0.336,0.75,0.75,0.75h12.75v-3h-6.568c-0.305,0-0.577-0.182-0.693-0.463c-0.117-0.281-0.053-0.602,0.163-0.817
		l9.728-9.728l-2.121-2.121L8.03,13.849c-0.141,0.142-0.33,0.22-0.53,0.22c-0.099,0-0.196-0.019-0.287-0.057
		c-0.281-0.117-0.463-0.389-0.463-0.693V6.751h-3V19.501z"/>
</g>
</svg>
