<?xml version="1.0" encoding="utf-8"?>
<!-- Generator: Adobe Illustrator 22.1.0, SVG Export Plug-In . SVG Version: 6.00 Build 0)  -->
<svg version="1.1" id="Regular" xmlns="http://www.w3.org/2000/svg" xmlns:xlink="http://www.w3.org/1999/xlink" x="0px" y="0px"
	 viewBox="0 0 24 24" style="enable-background:new 0 0 24 24;" xml:space="preserve">
<title>arrow-thick-right bottom-corner-1</title>
<g>
	<path d="M6.381,21.501c-0.827,0-1.5-0.673-1.5-1.5v-3c0-0.827,0.673-1.5,1.5-1.5h4.757L2.691,7.053
		c-0.585-0.585-0.585-1.537,0-2.122l2.119-2.12c0.283-0.283,0.66-0.439,1.061-0.439c0.401,0,0.778,0.156,1.061,0.439l8.45,8.448
		V6.501c0-0.827,0.673-1.5,1.5-1.5h3c0.827,0,1.5,0.673,1.5,1.5v12.75c0,1.241-1.009,2.25-2.25,2.25H6.381z M6.381,20.001h12.75
		c0.414,0,0.75-0.336,0.75-0.75V6.501h-3v6.568c0,0.304-0.182,0.576-0.463,0.693c-0.091,0.038-0.188,0.057-0.287,0.057
		c-0.2,0-0.389-0.078-0.531-0.22l-9.73-9.728L3.752,5.992l9.728,9.729c0.215,0.215,0.279,0.536,0.163,0.817
		s-0.389,0.463-0.693,0.463H6.381V20.001z"/>
</g>
</svg>
