<?xml version="1.0" encoding="utf-8"?>
<!-- Generator: Adobe Illustrator 22.1.0, SVG Export Plug-In . SVG Version: 6.00 Build 0)  -->
<svg version="1.1" id="Regular" xmlns="http://www.w3.org/2000/svg" xmlns:xlink="http://www.w3.org/1999/xlink" x="0px" y="0px"
	 viewBox="0 0 24 24" style="enable-background:new 0 0 24 24;" xml:space="preserve">
<title>arrow-thick-up-1</title>
<g>
	<path d="M10.55,24.001c-0.827,0-1.5-0.673-1.5-1.5V10.554l-3.368,3.365c-0.283,0.283-0.66,0.438-1.061,0.438
		c-0.401,0-0.778-0.156-1.061-0.439L1.44,11.797c-0.585-0.585-0.585-1.537,0-2.122l9.015-9.016c0.431-0.427,0.994-0.659,1.591-0.659
		c0.602,0,1.167,0.234,1.591,0.659l9.019,9.016c0.585,0.586,0.585,1.538,0,2.122l-2.121,2.121c-0.283,0.283-0.66,0.439-1.061,0.439
		l0,0c-0.401,0-0.778-0.156-1.061-0.439l-3.364-3.364v11.946c0,0.827-0.673,1.5-1.5,1.5H10.55z M9.8,7.994
		c0.099,0,0.196,0.019,0.287,0.057c0.281,0.116,0.463,0.388,0.463,0.693v13.757h3V8.744c0-0.305,0.182-0.577,0.463-0.693
		c0.091-0.038,0.188-0.057,0.287-0.057c0.201,0,0.389,0.078,0.531,0.22l4.644,4.644l2.122-2.121l-9.019-9.016
		c-0.141-0.142-0.33-0.22-0.531-0.22c-0.201,0-0.389,0.078-0.53,0.219L2.5,10.736l2.121,2.121L9.27,8.214
		C9.411,8.072,9.6,7.994,9.8,7.994z"/>
</g>
</svg>
