<?xml version="1.0" encoding="utf-8"?>
<!-- Generator: Adobe Illustrator 22.1.0, SVG Export Plug-In . SVG Version: 6.00 Build 0)  -->
<svg version="1.1" id="Regular" xmlns="http://www.w3.org/2000/svg" xmlns:xlink="http://www.w3.org/1999/xlink" x="0px" y="0px"
	 viewBox="0 0 24 24" style="enable-background:new 0 0 24 24;" xml:space="preserve">
<title>arrow-thick-down-4</title>
<g>
	<path d="M3.75,24C1.682,24,0,22.318,0,20.25V3.75C0,1.682,1.682,0,3.75,0h16.5C22.318,0,24,1.682,24,3.75v16.5
		c0,2.068-1.682,3.75-3.75,3.75H3.75z M3.75,1.5C2.509,1.5,1.5,2.509,1.5,3.75v16.5c0,1.241,1.009,2.25,2.25,2.25h16.5
		c1.241,0,2.25-1.009,2.25-2.25V3.75c0-1.241-1.009-2.25-2.25-2.25H3.75z"/>
	<path d="M12,20.689c-0.401,0-0.778-0.156-1.06-0.439l-5.781-5.781c-0.425-0.425-0.659-0.99-0.659-1.59v-2.068
		c0-0.4,0.155-0.777,0.439-1.06c0.283-0.284,0.66-0.44,1.061-0.44c0.401,0,0.777,0.156,1.061,0.439L9,11.689V6
		c0-0.827,0.673-1.5,1.5-1.5h3C14.327,4.5,15,5.173,15,6v5.689l1.94-1.94c0.279-0.279,0.665-0.439,1.06-0.439
		c0.402,0,0.778,0.156,1.062,0.44s0.439,0.66,0.439,1.061v2.067c0,0.6-0.234,1.165-0.658,1.59L13.06,20.25
		C12.777,20.533,12.4,20.689,12,20.689z M6,12.879c0,0.2,0.078,0.388,0.219,0.53L12,19.19l5.781-5.781
		c0.141-0.142,0.219-0.33,0.219-0.53v-2.068l-3.22,3.219c-0.142,0.142-0.33,0.22-0.531,0.22c-0.099,0-0.196-0.019-0.287-0.057
		C13.682,14.076,13.5,13.804,13.5,13.5V6h-3v7.5c0,0.304-0.182,0.576-0.463,0.693C9.946,14.231,9.849,14.25,9.75,14.25
		c-0.2,0-0.389-0.078-0.53-0.22L6,10.81L6,12.879z"/>
</g>
</svg>
