<?xml version="1.0" encoding="utf-8"?>
<!-- Generator: Adobe Illustrator 22.1.0, SVG Export Plug-In . SVG Version: 6.00 Build 0)  -->
<svg version="1.1" id="Regular" xmlns="http://www.w3.org/2000/svg" xmlns:xlink="http://www.w3.org/1999/xlink" x="0px" y="0px"
	 viewBox="0 0 24 24" style="enable-background:new 0 0 24 24;" xml:space="preserve">
<title>arrow-rectangle-down-2</title>
<g>
	<path d="M2.75,24C1.234,24,0,22.766,0,21.25V2.75C0,1.234,1.234,0,2.75,0h18.5C22.766,0,24,1.234,24,2.75v18.5
		c0,1.516-1.234,2.75-2.75,2.75H2.75z M2.75,1.5C2.061,1.5,1.5,2.061,1.5,2.75v18.5c0,0.689,0.561,1.25,1.25,1.25h18.5
		c0.689,0,1.25-0.561,1.25-1.25V2.75c0-0.689-0.561-1.25-1.25-1.25H2.75z"/>
	<path d="M12,18.351c-0.362,0-0.719-0.119-1.006-0.335l-5.628-4.377c-0.53-0.396-0.856-1.037-0.866-1.71V7.5
		c0-0.028,0.002-0.056,0.005-0.084C4.599,6.602,5.285,5.99,6.102,5.99c0.061,0,0.123,0.004,0.185,0.011
		c0.307,0.036,0.596,0.158,0.834,0.353L12,10.15l4.891-3.804c0.273-0.227,0.633-0.355,1.005-0.355c0.051,0,0.102,0.002,0.153,0.007
		c0.428,0.04,0.814,0.244,1.088,0.575c0.2,0.241,0.324,0.533,0.36,0.845c0.003,0.026,0.005,0.055,0.005,0.084v4.417
		c-0.01,0.682-0.338,1.327-0.877,1.73l-5.607,4.361C12.723,18.231,12.363,18.351,12,18.351z M6,11.918
		c0.003,0.199,0.109,0.404,0.275,0.529l5.63,4.379c0.022,0.016,0.057,0.028,0.094,0.028c0.039,0,0.076-0.012,0.106-0.035
		l5.609-4.362c0.178-0.133,0.283-0.337,0.286-0.548V7.565c-0.004-0.013-0.011-0.024-0.02-0.035
		c-0.019-0.023-0.043-0.036-0.073-0.039c-0.001,0-0.002,0-0.003,0c-0.035,0-0.056,0.008-0.076,0.024l-5.37,4.177
		C12.329,11.794,12.166,11.85,12,11.85s-0.329-0.056-0.46-0.158L6.189,7.529C6.155,7.502,6.136,7.494,6.115,7.491L6.1,7.49
		c-0.045,0-0.085,0.031-0.1,0.074V11.918z"/>
</g>
</svg>
