<?xml version="1.0" encoding="utf-8"?>
<!-- Generator: Adobe Illustrator 22.1.0, SVG Export Plug-In . SVG Version: 6.00 Build 0)  -->
<svg version="1.1" id="Regular" xmlns="http://www.w3.org/2000/svg" xmlns:xlink="http://www.w3.org/1999/xlink" x="0px" y="0px"
	 viewBox="0 0 24 24" style="enable-background:new 0 0 24 24;" xml:space="preserve">
<title>arrow-thick-circle-down</title>
<g>
	<path d="M12,24C5.383,24,0,18.617,0,12C0,5.383,5.383,0,12,0c6.617,0,12,5.383,12,12C24,18.617,18.617,24,12,24z M12,1.5
		C6.21,1.5,1.5,6.21,1.5,12c0,5.79,4.71,10.5,10.5,10.5c5.79,0,10.5-4.71,10.5-10.5C22.5,6.21,17.79,1.5,12,1.5z"/>
	<path d="M11.998,19.05c-0.344,0-0.667-0.114-0.937-0.33c-0.086-0.069-0.164-0.147-0.233-0.232l-4.439-5.55
		c-0.25-0.312-0.364-0.703-0.319-1.102c0.044-0.399,0.24-0.756,0.552-1.006C6.887,10.617,7.22,10.5,7.56,10.5H9V6
		c0-0.827,0.673-1.5,1.5-1.5h3C14.327,4.5,15,5.173,15,6v4.5h1.44c0.401,0,0.778,0.156,1.061,0.44
		c0.283,0.284,0.439,0.661,0.439,1.061c0,0.339-0.117,0.672-0.33,0.937l-4.439,5.549c-0.251,0.313-0.608,0.51-1.007,0.554
		C12.109,19.046,12.053,19.05,11.998,19.05z M12,17.549L16.439,12l-2.189,0c-0.414,0-0.75-0.336-0.75-0.75V6h-3v5.25
		c0,0.414-0.336,0.75-0.75,0.75H7.56L12,17.549z"/>
</g>
</svg>
