<?xml version="1.0" encoding="utf-8"?>
<!-- Generator: Adobe Illustrator 22.1.0, SVG Export Plug-In . SVG Version: 6.00 Build 0)  -->
<svg version="1.1" id="Regular" xmlns="http://www.w3.org/2000/svg" xmlns:xlink="http://www.w3.org/1999/xlink" x="0px" y="0px"
	 viewBox="0 0 24 24" style="enable-background:new 0 0 24 24;" xml:space="preserve">
<title>arrow-rectangle-right-2</title>
<g>
	<path d="M2.75,24C1.234,24,0,22.766,0,21.25V2.75C0,1.234,1.234,0,2.75,0h18.5C22.766,0,24,1.234,24,2.75v18.5
		c0,1.516-1.234,2.75-2.75,2.75H2.75z M2.75,1.5C2.061,1.5,1.5,2.061,1.5,2.75v18.5c0,0.689,0.561,1.25,1.25,1.25h18.5
		c0.689,0,1.25-0.561,1.25-1.25V2.75c0-0.689-0.561-1.25-1.25-1.25H2.75z"/>
	<path d="M7.5,19.5c-0.029,0-0.059-0.002-0.088-0.005c-0.424-0.049-0.807-0.261-1.074-0.598c-0.267-0.337-0.387-0.757-0.338-1.184
		c0.036-0.307,0.158-0.596,0.354-0.834L10.15,12L6.345,7.109C6.083,6.793,5.957,6.378,5.998,5.95
		c0.041-0.428,0.245-0.814,0.576-1.088c0.24-0.198,0.53-0.322,0.84-0.358C7.443,4.502,7.472,4.5,7.5,4.5h4.417
		c0.682,0.01,1.327,0.338,1.729,0.877l4.36,5.606c0.453,0.6,0.454,1.431,0.007,2.024l-4.376,5.627
		c-0.396,0.53-1.037,0.855-1.71,0.865c-0.002,0-0.004,0-0.006,0H7.5z M11.917,18c0.199-0.003,0.404-0.108,0.528-0.275l4.377-5.63
		c0.04-0.053,0.038-0.14-0.007-0.2l-4.362-5.609C12.321,6.108,12.117,6.003,11.906,6H7.564C7.551,6.004,7.54,6.011,7.529,6.019
		C7.507,6.038,7.494,6.063,7.491,6.092C7.488,6.122,7.496,6.148,7.515,6.171l4.177,5.368c0.211,0.271,0.211,0.65,0,0.921
		l-4.163,5.351c-0.028,0.034-0.036,0.053-0.038,0.074c-0.003,0.03,0.004,0.056,0.023,0.079c0.014,0.017,0.03,0.029,0.05,0.035
		H11.917z"/>
</g>
</svg>
