<?xml version="1.0" encoding="UTF-8"?>
<svg width="1441px" height="442px" viewBox="0 0 1441 442" version="1.1" xmlns="http://www.w3.org/2000/svg" xmlns:xlink="http://www.w3.org/1999/xlink">
    <!-- Generator: Sketch 54.1 (76490) - https://sketchapp.com -->
    <title>logomark-solid</title>
    <desc>Created with Sketch.</desc>
    <g id="Page-1" stroke="none" stroke-width="1" fill="none" fill-rule="evenodd">
        <g id="orbit-logo">
            <g id="Group-2" transform="translate(292.000000, 136.000000)" fill="#000000">
                <polygon id="BIT" points="1034.21178 1.45892909 857 1.45892909 857 56.44246 914.429745 56.44246 914.429745 229.05057 976.782039 229.05057 976.782039 56.44246 1034.21178 56.44246"></polygon>
                <polygon id="Path" points="818.352294 1.45892909 755 1.45892909 755 229.05057 818.352294 229.05057"></polygon>
                <path d="M520.008563,12.7543603 C520.231944,6.88693852 524.799292,2.1210659 530.67624,1.45892909 L625.788465,1.45892909 C676.912978,1.45892909 694.312012,34.2880277 694.114443,58.3568393 C693.921358,81.8793927 686.532693,94 664.901361,106.752131 C690.944803,106.752131 713.2778,131.351562 713.2778,165.349518 C713.2778,225.322521 662.901361,229.05057 609.6389,229.05057 L520,229.05057 L520.008563,12.7543603 Z M618.541152,47.1299483 C607.917729,47.1299483 593.511819,47.1299483 575.32342,47.1299483 L575.32342,89.8442601 C592.729895,89.8442601 607.135806,89.8442601 618.541152,89.8442601 C635.649171,89.8442601 643.1539,80.5704164 643.1539,67.8368424 C643.1539,55.1032683 634.476285,47.1299483 618.541152,47.1299483 Z M624.307543,136.483911 C610.573642,136.483911 594.245601,136.483911 575.32342,136.483911 L575.32342,182.799982 C595.303619,182.799982 611.63166,182.799982 624.307543,182.799982 C643.321367,182.799982 655.686682,176.618148 655.686682,160.141946 C655.686682,143.665744 644.908394,136.483911 624.307543,136.483911 Z" id="Path"></path>
                <path d="M469.904305,81.0811427 C469.904305,27.139299 427.255992,1.60271281 395.892896,1.60271281 L280.344954,1.60271281 C274.681096,1.706416 270.113846,5.79676475 270.113846,10.8367381 C270,58.6764856 270,229.58225 270,229.58225 L326.145138,229.58225 L326.145138,160.791076 L344.743175,160.791076 L408.013903,229.58225 L483.864895,229.58225 C483.864895,229.58225 412.030652,153.532547 412.249974,153.496992 C412.908684,153.496992 469.904305,135.022987 469.904305,81.0811427 Z M326.630134,51.6205395 L382.642312,51.6205395 C398.269091,51.6205395 411.923389,64.9180153 411.923389,81.8793937 C411.923391,98.840772 393.347981,112.138246 382.642312,112.138246 L326.630134,112.138246 L326.630134,51.6205395 Z" id="Shape-Copy-21" fill-rule="nonzero"></path>
                <path d="M0,115.781573 C0,179.684243 52.2925271,231.49251 116.792507,231.49251 C181.292493,231.49251 233.585014,179.684243 233.585014,115.781573 C233.585014,51.8789023 181.297986,0.0706358251 116.792507,0.0706358251 C52.2925271,0.0706358251 0,51.8789023 0,115.781573 Z M59.4245246,115.156108 C59.4245246,83.4191458 85.3902042,57.6939243 117.423824,57.6939243 C149.457432,57.6939243 175.42311,83.4191458 175.42311,115.156108 C175.42311,146.893071 149.452548,172.618293 117.423824,172.618293 C85.3902042,172.618293 59.4245246,146.893071 59.4245246,115.156108 Z" id="Shape-Copy-22" fill-rule="nonzero"></path>
            </g>
            <g id="Group" transform="translate(73.000000, 52.000000)" fill-rule="nonzero">
                <path d="M45.276963,50.3222038 C88.1821895,33.1832347 114.830226,29.9597342 159.775447,20.4281759 C198.999259,12.1099601 208.825507,63.9665568 176.951216,87.3639773 C135.331777,117.914853 124.285066,90.6108269 102.801279,172.396674 C92.9432825,209.924725 26.9588078,204.305635 23.3946681,172.111322 C18.6245796,129.023863 19.7271815,136.269926 20.128075,103.530919 C20.4548476,76.8450085 25.7702131,58.1143912 45.276963,50.3222038 Z" id="notch-copy-3" fill="#8C60F9" transform="translate(107.851987, 108.990313) rotate(-14.000000) translate(-107.851987, -108.990313) "></path>
                <path d="M36.6783271,51.4278971 C79.470112,34.3342438 106.04769,31.1192664 150.874077,21.6129096 C189.99418,13.3166871 200.787043,65.3224973 168.997028,88.6580548 C143.4176,107.434712 89.5362788,128.553376 51.9675828,128.930056 C28.5711181,129.164639 11.4424896,117.026885 11.5959329,104.495929 C11.9218414,77.8805758 17.2231531,59.1994824 36.6783271,51.4278971 Z" id="notch-copy-4" fill="#FF5959" transform="translate(99.606268, 74.829430) rotate(-14.000000) translate(-99.606268, -74.829430) "></path>
                <path d="M32.971202,48.5373405 C75.8764289,31.3983713 102.524465,28.1748709 147.469686,18.6433126 C186.693498,10.3250968 197.514972,62.4687754 165.640681,85.8661954 C124.021242,116.417071 13.4644522,56.3295278 32.971202,48.5373405 Z" id="notch-copy-5" fill="#F4CA5F" transform="translate(107.497775, 56.108546) rotate(-14.000000) translate(-107.497775, -56.108546) "></path>
            </g>
        </g>
    </g>
</svg>