<?xml version="1.0" encoding="UTF-8"?>
<svg width="313px" height="96px" viewBox="0 0 313 96" version="1.1" xmlns="http://www.w3.org/2000/svg" xmlns:xlink="http://www.w3.org/1999/xlink">
    <!-- Generator: Sketch 54 (76480) - https://sketchapp.com -->
    <title>logomark-solid</title>
    <desc>Created with Sketch.</desc>
    <g id="Page-1" stroke="none" stroke-width="1" fill="none" fill-rule="evenodd">
        <g id="orbit-logo" transform="translate(63.000000, 32.000000)" fill="#000000">
            <g id="Group-2">
                <polygon id="BIT" points="226.991698 0.533639931 188.496889 0.533639931 188.496889 12.466236 200.972059 12.466236 200.972059 49.9258684 214.516529 49.9258684 214.516529 12.466236 226.991698 12.466236"></polygon>
                <polygon id="Path" points="179.707013 0.533639931 166.162543 0.533639931 166.162543 49.9258684 179.707013 49.9258684"></polygon>
                <path d="M114.018304,2.98498884 C114.066828,1.71163347 115.05897,0.677337707 116.335589,0.533639931 L138.082455,0.533639931 C149.187971,0.533639931 152.966577,7.76750027 152.924558,12.881697 C152.879529,18.3622115 151.989981,21.1697373 147.447649,23.8185476 C154.803296,25.7205405 157.087316,31.448277 157.087316,35.8843634 C157.087316,48.8997811 145.772197,49.9258684 134.384141,49.9258684 L114.016444,49.9258684 L114.018304,2.98498884 Z M136.073709,10.4452228 C133.766037,10.4452228 130.41949,10.4452228 126.034067,10.4452228 L126.034067,19.7151373 C130.249637,19.7151373 133.596184,19.7151373 136.073709,19.7151373 C139.789996,19.7151373 141.42021,17.7025159 141.42021,14.9390594 C141.42021,12.1756029 139.535216,10.4452228 136.073709,10.4452228 Z M137.543537,29.7972623 C134.725593,29.7972623 130.889103,29.7972623 126.034067,29.7972623 L126.034067,40.8104926 C130.95353,40.8104926 134.79002,40.8104926 137.543537,40.8104926 C141.673813,40.8104926 144.359867,38.9202997 144.359867,35.3446133 C144.359867,31.7689269 141.770454,29.7972623 137.543537,29.7972623 Z" id="Path"></path>
                <path d="M102.624689,17.8133544 C102.624689,6.1068266 93.360414,0.564844056 86.5475692,0.564844056 L61.4476812,0.564844056 C60.2173504,0.587349855 59.2252301,1.47504256 59.2252301,2.56882401 C59.2004999,12.9510671 59.2004999,50.0412542 59.2004999,50.0412542 L71.3966208,50.0412542 L71.3966208,35.1121058 L75.4365772,35.1121058 L89.1805534,50.0412542 L105.005601,50.0412542 C105.005601,50.0412542 89.4014167,33.5368507 89.4490588,33.5291344 C89.5921471,33.5291344 102.624689,29.5198822 102.624689,17.8133544 Z M71.5019741,11.4197767 L83.6692127,11.4197767 C87.0637379,11.4197767 90.0297912,14.3056118 90.0297912,17.9865918 C90.0297915,21.6675718 85.9947504,24.5534066 83.6692127,24.5534066 L71.5019741,24.5534066 L71.5019741,11.4197767 Z" id="Shape-Copy-21" fill-rule="nonzero"></path>
                <path d="M0.235312303,25.344086 C0.235312303,39.2123252 11.5945502,50.4558212 25.6055507,50.4558212 C39.6165524,50.4558212 50.9757891,39.2123252 50.9757891,25.344086 C50.9757891,11.4758469 39.6177456,0.232350754 25.6055507,0.232350754 C11.5945502,0.232350754 0.235312303,11.4758469 0.235312303,25.344086 Z M13.1437975,25.2083469 C13.1437975,18.3207508 18.7841892,12.7378304 25.7426884,12.7378304 C32.7011851,12.7378304 38.3415764,18.3207508 38.3415764,25.2083469 C38.3415764,32.0959431 32.7001242,37.6788635 25.7426884,37.6788635 C18.7841892,37.6788635 13.1437975,32.0959431 13.1437975,25.2083469 Z" id="Shape-Copy-22" fill-rule="nonzero"></path>
            </g>
        </g>
        <g id="Group" transform="translate(10.000000, 14.000000)" fill-rule="nonzero">
            <path d="M11.2378332,12.228128 C21.6820678,8.06459243 28.1695144,7.28309032 39.1110507,4.96939692 C48.659758,2.95023065 51.0564526,15.5594993 43.2983362,21.2456533 C33.1682768,28.6702746 30.4765322,22.0306249 25.253038,41.9142473 C22.8561985,51.0379969 6.79116848,49.6661702 5.92071273,41.8381289 C4.75573283,31.3614211 5.02478668,33.1233254 5.11961008,25.1631835 C5.19690162,18.6747877 6.48938901,14.1210685 11.2378332,12.228128 Z" id="notch-copy-3" fill="#8861E8" transform="translate(26.475645, 26.498673) rotate(-14.000000) translate(-26.475645, -26.498673) "></path>
            <path d="M9.16330627,12.4520217 C19.6075409,8.28848621 26.0949872,7.50698413 37.0365239,5.19329073 C46.5852311,3.17412447 49.2242475,15.8532786 41.466131,21.5394327 C35.223662,26.1147236 22.0727585,31.2585529 12.9020838,31.3471856 C7.1909096,31.4023829 3.00869301,28.4419234 3.04508318,25.3870774 C3.12237471,18.8986815 4.4148621,14.3449624 9.16330627,12.4520217 Z" id="notch-copy-4" fill="#36BBED" transform="translate(24.526646, 18.162788) rotate(-14.000000) translate(-24.526646, -18.162788) "></path>
            <path d="M8.14677946,11.893899 C18.5910142,7.7303634 25.0784605,6.9488613 36.019997,4.63516791 C45.5687044,2.61600165 48.2077206,15.2951559 40.449604,20.9813099 C30.3195446,28.4059312 3.39833531,13.7868395 8.14677946,11.893899 Z" id="notch-copy-5" fill="#EBBB40" transform="translate(26.291156, 13.744252) rotate(-14.000000) translate(-26.291156, -13.744252) "></path>
        </g>
    </g>
</svg>