<?xml version="1.0" encoding="UTF-8"?>
<svg width="345px" height="114px" viewBox="0 0 345 114" version="1.1" xmlns="http://www.w3.org/2000/svg" xmlns:xlink="http://www.w3.org/1999/xlink">
    <!-- Generator: Sketch 53.2 (72643) - https://sketchapp.com -->
    <title>logomark-solid</title>
    <desc>Created with Sketch.</desc>
    <g id="Page-1" stroke="none" stroke-width="1" fill="none" fill-rule="evenodd">
        <g id="orbit-logo" transform="translate(79.000000, 42.000000)" fill="#000000">
            <g id="Group-2">
                <polygon id="BIT" points="226.991698 0.533639931 188.496889 0.533639931 188.496889 12.466236 200.972059 12.466236 200.972059 49.9258684 214.516529 49.9258684 214.516529 12.466236 226.991698 12.466236"></polygon>
                <polygon id="Path" points="179.707013 0.533639931 166.162543 0.533639931 166.162543 49.9258684 179.707013 49.9258684"></polygon>
                <path d="M114.018304,2.98498884 C114.066828,1.71163347 115.05897,0.677337707 116.335589,0.533639931 L138.082455,0.533639931 C149.187971,0.533639931 152.966577,7.76750027 152.924558,12.881697 C152.879529,18.3622115 151.989981,21.1697373 147.447649,23.8185476 C154.803296,25.7205405 157.087316,31.448277 157.087316,35.8843634 C157.087316,48.8997811 145.772197,49.9258684 134.384141,49.9258684 L114.016444,49.9258684 L114.018304,2.98498884 Z M136.073709,10.4452228 C133.766037,10.4452228 130.41949,10.4452228 126.034067,10.4452228 L126.034067,19.7151373 C130.249637,19.7151373 133.596184,19.7151373 136.073709,19.7151373 C139.789996,19.7151373 141.42021,17.7025159 141.42021,14.9390594 C141.42021,12.1756029 139.535216,10.4452228 136.073709,10.4452228 Z M137.543537,29.7972623 C134.725593,29.7972623 130.889103,29.7972623 126.034067,29.7972623 L126.034067,40.8104926 C130.95353,40.8104926 134.79002,40.8104926 137.543537,40.8104926 C141.673813,40.8104926 144.359867,38.9202997 144.359867,35.3446133 C144.359867,31.7689269 141.770454,29.7972623 137.543537,29.7972623 Z" id="Path"></path>
                <path d="M102.624689,17.8133544 C102.624689,6.1068266 93.360414,0.564844056 86.5475692,0.564844056 L61.4476812,0.564844056 C60.2173504,0.587349855 59.2252301,1.47504256 59.2252301,2.56882401 C59.2004999,12.9510671 59.2004999,50.0412542 59.2004999,50.0412542 L71.3966208,50.0412542 L71.3966208,35.1121058 L75.4365772,35.1121058 L89.1805534,50.0412542 L105.005601,50.0412542 C105.005601,50.0412542 89.4014167,33.5368507 89.4490588,33.5291344 C89.5921471,33.5291344 102.624689,29.5198822 102.624689,17.8133544 Z M71.5019741,11.4197767 L83.6692127,11.4197767 C87.0637379,11.4197767 90.0297912,14.3056118 90.0297912,17.9865918 C90.0297915,21.6675718 85.9947504,24.5534066 83.6692127,24.5534066 L71.5019741,24.5534066 L71.5019741,11.4197767 Z" id="Shape-Copy-21" fill-rule="nonzero"></path>
                <path d="M0.235312303,25.344086 C0.235312303,39.2123252 11.5945502,50.4558212 25.6055507,50.4558212 C39.6165524,50.4558212 50.9757891,39.2123252 50.9757891,25.344086 C50.9757891,11.4758469 39.6177456,0.232350754 25.6055507,0.232350754 C11.5945502,0.232350754 0.235312303,11.4758469 0.235312303,25.344086 Z M13.1437975,25.2083469 C13.1437975,18.3207508 18.7841892,12.7378304 25.7426884,12.7378304 C32.7011851,12.7378304 38.3415764,18.3207508 38.3415764,25.2083469 C38.3415764,32.0959431 32.7001242,37.6788635 25.7426884,37.6788635 C18.7841892,37.6788635 13.1437975,32.0959431 13.1437975,25.2083469 Z" id="Shape-Copy-22" fill-rule="nonzero"></path>
            </g>
        </g>
        <g id="Group" transform="translate(26.000000, 14.000000)" fill-rule="nonzero">
            <path d="M11.8739369,12.9202862 C22.9093546,8.52107879 29.7640152,7.69534071 41.3248837,5.25068354 C51.4140839,3.11722484 53.9464405,16.4402256 45.7491854,22.4482375 C35.0457264,30.2931203 32.2016189,23.2776414 26.6824552,44.2867519 C24.1499456,53.9269401 7.17557424,52.4774628 6.25584741,44.2063249 C5.02492526,33.1365959 5.30920857,34.9982306 5.40939933,26.5875147 C5.49106586,19.7318511 6.85671292,14.9203743 11.8739369,12.9202862 Z" id="notch-copy-3" fill="#756EFF" transform="translate(27.974266, 27.998598) rotate(-14.000000) translate(-27.974266, -27.998598) "></path>
            <path d="M9.68198398,13.1568531 C20.7174017,8.75764581 27.572062,7.93190775 39.1329309,5.48725058 C49.222131,3.35379189 52.0105256,16.750634 43.8132704,22.7586459 C37.2174542,27.5929155 23.32216,33.027905 13.6323904,33.1215546 C7.59794222,33.1798763 3.17899639,30.0518436 3.21744637,26.8240817 C3.2991129,19.9684182 4.66475995,15.1569414 9.68198398,13.1568531 Z" id="notch-copy-4" fill="#FF228A" transform="translate(25.914946, 19.190870) rotate(-14.000000) translate(-25.914946, -19.190870) "></path>
            <path d="M8.60791792,12.5671386 C19.6433357,8.16793114 26.497996,7.34219308 38.0588648,4.89753591 C48.148065,2.76407721 50.9364596,16.1609195 42.7392042,22.1689312 C32.0357453,30.0138141 3.59069391,14.5672267 8.60791792,12.5671386 Z" id="notch-copy-5" fill="#FFBF33" transform="translate(27.779335, 14.522228) rotate(-14.000000) translate(-27.779335, -14.522228) "></path>
        </g>
    </g>
</svg>