<?xml version="1.0" encoding="UTF-8"?>
<svg width="1441px" height="442px" viewBox="0 0 1441 442" version="1.1" xmlns="http://www.w3.org/2000/svg" xmlns:xlink="http://www.w3.org/1999/xlink">
    <!-- Generator: Sketch 54.1 (76490) - https://sketchapp.com -->
    <title>logomark-solid</title>
    <desc>Created with Sketch.</desc>
    <g id="Page-1" stroke="none" stroke-width="1" fill="none" fill-rule="evenodd">
        <g id="orbit-logo" transform="translate(-82.000000, 0.000000)">
            <g id="Group-2" transform="translate(293.000000, 135.000000)" fill="#000000">
                <polygon id="BIT" points="1010.21178 1 833 1 833 56.9835309 890.429745 56.9835309 890.429745 228.591641 952.782039 228.591641 952.782039 56.9835309 1010.21178 56.9835309"></polygon>
                <polygon id="Path" points="795.352294 1 729 1 729 228.591641 795.352294 228.591641"></polygon>
                <path d="M607.008563,47.006128 L607.008563,47 L563.008563,47 L563.008563,87 L607.008563,87 L607.008563,86.993872 C617.545918,86.7285116 626.008563,77.8785415 626.008563,67 C626.008563,56.1214585 617.545918,47.2714884 607.008563,47.006128 Z M616.324567,133.986239 L616.324567,133.94875 L564,133.94875 L564,179.931025 L616.324567,179.931025 L616.324567,179.893536 C628.410744,179.207549 638,169.193132 638,156.939887 C638,144.686643 628.410744,134.672226 616.324567,133.986239 Z M635.846914,228.798477 C635.826315,228.86568 635.805729,228.932855 635.785156,229 L508.146256,229 L508.008563,12.2910787 C508.231944,6.42591782 512.799292,1.66188167 518.67624,1 L614.210938,1 C614.4762,1.0017084 614.737901,1 615,1 C647.5848,1 674,27.405021 674,59.9772651 C674,77.8399383 666.055777,93.8478537 653.506411,104.663217 C678.273396,113.494336 696,137.146233 696,164.936805 C696,198.978308 669.402058,226.809923 635.846914,228.798477 Z" id="Path"></path>
                <path d="M378,55.0204556 L378,55 L328,55 L328,103 L378,103 L378,102.979544 C378.331636,102.993137 378.665017,103 379,103 C392.254834,103 403,92.254834 403,79 C403,65.745166 392.254834,55 379,55 C378.665017,55 378.331636,55.006863 377.999992,55.0204559 Z M383.916311,1.15441723 C424.151432,3.68963743 456,37.125503 456,78 C456,107.958048 440.380309,133.92019 416.280665,146.649052 L478.336555,229 L409.469094,229 L354.60159,156.188363 L327.145138,156.188363 L327.145138,228.979537 L266,228.979537 C266,228.979537 266,58.0737728 266.113846,10.2340253 C266.113846,5.19405194 270.681096,1.10370319 276.344954,1 L383.892896,1 C383.900703,1.05148596 383.908508,1.10295837 383.916311,1.15441723 Z" id="Shape-Copy-21" fill-rule="nonzero"></path>
                <path d="M0,115.710937 C0,179.613608 52.2925271,231.421874 116.792507,231.421874 C181.292493,231.421874 233.585014,179.613608 233.585014,115.710937 C233.585014,51.8082665 181.297986,3.55271368e-15 116.792507,3.55271368e-15 C52.2925271,3.55271368e-15 0,51.8082665 0,115.710937 Z M61.4238174,115.085473 C61.4238174,84.7083999 86.4944345,60.0854727 117.423817,60.0854727 C148.353202,60.0854727 173.423817,84.7083999 173.423817,115.085473 C173.423817,145.462545 148.348486,170.085473 117.423817,170.085473 C86.4944345,170.085473 61.4238174,145.462545 61.4238174,115.085473 Z" id="Shape-Copy-22" fill-rule="nonzero"></path>
            </g>
            <g id="Group" transform="translate(94.000000, 51.000000)" fill-rule="nonzero">
                <path d="M45.276963,50.3222038 C88.1821895,33.1832347 114.830226,29.9597342 159.775447,20.4281759 C198.999259,12.1099601 208.825507,63.9665568 176.951216,87.3639773 C135.331777,117.914853 124.285066,90.6108269 102.801279,172.396674 C92.9432825,209.924725 26.9588078,204.305635 23.3946681,172.111322 C18.6245796,129.023863 19.7271815,136.269926 20.128075,103.530919 C20.4548476,76.8450085 25.7702131,58.1143912 45.276963,50.3222038 Z" id="notch-copy-3" fill="#8C60F9" transform="translate(107.851987, 108.990313) rotate(-14.000000) translate(-107.851987, -108.990313) "></path>
                <path d="M36.6783271,51.4278971 C79.470112,34.3342438 106.04769,31.1192664 150.874077,21.6129096 C189.99418,13.3166871 200.787043,65.3224973 168.997028,88.6580548 C143.4176,107.434712 89.5362788,128.553376 51.9675828,128.930056 C28.5711181,129.164639 11.4424896,117.026885 11.5959329,104.495929 C11.9218414,77.8805758 17.2231531,59.1994824 36.6783271,51.4278971 Z" id="notch-copy-4" fill="#FF5959" transform="translate(99.606268, 74.829430) rotate(-14.000000) translate(-99.606268, -74.829430) "></path>
                <path d="M32.971202,48.5373405 C75.8764289,31.3983713 102.524465,28.1748709 147.469686,18.6433126 C186.693498,10.3250968 197.514972,62.4687754 165.640681,85.8661954 C124.021242,116.417071 13.4644522,56.3295278 32.971202,48.5373405 Z" id="notch-copy-5" fill="#F4CA5F" transform="translate(107.497775, 56.108546) rotate(-14.000000) translate(-107.497775, -56.108546) "></path>
            </g>
        </g>
    </g>
</svg>