<?xml version="1.0" encoding="UTF-8"?>
<svg width="427px" height="96px" viewBox="0 0 427 96" version="1.1" xmlns="http://www.w3.org/2000/svg" xmlns:xlink="http://www.w3.org/1999/xlink">
    <!-- Generator: Sketch 53.2 (72643) - https://sketchapp.com -->
    <title>orbit-logo</title>
    <desc>Created with Sketch.</desc>
    <g id="Page-1" stroke="none" stroke-width="1" fill="none" fill-rule="evenodd">
        <g id="orbit-logo" transform="translate(-0.139802, -0.671995)" fill="#FFFFFF">
            <g id="Group-2" transform="translate(0.139802, 0.671995)">
                <polygon id="BIT" points="426.725959 1.00782116 354.362112 1.00782116 354.362112 23.5434714 377.813359 23.5434714 377.813359 94.288946 403.274712 94.288946 403.274712 23.5434714 426.725959 23.5434714"></polygon>
                <polygon id="Path" points="337.838603 1.00782116 312.37725 1.00782116 312.37725 94.288946 337.838603 94.288946"></polygon>
                <path d="M214.354742,5.63738721 C214.445959,3.232555 216.31102,1.27920576 218.710853,1.00782116 L259.591349,1.00782116 C280.467875,1.00782116 287.571026,14.6695378 287.492036,24.3281024 C287.407389,34.6784869 285.735188,39.980721 277.196358,44.9832086 C291.023753,48.5752725 295.31733,59.3925552 295.31733,67.7704548 C295.31733,92.3510992 274.046787,94.288946 252.639132,94.288946 L214.351245,94.288946 L214.354742,5.63738721 Z M255.815239,19.7266284 C251.4772,19.7266284 245.186247,19.7266284 236.942381,19.7266284 L236.942381,37.2335941 C244.866951,37.2335941 251.157904,37.2335941 255.815239,37.2335941 C262.801242,37.2335941 265.865773,33.4325996 265.865773,28.2135937 C265.865773,22.9945879 262.322298,19.7266284 255.815239,19.7266284 Z M258.578273,56.2744835 C253.281005,56.2744835 246.069041,56.2744835 236.942381,56.2744835 L236.942381,77.0738389 C246.190154,77.0738389 253.402118,77.0738389 258.578273,77.0738389 C266.342505,77.0738389 271.39184,73.5040603 271.39184,66.7510941 C271.39184,59.9981279 266.524173,56.2744835 258.578273,56.2744835 Z" id="Path"></path>
                <path d="M192.936637,33.6419268 C192.936637,11.5332244 175.521339,1.06675262 162.714323,1.06675262 L115.530702,1.06675262 C113.217885,1.1092566 111.352863,2.78573439 111.352863,4.85142705 C111.306375,24.4591132 111.306375,94.5068614 111.306375,94.5068614 L134.233056,94.5068614 L134.233056,66.3119853 L141.827503,66.3119853 L167.663896,94.5068614 L197.412358,94.5068614 C197.412358,94.5068614 168.079082,63.3369915 168.168641,63.3224188 C168.437623,63.3224188 192.936637,55.7506293 192.936637,33.6419268 Z M134.431103,21.5671503 L157.303491,21.5671503 C163.684634,21.5671503 169.260322,27.0172779 169.260322,33.9690994 C169.260322,40.9209208 161.675115,46.3710478 157.303491,46.3710478 L134.431103,46.3710478 L134.431103,21.5671503 Z" id="Shape-Copy-21" fill-rule="nonzero"></path>
                <path d="M0.461615506,47.8643083 C0.461615506,74.0555735 21.8150962,95.2898039 48.1534499,95.2898039 C74.491806,95.2898039 95.8452843,74.0555735 95.8452843,47.8643083 C95.8452843,21.6730433 74.494049,0.438812751 48.1534499,0.438812751 C21.8150962,0.438812751 0.461615506,21.6730433 0.461615506,47.8643083 Z M24.7274238,47.6079543 C24.7274238,34.600185 35.3304233,24.0563988 48.411246,24.0563988 C61.492064,24.0563988 72.095063,34.600185 72.095063,47.6079543 C72.095063,60.6157238 61.4900697,71.15951 48.411246,71.15951 C35.3304233,71.15951 24.7274238,60.6157238 24.7274238,47.6079543 Z" id="Shape-Copy-22" fill-rule="nonzero"></path>
            </g>
        </g>
    </g>
</svg>