<?xml version="1.0" encoding="UTF-8"?>
<svg width="43px" height="53px" viewBox="0 0 43 53" version="1.1" xmlns="http://www.w3.org/2000/svg" xmlns:xlink="http://www.w3.org/1999/xlink">
    <!-- Generator: Sketch 53.2 (72643) - https://sketchapp.com -->
    <title>notch</title>
    <desc>Created with Sketch.</desc>
    <g id="Page-1" stroke="none" stroke-width="1" fill="none" fill-rule="evenodd">
        <g id="home" transform="translate(-716.000000, -59.000000)" fill-rule="nonzero">
            <g transform="translate(-19.000000, -1.000000)" id="notch">
                <g transform="translate(732.000000, 59.500000)">
                    <path d="M7.08501478,32.0736201 C7.51854841,32.8623099 8.18532662,33.4823552 9.04699016,33.9141144 C9.19089074,33.9862195 9.33997626,34.0530316 9.49416342,34.1146342 C9.49454088,34.1352515 9.49493365,34.1558327 9.49534181,34.1763871 C9.5337203,36.1090756 9.5372025,37.824339 10.2470125,44.2858803 C10.4156615,45.8211256 11.2925288,47.1414447 12.769257,48.1403541 C14.225736,49.1255662 16.1751797,49.7243011 18.2176965,49.8160203 C20.2996727,49.9095114 22.3213979,49.4713009 23.9163556,48.5569612 C25.606451,47.5880821 26.7533376,46.1346261 27.2306636,44.2382044 C28.3825387,39.6617907 29.4496922,36.3306706 30.5579771,33.8750926 L33.8202187,32.8846486 C32.4133572,35.1563408 31.076755,38.8656802 29.5633396,44.8784977 C28.9116226,47.4677773 27.3283485,49.4742696 25.0770027,50.7648961 C23.0758568,51.9120908 20.6178439,52.4448671 18.1140791,52.3324355 C15.6591245,52.2221958 13.292675,51.4953855 11.4580062,50.2543529 C9.40985042,48.8689104 8.10728377,46.9076061 7.85081724,44.5729402 C7.13150046,38.0248565 7.12450482,36.2709148 7.08394956,34.2286072 C7.07234439,33.6441865 7.07248819,33.0460485 7.08249586,32.2536248 C7.0830812,32.2072762 7.08394046,32.146172 7.08501478,32.0736201 Z M9.09427667,27.194102 L9.48967185,27.1947233 C9.48809291,27.3679184 9.48943441,27.539156 9.49250145,27.7091824 C9.36287174,27.5405492 9.23013015,27.3688557 9.09427667,27.194102 Z M38.3455118,29.2553824 L38.4041388,29.2869484 C38.3914697,29.2924769 38.3788275,29.2980022 38.3662121,29.3035245 L38.3455118,29.2553824 Z" id="Shape" fill="#6999FF" transform="translate(22.739625, 39.770626) rotate(-14.000000) translate(-22.739625, -39.770626) "></path>
                    <path d="M36.4535607,24.9819876 C32.1990074,28.1177854 26.910458,30.970676 21.5902663,32.9746134 C17.3738258,34.5628047 13.5017841,35.4625655 10.5129639,35.4988456 C8.85500625,35.5189709 7.45855567,35.2764 6.35948878,34.7358471 C5.08676505,34.1098847 4.23208552,33.0874876 3.91494795,31.7287149 C3.05748033,28.0549037 2.78681009,25.1683724 3.17043488,22.7019562 C3.45395957,20.8791076 4.1017636,19.2983856 5.14209722,17.9528123 C5.1613452,18.4545741 5.3753259,18.9728899 5.75989571,19.4464092 C5.97437417,19.7104956 6.25008095,19.9681016 6.58405861,20.220661 C5.13663875,22.6589382 5.11973867,26.0838555 6.30069893,31.1436677 C6.58243816,32.3507765 7.93401533,33.0155213 10.4839159,32.9845691 C13.1532992,32.9521665 16.7676175,32.1122938 20.7441489,30.6144681 C24.1162925,29.344295 27.4777149,27.7155155 30.5376592,25.89916 C31.5180086,25.8469033 32.4701694,25.7551842 33.3855155,25.6223034 C34.4676642,25.4652078 35.4920486,25.2523621 36.4535607,24.9819876 Z M42.3313751,19.6884207 C41.4297397,19.6446776 40.1220396,19.7646011 38.5888016,19.9961906 C39.5854497,19.0611944 40.454674,18.1230319 41.1676747,17.198644 L41.1791599,17.1837537 L41.1910785,17.1692256 C43.8089502,13.9781717 44.2224927,9.65250962 42.5454769,6.41114124 C41.7742353,4.9204707 40.627719,3.83853516 39.2731243,3.33651454 C37.8035314,2.79187489 36.1022029,2.92402772 34.2564249,3.83461974 C32.1306066,4.88336622 25.3631724,8.12785283 24.0089172,8.79604488 C22.3151204,9.63176738 20.8607602,10.3779642 19.4677471,11.1316313 C16.3691956,12.8080525 13.5058321,14.5641253 10.469145,16.6870713 C10.5585264,15.7649299 10.6286608,14.708818 10.6795483,13.5187357 C13.2195345,11.8148136 15.6898959,10.3323521 18.3226685,8.90793313 C19.7449866,8.13841098 21.2256755,7.37870555 22.9449559,6.53040943 C24.3155908,5.85413562 31.0831002,2.60961296 33.1925758,1.56892894 C35.6138065,0.374444336 37.9959045,0.189411872 40.1072129,0.971874969 C42.0600113,1.69559334 43.6670548,3.21211562 44.7126578,5.23307718 C46.8519003,9.36784611 46.3364112,14.7924089 43.0805888,18.7728552 C42.8451472,19.0775118 42.5951381,19.3828534 42.3313751,19.6884207 Z" id="notch-copy-6" fill="#F8E045"></path>
                    <path d="M19.8065829,8.27535381 C20.9130605,7.68786306 21.9964314,7.07062403 23.3131321,6.42694147 C24.1831708,6.00161419 31.0399493,2.74623787 33.461525,1.54886392 C35.8319111,0.37680116 38.1639864,0.195241968 40.2309584,0.963017334 C42.142749,1.67315068 43.7160455,3.1612061 44.7396913,5.14423189 C46.8365843,9.20637189 46.3281026,14.5372071 43.1301325,18.4442443 C41.0298148,21.0102532 37.6501512,22.5483717 33.3302047,23.1769259 C29.6883882,23.7068119 25.4513151,23.5696408 21.185981,22.8772466 C17.3824744,22.259821 13.7880858,21.2278431 11.3606969,20.080448 C10.0799326,19.4750473 9.1454296,18.8515425 8.60621914,18.1861036 C7.76218662,17.1444842 7.75749109,15.8819546 8.85844308,15.0767658 C12.6964626,12.2698042 16.1635754,10.2096298 19.8065829,8.27535381 Z M12.3645065,17.839058 C14.5740757,18.8834927 17.9607125,19.8558234 21.5607983,20.4402275 C25.6058282,21.0968597 29.6091661,21.2264638 32.9934404,20.7340503 C36.780122,20.1830864 39.6310819,18.8855862 41.2920633,16.8563251 C43.8549611,13.7251709 44.2598194,9.4807065 42.6180201,6.30018233 C41.8629741,4.83749339 40.7405341,3.77586701 39.4143852,3.2832699 C37.9756529,2.74885377 36.3100514,2.87852594 34.5030339,3.77202509 C32.0602109,4.97990498 25.2428081,8.24316256 24.3909448,8.65960464 C23.0965247,9.29239508 21.9682913,9.86388773 20.887208,10.4378952 C17.4479709,12.2639782 14.2755803,14.2069193 10.6692195,16.8252638 C11.0069303,17.1160462 11.5883361,17.4721724 12.3645065,17.839058 Z" id="notch-copy-7" fill="#FF5C47"></path>
                </g>
            </g>
        </g>
    </g>
</svg>