<?xml version="1.0" encoding="UTF-8"?>
<svg width="102px" height="23px" viewBox="0 0 102 23" version="1.1"
  xmlns="http://www.w3.org/2000/svg"
  xmlns:xlink="http://www.w3.org/1999/xlink">
  <!-- Generator: Sketch 54.1 (76490) - https://sketchapp.com -->
  <title>orbit-logo</title>
  <desc>Created with Sketch.</desc>
  <g stroke="none" stroke-width="1" fill="none" fill-rule="evenodd">
    <g transform="translate(-680.000000, -136.000000)" fill="#FFFFFF">
      <g transform="translate(-19.000000, -1.000000)" id="orbit-logo">
        <g transform="translate(699.000000, 137.000000)">
          <g >
            <polygon id="BIT" points="101.934538 0.241457153 84.6485607 0.241457153 84.6485607 5.64062336 90.2504978 5.64062336 90.2504978 22.59006 96.332601 22.59006 96.332601 5.64062336 101.934538 5.64062336"></polygon>
            <polygon id="Path" points="80.701493 0.241457153 74.6193899 0.241457153 74.6193899 22.59006 80.701493 22.59006"></polygon>
            <path d="M51.2041773,1.35062402 C51.2259668,0.774466303 51.6714849,0.306476381 52.244747,0.241457153 L62.0101115,0.241457153 C66.9970099,0.241457153 68.6937813,3.51457677 68.6749127,5.82860786 C68.6546925,8.30838748 68.255244,9.57871441 66.2155233,10.7772271 C69.5185546,11.6378257 70.5441865,14.2294664 70.5441865,16.2366715 C70.5441865,22.1257842 65.4631669,22.59006 60.3493946,22.59006 L51.203342,22.59006 L51.2041773,1.35062402 Z M61.1080899,4.72617138 C60.0718369,4.72617138 58.5690801,4.72617138 56.5998193,4.72617138 L56.5998193,8.92054858 C58.492808,8.92054858 59.9955648,8.92054858 61.1080899,8.92054858 C62.7768775,8.92054858 63.5089201,8.00989366 63.5089201,6.75950683 C63.5089201,5.50912001 62.6624694,4.72617138 61.1080899,4.72617138 Z M61.7681119,13.4824283 C60.5027226,13.4824283 58.7799584,13.4824283 56.5998193,13.4824283 L56.5998193,18.328125 C58.8088892,18.328125 60.5316534,18.328125 61.7681119,18.328125 C63.6227998,18.328125 64.8289642,17.5022732 64.8289642,15.884375 C64.8289642,14.2664768 63.666196,13.4824283 61.7681119,13.4824283 Z" id="Path"></path>
            <path d="M46.0879086,8.06004496 C46.0879086,2.76316835 41.9278141,0.255576148 38.8685267,0.255576148 L27.597498,0.255576148 C27.0450216,0.265759393 26.599513,0.667415532 26.599513,1.16232106 C26.588408,5.85999587 26.588408,22.6422689 26.588408,22.6422689 L32.0650392,22.6422689 L32.0650392,15.8872465 L33.8791694,15.8872465 L40.0508603,22.6422689 L47.1570503,22.6422689 C47.1570503,22.6422689 40.1500383,15.1744876 40.1714319,15.1709962 C40.2356852,15.1709962 46.0879086,13.3569216 46.0879086,8.06004496 Z M32.1123478,5.16712975 L37.5760094,5.16712975 C39.1003107,5.16712975 40.432208,6.4728895 40.432208,8.13843007 C40.4322081,9.80397062 38.6202851,11.1097302 37.5760094,11.1097302 L32.1123478,11.1097302 L32.1123478,5.16712975 Z" id="Shape-Copy-21" fill-rule="nonzero"></path>
            <path d="M0.110268809,11.4674905 C0.110268809,17.7424811 5.21110026,22.8298489 11.5026976,22.8298489 C17.7942956,22.8298489 22.8951265,17.7424811 22.8951265,11.4674905 C22.8951265,5.19249996 17.7948314,0.105132222 11.5026976,0.105132222 C5.21110026,0.105132222 0.110268809,5.19249996 0.110268809,11.4674905 Z M5.90678507,11.4060724 C5.90678507,8.28962766 8.43958589,5.76351222 11.5642789,5.76351222 C14.6889708,5.76351222 17.2217715,8.28962766 17.2217715,11.4060724 C17.2217715,14.5225172 14.6884944,17.0486326 11.5642789,17.0486326 C8.43958589,17.0486326 5.90678507,14.5225172 5.90678507,11.4060724 Z" id="Shape-Copy-22" fill-rule="nonzero"></path>
          </g>
        </g>
      </g>
    </g>
  </g>
</svg>
