<?xml version="1.0" encoding="UTF-8"?>
<svg width="422px" height="423px" viewBox="0 0 422 423" version="1.1" xmlns="http://www.w3.org/2000/svg" xmlns:xlink="http://www.w3.org/1999/xlink">
    <!-- Generator: Sketch 52.6 (67491) - http://www.bohemiancoding.com/sketch -->
    <title>icon-memory</title>
    <desc>Created with Sketch.</desc>
    <g id="Page-1" stroke="none" stroke-width="1" fill="none" fill-rule="evenodd">
        <path d="M242.255263,394.978166 C329.776183,380.016056 396.390625,303.787346 396.390625,212 C396.390625,162.092267 376.69642,116.784361 344.655635,83.4239089 C343.004883,82.8331766 341.357032,82.308451 339.712909,81.852107 C333.151736,150.503983 308.288446,199.089059 285.755125,242.514979 C255.063439,301.640721 214.774419,325.435189 242.255263,394.978166 Z M210.75,422 C94.7702025,422 0.75,327.979797 0.75,212 C0.75,96.0202025 94.7702025,2 210.75,2 C326.729797,2 420.75,96.0202025 420.75,212 C420.75,327.979797 326.729797,422 210.75,422 Z" id="icon-memory" fill="#000000"></path>
    </g>
</svg>