<?xml version="1.0" encoding="UTF-8"?>
<svg width="421px" height="421px" viewBox="0 0 421 421" version="1.1" xmlns="http://www.w3.org/2000/svg" xmlns:xlink="http://www.w3.org/1999/xlink">
    <!-- Generator: Sketch 52.6 (67491) - http://www.bohemiancoding.com/sketch -->
    <title>icon-settings</title>
    <desc>Created with Sketch.</desc>
    <g id="icon-settings" stroke="none" stroke-width="1" fill="none" fill-rule="evenodd">
        <path d="M210,420.5 C94.0202025,420.5 0,326.479797 0,210.5 C0,94.5202025 94.0202025,0.5 210,0.5 C325.979797,0.5 420,94.5202025 420,210.5 C420,326.479797 325.979797,420.5 210,420.5 Z M250.279797,341.99025 C250.858452,341.99025 251.419024,341.972167 252.033844,341.99025 C261.129574,341.520093 269.501984,337.559925 275.614025,330.796897 C281.726066,324.051953 284.836335,315.317883 284.384261,306.20407 L283.624777,291.574955 C283.624777,291.303711 283.606694,291.014383 283.624777,290.779305 C283.823689,287.018049 286.771212,284.179024 290.91221,284.179024 C290.930293,284.179024 305.649823,284.938508 305.649823,284.938508 C306.210395,284.956591 307.331539,284.974674 307.331539,284.974674 C316.969757,284.974674 326.192067,280.887925 332.647684,273.745156 C345.269591,259.78511 344.184613,238.194055 330.260733,225.590231 L319.392874,215.716934 C319.212044,215.554188 319.06738,215.409524 318.886551,215.210611 C317.638826,213.836306 317.005923,212.046093 317.096337,210.183548 C317.186752,208.321003 318.000486,206.603122 319.392874,205.337315 L330.224567,195.500184 C337.855577,188.610576 341.942326,178.773445 341.41792,168.502323 C340.495689,150.347031 325.486831,136.11574 307.223041,136.11574 C306.698635,136.11574 306.174229,136.133823 305.613657,136.151906 L289.948376,136.911391 L291.291952,143.692501 L289.948376,136.802893 C286.114788,136.60398 283.407781,133.439462 283.606694,129.605875 L284.366178,114.904427 C284.890584,104.651389 280.803835,94.8142578 273.190908,87.9065668 C266.916121,82.228517 258.796872,79.1001648 250.315963,79.1001648 C240.695828,79.1001648 231.473518,83.186914 225.035984,90.2935176 L215.162687,101.161377 C215.018023,101.306041 214.87336,101.468787 214.656364,101.649617 C213.390557,102.806927 211.745007,103.43983 209.68355,103.43983 C209.665467,103.43983 209.647384,103.43983 209.629301,103.43983 C207.766756,103.349415 206.048875,102.535682 204.80115,101.161377 L194.945937,90.2392687 C188.49032,83.0964992 179.286093,79.00975 169.68404,79.00975 C169.105386,79.00975 168.526731,79.00975 167.948076,79.0459159 C149.177963,79.9862299 134.657345,96.0258162 135.597659,114.832095 L136.393309,129.461211 C136.393309,129.714372 136.411392,129.967534 136.393309,130.220695 C136.284812,132.08324 135.452995,133.801121 134.07869,135.030763 C132.812883,136.169989 131.185417,136.802893 129.06971,136.802893 C129.033544,136.802893 114.187434,136.043409 114.187434,136.043409 C113.699194,136.007243 113.210954,136.007243 112.722714,136.007243 C103.138744,136.007243 93.9526003,140.057826 87.5150662,147.128264 C81.3668595,153.855125 78.2204243,162.571112 78.6363324,171.684924 C79.0522405,180.780654 82.994326,189.189231 89.7392704,195.337437 L100.60713,205.210734 C100.787959,205.373481 100.932623,205.536227 101.09537,205.698974 C103.681233,208.556082 103.464238,212.986407 100.589047,215.590353 L89.7573534,225.427484 C82.1444268,232.317092 78.0576777,242.154223 78.5820835,252.425345 C79.4862316,270.580638 94.4950891,284.811928 112.740797,284.811928 C113.265202,284.811928 113.789608,284.793845 114.368263,284.775762 L129.051627,284.016277 C129.06971,284.016277 129.793029,284.016277 129.811112,284.016277 C133.644699,284.251356 136.592222,287.578621 136.357144,291.48454 L135.597659,306.185987 C135.073253,316.457109 139.160002,326.29424 146.772929,333.183848 C153.047716,338.861898 161.166966,341.99025 169.647875,341.99025 C179.286093,341.99025 188.49032,337.903501 194.927854,330.796897 L204.783067,319.929038 C204.945814,319.748208 205.144727,319.567379 205.28939,319.422715 C206.573281,318.265405 208.182664,317.632502 210.262205,317.632502 C210.298371,317.632502 210.316454,317.632502 210.334536,317.632502 C212.215164,317.722917 213.89688,318.518567 215.18077,319.947121 L225.017901,330.778814 C231.473518,337.903501 240.677745,341.99025 250.279797,341.99025 Z M211,273 C176.758346,273 149,245.241654 149,211 C149,176.758346 176.758346,149 211,149 C245.241654,149 273,176.758346 273,211 C273,245.241654 245.241654,273 211,273 Z" id="icon-lists" fill="#000000"></path>
    </g>
</svg>