<?xml version="1.0" encoding="UTF-8"?>
<svg width="421px" height="420px" viewBox="0 0 421 420" version="1.1" xmlns="http://www.w3.org/2000/svg" xmlns:xlink="http://www.w3.org/1999/xlink">
    <!-- Generator: Sketch 52.5 (67469) - http://www.bohemiancoding.com/sketch -->
    <title>Oval</title>
    <desc>Created with Sketch.</desc>
    <g id="Symbols" stroke="none" stroke-width="1" fill="none" fill-rule="evenodd">
        <g id="icon-search" fill="#000000">
            <path d="M286.40542,231.060472 C293.951007,215.999326 298.197607,198.998722 298.197607,181.006272 C298.197607,119.207738 248.099997,69.1101283 186.301463,69.1101283 C124.502929,69.1101283 74.4053195,119.207738 74.4053195,181.006272 C74.4053195,242.804805 124.502929,292.902415 186.301463,292.902415 C203.897808,292.902415 220.545497,288.840736 235.358136,281.603772 L280.853961,327.099597 C294.880693,341.12633 317.62252,341.12633 331.649253,327.099597 C345.675986,313.072864 345.675986,290.331037 331.649253,276.304305 L286.40542,231.060472 Z M210.301463,420.006272 C94.3216655,420.006272 0.301463001,325.986069 0.301463001,210.006272 C0.301463001,94.0264743 94.3216655,0.00627179757 210.301463,0.00627179757 C326.28126,0.00627179757 420.301463,94.0264743 420.301463,210.006272 C420.301463,325.986069 326.28126,420.006272 210.301463,420.006272 Z M186.301463,250.051632 C148.168764,250.051632 117.256103,219.138971 117.256103,181.006272 C117.256103,142.873572 148.168764,111.960912 186.301463,111.960912 C224.434162,111.960912 255.346823,142.873572 255.346823,181.006272 C255.346823,219.138971 224.434162,250.051632 186.301463,250.051632 Z" id="Oval"></path>
        </g>
    </g>
</svg>