<?xml version="1.0" encoding="UTF-8"?>
<svg width="421px" height="420px" viewBox="0 0 421 420" version="1.1" xmlns="http://www.w3.org/2000/svg" xmlns:xlink="http://www.w3.org/1999/xlink">
    <!-- Generator: Sketch 52.5 (67469) - http://www.bohemiancoding.com/sketch -->
    <title>icon-memory</title>
    <desc>Created with Sketch.</desc>
    <g id="Page-1" stroke="none" stroke-width="1" fill="none" fill-rule="evenodd">
        <path d="M242.255263,392.978166 C329.776183,378.016056 396.390625,301.787346 396.390625,210 C396.390625,160.092267 376.69642,114.784361 344.655635,81.4239089 C343.004883,80.8331766 341.357032,80.308451 339.712909,79.852107 C333.151736,148.503983 308.288446,197.089059 285.755125,240.514979 C255.063439,299.640721 214.774419,323.435189 242.255263,392.978166 Z M210.75,420 C94.7702025,420 0.75,325.979797 0.75,210 C0.75,94.0202025 94.7702025,3.97903932e-13 210.75,3.97903932e-13 C326.729797,3.97903932e-13 420.75,94.0202025 420.75,210 C420.75,325.979797 326.729797,420 210.75,420 Z" id="icon-memory" fill="#000000"></path>
    </g>
</svg>