<?xml version="1.0" encoding="UTF-8"?>
<svg width="421px" height="421px" viewBox="0 0 421 421" version="1.1" xmlns="http://www.w3.org/2000/svg" xmlns:xlink="http://www.w3.org/1999/xlink">
    <!-- Generator: Sketch 52.6 (67491) - http://www.bohemiancoding.com/sketch -->
    <title>icon-apps</title>
    <desc>Created with Sketch.</desc>
    <g id="icon-apps" stroke="none" stroke-width="1" fill="none" fill-rule="evenodd">
        <path d="M210.75,420.921875 C94.7702025,420.921875 0.75,326.901672 0.75,210.921875 C0.75,94.9420775 94.7702025,0.921875 210.75,0.921875 C326.729797,0.921875 420.75,94.9420775 420.75,210.921875 C420.75,326.901672 326.729797,420.921875 210.75,420.921875 Z M334.944891,271.367654 C334.944891,255.501057 322.082473,242.63864 306.215877,242.63864 L115.284123,242.63864 C99.4175268,242.63864 86.5551091,255.501057 86.5551091,271.367654 C86.5551091,287.23425 99.4175268,300.096668 115.284123,300.096668 L306.215877,300.096668 C322.082473,300.096668 334.944891,287.23425 334.944891,271.367654 Z M334.944891,151.367654 C334.944891,135.501057 322.082473,122.63864 306.215877,122.63864 L115.284123,122.63864 C99.4175268,122.63864 86.5551091,135.501057 86.5551091,151.367654 C86.5551091,167.23425 99.4175268,180.096668 115.284123,180.096668 L306.215877,180.096668 C322.082473,180.096668 334.944891,167.23425 334.944891,151.367654 Z" id="icon-lists" fill="#000000"></path>
    </g>
</svg>