<?xml version="1.0" encoding="UTF-8"?>
<svg width="413px" height="151px" viewBox="0 0 413 151" version="1.1" xmlns="http://www.w3.org/2000/svg" xmlns:xlink="http://www.w3.org/1999/xlink">
    <!-- Generator: Sketch 46.2 (44496) - http://www.bohemiancoding.com/sketch -->
    <title>orbit</title>
    <desc>Created with Sketch.</desc>
    <defs></defs>
    <g id="Page-1" stroke="none" stroke-width="1" fill="none" fill-rule="evenodd">
        <g id="orbit" fill="#000000">
            <path d="M141.579734,47.7683748 C141.579734,48.2065051 150.444761,45.4458399 158.935594,43.5353465 C164.439469,42.2969384 171.185888,43.1681315 179.174852,46.1489258 L175.174852,79 C170.419449,78.0258789 167.136921,77.6642366 165.327267,77.9150731 C162.612786,78.2913278 155.373976,78.9794973 153.935594,80 C150.09668,82.7236328 147.579734,86.65625 147.099617,97.8574219 C146.6195,109.058594 146.579734,110.177584 146.579734,120.203433 L146.099617,147.976383 L111.536765,147.976383 L111.536765,44 L141.579734,44 L141.579734,47.7683748 Z" id="Path"></path>
            <polygon id="Path" points="305.015065 147.976383 305.015065 41.5353465 341.058034 41.5353465 341.058034 147.976383"></polygon>
            <path d="M355.303776,115 C355.303776,108.333333 355.303776,97.3311575 355.303776,81.9934724 L355.303776,52.5159334 L355.303776,32.3808594 L390.468327,29.3808594 L390.468327,43.5159334 L402.705631,43.5159334 L398.705631,77.9934724 L390.468327,77.9934724 C390.22252,81.3782861 390.099617,88.5589108 390.099617,99.5353465 C390.099617,116 396.670017,115.273437 399.990282,115.335937 C402.203792,115.377604 403.934261,115.377604 405.181688,115.335937 C410.213638,136.888904 412.721619,147.656807 412.705631,147.639648 C412.519108,147.439453 403.042112,150.340342 392.990282,150.639648 C382.938452,150.938955 384.978443,150.666766 379.875,149.736328 C365.568238,147.127982 355.303776,133.461914 355.303776,115 Z" id="Path"></path>
            <path d="M220.811174,0 L220.811174,45.977448 C224.982316,44.5771742 238.833829,40.3799589 249.452008,40.4204493 C254.825733,40.4409409 267.633544,42.268137 273.520083,46.7506041 C292.615723,61.2915039 293.318389,83.8928031 293.318389,97.9528157 C293.318389,115.346009 286.535252,132.332969 274.192978,141.837801 C267.880276,146.699236 262.687988,149.603336 245.025482,149.603336 C241.456859,149.603336 234.103506,147.844444 222.965422,144.326662 L221.103027,147.923828 C199.885376,147.923828 188.694217,147.923828 187.529549,147.923828 C187.529549,142.912166 187.520143,93.604223 187.501331,0 L220.811174,0 Z M244.286644,118.289252 C258.833386,118.166528 263.521979,104.542588 263.252116,94.2974503 C262.840888,78.6854774 258.763672,71.0449439 243.94315,71.0449439 C234.37793,71.0449439 221.022269,73.8613281 221.022269,91.0819687 C221.022269,96.9814219 221.022269,101.630939 221.022269,103.983687 C221.022269,115.566448 235.742539,118.361335 244.286644,118.289252 Z" id="Combined-Shape"></path>
            <path d="M15.051328,137.066081 C5.71112035,128.251767 0.72680448,112.883262 0.72680448,95.8621059 C0.72680448,78.8409497 6.38290466,63.3424533 15.051328,54.6228169 C23.7197512,45.9031804 36.9094402,41.1538993 51.9768438,41.1538993 C67.0442474,41.1538993 80.5423434,45.8981671 88.9023597,54.6228169 C97.262376,63.3474666 103.226883,78.1356502 103.226883,95.8621059 C103.226883,113.588562 97.9842935,128.504546 88.9023597,137.101395 C79.8204259,145.698244 67.0442474,150.570312 51.9768438,150.570312 C36.9094402,150.570312 24.3915356,145.880395 15.051328,137.066081 Z M52.0302088,120.959832 C59.1099967,120.959832 64.8733557,118.354814 69.3204586,113.551943 C73.7675616,108.749072 75.1162372,102.977471 75.1162372,95.8621059 C75.1162372,88.7467412 73.7675616,82.9751399 69.3204586,78.1722687 C64.8733557,73.3693975 59.0744204,70.7643794 51.9234788,70.7643794 C44.843691,70.7643794 39.080332,73.3693975 34.633229,78.1722687 C30.1861261,82.9751399 28.8374505,88.7467412 28.8374505,95.8621059 C28.8374505,102.977471 30.1861261,108.749072 34.633229,113.551943 C39.080332,118.354814 44.8792672,120.959832 52.0302088,120.959832 Z" id="Combined-Shape"></path>
        </g>
        <g id="height-guides" opacity="0" transform="translate(-219.650264, -364.593750)" stroke="#979797">
            <rect id="Rectangle-3" x="101.423039" y="514.921819" width="603.344739" height="131.936986"></rect>
            <rect id="Rectangle-3" x="101.423039" y="512.635897" width="603.344739" height="131.936986"></rect>
            <rect id="Rectangle-3" x="101.423039" y="232.619692" width="603.344739" height="131.936986"></rect>
            <rect id="Rectangle-3" x="101.423039" y="276.675419" width="603.344739" height="131.936986"></rect>
            <path d="M674.983328,480.307315 L118.642286,480.307315" id="Line-2" stroke-linecap="square"></path>
            <rect id="Rectangle-3" x="101.423039" y="309.788331" width="603.344739" height="131.936986"></rect>
            <ellipse id="Oval-7" cx="433.695132" cy="205.53378" rx="433.292756" ry="205.53378"></ellipse>
        </g>
        <g id="around-b" opacity="0" transform="translate(221.000000, 40.000000)" fill="#E5FF00">
            <rect id="Rectangle-2" x="21" y="0" width="7" height="30"></rect>
            <rect id="Rectangle-2" transform="translate(50.582031, 27.929688) rotate(55.000000) translate(-50.582031, -27.929688) " x="47.0820312" y="12.9296875" width="7" height="30"></rect>
            <rect id="Rectangle-2" transform="translate(57.304688, 54.464844) rotate(-270.000000) translate(-57.304688, -54.464844) " x="53.8046875" y="39.4648438" width="7" height="30"></rect>
            <rect id="Rectangle-2" transform="translate(8.350586, 19.452148) rotate(-197.000000) translate(-8.350586, -19.452148) " x="4.85058594" y="4.45214844" width="7" height="30"></rect>
            <rect id="Rectangle-2" transform="translate(32.971680, 91.942383) rotate(-197.000000) translate(-32.971680, -91.942383) " x="29.4716797" y="76.9423828" width="7" height="30"></rect>
            <rect id="Rectangle-2" transform="translate(7.028320, 90.854492) rotate(-167.000000) translate(-7.028320, -90.854492) " x="3.52832031" y="75.8544922" width="7" height="30"></rect>
        </g>
    </g>
</svg>