<?xml version="1.0" encoding="UTF-8"?>
<svg width="497px" height="166px" viewBox="0 0 497 166" version="1.1" xmlns="http://www.w3.org/2000/svg" xmlns:xlink="http://www.w3.org/1999/xlink">
    <!-- Generator: Sketch 46.2 (44496) - http://www.bohemiancoding.com/sketch -->
    <title>Group 4</title>
    <desc>Created with Sketch.</desc>
    <defs></defs>
    <g id="Page-1" stroke="none" stroke-width="1" fill="none" fill-rule="evenodd">
        <g id="Group-4" fill="#000000">
            <path d="M427.590792,131.971985 C427.590792,125.305319 427.590792,105.96981 427.590792,73.9654579 L427.590792,44.4879188 L427.590792,31.5391884 L466.755343,25.8917274 L466.755343,46.4879188 L480.992647,46.4879188 L480.992647,84.9654579 L466.755343,84.9654579 C466.304569,99.8416458 466.181666,111.02227 466.386633,118.507332 C466.5916,125.992393 473.599426,128.147278 487.41011,124.971985 C493.41011,148.971985 496.41011,160.971985 496.41011,160.971985 C495.41011,161.971985 477.698196,165.971985 464.41011,165.971985 C449.41011,165.971985 427.590792,156.370423 427.590792,131.971985 Z" id="Path"></path>
            <polygon id="Path" points="375.302081 161.948368 375.302081 44.5073319 415.34505 39.5073319 415.34505 161.948368"></polygon>
            <path d="M286.836613,0 L286.933548,46 C294.600215,41.6666667 302.751243,39.502444 311.386633,39.5073319 C334.021489,39.5201441 366.933548,58 366.375675,105.157352 C365.817803,152.314705 338.285744,164.34875 310.58466,164.948368 C302.881274,165.115116 294.989757,162.46566 286.91011,157 L286.933548,163 C261.543895,163 248.210561,163 246.933548,163 C246.933548,154.333333 246.933548,100 246.933548,7.15381629e-16 L286.836613,0 Z M305.763537,135.758879 C321.501199,135.835646 330.298329,121.605404 330.298329,104.201467 C330.298329,86.7975292 324.889563,70.5073319 305.763537,70.5073319 C300.108062,70.5073319 293.831399,72.6715546 286.933548,77 L286.933548,126 C292.375509,132.471231 298.652172,135.724191 305.763537,135.758879 Z" id="Combined-Shape" transform="translate(306.658111, 82.477886) rotate(-360.000000) translate(-306.658111, -82.477886) "></path>
            <path d="M199.933548,57 C202.488235,50 215.238184,46 223.933548,46 C226.822806,46 231.15614,47.6666667 236.933548,51 L233.933548,90 C214.933548,80 199.933548,89.7558594 199.933548,111 L199.933548,161.948368 L160.933548,161.948368 L160.933548,47 L199.933548,47 L199.933548,57 Z" id="Path"></path>
            <path d="M20.577738,142.511958 C5.01119566,126.909214 0.0390166272,110.559931 0.0390166272,87.463526 C0.0390166272,64.2947188 5.01119566,47.9273346 20.577738,32.3607923 C36.1442803,16.7942499 52.6205853,9.01109552 75.7893925,9.01109552 C98.9581997,9.01109552 115.434505,16.7942499 131.001047,32.3607923 C146.567589,47.9273346 151.539768,64.2947188 151.539768,87.463526 C151.539768,110.632333 146.567589,126.999717 131.001047,142.56626 C115.434505,158.132802 98.9581997,165.915956 75.7893925,165.915956 C52.6205853,165.915956 36.1442803,158.114702 20.577738,142.511958 Z M75.8945359,126.341002 C87.9823264,126.341002 95.9482954,121.490207 102.846011,114.040674 C109.743727,106.591141 112.498473,97.2594794 112.498473,87.463526 C112.498473,77.6675726 110.051711,68.6685338 102.846011,60.8863781 C95.6403113,53.1042225 87.9215846,48.5860498 75.7123088,48.5860498 C63.6245184,48.5860498 55.8798879,53.1977997 48.7608338,60.8863781 C41.6417797,68.5749565 40.080312,77.6504877 40.080312,87.463526 C40.080312,97.2765642 41.8669097,106.595236 48.7608338,114.040674 C55.6547579,121.486112 63.6852601,126.341002 75.8945359,126.341002 Z" id="Combined-Shape"></path>
        </g>
    </g>
</svg>