<?xml version="1.0" encoding="UTF-8"?>
<svg width="350px" height="350px" viewBox="0 0 350 350" version="1.1" xmlns="http://www.w3.org/2000/svg" xmlns:xlink="http://www.w3.org/1999/xlink">
    <!-- Generator: Sketch 46.2 (44496) - http://www.bohemiancoding.com/sketch -->
    <title>icon</title>
    <desc>Created with Sketch.</desc>
    <defs>
        <ellipse id="path-1" cx="174.971427" cy="174.48056" rx="174.771787" ry="174.144654"></ellipse>
        <ellipse id="path-3" cx="279.905655" cy="296.13813" rx="39.9593712" ry="40.5438752"></ellipse>
        <linearGradient x1="24.738092%" y1="8.15964246%" x2="79.9957785%" y2="102.483515%" id="linearGradient-4">
            <stop stop-color="#D2CEF4" offset="0%"></stop>
            <stop stop-color="#F2F1F9" stop-opacity="0" offset="100%"></stop>
        </linearGradient>
        <path d="M25.7277857,168.20046 C6.61581664,149.044044 0.511176981,126.971057 0.511176981,98.6142282 C0.511176981,70.1685069 6.61581664,48.0732966 25.7277857,28.9613276 C44.8397547,9.84935855 66.296453,0.293517374 94.7421743,0.293517374 C123.187896,0.293517374 144.644594,9.84935855 163.756563,28.9613276 C182.868532,48.0732966 188.973172,70.1685069 188.973172,98.6142282 C188.973172,127.05995 182.868532,149.15516 163.756563,168.267129 C144.644594,187.379098 123.187896,196.934939 94.7421743,196.934939 C66.296453,196.934939 44.8397547,187.356875 25.7277857,168.20046 Z M94.8572694,149.724434 C110.126621,149.724434 120.18927,143.596887 128.902496,134.186603 C137.615721,124.776319 141.09553,110.988521 141.09553,98.6142282 C141.09553,86.2399352 138.004768,72.8723083 128.902496,63.0418538 C119.800223,53.2113993 110.049892,47.504023 94.6270793,47.504023 C79.3577272,47.504023 69.5746746,53.3296065 60.581853,63.0418538 C51.5890314,72.7541011 49.6165783,86.2183535 49.6165783,98.6142282 C49.6165783,111.010103 51.8734167,124.781491 60.581853,134.186603 C69.2902894,143.591714 79.4344565,149.724434 94.8572694,149.724434 Z" id="path-5"></path>
    </defs>
    <g id="Page-1" stroke="none" stroke-width="1" fill="none" fill-rule="evenodd">
        <g id="icon" transform="translate(-10.210938, -9.786588)">
            <g id="Circle" transform="translate(185.088165, 184.272644) rotate(-3.000000) translate(-185.088165, -184.272644) translate(9.588165, 9.272644)">
                <g id="Oval-7" transform="translate(0.499527, 0.902817)">
                    <mask id="mask-2" fill="white">
                        <use xlink:href="#path-1"></use>
                    </mask>
                    <ellipse stroke="#958AE1" stroke-width="18" cx="174.971427" cy="174.48056" rx="165.771787" ry="165.144654"></ellipse>
                </g>
                <g id="Path">
                    <use fill="#261959" fill-rule="evenodd" xlink:href="#path-3"></use>
                    <ellipse stroke="#FFFFFF" stroke-width="13" cx="279.905655" cy="296.13813" rx="46.4593712" ry="47.0438752"></ellipse>
                </g>
                <path d="M45.0782589,261.095335 C28.6333965,236.613061 19.0593949,207.215525 19.0593949,175.477566 C19.0593949,89.2244629 89.7200464,19.3025073 176.884377,19.3025073 C238.73039,19.3025073 292.267826,54.5038614 318.151494,105.763613 C289.83163,63.9548012 241.642893,36.4337553 186.958363,36.4337553 C99.7940315,36.4337553 29.13338,106.355711 29.13338,192.608814 C29.13338,217.175182 34.8654315,240.416754 45.0782589,261.095335 Z" id="Path" fill="url(#linearGradient-4)" opacity="0.231034873"></path>
            </g>
            <g id="Oval-8" transform="translate(91.000000, 88.000000)">
                <mask id="mask-6" fill="white">
                    <use xlink:href="#path-5"></use>
                </mask>
                <g id="Mask">
                    <use fill="#261959" fill-rule="evenodd" xlink:href="#path-5"></use>
                    <use fill="black" fill-opacity="1" xlink:href="#path-5"></use>
                </g>
            </g>
        </g>
    </g>
</svg>