<?xml version="1.0" encoding="UTF-8"?>
<svg width="578px" height="141px" viewBox="0 0 578 141" version="1.1" xmlns="http://www.w3.org/2000/svg" xmlns:xlink="http://www.w3.org/1999/xlink">
    <!-- Generator: Sketch 46.2 (44496) - http://www.bohemiancoding.com/sketch -->
    <title>orbit</title>
    <desc>Created with Sketch.</desc>
    <defs></defs>
    <g id="Page-1" stroke="none" stroke-width="1" fill="none" fill-rule="evenodd">
        <g id="Group-3" transform="translate(177.000000, 34.000000)"></g>
        <g id="orbit" transform="translate(10.000000, 0.000000)">
            <g id="Group-5" transform="translate(173.000000, 0.000000)" fill="#000000">
                <path d="M142.492829,45.800113 C142.492829,45.800113 147.131836,40.0517578 156.84869,38.5670847 C163.326592,37.5773027 169.406345,38.4484958 175.087947,41.1806641 L173.087947,76.0317383 C171.914739,74.9672852 169.479827,74.4747721 165.783212,74.5541992 C160.238291,74.6733398 155.764658,76.0317383 151.566416,79.722168 C147.368173,83.4125977 145.947641,89.0199296 145.947641,95.145874 C145.947641,101.271818 145.947641,105.209322 145.947641,115.235172 L145.947641,138.885498 L109.449861,139.008121 L109.449861,41.0317383 L140.492829,37.0317383 C141.826163,42.8773215 142.492829,45.800113 142.492829,45.800113 Z" id="Path"></path>
                <polygon id="Path" points="293.928161 139.008121 293.928161 41.8051758 293.928161 39.5670847 329.971129 36.5670847 329.971129 139.008121"></polygon>
                <path d="M347.216871,105.031738 C347.216871,98.3650716 347.216871,86.6962291 347.216871,70.0252107 L337.131845,70.0252107 L338.131845,35.940918 L347.216871,34.940918 L347.216871,19.987793 L383.381422,16.987793 L383.381422,33.940918 L394.618727,33.940918 L392.618727,68.0252107 L383.381422,69.0252107 C383.135616,71.7433577 383.012712,78.590649 383.012712,89.5670847 C383.012712,97.8435043 383.012712,114.262712 383.012712,138.824707 L347.216871,138.824707 C347.216871,128.604004 347.216871,117.339681 347.216871,105.031738 Z" id="Path"></path>
                <path d="M218.724269,0.0317382812 C218.737439,1.90936338 218.747316,3.3175822 218.753901,4.25639475 C218.812173,12.56411 218.89958,26.3590162 219.016123,45.6411133 C219.016123,45.6411133 227.760751,38.246582 243.365103,38.4521875 C260.132757,38.6731209 270.751273,44.9292365 276.89747,53.1157227 C284.716806,63.5307617 287.235361,71.8549047 287.231484,89.9845539 C287.22712,110.389699 280.448347,122.364707 268.106073,131.869539 C261.793371,136.730974 254.074228,140.101074 240.938578,139.635074 C232.181477,139.324407 224.90215,137.828373 219.100595,135.146973 L217.016123,138.955566 C195.131805,137.622233 183.607312,136.955566 182.442644,136.955566 C182.442644,131.943904 182.423026,86.3340407 182.383789,0.125976562 L218.724269,0.0317382812 Z M238.963277,106.315027 C250.289597,106.219472 254.753596,100.25598 255.486261,88.1950841 C256.218926,76.1341882 249.50706,68.8304253 238.692569,69.081574 C227.878077,69.3327227 220.499839,72.4832374 220.628518,88.0252621 C220.757198,103.567287 227.636957,106.410583 238.963277,106.315027 Z" id="Combined-Shape"></path>
                <path d="M15.6780585,126.360625 C5.93473471,117.165892 0.484375,106.016075 0.484375,88.2602983 C0.484375,70.5045221 6.63551272,59.2191024 15.6780585,50.1231332 C24.7206043,41.027164 37.4986691,35.9185459 51.6269031,35.9185459 C65.7551371,35.9185459 78.8549195,41.0219343 87.5757477,50.1231332 C96.2965759,59.2243321 102.769431,69.7687824 102.769431,88.2602983 C102.769431,106.751814 97.0496507,117.429581 87.5757477,126.397463 C78.1018446,135.365346 66.4490361,140.602051 51.6269031,140.602051 C36.8047701,140.602051 25.4213823,135.555358 15.6780585,126.360625 Z M51.670399,107.036987 C58.4472656,107.036987 62.2038856,104.78108 65.8285659,100.866426 C69.4532462,96.9517709 69.7950151,92.3623935 69.7950151,88.2602983 C69.7950151,84.1582031 69.4532462,79.5688257 65.8285659,75.6541709 C62.2038856,71.7395161 58.5249023,69.4836092 51.5834071,69.4836092 C44.6419119,69.4836092 41.0499206,71.7395161 37.4252402,75.6541709 C33.8005599,79.5688257 33.458791,84.4042969 33.458791,88.2602983 C33.458791,92.1162998 33.8005599,96.9517709 37.4252402,100.866426 C41.0499206,104.78108 44.8935324,107.036987 51.670399,107.036987 Z" id="Combined-Shape"></path>
            </g>
            <path d="M139.805542,21.971718 C129.982196,84.716139 77.9640524,133.895111 13.3138792,139.629977 L11.7170666,139.629977 C5.60011325,139.629977 0.641342758,134.671207 0.641342758,128.554254 L0.641342758,117.84736 L0.640625,73.8707801 C0.712097962,68.7672253 4.23541108,64.4982682 8.98113976,63.2933334 L8.98113976,63.2933334 C34.6130855,59.7571317 55.4012179,41.2804327 62.0414046,17.0562637 C62.1869,16.6482199 62.3556493,16.2512159 62.546057,15.8668469 C64.233395,12.4606818 67.6215717,10.0467502 71.6003389,9.73530038 L116.232313,9.73530038 L116.232313,9.74291376 L128.729818,9.74291376 C134.846772,9.74291376 139.805542,14.7016843 139.805542,20.8186376 L139.805542,21.971718 Z" id="Oval-Copy" fill="#583AC4"></path>
        </g>
    </g>
</svg>