<?xml version="1.0" encoding="UTF-8"?>
<svg width="333px" height="335px" viewBox="0 0 333 335" version="1.1" xmlns="http://www.w3.org/2000/svg" xmlns:xlink="http://www.w3.org/1999/xlink">
    <!-- Generator: Sketch 46.2 (44496) - http://www.bohemiancoding.com/sketch -->
    <title>orbit</title>
    <desc>Created with Sketch.</desc>
    <defs>
        <linearGradient x1="134.498491%" y1="0%" x2="-41.1534917%" y2="107.544775%" id="linearGradient-1">
            <stop stop-color="#1B1F67" offset="0%"></stop>
            <stop stop-color="#3F103E" offset="100%"></stop>
        </linearGradient>
        <path d="M244.43082,322.426868 C240.774787,318.754049 237.638079,314.563837 235.14012,309.975658 C213.619981,320.449237 189.449596,326.324973 163.906859,326.324973 C73.8925904,326.324973 0.921607618,253.353991 0.921607618,163.339722 C0.921607618,73.3254527 73.8925904,0.354469882 163.906859,0.354469882 C253.921128,0.354469882 326.892111,73.3254527 326.892111,163.339722 C326.892111,189.52791 320.715669,214.273512 309.740023,236.199291 C318.579552,241.140058 325.904395,248.466646 330.843027,257.307529 C320.906781,245.436362 305.978496,237.886447 289.286834,237.886447 C259.371355,237.886447 235.120069,262.137734 235.120069,292.053212 C235.120069,303.309825 238.553737,313.764462 244.43082,322.426868 Z" id="path-2"></path>
        <path d="M290.332451,229.559761 C300.71958,209.76967 306.596172,187.240972 306.596172,163.339722 C306.596172,84.5345903 242.711991,20.650409 163.906859,20.650409 C85.101728,20.650409 21.2175467,84.5345903 21.2175467,163.339722 C21.2175467,242.144853 85.101728,306.029034 163.906859,306.029034 C187.286913,306.029034 209.353623,300.40594 228.828364,290.438377 C228.50497,288.045331 228.33796,285.602652 228.33796,283.120966 C228.33796,253.22657 252.572156,228.992373 282.466553,228.992373 C285.138143,228.992373 287.764528,229.185921 290.332451,229.559761 Z" id="path-4"></path>
        <linearGradient x1="24.738092%" y1="8.15964246%" x2="70.386921%" y2="72.770909%" id="linearGradient-6">
            <stop stop-color="#F2F1F9" offset="0%"></stop>
            <stop stop-color="#F2F1F9" stop-opacity="0" offset="100%"></stop>
        </linearGradient>
    </defs>
    <g id="Page-1" stroke="none" stroke-width="1" fill="none" fill-rule="evenodd">
        <g id="icon">
            <g id="Oval-7" transform="translate(0.499527, 0.902817)">
                <mask id="mask-3" fill="white">
                    <use xlink:href="#path-2"></use>
                </mask>
                <g id="Mask">
                    <use fill="url(#linearGradient-1)" fill-rule="evenodd" xlink:href="#path-2"></use>
                    <path stroke-opacity="0.0805310236" stroke="#675AB7" stroke-width="18" d="M302.613347,230.298522 C302.310578,230.924457 302.003475,231.548502 301.692052,232.170623 L297.842905,239.859972 L305.348933,244.055392 C312.734603,248.183539 318.85953,254.30997 322.985831,261.69666 L337.744534,251.530921 C328.679155,240.700208 316.335873,233.248188 302.613347,230.298522 Z M227.204199,303.758039 C228.799739,312.268104 232.12626,320.321095 236.983147,327.479805 L244.43082,322.426868 L250.80934,316.0775 C247.740147,312.994215 245.122614,309.489102 243.04457,305.67221 L238.933094,298.120368 L231.201614,301.883181 C229.877493,302.527614 228.544909,303.152613 227.204199,303.758039 Z M227.204199,303.758039 C207.50197,312.654991 186.045031,317.324973 163.906859,317.324973 C78.8631531,317.324973 9.92160762,248.383428 9.92160762,163.339722 C9.92160762,78.2960154 78.8631531,9.35446988 163.906859,9.35446988 C248.950566,9.35446988 317.892111,78.2960154 317.892111,163.339722 C317.892111,186.861499 312.619718,209.611688 302.613347,230.298522 C298.288368,229.368865 293.826383,228.886447 289.286834,228.886447 C254.400793,228.886447 226.120069,257.167171 226.120069,292.053212 C226.120069,296.020627 226.487506,299.935444 227.204199,303.758039 Z"></path>
                </g>
                <mask id="mask-5" fill="white">
                    <use xlink:href="#path-4"></use>
                </mask>
                <g id="Mask">
                    <use fill="#FFFFFF" fill-rule="evenodd" xlink:href="#path-4"></use>
                    <path stroke-opacity="0.0805310236" stroke="#675AB7" stroke-width="13" d="M286.55008,222.627965 C295.417613,204.322348 300.096172,184.173857 300.096172,163.339722 C300.096172,88.1244412 239.12214,27.150409 163.906859,27.150409 C88.6915789,27.150409 27.7175467,88.1244412 27.7175467,163.339722 C27.7175467,238.555002 88.6915789,299.529034 163.906859,299.529034 C184.260787,299.529034 203.962333,295.064026 221.935456,286.585062 C221.870541,285.43473 221.83796,284.279709 221.83796,283.120966 C221.83796,249.636719 248.982306,222.492373 282.466553,222.492373 C283.833472,222.492373 285.195176,222.537713 286.55008,222.627965 Z"></path>
                </g>
                <circle fill-opacity="0.0500000007" fill="#FFFFFF" style="mix-blend-mode: screen;" mask="url(#mask-5)" cx="299.489504" cy="351.233781" r="354.278058"></circle>
            </g>
            <path d="M95.7277857,234.20046 C76.6158166,215.044044 70.511177,192.971057 70.511177,164.614228 C70.511177,136.168507 76.6158166,114.073297 95.7277857,94.9613276 C114.839755,75.8493586 136.296453,66.2935174 164.742174,66.2935174 C193.187896,66.2935174 214.644594,75.8493586 233.756563,94.9613276 C252.868532,114.073297 258.973172,136.168507 258.973172,164.614228 C258.973172,193.05995 252.868532,215.15516 233.756563,234.267129 C214.644594,253.379098 193.187896,262.934939 164.742174,262.934939 C136.296453,262.934939 114.839755,253.356875 95.7277857,234.20046 Z M164.857269,215.724434 C180.126621,215.724434 190.18927,209.596887 198.902496,200.186603 C207.615721,190.776319 211.09553,176.988521 211.09553,164.614228 C211.09553,152.239935 208.004768,138.872308 198.902496,129.041854 C189.800223,119.211399 180.049892,113.504023 164.627079,113.504023 C149.357727,113.504023 139.574675,119.329606 130.581853,129.041854 C121.589031,138.754101 119.616578,152.218354 119.616578,164.614228 C119.616578,177.010103 121.873417,190.781491 130.581853,200.186603 C139.290289,209.591714 149.434456,215.724434 164.857269,215.724434 Z" id="Combined-Shape-Copy" fill="#3A2266"></path>
            <path d="M258.558071,334.258871 C245.089249,324.698255 236.300575,308.976409 236.300575,291.201858 C236.300575,262.0603 259.924476,238.4364 289.066034,238.4364 C306.840584,238.4364 322.562431,247.225073 332.123047,260.693895 C323.509597,254.579783 312.982091,250.98545 301.615084,250.98545 C272.473526,250.98545 248.849625,274.60935 248.849625,303.750908 C248.849625,315.117916 252.443958,325.645422 258.558071,334.258871 Z" id="Path" fill="url(#linearGradient-6)"></path>
        </g>
    </g>
</svg>