<?xml version="1.0" encoding="UTF-8"?>
<svg width="350px" height="350px" viewBox="0 0 350 350" version="1.1" xmlns="http://www.w3.org/2000/svg" xmlns:xlink="http://www.w3.org/1999/xlink">
    <!-- Generator: Sketch 46.2 (44496) - http://www.bohemiancoding.com/sketch -->
    <title>icon</title>
    <desc>Created with Sketch.</desc>
    <defs>
        <path d="M321.617899,269.255873 C339.408571,241.981415 349.743214,209.433549 349.743214,174.48056 C349.743214,78.3031237 271.49522,0.335906485 174.971427,0.335906485 C78.4476347,0.335906485 0.199640484,78.3031237 0.199640484,174.48056 C0.199640484,270.657997 78.4476347,348.625214 174.971427,348.625214 C200.645702,348.625214 225.02696,343.109019 246.986599,333.201181 C238.055346,324.20126 232.526681,311.739334 232.526681,297.969252 C232.526681,270.524751 254.487971,248.276587 281.578594,248.276587 C298.109996,248.276587 312.731358,256.561263 321.617899,269.255873 Z" id="path-1"></path>
        <path d="M309.184797,267.140709 C327.192611,241.097702 337.735652,209.53385 337.735652,175.516374 C337.735652,86.2190842 265.085204,13.8293276 175.466335,13.8293276 C85.8474656,13.8293276 13.1970176,86.2190842 13.1970176,175.516374 C13.1970176,264.813665 85.8474656,337.203421 175.466335,337.203421 C200.879424,337.203421 224.928065,331.382481 246.342591,321.00571 C242.467594,314.598145 240.233798,307.061699 240.233798,298.996708 C240.233798,275.696117 258.879101,256.807255 281.879247,256.807255 C292.325796,256.807255 301.873972,260.703896 309.184797,267.140709 Z" id="path-3"></path>
        <linearGradient x1="24.738092%" y1="8.15964246%" x2="70.386921%" y2="72.770909%" id="linearGradient-5">
            <stop stop-color="#D2CEF4" offset="0%"></stop>
            <stop stop-color="#F2F1F9" stop-opacity="0" offset="100%"></stop>
        </linearGradient>
        <path d="M25.7277857,168.20046 C6.61581664,149.044044 0.511176981,126.971057 0.511176981,98.6142282 C0.511176981,70.1685069 6.61581664,48.0732966 25.7277857,28.9613276 C44.8397547,9.84935855 66.296453,0.293517374 94.7421743,0.293517374 C123.187896,0.293517374 144.644594,9.84935855 163.756563,28.9613276 C182.868532,48.0732966 188.973172,70.1685069 188.973172,98.6142282 C188.973172,127.05995 182.868532,149.15516 163.756563,168.267129 C144.644594,187.379098 123.187896,196.934939 94.7421743,196.934939 C66.296453,196.934939 44.8397547,187.356875 25.7277857,168.20046 Z M94.8572694,149.724434 C110.126621,149.724434 120.18927,143.596887 128.902496,134.186603 C137.615721,124.776319 141.09553,110.988521 141.09553,98.6142282 C141.09553,86.2399352 138.004768,72.8723083 128.902496,63.0418538 C119.800223,53.2113993 110.049892,47.504023 94.6270793,47.504023 C79.3577272,47.504023 69.5746746,53.3296065 60.581853,63.0418538 C51.5890314,72.7541011 49.6165783,86.2183535 49.6165783,98.6142282 C49.6165783,111.010103 51.8734167,124.781491 60.581853,134.186603 C69.2902894,143.591714 79.4344565,149.724434 94.8572694,149.724434 Z" id="path-6"></path>
    </defs>
    <g id="Page-1" stroke="none" stroke-width="1" fill="none" fill-rule="evenodd">
        <g id="icon" transform="translate(-10.210938, -9.786588)">
            <g id="Circle" transform="translate(185.088165, 184.272644) rotate(-3.000000) translate(-185.088165, -184.272644) translate(9.588165, 9.272644)">
                <g id="Oval-7" transform="translate(0.499527, 0.902817)">
                    <mask id="mask-2" fill="white">
                        <use xlink:href="#path-1"></use>
                    </mask>
                    <use id="Mask" fill="#261959" xlink:href="#path-1"></use>
                </g>
                <ellipse id="Path" fill="#261959" cx="281.741793" cy="299.042131" rx="41.4418176" ry="41.9831616"></ellipse>
                <mask id="mask-4" fill="white">
                    <use xlink:href="#path-3"></use>
                </mask>
                <use id="Mask" fill="#FFFFFF" xlink:href="#path-3"></use>
                <polygon id="Rectangle-2" fill="#F0EBF8" mask="url(#mask-4)" transform="translate(226.669392, 232.771117) rotate(-42.000000) translate(-226.669392, -232.771117) " points="150.003549 163.353681 224.717898 238.068029 303.335235 162.796111 254.826665 297.170425 196.83941 302.746122"></polygon>
                <path d="M39.3672028,266.684762 C22.162042,241.070595 12.1454037,210.313916 12.1454037,177.108611 C12.1454037,86.8677511 86.0729227,13.7130803 177.267139,13.7130803 C241.97249,13.7130803 297.985133,50.5419054 325.065485,104.171559 C295.436304,60.4297922 245.019647,31.6363606 187.806876,31.6363606 C96.6126603,31.6363606 22.6851413,104.791031 22.6851413,195.031891 C22.6851413,220.734041 28.6822039,245.050144 39.3672028,266.684762 Z" id="Path" fill="url(#linearGradient-5)" mask="url(#mask-4)"></path>
            </g>
            <g id="Oval-8" transform="translate(91.000000, 88.000000)">
                <mask id="mask-7" fill="white">
                    <use xlink:href="#path-6"></use>
                </mask>
                <use id="Mask" fill="#261959" xlink:href="#path-6"></use>
            </g>
        </g>
    </g>
</svg>