<?xml version="1.0" encoding="UTF-8"?>
<svg width="501px" height="166px" viewBox="0 0 501 166" version="1.1" xmlns="http://www.w3.org/2000/svg" xmlns:xlink="http://www.w3.org/1999/xlink">
    <!-- Generator: Sketch 46.2 (44496) - http://www.bohemiancoding.com/sketch -->
    <title>Group 4</title>
    <desc>Created with Sketch.</desc>
    <defs></defs>
    <g id="Page-1" stroke="none" stroke-width="1" fill="none" fill-rule="evenodd">
        <g id="Group-4" fill="#000000">
            <path d="M431.590792,131.971985 C431.590792,125.305319 431.590792,105.96981 431.590792,73.9654579 L431.590792,44.4879188 L431.590792,29.5391884 L470.755343,23.8917274 L470.755343,46.4879188 L484.992647,46.4879188 L484.992647,84.9654579 L470.755343,84.9654579 C470.304569,99.8416458 470.181666,111.02227 470.386633,118.507332 C470.5916,125.992393 477.599426,128.147278 491.41011,124.971985 C497.41011,148.971985 500.41011,160.971985 500.41011,160.971985 C499.41011,161.971985 481.698196,165.971985 468.41011,165.971985 C453.41011,165.971985 431.590792,156.370423 431.590792,131.971985 Z" id="Path"></path>
            <polygon id="Path" points="378.302081 161.948368 378.302081 44.5073319 418.34505 39.5073319 418.34505 161.948368"></polygon>
            <path d="M287.836613,0 L287.933548,46 C295.600215,41.6666667 303.751243,39.502444 312.386633,39.5073319 C335.021489,39.5201441 367.933548,58 367.375675,105.157352 C366.817803,152.314705 339.285744,164.34875 311.58466,164.948368 C303.881274,165.115116 295.989757,162.46566 287.91011,157 L287.933548,163 C262.543895,163 249.210561,163 247.933548,163 C247.933548,154.333333 247.933548,100 247.933548,7.15381629e-16 L287.836613,0 Z M306.763537,135.758879 C322.501199,135.835646 331.298329,121.605404 331.298329,104.201467 C331.298329,86.7975292 325.889563,70.5073319 306.763537,70.5073319 C301.108062,70.5073319 294.831399,72.6715546 287.933548,77 L287.933548,126 C293.375509,132.471231 299.652172,135.724191 306.763537,135.758879 Z" id="Combined-Shape" transform="translate(307.658111, 82.477886) rotate(-360.000000) translate(-307.658111, -82.477886) "></path>
            <path d="M200.933548,57 C203.488235,50 216.238184,46 224.933548,46 C227.822806,46 232.15614,47.6666667 237.933548,51 L234.933548,90 C215.933548,80 200.933548,89.7558594 200.933548,111 L200.933548,161.948368 L161.933548,161.948368 L161.933548,47 L200.933548,47 L200.933548,57 Z" id="Path"></path>
            <path d="M20.577738,142.511958 C5.01119566,126.909214 0.0390166272,110.559931 0.0390166272,87.463526 C0.0390166272,64.2947188 5.01119566,47.9273346 20.577738,32.3607923 C36.1442803,16.7942499 52.6205853,9.01109552 75.7893925,9.01109552 C98.9581997,9.01109552 115.434505,16.7942499 131.001047,32.3607923 C146.567589,47.9273346 151.539768,64.2947188 151.539768,87.463526 C151.539768,110.632333 146.567589,126.999717 131.001047,142.56626 C115.434505,158.132802 98.9581997,165.915956 75.7893925,165.915956 C52.6205853,165.915956 36.1442803,158.114702 20.577738,142.511958 Z M75.8945359,126.341002 C87.9823264,126.341002 95.9482954,121.490207 102.846011,114.040674 C109.743727,106.591141 112.498473,97.2594794 112.498473,87.463526 C112.498473,77.6675726 110.051711,68.6685338 102.846011,60.8863781 C95.6403113,53.1042225 87.9215846,48.5860498 75.7123088,48.5860498 C63.6245184,48.5860498 55.8798879,53.1977997 48.7608338,60.8863781 C41.6417797,68.5749565 40.080312,77.6504877 40.080312,87.463526 C40.080312,97.2765642 41.8669097,106.595236 48.7608338,114.040674 C55.6547579,121.486112 63.6852601,126.341002 75.8945359,126.341002 Z" id="Combined-Shape"></path>
        </g>
    </g>
</svg>