<?xml version="1.0" encoding="UTF-8"?>
<svg width="501px" height="166px" viewBox="0 0 501 166" version="1.1" xmlns="http://www.w3.org/2000/svg" xmlns:xlink="http://www.w3.org/1999/xlink">
    <!-- Generator: Sketch 46.2 (44496) - http://www.bohemiancoding.com/sketch -->
    <title>Group 4</title>
    <desc>Created with Sketch.</desc>
    <defs></defs>
    <g id="Page-1" stroke="none" stroke-width="1" fill="none" fill-rule="evenodd">
        <g id="Group-4" transform="translate(3.000000, 0.000000)" fill="#000000">
            <path d="M424.590792,131.971985 C424.590792,125.305319 424.590792,105.96981 424.590792,73.9654579 L424.590792,44.4879188 L424.590792,29.5391884 L463.755343,23.8917274 L463.755343,46.4879188 L477.992647,46.4879188 L477.992647,84.9654579 L463.755343,84.9654579 C463.304569,99.8416458 463.181666,111.02227 463.386633,118.507332 C463.5916,125.992393 470.599426,128.147278 484.41011,124.971985 C490.41011,148.971985 493.41011,160.971985 493.41011,160.971985 C492.41011,161.971985 474.698196,165.971985 461.41011,165.971985 C446.41011,165.971985 424.590792,156.370423 424.590792,131.971985 Z" id="Path"></path>
            <polygon id="Path" points="371.302081 161.948368 371.302081 44.5073319 411.34505 39.5073319 411.34505 161.948368"></polygon>
            <path d="M280.836613,0 L280.933548,46 C288.600215,41.6666667 296.751243,39.502444 305.386633,39.5073319 C328.021489,39.5201441 360.933548,58 360.375675,105.157352 C359.817803,152.314705 332.285744,164.34875 304.58466,164.948368 C296.881274,165.115116 288.989757,162.46566 280.91011,157 L280.933548,163 C255.543895,163 242.210561,163 240.933548,163 C240.933548,154.333333 240.933548,100 240.933548,7.15381629e-16 L280.836613,0 Z M299.763537,135.758879 C315.501199,135.835646 324.298329,121.605404 324.298329,104.201467 C324.298329,86.7975292 318.889563,70.5073319 299.763537,70.5073319 C294.108062,70.5073319 287.831399,72.6715546 280.933548,77 L280.933548,126 C286.375509,132.471231 292.652172,135.724191 299.763537,135.758879 Z" id="Combined-Shape" transform="translate(300.658111, 82.477886) rotate(-360.000000) translate(-300.658111, -82.477886) "></path>
            <path d="M193.933548,57 C196.488235,50 209.238184,46 217.933548,46 C220.822806,46 225.15614,47.6666667 230.933548,51 L227.933548,90 C208.933548,80 193.933548,89.7558594 193.933548,111 L193.933548,161.948368 L154.933548,161.948368 L154.933548,47 L193.933548,47 L193.933548,57 Z" id="Path"></path>
            <path d="M20.4155663,143.733935 C5.66178889,128.945846 0.94921875,113.450196 0.94921875,91.5597075 C0.94921875,69.600597 5.66178889,54.0877914 20.4155663,39.334014 C35.1693437,24.5802366 50.785383,17.2034586 72.7444936,17.2034586 C94.7036041,17.2034586 110.319643,24.5802366 125.073421,39.334014 C139.827198,54.0877914 144.539768,69.600597 144.539768,91.5597075 C144.539768,113.518818 139.827198,129.031624 125.073421,143.785401 C110.319643,158.539178 94.7036041,165.915956 72.7444936,165.915956 C50.785383,165.915956 35.1693437,158.522023 20.4155663,143.733935 Z M72.8514412,127.689139 C84.0848093,127.689139 91.4877059,123.181221 97.8978582,116.258257 C104.308011,109.335292 106.868039,100.663236 106.868039,91.5597075 C106.868039,82.4561785 104.594225,74.0932344 97.8978582,66.8611584 C91.2014915,59.6290824 84.0283611,55.4302756 72.6820947,55.4302756 C61.4487266,55.4302756 54.2515233,59.7160451 47.6356777,66.8611584 C41.0198321,74.0062716 39.5687363,82.4403013 39.5687363,91.5597075 C39.5687363,100.679114 41.2290488,109.339097 47.6356777,116.258257 C54.0423065,123.177416 61.5051748,127.689139 72.8514412,127.689139 Z" id="Combined-Shape"></path>
        </g>
    </g>
</svg>