<?xml version="1.0" encoding="UTF-8"?>
<svg width="472px" height="142px" viewBox="0 0 472 142" version="1.1" xmlns="http://www.w3.org/2000/svg" xmlns:xlink="http://www.w3.org/1999/xlink">
    <!-- Generator: Sketch 46.2 (44496) - http://www.bohemiancoding.com/sketch -->
    <title>orbit</title>
    <desc>Created with Sketch.</desc>
    <defs>
        <linearGradient x1="82.4177949%" y1="0%" x2="0%" y2="71.1546076%" id="linearGradient-1">
            <stop stop-color="#B27EE0" offset="0%"></stop>
            <stop stop-color="#793BB0" offset="100%"></stop>
        </linearGradient>
    </defs>
    <g id="Page-1" stroke="none" stroke-width="1" fill="none" fill-rule="evenodd">
        <g id="Group-3" transform="translate(32.000000, 67.000000)"></g>
        <g id="orbit" transform="translate(-7.945312, 0.511719)">
            <g id="Group-5" transform="translate(80.000000, 0.000000)" fill="#000000">
                <path d="M144.492829,44.800113 C144.492829,44.800113 149.131836,40.0517578 158.84869,38.5670847 C165.326592,37.5773027 171.406345,38.4484958 177.087947,41.1806641 L175.087947,76.0317383 C173.914739,74.9672852 171.479827,74.4747721 167.783212,74.5541992 C162.238291,74.6733398 157.764658,75.0317383 153.566416,78.722168 C149.368173,82.4125977 147.947641,88.0199296 147.947641,94.145874 C147.947641,100.271818 147.947641,105.209322 147.947641,115.235172 L147.947641,138.885498 L111.449861,139.008121 L111.449861,40.0317383 L142.492829,36.0317383 C143.826163,41.8773215 144.492829,44.800113 144.492829,44.800113 Z" id="Path"></path>
                <polygon id="Path" points="297.928161 139.008121 297.928161 41.8051758 297.928161 39.5670847 333.971129 36.5670847 333.971129 139.008121"></polygon>
                <path d="M352.216871,105.031738 C352.216871,98.3650716 352.216871,86.6962291 352.216871,70.0252107 L342.131845,70.0252107 L343.131845,35.940918 L352.216871,34.940918 L352.216871,19.987793 L388.381422,16.987793 L388.381422,33.940918 L399.618727,33.940918 L397.618727,68.0252107 L388.381422,69.0252107 C388.135616,71.7433577 388.012712,78.590649 388.012712,89.5670847 C388.012712,97.8435043 388.012712,114.262712 388.012712,138.824707 L352.216871,138.824707 C352.216871,128.604004 352.216871,117.339681 352.216871,105.031738 Z" id="Path"></path>
                <path d="M221.724269,0.0317382812 C221.737439,1.90936338 221.747316,3.3175822 221.753901,4.25639475 C221.812173,12.56411 221.89958,26.3590162 222.016123,45.6411133 C222.016123,45.6411133 230.760751,38.246582 246.365103,38.4521875 C263.132757,38.6731209 273.751273,44.9292365 279.89747,53.1157227 C287.716806,63.5307617 290.235361,71.8549047 290.231484,89.9845539 C290.22712,110.389699 283.448347,122.364707 271.106073,131.869539 C264.793371,136.730974 257.074228,140.101074 243.938578,139.635074 C235.181477,139.324407 227.90215,137.828373 222.100595,135.146973 L220.016123,138.955566 C198.131805,137.622233 186.607312,136.955566 185.442644,136.955566 C185.442644,131.943904 185.423026,86.3340407 185.383789,0.125976562 L221.724269,0.0317382812 Z M241.963277,106.315027 C253.289597,106.219472 257.753596,100.25598 258.486261,88.1950841 C259.218926,76.1341882 252.50706,68.8304253 241.692569,69.081574 C230.878077,69.3327227 223.499839,72.4832374 223.628518,88.0252621 C223.757198,103.567287 230.636957,106.410583 241.963277,106.315027 Z" id="Combined-Shape"></path>
                <path d="M15.6780585,126.360625 C5.93473471,117.165892 0.484375,106.016075 0.484375,88.2602983 C0.484375,70.5045221 6.63551272,59.2191024 15.6780585,50.1231332 C24.7206043,41.027164 37.4986691,35.9185459 51.6269031,35.9185459 C65.7551371,35.9185459 78.8549195,41.0219343 87.5757477,50.1231332 C96.2965759,59.2243321 102.769431,69.7687824 102.769431,88.2602983 C102.769431,106.751814 97.0496507,117.429581 87.5757477,126.397463 C78.1018446,135.365346 66.4490361,140.602051 51.6269031,140.602051 C36.8047701,140.602051 25.4213823,135.555358 15.6780585,126.360625 Z M51.670399,107.036987 C58.4472656,107.036987 62.2038856,104.78108 65.8285659,100.866426 C69.4532462,96.9517709 69.7950151,92.3623935 69.7950151,88.2602983 C69.7950151,84.1582031 69.4532462,79.5688257 65.8285659,75.6541709 C62.2038856,71.7395161 58.5249023,69.4836092 51.5834071,69.4836092 C44.6419119,69.4836092 41.0499206,71.7395161 37.4252402,75.6541709 C33.8005599,79.5688257 33.458791,84.4042969 33.458791,88.2602983 C33.458791,92.1162998 33.8005599,96.9517709 37.4252402,100.866426 C41.0499206,104.78108 44.8935324,107.036987 51.670399,107.036987 Z" id="Combined-Shape"></path>
            </g>
            <path d="M19.7043374,24.161422 C37.9464217,16.9948493 49.2853382,15.669311 68.4049025,11.709105 C85.0905962,8.25302299 89.7595108,30.2267048 76.2202972,40.042338 C58.5416459,52.858973 53.3827763,41.2243035 44.3365468,75.6431183 C40.1856164,91.4364499 12.0924213,88.9905456 10.5366068,75.4274051 C8.45437284,57.2750917 8.93241492,60.3281465 9.06367016,46.5403752 C9.17065769,35.3018166 11.4106211,27.4196857 19.7043374,24.161422 Z" id="notch" fill="url(#linearGradient-1)" transform="translate(46.523230, 48.955261) rotate(-14.000000) translate(-46.523230, -48.955261) "></path>
        </g>
    </g>
</svg>