<?xml version="1.0" encoding="UTF-8"?>
<svg width="271px" height="108px" viewBox="0 0 271 108" version="1.1" xmlns="http://www.w3.org/2000/svg" xmlns:xlink="http://www.w3.org/1999/xlink">
    <!-- Generator: Sketch 46.2 (44496) - http://www.bohemiancoding.com/sketch -->
    <title>DeliverX</title>
    <desc>Created with Sketch.</desc>
    <defs>
        <linearGradient x1="19.681154%" y1="100%" x2="86.6186151%" y2="18.0749985%" id="linearGradient-1">
            <stop stop-color="#000000" offset="0%"></stop>
            <stop stop-color="#3D9691" offset="100%"></stop>
        </linearGradient>
    </defs>
    <g id="Page-1" stroke="none" stroke-width="1" fill="none" fill-rule="evenodd">
        <g id="Group-2">
            <g id="Group" transform="translate(184.033220, 0.183594)">
                <path d="M63.493146,40.5883934 L86.1233236,3.75149323 C87.0033861,2.36853794 86.37477,0.231243388 84.2374755,0.231243388 L69.5278601,0.231243388 C67.0133959,0.231243388 66.1333334,1.23702906 64.3732085,3.87721644 L51.9266109,24.118653 L39.35429,3.87721644 C37.7198883,1.23702906 36.7141026,0.231243388 34.3253616,0.231243388 L19.490023,0.231243388 C17.3527285,0.231243388 16.8498356,2.36853794 17.6041749,3.75149323 L40.3600757,40.5883934 L1.03391561,103.451962 C0.0281299394,104.960641 0.656745983,107.349382 2.54259411,107.349382 L16.8750399,107.349382 C19.6409505,107.349382 20.7724594,107.097935 22.4068611,103.829132 L51.9266109,57.0581337 L64.3732085,79.4368649 C66.1333334,82.7056683 67.1391191,82.9571147 69.9050297,82.9571147 L84.2374755,82.9571147 C86.1233236,82.9571147 86.7519397,80.5683737 85.746154,79.0596952 L63.493146,40.5883934 Z" id="X" fill="#3D9691"></path>
                <path d="M40.3600757,40.5883934 L1.03391561,103.451962 C0.0281299394,104.960641 0.656745983,107.349382 2.54259411,107.349382 L16.8750399,107.349382 C19.6409505,107.349382 20.7724594,107.097935 22.4068611,103.829132 L51.9266109,57.0581337 L40.3600757,40.5883934 Z" id="X" fill="url(#linearGradient-1)" opacity="0.300271739"></path>
            </g>
            <path d="M35.7576892,44.2743125 C35.7576892,48.1143317 35.3376934,51.5942969 34.4976892,54.7143125 C33.657685,57.8343281 32.3736978,60.4983015 30.6456892,62.7063125 C28.9176805,64.9143235 26.7217025,66.6183065 24.0576892,67.8183125 C21.3936758,69.0183185 18.2377074,69.6183125 14.5896892,69.6183125 L0.261689151,69.6183125 L0.261689151,18.6423125 L14.5896892,18.6423125 C18.2377074,18.6423125 21.3936758,19.2423065 24.0576892,20.4423125 C26.7217025,21.6423185 28.9176805,23.3583013 30.6456892,25.5903125 C32.3736978,27.8223237 33.657685,30.5102968 34.4976892,33.6543125 C35.3376934,36.7983282 35.7576892,40.3382928 35.7576892,44.2743125 Z M24.1656892,44.2743125 C24.1656892,39.1382868 23.2896979,35.2623256 21.5376892,32.6463125 C19.7856804,30.0302994 17.5177031,28.7223125 14.7336892,28.7223125 L11.9256892,28.7223125 L11.9256892,59.5383125 L14.7336892,59.5383125 C17.5177031,59.5383125 19.7856804,58.2303256 21.5376892,55.6143125 C23.2896979,52.9982994 24.1656892,49.2183372 24.1656892,44.2743125 Z M39.8416891,69.6183125 L39.8416891,18.6423125 L64.4656891,18.6423125 L64.4656891,28.7943125 L50.8576891,28.7943125 L50.8576891,38.8023125 L63.3856891,38.8023125 L63.3856891,48.3063125 L50.8576891,48.3063125 L50.8576891,59.3223125 L65.3296891,59.3223125 L65.3296891,69.6183125 L39.8416891,69.6183125 Z M69.197689,69.6183125 L69.197689,18.6423125 L80.861689,18.6423125 L80.861689,58.9623125 L94.469689,58.9623125 L94.469689,69.6183125 L69.197689,69.6183125 Z M96.7536889,69.6183125 L96.7536889,18.6423125 L108.345689,18.6423125 L108.345689,69.6183125 L96.7536889,69.6183125 Z M136.837689,69.6183125 L122.221689,69.6183125 L109.909689,18.6423125 L122.941689,18.6423125 L129.853689,55.9383125 L129.997689,55.9383125 L136.837689,18.6423125 L149.365689,18.6423125 L136.837689,69.6183125 Z M150.929689,69.6183125 L150.929689,18.6423125 L175.553689,18.6423125 L175.553689,28.7943125 L161.945689,28.7943125 L161.945689,38.8023125 L174.473689,38.8023125 L174.473689,48.3063125 L161.945689,48.3063125 L161.945689,59.3223125 L176.417689,59.3223125 L176.417689,69.6183125 L150.929689,69.6183125 Z M201.597689,69.6183125 L194.757689,49.3143125 L191.373689,49.3143125 L191.373689,69.6183125 L180.285689,69.6183125 L180.285689,18.6423125 L196.629689,18.6423125 C201.573713,18.6423125 205.413675,19.9262997 208.149689,22.4943125 C210.885702,25.0623253 212.253689,28.8902871 212.253689,33.9783125 C212.253689,35.8503219 212.037691,37.5303051 211.605689,39.0183125 C211.173686,40.5063199 210.609692,41.7783072 209.913689,42.8343125 C209.217685,43.8903178 208.437693,44.7543091 207.573689,45.4263125 C206.709684,46.0983159 205.869693,46.5783111 205.053689,46.8663125 L208.58418,57.6980096 L201.597689,69.6183125 Z M200.877689,34.6263125 C200.877689,33.330306 200.69769,32.2743166 200.337689,31.4583125 C199.977687,30.6423084 199.509691,29.9943149 198.933689,29.5143125 C198.357686,29.0343101 197.721692,28.7103133 197.025689,28.5423125 C196.329685,28.3743117 195.645692,28.2903125 194.973689,28.2903125 L191.373689,28.2903125 L191.373689,41.1783125 L194.757689,41.1783125 C196.389697,41.1783125 197.817682,40.6623177 199.041689,39.6303125 C200.265695,38.5983073 200.877689,36.930324 200.877689,34.6263125 Z" id="DELIVER" fill="#2F2F2F"></path>
        </g>
    </g>
</svg>