<?xml version="1.0" encoding="UTF-8"?>
<svg width="413px" height="142px" viewBox="0 0 413 142" version="1.1" xmlns="http://www.w3.org/2000/svg" xmlns:xlink="http://www.w3.org/1999/xlink">
    <!-- Generator: Sketch 46.2 (44496) - http://www.bohemiancoding.com/sketch -->
    <title>orbit</title>
    <desc>Created with Sketch.</desc>
    <defs></defs>
    <g id="Page-1" stroke="none" stroke-width="1" fill="none" fill-rule="evenodd">
        <g id="orbit" transform="translate(-0.441406, 0.000000)" fill="#000000">
            <path d="M158.579734,38.7683748 C159.579734,39.2065051 162.643066,36 173.935594,34.5353465 C183.007629,33.3586934 189.754049,34.2298865 194.174852,37.1489258 L192.174852,71 C189.308935,70.194987 186.207357,69.702474 182.870117,69.5224609 C177.864258,69.2524414 171.812012,70.4916992 167.845703,73.9326172 C163.879395,77.3735352 161.983276,81.8083496 162.034546,86.1141357 C162.085815,90.4199219 162.034546,100.177584 162.034546,110.203433 L162.034546,138.85376 L125.536765,138.976383 L125.536765,37 L156.579734,33 L158.579734,38.7683748 Z" id="Path"></path>
            <polygon id="Path" points="315.015065 138.976383 315.015065 39.7734375 315.015065 34.5353465 351.058034 31.5353465 351.058034 138.976383"></polygon>
            <path d="M367.303776,105 C367.303776,98.3333333 367.303776,85.3311575 367.303776,65.9934724 L360.21875,63.9934724 L360.21875,33.9091797 L367.303776,31.9091797 L368.303776,19.9560547 L402.468327,17.9560547 L403.468327,30.9091797 L412.705631,31.9091797 L412.705631,61.9934724 L403.468327,64.9934724 C403.22252,71.0449527 403.099617,79.5589108 403.099617,90.5353465 C403.099617,98.811766 403.099617,114.89764 403.099617,138.792969 L367.303776,138.792969 C367.303776,128.572266 367.303776,117.307943 367.303776,105 Z" id="Path"></path>
            <path d="M236.811174,0 C236.824344,1.8776251 236.834221,3.28584392 236.840806,4.22465647 C236.899077,12.5323717 236.986485,24.9939445 237.103027,41.609375 C237.103027,41.609375 247.847656,34.2148438 263.452008,34.4204493 C280.219661,34.6413826 291.838178,40.8974982 297.984375,49.0839844 C305.803711,59.4990234 308.322266,69.8231664 308.318389,87.9528157 C308.314025,108.357961 301.535252,122.332969 289.192978,131.837801 C282.880276,136.699236 274.161133,140.069336 261.025482,139.603336 C252.268382,139.292669 244.322388,137.796635 237.1875,135.115234 L235.103027,138.923828 C213.21871,137.590495 201.694217,136.923828 200.529549,136.923828 C200.529549,131.912166 200.520143,87.2708897 200.501331,3 L236.811174,0 Z M259.171298,106.84735 C272.057412,106.738636 277.136167,99.9538863 277.969731,86.2320343 C278.803294,72.5101823 271.167109,64.2005879 258.863309,64.4863233 C246.559509,64.7720587 238.165183,68.3564438 238.311583,86.0388254 C238.457984,103.721207 246.285184,106.956065 259.171298,106.84735 Z" id="Combined-Shape"></path>
            <path d="M17.1348475,123.852995 C6.36508335,113.689615 0.46484375,99.2681608 0.46484375,79.6418478 C0.46484375,60.0155349 7.13968697,45.4441933 17.1348475,35.3899812 C27.130008,25.3357692 39.9101975,17.7133831 59.8458635,17.7133831 C79.7815294,17.7133831 92.9173288,25.3299886 102.556879,35.3899812 C112.19643,45.4499739 119.226883,59.2022864 119.226883,79.6418478 C119.226883,100.081409 113.02884,113.981082 102.556879,123.893714 C92.084919,133.806346 80.0007216,141.570313 59.8458635,141.570313 C39.6910053,141.570313 27.9046116,134.016376 17.1348475,123.852995 Z M59.8967862,103.591006 C66.652576,103.591006 73.1156723,101.105204 77.3592588,96.5221305 C81.6028453,91.939057 82.8898004,86.4315863 82.8898004,79.6418478 C82.8898004,72.8521094 81.6028453,67.3446386 77.3592588,62.7615651 C73.1156723,58.1784917 66.6186278,55.6926892 59.7949407,55.6926892 C53.0391509,55.6926892 46.5760546,58.1784917 42.3324681,62.7615651 C38.0888816,67.3446386 36.8019265,72.8521094 36.8019265,79.6418478 C36.8019265,86.4315863 38.0888816,91.939057 42.3324681,96.5221305 C46.5760546,101.105204 53.0730991,103.591006 59.8967862,103.591006 Z" id="Combined-Shape"></path>
        </g>
        <g id="height-guides" opacity="0" transform="translate(-94.650264, -375.593750)" stroke="#979797">
            <rect id="Rectangle-3" x="101.423039" y="514.921819" width="603.344739" height="131.936986"></rect>
            <rect id="Rectangle-3" x="101.423039" y="512.635897" width="603.344739" height="131.936986"></rect>
            <rect id="Rectangle-3" x="101.423039" y="276.675419" width="603.344739" height="131.936986"></rect>
            <path d="M674.983328,480.307315 L118.642286,480.307315" id="Line-2" stroke-linecap="square"></path>
            <rect id="Rectangle-3" x="101.423039" y="309.788331" width="603.344739" height="131.936986"></rect>
            <ellipse id="Oval-7" cx="433.695132" cy="205.53378" rx="433.292756" ry="205.53378"></ellipse>
        </g>
    </g>
</svg>