<?xml version="1.0" encoding="UTF-8"?>
<svg width="1024px" height="1024px" viewBox="0 0 1024 1024" version="1.1"
  xmlns="http://www.w3.org/2000/svg"
  xmlns:xlink="http://www.w3.org/1999/xlink">
  <!-- Generator: Sketch 52.6 (67491) - http://www.bohemiancoding.com/sketch -->
  <title>appicon-lists</title>
  <desc>Created with Sketch.</desc>
  <defs>
    <linearGradient x1="50%" y1="0%" x2="50%" y2="100%" id="linearGradient-1">
      <stop stop-color="#323232" offset="0%"></stop>
      <stop stop-color="#121212" offset="100%"></stop>
    </linearGradient>
    <path d="M393.978253,0.421875 L579.021747,0.421875 C715.869873,0.421875 765.494311,14.6706063 815.52394,41.426745 C865.55357,68.1828837 904.817116,107.44643 931.573255,157.47606 C958.329394,207.505689 972.578125,257.130127 972.578125,393.978253 L972.578125,579.021747 C972.578125,715.869873 958.329394,765.494311 931.573255,815.52394 C904.817116,865.55357 865.55357,904.817116 815.52394,931.573255 C765.494311,958.329394 715.869873,972.578125 579.021747,972.578125 L393.978253,972.578125 C257.130127,972.578125 207.505689,958.329394 157.47606,931.573255 C107.44643,904.817116 68.1828837,865.55357 41.426745,815.52394 C14.6706063,765.494311 0.421875,715.869873 0.421875,579.021747 L0.421875,393.978253 C0.421875,257.130127 14.6706063,207.505689 41.426745,157.47606 C68.1828837,107.44643 107.44643,68.1828837 157.47606,41.426745 C207.505689,14.6706063 257.130127,0.421875 393.978253,0.421875 Z" id="path-2"></path>
    <filter x="-2.7%" y="-2.0%" width="105.3%" height="105.3%" filterUnits="objectBoundingBox" id="filter-3">
      <feOffset dx="0" dy="7" in="SourceAlpha" result="shadowOffsetOuter1"></feOffset>
      <feGaussianBlur stdDeviation="7.5" in="shadowOffsetOuter1" result="shadowBlurOuter1"></feGaussianBlur>
      <feComposite in="shadowBlurOuter1" in2="SourceAlpha" operator="out" result="shadowBlurOuter1"></feComposite>
      <feColorMatrix values="0 0 0 0 0   0 0 0 0 0   0 0 0 0 0  0 0 0 0.428555254 0" type="matrix" in="shadowBlurOuter1"></feColorMatrix>
    </filter>
  </defs>
  <g id="appicon-lists" stroke="none" stroke-width="1" fill="none" fill-rule="evenodd">
    <g id="icon" transform="translate(24.000000, 26.000000)">
      <g id="squircle2">
        <g id="Rectangle">
          <use fill="black" fill-opacity="1" filter="url(#filter-3)" xlink:href="#path-2"></use>
          <path stroke-opacity="0.214787138" stroke="#FFFFFF" stroke-width="6" d="M393.978253,3.421875 C327.481005,3.421875 280.308729,6.77440569 243.739038,13.8363388 C211.311278,20.0984281 186.85487,29.1168666 158.890856,44.0721846 C109.384032,70.5487239 70.5487239,109.384032 44.0721846,158.890856 C29.1168666,186.85487 20.0984281,211.311278 13.8363388,243.739038 C6.77440569,280.308729 3.421875,327.481005 3.421875,393.978253 L3.421875,579.021747 C3.421875,645.518995 6.77440569,692.691271 13.8363388,729.260962 C20.0984281,761.688722 29.1168666,786.14513 44.0721846,814.109144 C70.5487239,863.615968 109.384032,902.451276 158.890856,928.927815 C186.85487,943.883133 211.311278,952.901572 243.739038,959.163661 C280.308729,966.225594 327.481005,969.578125 393.978253,969.578125 L579.021747,969.578125 C645.518995,969.578125 692.691271,966.225594 729.260962,959.163661 C761.688722,952.901572 786.14513,943.883133 814.109144,928.927815 C863.615968,902.451276 902.451276,863.615968 928.927815,814.109144 C943.883133,786.14513 952.901572,761.688722 959.163661,729.260962 C966.225594,692.691271 969.578125,645.518995 969.578125,579.021747 L969.578125,393.978253 C969.578125,327.481005 966.225594,280.308729 959.163661,243.739038 C952.901572,211.311278 943.883133,186.85487 928.927815,158.890856 C902.451276,109.384032 863.615968,70.5487239 814.109144,44.0721846 C786.14513,29.1168666 761.688722,20.0984281 729.260962,13.8363388 C692.691271,6.77440569 645.518995,3.421875 579.021747,3.421875 L393.978253,3.421875 Z" stroke-linejoin="square" fill="url(#linearGradient-1)" fill-rule="evenodd"></path>
        </g>
      </g>
    </g>
    <g id="icon-lists" transform="translate(180.265625, 194.265625)" stroke="#FFFFFF" stroke-width="17">
      <path d="M332.394299,655.376781 C510.622885,655.376781 655.105701,510.893966 655.105701,332.66538 C655.105701,154.436794 510.622885,9.95397862 332.394299,9.95397862 C154.165714,9.95397862 9.68289786,154.436794 9.68289786,332.66538 C9.68289786,510.893966 154.165714,655.376781 332.394299,655.376781 Z M456.95766,126.149466 C488.118084,144.139944 498.794433,183.984623 480.803955,215.145047 L308.498546,513.586768 C290.508067,544.747192 250.663389,555.423541 219.502965,537.433062 C188.342542,519.442583 177.666192,479.597904 195.656671,448.437481 L367.962079,149.99576 C385.952558,118.835336 425.797237,108.158987 456.95766,126.149466 Z" id="icon-search"></path>
    </g>
  </g>
</svg>
