<?xml version="1.0" encoding="UTF-8"?>
<svg width="1024px" height="1024px" viewBox="0 0 1024 1024" version="1.1"
  xmlns="http://www.w3.org/2000/svg"
  xmlns:xlink="http://www.w3.org/1999/xlink">
  <!-- Generator: Sketch 52.6 (67491) - http://www.bohemiancoding.com/sketch -->
  <title>appicon-people</title>
  <desc>Created with Sketch.</desc>
  <defs>
    <linearGradient x1="50%" y1="0%" x2="50%" y2="100%" id="linearGradient-1">
      <stop stop-color="#323232" offset="0%"></stop>
      <stop stop-color="#121212" offset="100%"></stop>
    </linearGradient>
    <path d="M393.978253,0.421875 L579.021747,0.421875 C715.869873,0.421875 765.494311,14.6706063 815.52394,41.426745 C865.55357,68.1828837 904.817116,107.44643 931.573255,157.47606 C958.329394,207.505689 972.578125,257.130127 972.578125,393.978253 L972.578125,579.021747 C972.578125,715.869873 958.329394,765.494311 931.573255,815.52394 C904.817116,865.55357 865.55357,904.817116 815.52394,931.573255 C765.494311,958.329394 715.869873,972.578125 579.021747,972.578125 L393.978253,972.578125 C257.130127,972.578125 207.505689,958.329394 157.47606,931.573255 C107.44643,904.817116 68.1828837,865.55357 41.426745,815.52394 C14.6706063,765.494311 0.421875,715.869873 0.421875,579.021747 L0.421875,393.978253 C0.421875,257.130127 14.6706063,207.505689 41.426745,157.47606 C68.1828837,107.44643 107.44643,68.1828837 157.47606,41.426745 C207.505689,14.6706063 257.130127,0.421875 393.978253,0.421875 Z" id="path-2"></path>
    <filter x="-2.7%" y="-2.0%" width="105.3%" height="105.3%" filterUnits="objectBoundingBox" id="filter-3">
      <feOffset dx="0" dy="7" in="SourceAlpha" result="shadowOffsetOuter1"></feOffset>
      <feGaussianBlur stdDeviation="7.5" in="shadowOffsetOuter1" result="shadowBlurOuter1"></feGaussianBlur>
      <feComposite in="shadowBlurOuter1" in2="SourceAlpha" operator="out" result="shadowBlurOuter1"></feComposite>
      <feColorMatrix values="0 0 0 0 0   0 0 0 0 0   0 0 0 0 0  0 0 0 0.428555254 0" type="matrix" in="shadowBlurOuter1"></feColorMatrix>
    </filter>
  </defs>
  <g id="appicon-people" stroke="none" stroke-width="1" fill="none" fill-rule="evenodd">
    <g id="icon" transform="translate(24.000000, 26.000000)">
      <g id="squircle2">
        <g id="Rectangle">
          <use fill="black" fill-opacity="1" filter="url(#filter-3)" xlink:href="#path-2"></use>
          <path stroke-opacity="0.214787138" stroke="#FFFFFF" stroke-width="6" d="M393.978253,3.421875 C327.481005,3.421875 280.308729,6.77440569 243.739038,13.8363388 C211.311278,20.0984281 186.85487,29.1168666 158.890856,44.0721846 C109.384032,70.5487239 70.5487239,109.384032 44.0721846,158.890856 C29.1168666,186.85487 20.0984281,211.311278 13.8363388,243.739038 C6.77440569,280.308729 3.421875,327.481005 3.421875,393.978253 L3.421875,579.021747 C3.421875,645.518995 6.77440569,692.691271 13.8363388,729.260962 C20.0984281,761.688722 29.1168666,786.14513 44.0721846,814.109144 C70.5487239,863.615968 109.384032,902.451276 158.890856,928.927815 C186.85487,943.883133 211.311278,952.901572 243.739038,959.163661 C280.308729,966.225594 327.481005,969.578125 393.978253,969.578125 L579.021747,969.578125 C645.518995,969.578125 692.691271,966.225594 729.260962,959.163661 C761.688722,952.901572 786.14513,943.883133 814.109144,928.927815 C863.615968,902.451276 902.451276,863.615968 928.927815,814.109144 C943.883133,786.14513 952.901572,761.688722 959.163661,729.260962 C966.225594,692.691271 969.578125,645.518995 969.578125,579.021747 L969.578125,393.978253 C969.578125,327.481005 966.225594,280.308729 959.163661,243.739038 C952.901572,211.311278 943.883133,186.85487 928.927815,158.890856 C902.451276,109.384032 863.615968,70.5487239 814.109144,44.0721846 C786.14513,29.1168666 761.688722,20.0984281 729.260962,13.8363388 C692.691271,6.77440569 645.518995,3.421875 579.021747,3.421875 L393.978253,3.421875 Z" stroke-linejoin="square" fill="url(#linearGradient-1)" fill-rule="evenodd"></path>
        </g>
      </g>
    </g>
    <g id="icon-people" transform="translate(181.000000, 181.000000)" stroke="#FFFFFF" stroke-width="17">
      <path d="M332,655.5 C510.664117,655.5 655.5,510.664117 655.5,332 C655.5,153.335883 510.664117,8.5 332,8.5 C153.335883,8.5 8.5,153.335883 8.5,332 C8.5,510.664117 153.335883,655.5 332,655.5 Z M190.84852,487.173588 C190.833001,487.221121 190.81713,487.269714 190.8009,487.319408 C189.244008,489.936185 189.244008,489.936185 186.302488,491.680117 C183.484405,492.429684 183.484405,492.429684 181.674066,492.21731 C180.331475,491.911196 180.331475,491.911196 179.558911,491.583197 C178.480729,491.025796 178.480729,491.025796 177.991808,490.673505 C177.615257,490.387006 177.615257,490.387006 177.381282,490.186508 C176.843641,489.719238 176.430528,489.274033 175.761847,488.507141 C174.894739,487.512679 173.53055,485.872776 171.630399,483.543667 C167.913097,478.987188 162.094099,471.729596 154.162731,461.757966 C128.07489,428.959297 112.949893,381.979687 112.949893,330.09343 C112.949893,209.598662 210.867805,111.581236 331.248869,111.581236 C451.629933,111.581236 549.547845,209.598662 549.547845,330.09343 C549.547845,384.43185 518.459103,457.832528 483.615843,485.191099 L477.218559,490.214181 L471.918705,484.044243 C450.574655,459.196114 422.161131,438.612768 389.757613,427.765595 C367.153365,420.223188 348.673984,416.406705 331.093462,416.406705 C303.480806,416.406705 275.613472,423.764687 248.959096,437.662435 C224.977951,450.166344 205.64008,466.654467 190.84852,487.173588 Z M331.248869,363.626422 C368.805623,363.626422 399.364877,333.067168 399.364877,295.510414 C399.364877,257.95366 368.805623,227.394406 331.248869,227.394406 C293.692114,227.394406 263.13286,257.95366 263.13286,295.510414 C263.13286,333.067168 293.692114,363.626422 331.248869,363.626422 Z"></path>
    </g>
  </g>
</svg>
