<?xml version="1.0" encoding="UTF-8"?>
<svg width="34px" height="33px" viewBox="0 0 34 33" version="1.1" xmlns="http://www.w3.org/2000/svg" xmlns:xlink="http://www.w3.org/1999/xlink">
    <!-- Generator: Sketch 52.6 (67491) - http://www.bohemiancoding.com/sketch -->
    <title>notch</title>
    <desc>Created with Sketch.</desc>
    <g id="Page-1" stroke="none" stroke-width="1" fill="none" fill-rule="evenodd">
        <g id="notch" transform="translate(5.198242, 4.233398)">
            <path d="M5.61688144,5.56760955 C10.2601156,3.74360049 13.1462576,3.40622946 18.0128404,2.39829277 C22.2599199,1.51866379 23.4483183,7.11132247 20.0021256,9.60956044 C15.5023044,12.871602 14.1891957,9.91038982 11.8866209,18.6705368 C10.8300672,22.690196 3.67938854,22.0676737 3.28338056,18.6156343 C2.75338081,13.9955759 2.87505887,14.7726279 2.90846782,11.2634163 C2.9356998,8.4030208 3.50584708,6.39689053 5.61688144,5.56760955 Z" id="notch-copy-3" fill="#91C8FF" transform="translate(12.443207, 11.878044) rotate(-14.000000) translate(-12.443207, -11.878044) "></path>
            <path d="M4.61137493,5.68667253 C9.2546091,3.86266347 12.140751,3.52529245 17.0073339,2.51735576 C21.2544134,1.63772678 22.4428118,7.23038545 18.9966191,9.72862342 C14.4967979,12.990665 1.86955236,14.8916909 1.90296131,11.3824793 C1.93019329,8.52208378 2.50034057,6.51595352 4.61137493,5.68667253 Z" id="notch-copy-4" fill="#FFF1B1" transform="translate(11.455608, 7.842979) rotate(-14.000000) translate(-11.455608, -7.842979) "></path>
            <path d="M4.2577774,5.42783866 C8.90101158,3.60382959 11.7871535,3.26645857 16.6537364,2.25852188 C20.9008159,1.3788929 22.0892143,6.97155157 18.6430215,9.46978954 C14.1432003,12.7318311 2.14674305,6.25711964 4.2577774,5.42783866 Z" id="notch-copy-5" fill="#FFA386" transform="translate(12.332826, 6.273651) rotate(-14.000000) translate(-12.332826, -6.273651) "></path>
        </g>
    </g>
</svg>