<?xml version="1.0" encoding="UTF-8"?>
<svg width="43px" height="53px" viewBox="0 0 43 53" version="1.1" xmlns="http://www.w3.org/2000/svg" xmlns:xlink="http://www.w3.org/1999/xlink">
    <!-- Generator: Sketch 54.1 (76490) - https://sketchapp.com -->
    <title>orbit-mark</title>
    <desc>Created with Sketch.</desc>
    <g id="Page-1" stroke="none" stroke-width="1" fill="none" fill-rule="evenodd">
        <g id="home" transform="translate(-760.000000, -31.000000)" fill-rule="nonzero" stroke-width="3">
            <g transform="translate(25.000000, -32.000000)" id="orbit-mark">
                <g transform="translate(735.000000, 63.000000)">
                    <path d="M5.67766269,35.4218538 C5.78510052,35.4708715 5.89446071,35.5175976 6.00572125,35.5620497 L6.56224442,34.1691096 L5.6504495,34.1858027 C5.64071115,33.6514312 5.64083041,33.0893117 5.65045726,32.3270425 C5.65144289,32.2523603 5.65144289,32.2523603 5.65293136,32.1503045 L4.15309578,32.1280955 L2.838599,32.8506591 C3.35665202,33.7931077 4.12051024,34.557956 5.08162309,35.1147268 C5.14355226,37.6347976 5.29609755,39.6979741 5.82406292,44.5041477 C6.04230073,46.4908097 7.16276631,48.1966016 8.996905,49.4372756 C10.6916586,50.5836648 12.9086766,51.2652636 15.2184878,51.3689857 C17.5863343,51.4753138 19.8870891,50.9695098 21.7304497,49.9127684 C23.7906881,48.7316979 25.1810181,46.9327894 25.7533752,44.6588078 C26.7926118,40.5299084 27.7537165,37.4594962 28.7238052,35.1638926 L31.3240707,34.3744301 L29.6130467,32.1493584 C28.0871086,34.6133264 26.7065256,38.4891871 25.17679,44.5668452 C24.6352576,46.7183599 23.3363429,48.4074618 21.3990707,49.5180397 C19.6753882,50.5061732 17.506254,50.9897628 15.2494498,50.888421 C13.0453517,50.789446 10.9514985,50.1385156 9.36652018,49.0663822 C7.63332804,47.8939918 6.61213715,46.3043663 6.40992883,44.4636237 C5.90364621,39.8548324 5.74343983,37.779436 5.67766269,35.4218538 Z" id="Shape" stroke="#9558FF" transform="translate(17.515746, 39.825101) rotate(-14.000000) translate(-17.515746, -39.825101) "></path>
                    <path d="M27.597638,26.524378 C24.5888834,28.2796857 21.3255827,29.8414316 18.0615309,31.0708902 C13.9514074,32.6190354 10.2559627,33.4654389 7.49475734,33.4989561 C6.02814217,33.5167588 4.86924315,33.3067824 4.02149607,32.8898358 C3.13049036,32.4516134 2.58526183,31.7856942 2.37568821,30.8877781 C1.53877948,27.3020513 1.31098753,24.6288872 1.65261323,22.4324933 C1.76102662,21.7354775 1.928338,21.0866626 2.15558092,20.4825613 C2.31736396,20.6307755 2.49197661,20.7754202 2.6793057,20.9170816 L3.58405861,19.720661 L2.75140103,19.2263755 C2.92535838,18.9283979 3.11776045,18.643234 3.32878042,18.3702996 L2.14209722,17.4528123 L0.643199666,17.5103112 C0.67560741,18.3551254 1.01601369,19.1785023 1.59552662,19.8920543 C1.64191506,19.9491722 1.68999147,20.0057277 1.73975053,20.0617482 C0.634039418,22.7234206 0.716503925,26.1711741 1.83995867,30.9846045 C2.33151299,33.0906639 4.3893068,34.0222438 7.50212245,33.9844586 C10.3624743,33.9497379 14.1340043,33.0771683 18.2728843,31.5181913 C21.578016,30.2732593 24.9056009,28.6800736 27.9871326,26.8754523 C28.8879054,26.8182409 29.7606751,26.7287348 30.6010116,26.6067432 C31.7514163,26.4397388 32.8385766,26.2130952 33.8596084,25.9259839 L33.4535607,24.4819876 L32.5636033,23.2745209 C31.1606569,24.3085557 29.6425521,25.3104538 28.0480646,26.2590203 L27.5376592,25.39916 L27.597638,26.524378 Z" id="notch-copy-6" stroke="#FF4750"></path>
                    <path d="M17.5100118,9.10018884 C13.5022083,11.2281554 10.2150071,13.2489189 6.7439317,15.7875135 C6.41799249,16.0258913 6.40320496,16.2870698 6.77163938,16.7417543 C7.12970074,17.1836373 7.87215738,17.6903881 9.00172165,18.2243185 C11.3071282,19.3140541 14.7784956,20.3044725 18.4263307,20.8966278 C22.6377049,21.5802627 26.7042592,21.688708 30.1142282,21.192556 C34.1985094,20.5982912 37.1807817,19.1793372 38.9693863,16.9941557 C41.7349708,13.6153744 42.2669644,8.93581803 40.406801,5.33227515 C39.5380179,3.64925215 38.2375722,2.43706174 36.708653,1.86914571 C35.030064,1.24563497 33.1224859,1.40647495 31.1263802,2.39347076 C30.2119725,2.84560942 28.6495027,3.59977649 26.4700709,4.64368505 C26.4407221,4.65774239 26.4407221,4.65774239 26.4113726,4.6717991 C25.6857558,5.01932222 21.2718665,7.12789945 20.9719161,7.27453327 C20.4498709,7.52974038 19.9410239,7.79230191 19.344104,8.11149436 C19.0452767,8.27128701 18.0145597,8.83019212 17.8147448,8.93745016 C17.6628292,9.01887496 17.6628292,9.01887496 17.5100118,9.10018882 Z M8.7234818,18.6951875 C7.8601126,18.2870842 7.15839822,17.8648521 6.69048142,17.4619571 L5.25403377,16.2251187 L6.7879448,15.1114455 C10.3041428,12.5585624 13.515341,10.5608388 17.1837791,8.61306018 C18.2624588,8.04032891 19.4002615,7.4631254 20.7321608,6.81201285 C21.0175785,6.67248349 25.1952272,4.66352887 26.1852896,4.18629998 C26.2096898,4.17453853 26.2096898,4.17453853 26.2340891,4.16277691 C28.3760389,3.1302456 29.9313528,2.37580798 30.8381787,1.92741827 C32.963697,0.876432946 35.0584374,0.67946563 36.9366906,1.37714152 C38.6267415,2.00490976 40.0297384,3.32762777 40.9509104,5.11213905 C42.9076077,8.90268966 42.336913,13.7828347 39.4528095,17.3064137 C37.5397953,19.6435894 34.3757678,21.1122143 30.2094169,21.7184202 C26.7202647,22.2260935 22.581626,22.1125659 18.3204486,21.4208463 C14.6346053,20.8225211 11.1009053,19.8189648 8.72348168,18.6951875 Z" id="notch-copy-7" stroke="#FCC946"></path>
                </g>
            </g>
        </g>
    </g>
</svg>