<?xml version="1.0" encoding="UTF-8"?>
<svg width="102px" height="23px" viewBox="0 0 102 23" version="1.1"
  xmlns="http://www.w3.org/2000/svg"
  xmlns:xlink="http://www.w3.org/1999/xlink">
  <!-- Generator: Sketch 53.2 (72643) - https://sketchapp.com -->
  <title>orbit-logo</title>
  <desc>Created with Sketch.</desc>
  <g   stroke="none" stroke-width="1" fill="none" fill-rule="evenodd">
    <g transform="translate(-682.000000, -143.000000)" fill="#FFFFFF">
      <g transform="translate(-19.000000, -1.000000)" >
        <g transform="translate(700.987672, 144.000000)">
          <g transform="translate(0.012328, 0.000000)">
            <polygon  points="101.550887 0.240661145 84.4047281 0.240661145 84.4047281 5.622028 89.9613538 5.622028 89.9613538 22.5155877 95.9942617 22.5155877 95.9942617 5.622028 101.550887 5.622028"></polygon>
            <polygon points="80.4895864 0.240661145 74.4566785 0.240661145 74.4566785 22.5155877 80.4895864 22.5155877"></polygon>
            <path d="M51.2308604,1.34617144 C51.2524737,0.771913132 51.6943883,0.305466025 52.2630135,0.240661145 L61.9493906,0.240661145 C66.8959524,0.240661145 68.5789993,3.50299032 68.5602833,5.80939278 C68.5402267,8.28099735 68.1440092,9.54713642 66.1207868,10.7416979 C69.3971014,11.5994595 70.4144375,14.1825563 70.4144375,16.1831443 C70.4144375,22.0528425 65.3745159,22.5155877 60.3021064,22.5155877 L51.2300319,22.5155877 L51.2308604,1.34617144 Z M61.054665,4.71059069 C60.0267938,4.71059069 58.536192,4.71059069 56.5828597,4.71059069 L56.5828597,8.89114035 C58.4605369,8.89114035 59.9511386,8.89114035 61.054665,8.89114035 C62.7099546,8.89114035 63.436076,7.98348756 63.436076,6.73722287 C63.436076,5.49095818 62.5964718,4.71059069 61.054665,4.71059069 Z M61.7093484,13.437981 C60.4541942,13.437981 58.7453646,13.437981 56.5828597,13.437981 L56.5828597,18.404732 C58.7740614,18.404732 60.482891,18.404732 61.7093484,18.404732 C63.5490346,18.404732 64.7454429,17.552292 64.7454429,15.9397276 C64.7454429,14.3271631 63.5920798,13.437981 61.7093484,13.437981 Z" ></path>
            <path d="M46.1559748,8.03347354 C46.1559748,2.75405905 42.0295294,0.254733594 38.9949872,0.254733594 L27.8151244,0.254733594 C27.2671168,0.264883268 26.8252117,0.665215273 26.8252117,1.15848926 C26.8141965,5.84067731 26.8141965,22.5676245 26.8141965,22.5676245 L32.2465298,22.5676245 L32.2465298,15.8348712 L34.0459863,15.8348712 L40.1677574,22.5676245 L47.2164687,22.5676245 C47.2164687,22.5676245 40.2661332,15.1244621 40.2873537,15.1209822 C40.3510873,15.1209822 46.1559748,13.3128881 46.1559748,8.03347354 Z M32.2934557,5.15009536 L37.7129244,5.15009536 C39.2248963,5.15009536 40.5460205,6.45155043 40.5460205,8.11160023 C40.5460207,9.77165002 38.7487535,11.0731049 37.7129244,11.0731049 L32.2934557,11.0731049 L32.2934557,5.15009536 Z"  fill-rule="nonzero"></path>
            <path d="M0.550226441,11.4296858 C0.550226441,17.6839898 5.60979967,22.7545861 11.8505073,22.7545861 C18.0912155,22.7545861 23.1507882,17.6839898 23.1507882,11.4296858 C23.1507882,5.17538193 18.0917469,0.104785634 11.8505073,0.104785634 C5.60979967,0.104785634 0.550226441,5.17538193 0.550226441,11.4296858 Z M6.29985742,11.3684702 C6.29985742,8.26229937 8.81217161,5.74451174 11.9115905,5.74451174 C15.0110082,5.74451174 17.5233223,8.26229937 17.5233223,11.3684702 C17.5233223,14.474641 15.0105356,16.9924286 11.9115905,16.9924286 C8.81217161,16.9924286 6.29985742,14.474641 6.29985742,11.3684702 Z"  fill-rule="nonzero"></path>
          </g>
        </g>
      </g>
    </g>
  </g>
</svg>
