<?xml version="1.0" encoding="UTF-8"?>
<svg width="1047px" height="1057px" viewBox="0 0 1047 1057" version="1.1"
  xmlns="http://www.w3.org/2000/svg"
  xmlns:xlink="http://www.w3.org/1999/xlink">
  <!-- Generator: Sketch 54.1 (76490) - https://sketchapp.com -->
  <title>orbits</title>
  <desc>Created with Sketch.</desc>
  <defs>
    <linearGradient x1="62.28575%" y1="65.678375%" x2="45.9643269%" y2="46.9392692%" id="linearGradient-1">
      <stop stop-color="#0052CC" offset="0%"></stop>
      <stop stop-color="#0052CC" offset="18%"></stop>
      <stop stop-color="#2684FF" offset="100%"></stop>
    </linearGradient>
    <linearGradient x1="37.7296316%" y1="34.3509514%" x2="54.0445111%" y2="53.0724%" id="linearGradient-2">
      <stop stop-color="#0052CC" offset="0%"></stop>
      <stop stop-color="#0052CC" offset="18%"></stop>
      <stop stop-color="#2684FF" offset="100%"></stop>
    </linearGradient>
    <linearGradient x1="50%" y1="0%" x2="50%" y2="100%" id="linearGradient-3">
      <stop stop-color="#323232" offset="0%"></stop>
      <stop stop-color="#121212" offset="100%"></stop>
    </linearGradient>
    <path d="M31.5238853,0.039375 L59.2894481,0.039375 C70.2372982,0.039375 74.2072532,1.1792735 78.2096236,3.3197646 C82.2119939,5.4602557 85.3530776,8.60133939 87.4935687,12.6037098 C89.6340598,16.6060801 90.7739583,20.5760351 90.7739583,31.5238853 L90.7739583,59.2894481 C90.7739583,70.2372982 89.6340598,74.2072532 87.4935687,78.2096236 C85.3530776,82.2119939 82.2119939,85.3530776 78.2096236,87.4935687 C74.2072532,89.6340598 70.2372982,90.7739583 59.2894481,90.7739583 L31.5238853,90.7739583 C20.5760351,90.7739583 16.6060801,89.6340598 12.6037098,87.4935687 C8.60133939,85.3530776 5.4602557,82.2119939 3.3197646,78.2096236 C1.1792735,74.2072532 0.039375,70.2372982 0.039375,59.2894481 L0.039375,31.5238853 C0.039375,20.5760351 1.1792735,16.6060801 3.3197646,12.6037098 C5.4602557,8.60133939 8.60133939,5.4602557 12.6037098,3.3197646 C16.6060801,1.1792735 20.5760351,0.039375 31.5238853,0.039375 Z" id="path-4"></path>
    <filter x="-2.2%" y="-1.1%" width="104.4%" height="104.4%" filterUnits="objectBoundingBox" id="filter-5">
      <feOffset dx="0" dy="1" in="SourceAlpha" result="shadowOffsetOuter1"></feOffset>
      <feGaussianBlur stdDeviation="0.5" in="shadowOffsetOuter1" result="shadowBlurOuter1"></feGaussianBlur>
      <feComposite in="shadowBlurOuter1" in2="SourceAlpha" operator="out" result="shadowBlurOuter1"></feComposite>
      <feColorMatrix values="0 0 0 0 0   0 0 0 0 0   0 0 0 0 0  0 0 0 0.428555254 0" type="matrix" in="shadowBlurOuter1"></feColorMatrix>
    </filter>
    <path d="M31.5238853,0.039375 L59.2894481,0.039375 C70.2372982,0.039375 74.2072532,1.1792735 78.2096236,3.3197646 C82.2119939,5.4602557 85.3530776,8.60133939 87.4935687,12.6037098 C89.6340598,16.6060801 90.7739583,20.5760351 90.7739583,31.5238853 L90.7739583,59.2894481 C90.7739583,70.2372982 89.6340598,74.2072532 87.4935687,78.2096236 C85.3530776,82.2119939 82.2119939,85.3530776 78.2096236,87.4935687 C74.2072532,89.6340598 70.2372982,90.7739583 59.2894481,90.7739583 L31.5238853,90.7739583 C20.5760351,90.7739583 16.6060801,89.6340598 12.6037098,87.4935687 C8.60133939,85.3530776 5.4602557,82.2119939 3.3197646,78.2096236 C1.1792735,74.2072532 0.039375,70.2372982 0.039375,59.2894481 L0.039375,31.5238853 C0.039375,20.5760351 1.1792735,16.6060801 3.3197646,12.6037098 C5.4602557,8.60133939 8.60133939,5.4602557 12.6037098,3.3197646 C16.6060801,1.1792735 20.5760351,0.039375 31.5238853,0.039375 Z" id="path-6"></path>
    <filter x="-2.2%" y="-1.1%" width="104.4%" height="104.4%" filterUnits="objectBoundingBox" id="filter-7">
      <feOffset dx="0" dy="1" in="SourceAlpha" result="shadowOffsetOuter1"></feOffset>
      <feGaussianBlur stdDeviation="0.5" in="shadowOffsetOuter1" result="shadowBlurOuter1"></feGaussianBlur>
      <feComposite in="shadowBlurOuter1" in2="SourceAlpha" operator="out" result="shadowBlurOuter1"></feComposite>
      <feColorMatrix values="0 0 0 0 0   0 0 0 0 0   0 0 0 0 0  0 0 0 0.428555254 0" type="matrix" in="shadowBlurOuter1"></feColorMatrix>
    </filter>
    <path d="M31.5238853,0.039375 L59.2894481,0.039375 C70.2372982,0.039375 74.2072532,1.1792735 78.2096236,3.3197646 C82.2119939,5.4602557 85.3530776,8.60133939 87.4935687,12.6037098 C89.6340598,16.6060801 90.7739583,20.5760351 90.7739583,31.5238853 L90.7739583,59.2894481 C90.7739583,70.2372982 89.6340598,74.2072532 87.4935687,78.2096236 C85.3530776,82.2119939 82.2119939,85.3530776 78.2096236,87.4935687 C74.2072532,89.6340598 70.2372982,90.7739583 59.2894481,90.7739583 L31.5238853,90.7739583 C20.5760351,90.7739583 16.6060801,89.6340598 12.6037098,87.4935687 C8.60133939,85.3530776 5.4602557,82.2119939 3.3197646,78.2096236 C1.1792735,74.2072532 0.039375,70.2372982 0.039375,59.2894481 L0.039375,31.5238853 C0.039375,20.5760351 1.1792735,16.6060801 3.3197646,12.6037098 C5.4602557,8.60133939 8.60133939,5.4602557 12.6037098,3.3197646 C16.6060801,1.1792735 20.5760351,0.039375 31.5238853,0.039375 Z" id="path-8"></path>
    <filter x="-2.2%" y="-1.1%" width="104.4%" height="104.4%" filterUnits="objectBoundingBox" id="filter-9">
      <feOffset dx="0" dy="1" in="SourceAlpha" result="shadowOffsetOuter1"></feOffset>
      <feGaussianBlur stdDeviation="0.5" in="shadowOffsetOuter1" result="shadowBlurOuter1"></feGaussianBlur>
      <feComposite in="shadowBlurOuter1" in2="SourceAlpha" operator="out" result="shadowBlurOuter1"></feComposite>
      <feColorMatrix values="0 0 0 0 0   0 0 0 0 0   0 0 0 0 0  0 0 0 0.428555254 0" type="matrix" in="shadowBlurOuter1"></feColorMatrix>
    </filter>
    <path d="M31.5238853,0.039375 L59.2894481,0.039375 C70.2372982,0.039375 74.2072532,1.1792735 78.2096236,3.3197646 C82.2119939,5.4602557 85.3530776,8.60133939 87.4935687,12.6037098 C89.6340598,16.6060801 90.7739583,20.5760351 90.7739583,31.5238853 L90.7739583,59.2894481 C90.7739583,70.2372982 89.6340598,74.2072532 87.4935687,78.2096236 C85.3530776,82.2119939 82.2119939,85.3530776 78.2096236,87.4935687 C74.2072532,89.6340598 70.2372982,90.7739583 59.2894481,90.7739583 L31.5238853,90.7739583 C20.5760351,90.7739583 16.6060801,89.6340598 12.6037098,87.4935687 C8.60133939,85.3530776 5.4602557,82.2119939 3.3197646,78.2096236 C1.1792735,74.2072532 0.039375,70.2372982 0.039375,59.2894481 L0.039375,31.5238853 C0.039375,20.5760351 1.1792735,16.6060801 3.3197646,12.6037098 C5.4602557,8.60133939 8.60133939,5.4602557 12.6037098,3.3197646 C16.6060801,1.1792735 20.5760351,0.039375 31.5238853,0.039375 Z" id="path-10"></path>
    <filter x="-2.2%" y="-1.1%" width="104.4%" height="104.4%" filterUnits="objectBoundingBox" id="filter-11">
      <feOffset dx="0" dy="1" in="SourceAlpha" result="shadowOffsetOuter1"></feOffset>
      <feGaussianBlur stdDeviation="0.5" in="shadowOffsetOuter1" result="shadowBlurOuter1"></feGaussianBlur>
      <feComposite in="shadowBlurOuter1" in2="SourceAlpha" operator="out" result="shadowBlurOuter1"></feComposite>
      <feColorMatrix values="0 0 0 0 0   0 0 0 0 0   0 0 0 0 0  0 0 0 0.428555254 0" type="matrix" in="shadowBlurOuter1"></feColorMatrix>
    </filter>
  </defs>
  <g id="Page-1" stroke="none" stroke-width="1" fill="none" fill-rule="evenodd">
    <g id="home" transform="translate(-225.000000, -2044.000000)">
      <g id="second" transform="translate(-675.000000, 902.000000)">
        <g id="2.2" transform="translate(795.000000, 893.000000)">
          <g id="orbits" transform="translate(0.000000, 158.000000)">
            <g id="Oval-3-+-Oval-3-+-slack-+-confluence-8e69393ce1097cbeaa850c7a866df400-+-gdrive-3eb131d5b4959f28c9e8fbce4a1eea6a-+-aws-dynamodb-seeklogo.com-+-github-+-Dropbox-+-appicon-lists-+-appicon-search-+-appicon-people-+-appicon-people-Mask">
              <circle id="Oval-3" stroke="#FFFFFF" opacity="0.195079985" cx="631" cy="630" r="376"></circle>
              <circle id="Oval-3" stroke="#FFFFFF" opacity="0.195079985" cx="631" cy="630" r="517"></circle>
              <ellipse id="Oval-3" stroke="#FFFFFF" opacity="0.195079985" cx="626.5" cy="630" rx="235.5" ry="236"></ellipse>
              <g id="slack" transform="translate(589.000000, 91.000000)">
                <g id="Group" transform="translate(0.000000, 26.000000)" fill="#E01E5A">
                  <path d="M10.2576602,5.25319138 C10.2576602,8.07877159 8.00408336,10.386992 5.24539443,10.386992 C2.48670551,10.386992 0.233128641,8.07877159 0.233128641,5.25319138 C0.233128641,2.42761117 2.48670551,0.119390713 5.24539443,0.119390713 L10.2576602,0.119390713 L10.2576602,5.25319138 Z" id="Path"></path>
                  <path d="M12.7832205,5.25319138 C12.7832205,2.42761117 15.0367974,0.119390713 17.7954863,0.119390713 C20.5541752,0.119390713 22.8077521,2.42761117 22.8077521,5.25319138 L22.8077521,18.1075915 C22.8077521,20.9331717 20.5541752,23.2413922 17.7954863,23.2413922 C15.0367974,23.2413922 12.7832205,20.9331717 12.7832205,18.1075915 L12.7832205,5.25319138 Z" id="Path"></path>
                </g>
                <g id="Group" fill="#36C5F0">
                  <path d="M17.7954863,10.2576602 C15.0367974,10.2576602 12.7832205,8.00408336 12.7832205,5.24539443 C12.7832205,2.48670551 15.0367974,0.233128641 17.7954863,0.233128641 C20.5541752,0.233128641 22.8077521,2.48670551 22.8077521,5.24539443 L22.8077521,10.2576602 L17.7954863,10.2576602 Z" id="Path"></path>
                  <path d="M17.7954863,12.7832205 C20.5541752,12.7832205 22.8077521,15.0367974 22.8077521,17.7954863 C22.8077521,20.5541752 20.5541752,22.8077521 17.7954863,22.8077521 L5.24539443,22.8077521 C2.48670551,22.8077521 0.233128641,20.5541752 0.233128641,17.7954863 C0.233128641,15.0367974 2.48670551,12.7832205 5.24539443,12.7832205 L17.7954863,12.7832205 Z" id="Path"></path>
                </g>
                <g id="Group" transform="translate(26.000000, 0.000000)" fill="#2EB67D">
                  <path d="M12.9737908,17.7954863 C12.9737908,15.0367974 15.2820113,12.7832205 18.1075915,12.7832205 C20.9331717,12.7832205 23.2413922,15.0367974 23.2413922,17.7954863 C23.2413922,20.5541752 20.9331717,22.8077521 18.1075915,22.8077521 L12.9737908,22.8077521 L12.9737908,17.7954863 Z" id="Path"></path>
                  <path d="M10.386992,17.7954863 C10.386992,20.5541752 8.07877159,22.8077521 5.25319138,22.8077521 C2.42761117,22.8077521 0.119390713,20.5541752 0.119390713,17.7954863 L0.119390713,5.24539443 C0.119390713,2.48670551 2.42761117,0.233128641 5.25319138,0.233128641 C8.07877159,0.233128641 10.386992,2.48670551 10.386992,5.24539443 L10.386992,17.7954863 Z" id="Path"></path>
                </g>
                <g id="Group" transform="translate(26.000000, 26.000000)" fill="#ECB22E">
                  <path d="M5.25319138,12.9737908 C8.07877159,12.9737908 10.386992,15.2820113 10.386992,18.1075915 C10.386992,20.9331717 8.07877159,23.2413922 5.25319138,23.2413922 C2.42761117,23.2413922 0.119390713,20.9331717 0.119390713,18.1075915 L0.119390713,12.9737908 L5.25319138,12.9737908 Z" id="Path"></path>
                  <path d="M5.25319138,10.386992 C2.42761117,10.386992 0.119390713,8.07877159 0.119390713,5.25319138 C0.119390713,2.42761117 2.42761117,0.119390713 5.25319138,0.119390713 L18.1075915,0.119390713 C20.9331717,0.119390713 23.2413922,2.42761117 23.2413922,5.25319138 C23.2413922,8.07877159 20.9331717,10.386992 18.1075915,10.386992 L5.25319138,10.386992 Z" id="Path"></path>
                </g>
              </g>
              <g id="confluence-8e69393ce1097cbeaa850c7a866df400" transform="translate(273.000000, 218.000000)" fill-rule="nonzero">
                <path d="M1.58563661,32.0477192 C1.13360441,32.7876269 0.625937507,33.6421684 0.191291147,34.3264962 C-0.191197633,34.9760866 0.0174326271,35.8236805 0.660709187,36.2196875 L9.72221627,41.7915753 C9.94475519,41.9270513 10.1951115,42 10.4558993,42 C10.9461804,42 11.4016897,41.7394691 11.6555232,41.3191459 C12.0171489,40.7147141 12.4830899,39.9261739 12.9942339,39.0820538 C16.5826742,33.1627915 20.1954546,33.8888043 26.7047183,36.9943328 L35.6932048,41.2635659 C35.880972,41.3538833 36.0861251,41.399042 36.2912782,41.399042 C36.8441483,41.399042 37.3448609,41.07251 37.5673999,40.5653431 L41.8825688,30.8145395 C42.1885598,30.1232642 41.8756144,29.306934 41.1871346,28.9908232 C39.2920766,28.0980706 35.5193462,26.3229866 32.1221504,24.6868525 C19.9103266,18.7606427 9.52749467,19.1427547 1.58563661,32.0477192 L1.58563661,32.0477192 Z" id="Shape" fill="url(#linearGradient-1)"></path>
                <path d="M41.8088354,7.6942545 C42.1910711,7.04555046 41.9825789,6.1956441 41.3397281,5.80017744 L32.2842187,0.2358924 C32.0548773,0.08325612 31.7838375,0 31.505848,0 C31.0089416,0 30.546784,0.26711346 30.2965934,0.69727014 C29.935207,1.3008771 29.4695746,2.0883414 28.9587688,2.92784076 C25.3727036,8.84249538 21.7623144,8.1174732 15.2573591,5.01618216 L6.30262084,0.77358828 C6.11497792,0.68339412 5.90996062,0.63829704 5.70494332,0.63829704 C5.15243908,0.63829704 4.65205792,0.96438354 4.4296663,1.4673894 L0.117353501,11.2048882 C-0.188434999,11.8952204 0.124303181,12.7139057 0.812327321,13.0295852 C2.70613108,13.9176506 6.47636428,15.6903125 9.87131165,17.3276832 C22.1028516,23.2388688 32.4788114,22.8434022 40.4154128,9.96645324 C40.8671459,9.231024 41.3744768,8.3741796 41.8088354,7.6942545 Z" id="Shape" fill="url(#linearGradient-2)"></path>
              </g>
              <g id="gdrive-3eb131d5b4959f28c9e8fbce4a1eea6a" transform="translate(1094.000000, 748.000000)" fill-rule="nonzero">
                <polygon id="Shape" fill="#28B446" points="16.4688801 33.0990928 16.0439817 42.4204202 8.21135852 49 0 32.9954774 17.1351166 0 25.1577528 6.0885041 25.4222222 15.957764 25.3464752 16.0059496"></polygon>
                <polygon id="Shape" fill="#219B38" points="17.3333333 0 22.0927117 21.5121951 25.4222222 15.3060699 25.1640786 2.84507503"></polygon>
                <polygon id="Shape" fill="#FFD837" points="34.9565276 0 52 33.0655482 42.8092718 38.2439024 35.5310777 33.1152661 35.5310777 33.0655482 26.7310515 15.9916527 18.4888889 0"></polygon>
                <polygon id="Shape" fill="#518EF8" points="52 33.4634146 43.5447326 48.8994141 8.08888889 49 16.5970394 33.5640006 34.9386921 33.5115765"></polygon>
                <polygon id="Shape" fill="#3A5BBC" points="8.08888889 47.804878 23.1111111 32.2682927 16.7041182 32.2865033"></polygon>
                <polygon id="Shape" fill="#FBBB00" points="52 33.4087681 32.3555556 28.6829268 34.6854008 33.4634146"></polygon>
              </g>
              <g id="aws-dynamodb-seeklogo.com" transform="translate(930.500000, 207.000000)">
                <polyline id="Path" fill="#5294CF" points="27.5062657 44 28.017429 44 36.3611349 39.6329579 36.5 39.4275236 36.5 4.56988364 36.3611349 4.36338176 28.017429 0 27.5 0 27.5062657 44"></polyline>
                <polyline id="Path" fill="#1F5B98" points="15.4929671 44 14.9244202 44 5.77971804 39.6329579 5.5941451 39.3283905 5.5 4.74740815 5.77971804 4.36338176 14.9244202 0 15.5 0 15.4929671 44"></polyline>
                <polygon id="Path" fill="#2D72B8" points="14.5 0 27.5 0 27.5 44 14.5 44"></polygon>
                <polyline id="Path" fill="#1A476F" points="40.5 21.0488374 40.1976563 20.9857648 35.8807812 20.6070346 35.8167187 20.6370272 26.8617188 20.3000515 14.1382812 20.3000515 5.183125 20.6370272 5.183125 14.2115525 5.17375 14.2162572 5.183125 14.1974383 14.1382812 12.2449785 26.8617188 12.2449785 35.8167187 14.1974383 39.10875 15.8439442 39.10875 14.7853816 40.5 14.6421816 40.3559375 14.377835 35.9509375 11.4140069 35.8167187 11.4550262 26.8617188 8.84405229 14.1382812 8.84405229 5.183125 11.4550262 5.183125 5 0.5 10.1624037 0.5 14.6709981 0.53625 14.6462983 1.89125 14.7853816 1.89125 15.8657035 0.5 16.5662661 0.5 21.052366 0.53625 21.0488374 1.89125 21.0676563 1.89125 22.9505745 0.7221875 22.967041 0.5 22.9470459 0.5 27.4349101 1.89125 28.1388542 1.89125 29.231673 0.55828125 29.3701683 0.5 29.3290019 0.5 33.8368612 5.183125 39 5.183125 32.5455619 14.1382812 35.1565358 26.8617188 35.1565358 35.843125 32.5379167 35.9625 32.5871693 40.3095312 29.6670068 40.5 29.3760492 39.10875 29.231673 39.10875 28.1607605 38.9264062 28.092248 35.9509375 29.6014348 35.843125 29.8131473 26.8617188 31.7542864 26.8617188 31.7566387 14.1382812 31.7566387 14.1382812 31.7542864 5.183125 29.804914 5.183125 23.3559157 14.1382812 23.6917153 14.1382812 23.6999485 26.8617188 23.6999485 35.8167187 23.3559157 36.020625 23.4441293 40.2048437 23.1050952 40.5 22.9693934 39.10875 22.9505745 39.10875 21.0676563 40.5 21.0488374"></polyline>
                <polyline id="Path" fill="#2D72B8" points="36.5 32.6361945 36.5 40 41.5 34.1094253 41.5 29 36.5288593 32.6274722 36.5 32.6361945"></polyline>
                <polyline id="Path" fill="#2D72B8" points="36.5 30 36.5288593 29.9931502 41.5 27.2484535 41.5 22 36.5 22.4721194 36.5 30"></polyline>
                <polyline id="Path" fill="#2D72B8" points="36.5288593 14.0068668 36.5 14 36.5 21.5191519 41.5 22 41.5 16.7410571 36.5288593 14.0068668"></polyline>
                <polyline id="Path" fill="#2D72B8" points="36.5288593 11.3928762 41.5 15 41.5 9.89071863 36.5 4 36.5 11.3640273 36.5288593 11.3740908 36.5288593 11.3928762"></polyline>
              </g>
              <g id="github" transform="translate(1100.000000, 464.000000)" fill="#FFFFFF" fill-rule="nonzero">
                <path d="M48.5122747,12.5080897 C46.1872825,8.66018682 43.0335791,5.61379671 39.0503345,3.36823221 C35.066497,1.12255318 30.7173341,0 25.9997629,0 C21.2827845,0 16.9321987,1.12289678 12.9491912,3.36823221 C8.96559084,5.61368217 5.81200604,8.66018682 3.48701391,12.5080897 C1.16237749,16.3558781 0,20.5576928 0,25.1134193 C0,30.5858804 1.65291668,35.5068576 4.95958007,39.8776108 C8.26588773,44.2487075 12.5371478,47.2733361 17.7730044,48.95184 C18.382473,49.061106 18.8336457,48.9842533 19.1269969,48.723229 C19.4204667,48.4618612 19.5670238,48.1345214 19.5670238,47.7425842 C19.5670238,47.6771849 19.5612136,47.0888209 19.5499492,45.9768049 C19.5383289,44.8647889 19.5328745,43.8946812 19.5328745,43.06694 L18.7542014,43.1970512 C18.2577335,43.2848993 17.6314275,43.322123 16.8752833,43.3115858 C16.1194949,43.3013922 15.334893,43.2248831 14.522545,43.0826312 C13.7098412,42.9416392 12.9539341,42.614643 12.254231,42.10233 C11.5548836,41.5900169 11.0584158,40.9194171 10.764946,40.0915613 L10.4264182,39.3390693 C10.2007726,38.8380951 9.8455259,38.2815717 9.36020395,37.6715607 C8.874882,37.060977 8.38410566,36.6470491 7.88763778,36.4290898 L7.65060906,36.2651909 C7.49266896,36.1562685 7.34611192,36.0248974 7.21058224,35.8724519 C7.07517113,35.7200064 6.97379066,35.5674464 6.90608511,35.4146573 C6.83826098,35.2617536 6.89446489,35.1363383 7.07528971,35.0379531 C7.25611452,34.9395679 7.5829035,34.891807 8.05707953,34.891807 L8.73389793,34.989505 C9.18530781,35.0768949 9.74367113,35.3379191 10.4096993,35.7741812 C11.0753718,36.2100998 11.6225892,36.7768167 12.0514701,37.4741031 C12.5708227,38.3681598 13.1965358,39.0494114 13.9303881,39.5182013 C14.6636476,39.9869913 15.4029543,40.2209854 16.1475968,40.2209854 C16.8922394,40.2209854 17.5353828,40.1664669 18.0772644,40.0580027 C18.6185531,39.9489658 19.1264041,39.7850668 19.6005801,39.5672221 C19.8036968,38.1059903 20.3567243,36.9834371 21.2591883,36.1987608 C19.9729014,36.0681914 18.8164526,35.8715356 17.789249,35.6100532 C16.7626384,35.3482272 15.7017599,34.923304 14.6073251,34.3341383 C13.5122975,33.7457743 12.6039047,33.0151583 11.8819098,32.1435504 C11.1597962,31.2714842 10.5671651,30.1265968 10.1048465,28.7099189 C9.64229066,27.2926683 9.41095347,25.6578021 9.41095347,23.804862 C9.41095347,21.1665585 10.3026273,18.9214522 12.0856193,17.0682831 C11.2503865,15.0847736 11.329238,12.8611998 12.3224109,10.3977906 C12.9769374,10.2013638 13.9475813,10.3487698 15.2338683,10.8390922 C16.5203924,11.3296437 17.4623415,11.749871 18.0606641,12.0982851 C18.6589867,12.4465847 19.13838,12.7417402 19.4995553,12.9811175 C21.5989018,12.414515 23.765361,12.1311565 25.9995257,12.1311565 C28.2336904,12.1311565 30.4006239,12.414515 32.5000889,12.9811175 L33.7864945,12.1966703 C34.6661924,11.6732474 35.7050161,11.1935767 36.9004757,10.7575436 C38.0966466,10.3217396 39.0113238,10.2017074 39.6435585,10.3981342 C40.6587861,12.8616579 40.7492578,15.0851172 39.9137878,17.0686267 C41.6966612,18.9217958 42.5886908,21.1674748 42.5886908,23.8052056 C42.5886908,25.6581457 42.3565236,27.298166 41.8946792,28.7262974 C41.432242,30.1546578 40.8345122,31.2983999 40.1012528,32.1599288 C39.3671633,33.0213432 38.4529605,33.7462324 37.3585257,34.3344819 C36.2638537,34.9231895 35.2026196,35.3481127 34.1760089,35.6099387 C33.1489239,35.8717647 31.9924751,36.068535 30.7061882,36.1993335 C31.8793559,37.1799784 32.4660583,38.7279129 32.4660583,40.8424499 L32.4660583,47.7416679 C32.4660583,48.1336051 32.6071609,48.4608304 32.8896034,48.7223127 C33.1716901,48.983337 33.6171713,49.0601897 34.2266399,48.9508092 C39.463208,47.2725343 43.734468,44.2477913 47.0406571,39.8766945 C50.3464904,35.5059413 52,30.5849641 52,25.1125031 C51.9988143,20.5573492 50.8358439,16.3558781 48.5122747,12.5080897 Z" id="Shape"></path>
              </g>
              <g id="Dropbox" transform="translate(105.000000, 467.000000)" fill="#0061FF" fill-rule="nonzero">
                <path d="M27.5744681,8.20394737 L13.787234,16.4078947 L27.5744681,24.6118421 L13.787234,32.8157895 L7.10542736e-15,24.5434759 L13.787234,16.3395285 L7.10542736e-15,8.20394737 L13.787234,0 L27.5744681,8.20394737 Z M12.6382979,35.0789474 L26.4255319,27.1578947 L40.212766,35.0789474 L26.4255319,43 L12.6382979,35.0789474 Z M27.5744681,24.5434759 L40.8224681,16.3395285 L27.5744681,8.20394737 L40.752,0 L54,8.20394737 L40.752,16.4078947 L54,24.6118421 L40.752,32.8157895 L27.5744681,24.5434759 Z" id="Shape"></path>
              </g>
              <g id="appicon-lists" transform="translate(753.000000, 256.000000)">
                <g id="Group">
                  <g id="icon">
                    <g id="squircle2">
                      <g id="Rectangle">
                        <use fill="black" fill-opacity="1" filter="url(#filter-5)" xlink:href="#path-4"></use>
                        <path stroke-opacity="0.214787138" stroke="#FFFFFF" stroke-width="0.5" d="M31.5238853,0.289375 C21.5802383,0.289375 17.2290035,1.12963719 12.7216095,3.5402179 C8.76280622,5.65740905 5.65740905,8.76280622 3.5402179,12.7216095 C1.12963719,17.2290035 0.289375,21.5802383 0.289375,31.5238853 L0.289375,59.2894481 C0.289375,69.2330951 1.12963719,73.5843298 3.5402179,78.0917239 C5.65740905,82.0505271 8.76280622,85.1559243 12.7216095,87.2731154 C17.2290035,89.6836961 21.5802383,90.5239583 31.5238853,90.5239583 L59.2894481,90.5239583 C69.2330951,90.5239583 73.5843298,89.6836961 78.0917239,87.2731154 C82.0505271,85.1559243 85.1559243,82.0505271 87.2731154,78.0917239 C89.6836961,73.5843298 90.5239583,69.2330951 90.5239583,59.2894481 L90.5239583,31.5238853 C90.5239583,21.5802383 89.6836961,17.2290035 87.2731154,12.7216095 C85.1559243,8.76280622 82.0505271,5.65740905 78.0917239,3.5402179 C73.5843298,1.12963719 69.2330951,0.289375 59.2894481,0.289375 L31.5238853,0.289375 Z" stroke-linejoin="square" fill="url(#linearGradient-3)" fill-rule="evenodd"></path>
                      </g>
                    </g>
                  </g>
                  <g id="icon-lists" transform="translate(14.584792, 15.704792)" stroke="#FFFFFF" stroke-width="1.36">
                    <path d="M30.7447059,60.7250735 C47.288558,60.7250735 60.7,47.3136315 60.7,30.7697794 C60.7,14.2259273 47.288558,0.814485294 30.7447059,0.814485294 C14.2008538,0.814485294 0.789411765,14.2259273 0.789411765,30.7697794 C0.789411765,47.3136315 14.2008538,60.7250735 30.7447059,60.7250735 Z M42.2130523,11.7601311 C45.0444288,13.3948271 46.0145301,17.0152943 44.3798341,19.8466708 L28.4424997,47.4509437 C26.8078037,50.2823203 23.1873365,51.2524215 20.3559599,49.6177255 C17.5245834,47.9830295 16.5544821,44.3625623 18.1891782,41.5311858 L34.1265125,13.9269129 C35.7612086,11.0955363 39.3816757,10.1254351 42.2130523,11.7601311 Z" id="icon-search"></path>
                  </g>
                </g>
              </g>
              <g id="appicon-search" transform="translate(409.000000, 258.000000)">
                <g id="squircle2">
                  <g id="Rectangle">
                    <use fill="black" fill-opacity="1" filter="url(#filter-7)" xlink:href="#path-6"></use>
                    <path stroke-opacity="0.214787138" stroke="#FFFFFF" stroke-width="0.5" d="M31.5238853,0.289375 C21.5802383,0.289375 17.2290035,1.12963719 12.7216095,3.5402179 C8.76280622,5.65740905 5.65740905,8.76280622 3.5402179,12.7216095 C1.12963719,17.2290035 0.289375,21.5802383 0.289375,31.5238853 L0.289375,59.2894481 C0.289375,69.2330951 1.12963719,73.5843298 3.5402179,78.0917239 C5.65740905,82.0505271 8.76280622,85.1559243 12.7216095,87.2731154 C17.2290035,89.6836961 21.5802383,90.5239583 31.5238853,90.5239583 L59.2894481,90.5239583 C69.2330951,90.5239583 73.5843298,89.6836961 78.0917239,87.2731154 C82.0505271,85.1559243 85.1559243,82.0505271 87.2731154,78.0917239 C89.6836961,73.5843298 90.5239583,69.2330951 90.5239583,59.2894481 L90.5239583,31.5238853 C90.5239583,21.5802383 89.6836961,17.2290035 87.2731154,12.7216095 C85.1559243,8.76280622 82.0505271,5.65740905 78.0917239,3.5402179 C73.5843298,1.12963719 69.2330951,0.289375 59.2894481,0.289375 L31.5238853,0.289375 Z" stroke-linejoin="square" fill="url(#linearGradient-3)" fill-rule="evenodd"></path>
                  </g>
                </g>
                <g id="icon-search" transform="translate(14.560000, 14.466667)" stroke="#FFFFFF" stroke-width="1.36">
                  <path d="M42.5598688,33.5674155 L48.8185267,39.8260735 C51.1303919,42.1379386 51.1303919,45.8862125 48.8185267,48.1980776 C46.5066616,50.5099427 42.7583877,50.5099427 40.4465226,48.1980776 L34.1474807,41.8990357 C31.9646325,42.8886774 29.5857895,43.4083786 27.1341176,43.4083786 C17.7432485,43.4083786 10.1304449,35.795575 10.1304449,26.4047059 C10.1304449,17.0138368 17.7432485,9.40103318 27.1341176,9.40103318 C36.5249868,9.40103318 44.1377903,17.0138368 44.1377903,26.4047059 C44.1377903,28.9128499 43.5938381,31.344475 42.5598688,33.5674155 Z M30.6352941,60.5905882 C47.1791462,60.5905882 60.5905882,47.1791462 60.5905882,30.6352941 C60.5905882,14.091442 47.1791462,0.68 30.6352941,0.68 C14.091442,0.68 0.68,14.091442 0.68,30.6352941 C0.68,47.1791462 14.091442,60.5905882 30.6352941,60.5905882 Z M27.1341176,35.7972055 C32.3214519,35.7972055 36.5266172,31.5920402 36.5266172,26.4047059 C36.5266172,21.2173716 32.3214519,17.0122063 27.1341176,17.0122063 C21.9467834,17.0122063 17.7416181,21.2173716 17.7416181,26.4047059 C17.7416181,31.5920402 21.9467834,35.7972055 27.1341176,35.7972055 Z"></path>
                </g>
              </g>
            </g>
          </g>
        </g>
      </g>
    </g>
  </g>
</svg>
