<?xml version="1.0" encoding="UTF-8"?>
<svg width="32px" height="32px" viewBox="0 0 32 32" version="1.1"
  xmlns="http://www.w3.org/2000/svg"
  xmlns:xlink="http://www.w3.org/1999/xlink">
  <!-- Generator: Sketch 53.2 (72643) - https://sketchapp.com -->
  <title>notch</title>
  <desc>Created with Sketch.</desc>
  <g id="Page-1" stroke="none" stroke-width="1" fill="none" fill-rule="evenodd">
    <g id="notch" transform="translate(-0.712727, -0.517064)" fill-rule="nonzero">
      <g transform="translate(-7.000000, -7.000000)">
        <path d="M9.83896787,10.8534715 C19.3267063,7.12638807 25.2240958,6.437022 35.168213,4.37745762 C43.8464701,2.5800704 46.2747803,14.0078126 39.2330129,19.1125796 C30.0383169,25.7780623 27.3551802,19.7272784 22.650221,37.6272981 C20.4913152,45.8408566 5.87999762,44.5688275 5.07081592,37.5151133 C3.98784253,28.074731 4.23647303,29.6625178 4.3047391,22.4919809 C4.36038349,16.6472004 5.52539221,12.5479802 9.83896787,10.8534715 Z" id="notch-copy-3" fill="#6999FF" transform="translate(23.787518, 23.747878) rotate(-14.000000) translate(-23.787518, -23.747878) "></path>
        <path d="M7.78436906,11.0967581 C17.2721075,7.36967473 23.1694968,6.68030868 33.1136143,4.6207443 C41.7918713,2.82335709 44.2201816,14.2510992 37.1784141,19.3558662 C27.9837181,26.021349 2.18187422,29.9058045 2.2501403,22.7352676 C2.30578468,16.8904871 3.4707934,12.7912669 7.78436906,11.0967581 Z" id="notch-copy-4" fill="#F8E045" transform="translate(21.769512, 15.502840) rotate(-14.000000) translate(-21.769512, -15.502840) "></path>
        <path d="M7.06184698,10.5678709 C16.5495855,6.84078746 22.4469748,6.1514214 32.3910922,4.09185702 C41.0693493,2.29446981 43.4976595,13.722212 36.4558919,18.8269789 C27.2611959,25.4924617 2.74827134,12.2623796 7.06184698,10.5678709 Z" id="notch-copy-5" fill="#FF5C47" transform="translate(23.561973, 12.296160) rotate(-14.000000) translate(-23.561973, -12.296160) "></path>
      </g>
    </g>
  </g>
</svg>
