<?xml version="1.0" encoding="UTF-8"?>
<svg width="590px" height="157px" viewBox="0 0 590 157" version="1.1" xmlns="http://www.w3.org/2000/svg" xmlns:xlink="http://www.w3.org/1999/xlink">
    <!-- Generator: Sketch 46.2 (44496) - http://www.bohemiancoding.com/sketch -->
    <title>orbit</title>
    <desc>Created with Sketch.</desc>
    <defs>
        <linearGradient x1="32.5830019%" y1="8.60303416%" x2="74.7547191%" y2="82.5337475%" id="linearGradient-1">
            <stop stop-color="#793BB0" offset="0%"></stop>
            <stop stop-color="#B27EE0" offset="100%"></stop>
        </linearGradient>
        <linearGradient x1="27.7357008%" y1="94.3097103%" x2="45.8959728%" y2="54.0919065%" id="linearGradient-2">
            <stop stop-color="#6BFF45" offset="0%"></stop>
            <stop stop-color="#04FF9F" offset="0%"></stop>
            <stop stop-color="#03FF9F" stop-opacity="0.798034525" offset="100%"></stop>
            <stop stop-color="#00FFA2" stop-opacity="0" offset="100%"></stop>
        </linearGradient>
        <linearGradient x1="100%" y1="50%" x2="50%" y2="50%" id="linearGradient-3">
            <stop stop-color="#FF00C0" offset="0%"></stop>
            <stop stop-color="#FF002B" stop-opacity="0.457008542" offset="100%"></stop>
            <stop stop-color="#FF0000" stop-opacity="0" offset="100%"></stop>
        </linearGradient>
        <path d="M69.7463192,155.257973 C33.6297924,155.257973 4.3515625,125.979743 4.3515625,89.863216 C4.3515625,53.7466891 33.6297924,24.4684593 69.7463192,24.4684593 C105.862846,24.4684593 135.141076,53.7466891 135.141076,89.863216 C135.141076,125.979743 105.862846,155.257973 69.7463192,155.257973 Z M69.7463192,125.962254 C89.9529378,125.962254 106.333639,109.581553 106.333639,89.3749347 C106.333639,69.1683162 89.9529378,52.7876153 69.7463192,52.7876153 C49.5397007,52.7876153 33.1589998,69.1683162 33.1589998,89.3749347 C33.1589998,109.581553 49.5397007,125.962254 69.7463192,125.962254 Z" id="path-4"></path>
    </defs>
    <g id="Page-1" stroke="none" stroke-width="1" fill="none" fill-rule="evenodd">
        <g id="Group-3" transform="translate(158.000000, 69.000000)"></g>
        <g id="orbit" transform="translate(188.054688, 2.511719)" fill="#000000">
            <g id="Group-5">
                <path d="M144.492829,44.800113 C144.492829,44.800113 149.131836,40.0517578 158.84869,38.5670847 C165.326592,37.5773027 171.406345,38.4484958 177.087947,41.1806641 L175.087947,76.0317383 C173.914739,74.9672852 171.479827,74.4747721 167.783212,74.5541992 C162.238291,74.6733398 157.764658,75.0317383 153.566416,78.722168 C149.368173,82.4125977 147.947641,88.0199296 147.947641,94.145874 C147.947641,100.271818 147.947641,105.209322 147.947641,115.235172 L147.947641,138.885498 L111.449861,139.008121 L111.449861,40.0317383 L142.492829,36.0317383 C143.826163,41.8773215 144.492829,44.800113 144.492829,44.800113 Z" id="Path"></path>
                <polygon id="Path" points="297.928161 139.008121 297.928161 41.8051758 297.928161 39.5670847 333.971129 36.5670847 333.971129 139.008121"></polygon>
                <path d="M352.216871,105.031738 C352.216871,98.3650716 352.216871,86.6962291 352.216871,70.0252107 L342.131845,70.0252107 L343.131845,35.940918 L352.216871,34.940918 L352.216871,19.987793 L388.381422,16.987793 L388.381422,33.940918 L399.618727,33.940918 L397.618727,68.0252107 L388.381422,69.0252107 C388.135616,71.7433577 388.012712,78.590649 388.012712,89.5670847 C388.012712,97.8435043 388.012712,114.262712 388.012712,138.824707 L352.216871,138.824707 C352.216871,128.604004 352.216871,117.339681 352.216871,105.031738 Z" id="Path"></path>
                <path d="M221.724269,0.0317382812 C221.737439,1.90936338 221.747316,3.3175822 221.753901,4.25639475 C221.812173,12.56411 221.89958,26.3590162 222.016123,45.6411133 C222.016123,45.6411133 230.760751,38.246582 246.365103,38.4521875 C263.132757,38.6731209 273.751273,44.9292365 279.89747,53.1157227 C287.716806,63.5307617 290.235361,71.8549047 290.231484,89.9845539 C290.22712,110.389699 283.448347,122.364707 271.106073,131.869539 C264.793371,136.730974 257.074228,140.101074 243.938578,139.635074 C235.181477,139.324407 227.90215,137.828373 222.100595,135.146973 L220.016123,138.955566 C198.131805,137.622233 186.607312,136.955566 185.442644,136.955566 C185.442644,131.943904 185.423026,86.3340407 185.383789,0.125976562 L221.724269,0.0317382812 Z M241.963277,106.315027 C253.289597,106.219472 257.753596,100.25598 258.486261,88.1950841 C259.218926,76.1341882 252.50706,68.8304253 241.692569,69.081574 C230.878077,69.3327227 223.499839,72.4832374 223.628518,88.0252621 C223.757198,103.567287 230.636957,106.410583 241.963277,106.315027 Z" id="Combined-Shape"></path>
                <path d="M15.6873278,126.362141 C5.94504099,117.168387 0.495261376,106.019756 0.495261376,88.2658691 C0.495261376,70.5119827 6.64574442,59.2277642 15.6873278,50.132763 C24.7289111,41.0377619 37.5056159,35.9296875 51.6323463,35.9296875 C65.7590766,35.9296875 78.8574647,41.0325328 87.5773647,50.132763 C96.2972648,59.2329933 102.769431,69.7763213 102.769431,88.2658691 C102.769431,106.755417 97.0502595,117.432047 87.5773647,126.398975 C78.10447,135.365904 66.4529017,140.602051 51.6323463,140.602051 C36.8117908,140.602051 25.4296145,135.555895 15.6873278,126.362141 Z M51.6758376,107.04056 C58.4519829,107.04056 62.208203,104.784893 65.8324976,100.870655 C69.4567921,96.9564167 69.7985247,92.3675277 69.7985247,88.2658691 C69.7985247,84.1642105 69.4567921,79.5753216 65.8324976,75.6610834 C62.208203,71.7468453 58.5296114,69.4911785 51.5888549,69.4911785 C44.6480985,69.4911785 41.0564895,71.7468453 37.4321949,75.6610834 C33.8079004,79.5753216 33.4661678,84.4102781 33.4661678,88.2658691 C33.4661678,92.1214602 33.8079004,96.9564167 37.4321949,100.870655 C41.0564895,104.784893 44.8996922,107.04056 51.6758376,107.04056 Z" id="Combined-Shape"></path>
            </g>
        </g>
        <g id="Oval-4">
            <use fill="url(#linearGradient-1)" xlink:href="#path-4"></use>
            <use fill-opacity="0.800000012" fill="url(#linearGradient-2)" xlink:href="#path-4"></use>
            <use fill="url(#linearGradient-3)" xlink:href="#path-4"></use>
        </g>
    </g>
</svg>