<?xml version="1.0" encoding="utf-8"?>
<!-- Generator: Adobe Illustrator 22.1.0, SVG Export Plug-In . SVG Version: 6.00 Build 0)  -->
<svg version="1.1" id="Regular" xmlns="http://www.w3.org/2000/svg" xmlns:xlink="http://www.w3.org/1999/xlink" x="0px" y="0px"
	 viewBox="0 0 24 24" style="enable-background:new 0 0 24 24;" xml:space="preserve">
<title>diagram-steady-and-fall</title>
<g>
	<path d="M9.75,24c-0.088,0-0.175-0.016-0.26-0.047c-0.008-0.003-0.015-0.005-0.022-0.008c-0.096-0.039-0.179-0.094-0.249-0.165
		L6.22,20.78C6.078,20.639,6,20.45,6,20.25s0.078-0.389,0.22-0.53c0.142-0.142,0.33-0.22,0.53-0.22s0.389,0.078,0.53,0.22L9,21.439
		V14.25H4.663C2.085,14.232-0.006,12.123,0,9.548V0.75C0,0.336,0.336,0,0.75,0S1.5,0.336,1.5,0.75v8.8
		c-0.004,1.752,1.417,3.188,3.168,3.2h16.771l-1.72-1.72c-0.142-0.141-0.22-0.33-0.22-0.53s0.078-0.389,0.22-0.53
		s0.33-0.22,0.53-0.22s0.389,0.078,0.53,0.22l3,3c0.07,0.07,0.125,0.152,0.163,0.245c0.003,0.008,0.007,0.017,0.01,0.026
		C23.984,13.322,24,13.411,24,13.5c0,0.087-0.016,0.174-0.046,0.258c-0.002,0.006-0.004,0.011-0.006,0.016
		c-0.042,0.104-0.097,0.186-0.167,0.256l-3,3c-0.142,0.142-0.33,0.22-0.53,0.22s-0.389-0.078-0.53-0.22S19.5,16.7,19.5,16.5
		s0.078-0.389,0.22-0.53l1.72-1.72H10.5v7.189l1.72-1.72c0.142-0.142,0.33-0.22,0.53-0.22s0.389,0.078,0.53,0.22
		s0.22,0.33,0.22,0.53s-0.078,0.389-0.22,0.53l-3,3c-0.07,0.07-0.153,0.125-0.246,0.164c-0.008,0.003-0.017,0.007-0.027,0.01
		C9.923,23.985,9.837,24,9.75,24z"/>
</g>
</svg>
