<?xml version="1.0" encoding="utf-8"?>
<!-- Generator: Adobe Illustrator 22.1.0, SVG Export Plug-In . SVG Version: 6.00 Build 0)  -->
<svg version="1.1" id="Regular" xmlns="http://www.w3.org/2000/svg" xmlns:xlink="http://www.w3.org/1999/xlink" x="0px" y="0px"
	 viewBox="0 0 24 24" style="enable-background:new 0 0 24 24;" xml:space="preserve">
<title>diagram-arrow-dash-down</title>
<g>
	<path d="M20.25,1.5c-0.414,0-0.75-0.336-0.75-0.75S19.836,0,20.25,0h3C23.664,0,24,0.337,24,0.75S23.664,1.5,23.25,1.5H20.25z"/>
	<path d="M6.75,1.5C6.336,1.5,6,1.164,6,0.75S6.336,0,6.75,0h10.5C17.664,0,18,0.337,18,0.75S17.664,1.5,17.25,1.5H6.75z"/>
	<path d="M0.75,1.5C0.336,1.5,0,1.164,0,0.75S0.336,0,0.75,0h2.999c0.414,0,0.75,0.336,0.75,0.75S4.163,1.5,3.749,1.5H0.75z"/>
	<path d="M0.75,6C0.336,6,0,5.664,0,5.25S0.336,4.5,0.75,4.5h3c0.414,0,0.75,0.336,0.75,0.75S4.164,6,3.75,6H0.75z"/>
	<path d="M11.992,24.005c-0.367,0-0.72-0.134-0.995-0.376c-0.04-0.035-0.077-0.072-0.113-0.111l-5.938-6.137
		c-0.447-0.488-0.296-0.949-0.239-1.078C4.764,16.173,5,15.75,5.641,15.75H8.25V6h-1.5C6.336,6,6,5.664,6,5.25S6.336,4.5,6.75,4.5H9
		c0.414,0,0.75,0.336,0.75,0.75V16.5c0,0.414-0.336,0.75-0.75,0.75H6.907l5.068,5.239l4.917-5.239H15c-0.414,0-0.75-0.336-0.75-0.75
		V5.25c0-0.414,0.336-0.75,0.75-0.75h2.25C17.664,4.5,18,4.837,18,5.25S17.664,6,17.25,6h-1.5v9.75h2.381
		c0.641,0,0.877,0.424,0.934,0.554c0.057,0.13,0.209,0.591-0.227,1.063l-5.737,6.144C12.828,23.822,12.421,24.005,11.992,24.005z"/>
	<path d="M20.25,6c-0.414,0-0.75-0.336-0.75-0.75s0.336-0.75,0.75-0.75h3C23.664,4.5,24,4.837,24,5.25S23.664,6,23.25,6H20.25z"/>
</g>
</svg>
