<?xml version="1.0" encoding="utf-8"?>
<!-- Generator: Adobe Illustrator 22.1.0, SVG Export Plug-In . SVG Version: 6.00 Build 0)  -->
<svg version="1.1" id="Regular" xmlns="http://www.w3.org/2000/svg" xmlns:xlink="http://www.w3.org/1999/xlink" x="0px" y="0px"
	 viewBox="0 0 24 24" style="enable-background:new 0 0 24 24;" xml:space="preserve">
<title>diagram-up-then-down</title>
<g>
	<path d="M20.25,22.75c-0.2,0-0.389-0.078-0.53-0.22c-0.292-0.292-0.292-0.768,0-1.061l1.72-1.72H9.065c-4.963,0-9-4.037-9-9
		s4.037-9,9-9H23.25C23.664,1.75,24,2.086,24,2.5s-0.336,0.75-0.75,0.75H9.065c-4.135,0-7.5,3.365-7.5,7.5s3.365,7.5,7.5,7.5h12.374
		l-1.72-1.72c-0.292-0.292-0.292-0.768,0-1.061c0.142-0.142,0.33-0.22,0.53-0.22s0.389,0.078,0.53,0.22l3,3
		c0.07,0.07,0.125,0.152,0.163,0.245c0.003,0.008,0.007,0.017,0.01,0.026C23.984,18.822,24,18.911,24,19
		c0,0.087-0.016,0.174-0.046,0.258c-0.002,0.006-0.004,0.011-0.006,0.016c-0.042,0.104-0.097,0.186-0.167,0.256l-3,3
		C20.639,22.672,20.45,22.75,20.25,22.75z"/>
</g>
</svg>
