<?xml version="1.0" encoding="utf-8"?>
<!-- Generator: Adobe Illustrator 22.1.0, SVG Export Plug-In . SVG Version: 6.00 Build 0)  -->
<svg version="1.1" id="Regular" xmlns="http://www.w3.org/2000/svg" xmlns:xlink="http://www.w3.org/1999/xlink" x="0px" y="0px"
	 viewBox="0 0 24 24" style="enable-background:new 0 0 24 24;" xml:space="preserve">
<title>diagram-arrow-dash-right</title>
<g>
	<path d="M16.668,18.873c-0.155,0-0.28-0.04-0.357-0.073c-0.131-0.057-0.556-0.293-0.556-0.937v-1.99h-5.25
		c-0.414,0-0.75-0.336-0.75-0.75s0.336-0.75,0.75-0.75h6c0.414,0,0.75,0.336,0.75,0.75v1.563l5.235-4.567l-5.24-4.879v1.883
		c0,0.414-0.336,0.75-0.75,0.75h-6c-0.414,0-0.75-0.336-0.75-0.75s0.336-0.75,0.75-0.75h5.25v-2.36c0-0.645,0.426-0.881,0.557-0.938
		c0.077-0.033,0.2-0.073,0.354-0.073c0.176,0,0.442,0.053,0.712,0.303l6.137,5.686c0.289,0.254,0.467,0.618,0.492,1.018
		c0.025,0.4-0.106,0.787-0.371,1.087c-0.052,0.059-0.108,0.114-0.169,0.164l-6.102,5.323C17.104,18.822,16.842,18.873,16.668,18.873
		z"/>
	<path d="M5.25,9.872c-0.414,0-0.75-0.336-0.75-0.75s0.336-0.75,0.75-0.75H7.5c0.414,0,0.75,0.336,0.75,0.75s-0.336,0.75-0.75,0.75
		H5.25z"/>
	<path d="M0.75,9.872C0.336,9.872,0,9.536,0,9.122s0.336-0.75,0.75-0.75H3c0.414,0,0.75,0.336,0.75,0.75S3.414,9.872,3,9.872H0.75z"
		/>
	<path d="M5.25,15.872c-0.414,0-0.75-0.336-0.75-0.75s0.336-0.75,0.75-0.75H7.5c0.414,0,0.75,0.336,0.75,0.75s-0.336,0.75-0.75,0.75
		H5.25z"/>
	<path d="M0.75,15.872c-0.414,0-0.75-0.336-0.75-0.75s0.336-0.75,0.75-0.75H3c0.414,0,0.75,0.336,0.75,0.75s-0.336,0.75-0.75,0.75
		H0.75z"/>
</g>
</svg>
