<?xml version="1.0" encoding="utf-8"?>
<!-- Generator: Adobe Illustrator 22.1.0, SVG Export Plug-In . SVG Version: 6.00 Build 0)  -->
<svg version="1.1" id="Regular" xmlns="http://www.w3.org/2000/svg" xmlns:xlink="http://www.w3.org/1999/xlink" x="0px" y="0px"
	 viewBox="0 0 24 24" style="enable-background:new 0 0 24 24;" xml:space="preserve">
<title>diagram-arrow-corner-point-left</title>
<g>
	<path d="M19.5,24.001c-1.241,0-2.25-1.009-2.25-2.25v-9.75c0-0.414-0.336-0.75-0.75-0.75H8.25v2.739
		c0,0.645-0.426,0.881-0.557,0.938c-0.076,0.033-0.199,0.073-0.354,0.073c-0.176,0-0.442-0.053-0.712-0.304L0.461,8.583
		C0.186,8.329,0.015,7.952,0,7.557c-0.015-0.4,0.127-0.783,0.399-1.076C0.422,6.455,0.448,6.43,0.475,6.404
		c0.003-0.003,0.011-0.01,0.019-0.017L6.61,0.322c0.286-0.266,0.556-0.32,0.733-0.32c0.153,0,0.275,0.039,0.351,0.072
		C7.825,0.132,8.25,0.368,8.25,1.012v2.739h13.5c1.241,0,2.25,1.009,2.25,2.25v15.75c0,1.241-1.009,2.25-2.25,2.25H19.5z
		 M16.5,9.751c1.241,0,2.25,1.009,2.25,2.25v9.75c0,0.414,0.336,0.75,0.75,0.75h2.25c0.414,0,0.75-0.336,0.75-0.75V6.001
		c0-0.414-0.336-0.75-0.75-0.75H7.5c-0.414,0-0.75-0.336-0.75-0.75V2.295c0,0-5.248,5.205-5.256,5.212l5.256,5.201v-2.207
		c0-0.414,0.336-0.75,0.75-0.75H16.5z"/>
</g>
</svg>
