<?xml version="1.0" encoding="utf-8"?>
<!-- Generator: Adobe Illustrator 22.1.0, SVG Export Plug-In . SVG Version: 6.00 Build 0)  -->
<svg version="1.1" id="Regular" xmlns="http://www.w3.org/2000/svg" xmlns:xlink="http://www.w3.org/1999/xlink" x="0px" y="0px"
	 viewBox="0 0 24 24" style="enable-background:new 0 0 24 24;" xml:space="preserve">
<title>diagram-dash-steady-up</title>
<g>
	<path d="M1.25,21c-0.414,0-0.75-0.336-0.75-0.75s0.336-0.75,0.75-0.75h2.929c0.414,0,0.75,0.336,0.75,0.75S4.592,21,4.179,21H1.25z
		"/>
	<path d="M7.4,21c-0.414,0-0.75-0.336-0.75-0.75S6.986,19.5,7.4,19.5h2.928c0.414,0,0.75,0.336,0.75,0.75S10.741,21,10.328,21H7.4z"
		/>
	<path d="M13.461,20.35c-0.297,0-0.567-0.176-0.687-0.448c-0.166-0.379,0.006-0.822,0.385-0.989
		c0.813-0.357,1.543-0.856,2.172-1.484c0.142-0.142,0.33-0.219,0.531-0.219s0.389,0.078,0.53,0.22c0.292,0.293,0.292,0.769,0,1.061
		c-0.76,0.759-1.644,1.364-2.628,1.796C13.668,20.328,13.566,20.35,13.461,20.35z"/>
	<path d="M17.62,16.038c-0.092,0-0.182-0.017-0.268-0.05c-0.187-0.071-0.335-0.211-0.417-0.394
		c-0.082-0.183-0.087-0.386-0.016-0.573c0.223-0.584,0.383-1.223,0.538-1.842c0.077-0.306,0.152-0.608,0.235-0.907
		c0.089-0.324,0.386-0.55,0.722-0.55c0.068,0,0.136,0.009,0.201,0.028c0.192,0.053,0.353,0.179,0.452,0.353
		c0.099,0.174,0.124,0.377,0.07,0.57c-0.079,0.285-0.151,0.573-0.223,0.86c-0.167,0.669-0.339,1.353-0.594,2.023
		C18.211,15.844,17.929,16.038,17.62,16.038z"/>
	<path d="M19.223,10.104c-0.063,0-0.127-0.008-0.188-0.024c-0.194-0.05-0.356-0.173-0.458-0.345c-0.102-0.173-0.13-0.375-0.08-0.569
		l0.734-2.835C19.317,6,19.615,5.769,19.956,5.769c0.063,0,0.127,0.008,0.188,0.024c0.194,0.05,0.357,0.173,0.458,0.345
		c0.102,0.173,0.13,0.375,0.08,0.569l-0.734,2.835C19.863,9.873,19.565,10.104,19.223,10.104z"/>
	<path d="M22.761,7.282c-0.262,0-0.501-0.133-0.639-0.356l-1.787-2.894l-2.893,1.787c-0.118,0.073-0.254,0.112-0.394,0.112
		c-0.262,0-0.501-0.133-0.639-0.356c-0.105-0.17-0.138-0.372-0.092-0.567c0.046-0.195,0.166-0.36,0.336-0.466l3.531-2.181
		C20.304,2.289,20.44,2.25,20.58,2.25c0.058,0,0.116,0.007,0.173,0.02c0.195,0.046,0.36,0.165,0.465,0.336l2.181,3.532
		c0.217,0.352,0.108,0.815-0.244,1.032C23.036,7.243,22.9,7.282,22.761,7.282z"/>
</g>
</svg>
