<?xml version="1.0" encoding="utf-8"?>
<!-- Generator: Adobe Illustrator 22.1.0, SVG Export Plug-In . SVG Version: 6.00 Build 0)  -->
<svg version="1.1" id="Regular" xmlns="http://www.w3.org/2000/svg" xmlns:xlink="http://www.w3.org/1999/xlink" x="0px" y="0px"
	 viewBox="0 0 24 24" style="enable-background:new 0 0 24 24;" xml:space="preserve">
<title>diagram-steady-down-1</title>
<g>
	<path d="M0.858,2.665c-0.379,0-0.698-0.284-0.744-0.66C0.065,1.607,0.027,1.201,0.001,0.799c-0.013-0.2,0.052-0.393,0.184-0.544
		C0.317,0.105,0.5,0.015,0.699,0.002C0.715,0,0.733,0,0.751,0c0.393,0,0.721,0.308,0.746,0.701c0.025,0.376,0.06,0.755,0.105,1.124
		c0.05,0.411-0.244,0.785-0.654,0.835C0.917,2.663,0.887,2.665,0.858,2.665z"/>
	<path d="M1.799,6.794c-0.322,0-0.607-0.205-0.71-0.51C0.856,5.595,0.655,4.885,0.494,4.173C0.402,3.77,0.655,3.367,1.059,3.275
		c0.055-0.012,0.111-0.019,0.166-0.019c0.353,0,0.654,0.24,0.732,0.584c0.15,0.661,0.336,1.321,0.553,1.963
		c0.064,0.19,0.051,0.393-0.038,0.573S2.229,6.69,2.039,6.754C1.961,6.781,1.881,6.794,1.799,6.794z"/>
	<path d="M3.976,11.329c-0.257,0-0.493-0.129-0.631-0.345c-0.533-0.83-1.013-1.705-1.427-2.601C1.745,8.008,1.909,7.561,2.285,7.388
		c0.099-0.046,0.205-0.069,0.314-0.069c0.292,0,0.559,0.171,0.681,0.436c0.385,0.834,0.832,1.648,1.327,2.419
		c0.108,0.168,0.144,0.369,0.102,0.565c-0.043,0.196-0.159,0.363-0.328,0.471C4.26,11.288,4.12,11.329,3.976,11.329z"/>
	<path d="M20.249,24c-0.2,0-0.389-0.078-0.53-0.22s-0.22-0.33-0.22-0.53s0.078-0.389,0.22-0.53l1.729-1.729
		c-6.569-0.062-12.676-3.031-16.784-8.17c-0.125-0.156-0.182-0.352-0.16-0.551c0.022-0.199,0.121-0.378,0.277-0.503
		c0.132-0.106,0.299-0.164,0.468-0.164c0.229,0,0.443,0.103,0.586,0.282c3.818,4.775,9.492,7.539,15.594,7.606l-1.71-1.71
		c-0.142-0.142-0.22-0.33-0.22-0.53s0.078-0.389,0.22-0.53s0.33-0.22,0.53-0.22s0.389,0.078,0.53,0.22l2.937,2.937
		c0.168,0.133,0.271,0.331,0.282,0.547c0.001,0.014,0,0.035,0,0.051c0,0.01-0.001,0.02-0.002,0.03
		c-0.004,0.08-0.019,0.152-0.044,0.22c-0.008,0.023-0.021,0.049-0.034,0.076c-0.025,0.046-0.046,0.08-0.069,0.11
		c-0.013,0.022-0.035,0.056-0.069,0.09l-3,3C20.638,23.922,20.449,24,20.249,24z"/>
</g>
</svg>
