<?xml version="1.0" encoding="utf-8"?>
<!-- Generator: Adobe Illustrator 22.1.0, SVG Export Plug-In . SVG Version: 6.00 Build 0)  -->
<svg version="1.1" id="Regular" xmlns="http://www.w3.org/2000/svg" xmlns:xlink="http://www.w3.org/1999/xlink" x="0px" y="0px"
	 viewBox="0 0 24 24" style="enable-background:new 0 0 24 24;" xml:space="preserve">
<title>diagram-up</title>
<g>
	<path d="M0.75,24.001c-0.393,0-0.721-0.307-0.748-0.699c-0.014-0.2,0.051-0.393,0.183-0.544c0.132-0.151,0.314-0.242,0.514-0.255
		c10.486-0.72,18.692-9.451,18.792-19.933L17.78,4.282c-0.142,0.142-0.33,0.22-0.53,0.22s-0.389-0.078-0.53-0.22
		c-0.142-0.141-0.22-0.33-0.22-0.53s0.078-0.389,0.22-0.53l2.941-2.941c0.134-0.166,0.33-0.267,0.542-0.278
		c0.005,0,0.075,0.002,0.075,0.002c0.082,0.003,0.164,0.019,0.239,0.048c0.012,0.005,0.039,0.017,0.051,0.023
		c0.06,0.029,0.113,0.063,0.16,0.102c0.021,0.015,0.041,0.031,0.056,0.047l2.997,2.997C23.922,3.363,24,3.551,24,3.751
		s-0.078,0.389-0.22,0.53s-0.33,0.22-0.53,0.22s-0.389-0.078-0.53-0.22l-1.728-1.728c-0.09,11.275-8.913,20.672-20.19,21.446
		C0.788,24.001,0.769,24.001,0.75,24.001z"/>
</g>
</svg>
