<?xml version="1.0" encoding="utf-8"?>
<!-- Generator: Adobe Illustrator 22.1.0, SVG Export Plug-In . SVG Version: 6.00 Build 0)  -->
<svg version="1.1" id="Regular" xmlns="http://www.w3.org/2000/svg" xmlns:xlink="http://www.w3.org/1999/xlink" x="0px" y="0px"
	 viewBox="0 0 24 24" style="enable-background:new 0 0 24 24;" xml:space="preserve">
<title>diagram-fall-rise-steady</title>
<g>
	<path d="M20.25,14.018c-0.202,0-0.392-0.079-0.533-0.223c-0.141-0.142-0.218-0.331-0.217-0.531s0.08-0.388,0.223-0.529l1.736-1.717
		h-5.521c-0.414,0-0.75-0.336-0.75-0.75s0.336-0.75,0.75-0.75h5.483l-1.704-1.723c-0.141-0.142-0.218-0.331-0.217-0.531
		c0.001-0.2,0.08-0.388,0.223-0.529c0.141-0.14,0.328-0.217,0.527-0.217c0.202,0,0.392,0.079,0.534,0.223l2.856,2.888
		C23.861,9.764,24,10.007,24,10.268c0,0.005,0,0.03,0,0.035c-0.001,0.202-0.08,0.39-0.223,0.531l-3,2.967
		C20.636,13.941,20.449,14.018,20.25,14.018z"/>
	<path d="M9.682,12.13c-0.177,0-0.349-0.063-0.484-0.178c-0.153-0.129-0.246-0.311-0.263-0.51c-0.017-0.2,0.046-0.394,0.175-0.547
		c0.752-0.888,1.85-1.397,3.014-1.397c0.147,0,0.295,0.008,0.442,0.025c0.2,0.022,0.378,0.121,0.503,0.278
		c0.125,0.157,0.181,0.352,0.159,0.552c-0.043,0.38-0.363,0.666-0.746,0.666l0,0c-0.027,0-0.054-0.001-0.082-0.004
		c-0.093-0.01-0.186-0.016-0.277-0.016c-0.721,0-1.401,0.316-1.868,0.867C10.112,12.033,9.903,12.13,9.682,12.13z"/>
	<path d="M9,18.568c-0.414,0-0.75-0.336-0.75-0.75v-3.141c0-0.414,0.336-0.75,0.75-0.75s0.75,0.336,0.75,0.75v3.141
		C9.75,18.232,9.414,18.568,9,18.568z"/>
	<path d="M6.319,23.75c-0.382,0-0.702-0.286-0.745-0.666c-0.023-0.199,0.034-0.395,0.159-0.552s0.303-0.255,0.502-0.278
		c0.797-0.091,1.501-0.6,1.836-1.329c0.122-0.265,0.389-0.437,0.682-0.437c0.108,0,0.214,0.023,0.313,0.068
		c0.376,0.174,0.541,0.62,0.369,0.995c-0.553,1.203-1.714,2.044-3.03,2.193C6.378,23.748,6.348,23.75,6.319,23.75z"/>
	<path d="M2.876,23.65c-0.072,0-0.142-0.01-0.21-0.03c-1.289-0.373-2.276-1.419-2.575-2.728c-0.045-0.195-0.01-0.396,0.096-0.566
		c0.106-0.17,0.273-0.288,0.468-0.332c0.054-0.013,0.111-0.019,0.168-0.019c0.351,0,0.651,0.24,0.73,0.583
		c0.178,0.778,0.765,1.4,1.532,1.622c0.192,0.056,0.352,0.183,0.448,0.358c0.097,0.176,0.119,0.378,0.063,0.571
		C3.504,23.427,3.208,23.65,2.876,23.65z"/>
	<path d="M0.75,18.025c-0.414,0-0.75-0.336-0.75-0.75v-3.142c0-0.414,0.336-0.75,0.75-0.75s0.75,0.336,0.75,0.75v3.142
		C1.5,17.689,1.164,18.025,0.75,18.025z"/>
	<path d="M0.75,11.427c-0.414,0-0.75-0.336-0.75-0.75V7.536c0-0.414,0.336-0.75,0.75-0.75S1.5,7.122,1.5,7.536v3.141
		C1.5,11.091,1.164,11.427,0.75,11.427z"/>
	<path d="M0.75,4.83C0.336,4.83,0,4.494,0,4.08V0.938c0-0.414,0.336-0.75,0.75-0.75S1.5,0.524,1.5,0.938V4.08
		C1.5,4.494,1.164,4.83,0.75,4.83z"/>
</g>
</svg>
