<?xml version="1.0" encoding="utf-8"?>
<!-- Generator: Adobe Illustrator 22.1.0, SVG Export Plug-In . SVG Version: 6.00 Build 0)  -->
<svg version="1.1" id="Regular" xmlns="http://www.w3.org/2000/svg" xmlns:xlink="http://www.w3.org/1999/xlink" x="0px" y="0px"
	 viewBox="0 0 24 24" style="enable-background:new 0 0 24 24;" xml:space="preserve">
<title>diagram-arrow-dash-corner-left-up</title>
<g>
	<path d="M19.124,16.125c-0.2,0-0.389-0.078-0.53-0.22l-1.875-1.875c-0.292-0.292-0.292-0.768,0-1.061
		c0.142-0.142,0.33-0.22,0.53-0.22s0.389,0.078,0.53,0.22l1.875,1.875c0.292,0.292,0.292,0.768,0,1.061
		C19.513,16.047,19.325,16.125,19.124,16.125z"/>
	<path d="M23.249,20.25c-0.2,0-0.389-0.078-0.53-0.22l-1.875-1.875c-0.292-0.292-0.292-0.768,0-1.061
		c0.142-0.142,0.33-0.22,0.53-0.22s0.389,0.078,0.53,0.22l1.875,1.875c0.292,0.292,0.292,0.768,0,1.061
		C23.638,20.172,23.45,20.25,23.249,20.25z"/>
	<path d="M11.249,15.75c-0.2,0-0.389-0.078-0.53-0.22l-6.97-6.97l-1.83,1.83c-0.212,0.212-0.495,0.329-0.795,0.329
		c-0.301,0-0.583-0.117-0.796-0.329C0.12,10.182,0.003,9.905-0.001,9.61V1.125C-0.001,0.505,0.504,0,1.124,0h8.475
		c0.301,0,0.583,0.117,0.796,0.33c0.212,0.213,0.329,0.496,0.329,0.796c0,0.3-0.117,0.582-0.329,0.794L8.561,3.75l6.969,6.969
		c0.142,0.141,0.22,0.33,0.22,0.53s-0.078,0.389-0.22,0.53S15.2,12,14.999,12s-0.389-0.078-0.53-0.22l-7.5-7.5
		c-0.142-0.141-0.22-0.33-0.22-0.531c0-0.198,0.08-0.391,0.22-0.531L8.693,1.5l-7.193,0v7.193L3.219,6.97
		c0.142-0.142,0.33-0.22,0.531-0.22s0.389,0.078,0.53,0.22l7.5,7.5c0.292,0.292,0.292,0.768,0,1.061
		C11.638,15.672,11.45,15.75,11.249,15.75z"/>
	<path d="M15.374,19.875c-0.2,0-0.389-0.078-0.53-0.22l-1.875-1.875c-0.292-0.292-0.292-0.768,0-1.061
		c0.142-0.142,0.33-0.22,0.53-0.22s0.389,0.078,0.53,0.22l1.875,1.875c0.292,0.292,0.292,0.768,0,1.061
		C15.763,19.797,15.575,19.875,15.374,19.875z"/>
	<path d="M19.499,24c-0.2,0-0.389-0.078-0.53-0.22l-1.875-1.875c-0.292-0.292-0.292-0.768,0-1.061c0.142-0.142,0.33-0.22,0.53-0.22
		s0.389,0.078,0.53,0.22l1.875,1.875c0.292,0.292,0.292,0.768,0,1.061C19.888,23.922,19.7,24,19.499,24z"/>
</g>
</svg>
