<?xml version="1.0" encoding="utf-8"?>
<!-- Generator: Adobe Illustrator 22.1.0, SVG Export Plug-In . SVG Version: 6.00 Build 0)  -->
<svg version="1.1" id="Regular" xmlns="http://www.w3.org/2000/svg" xmlns:xlink="http://www.w3.org/1999/xlink" x="0px" y="0px"
	 viewBox="0 0 24 24" style="enable-background:new 0 0 24 24;" xml:space="preserve">
<title>diagram-arrow-down</title>
<g>
	<path d="M11.749,24.001c-0.379,0-0.741-0.142-1.019-0.4c-0.029-0.027-0.056-0.054-0.082-0.082L4.57,17.39
		c-0.455-0.492-0.304-0.954-0.247-1.085s0.293-0.556,0.938-0.556h2.742V2.25C8.003,1.01,9.012,0,10.253,0h3
		c1.241,0,2.25,1.009,2.25,2.25v13.5h2.739c0.645,0,0.881,0.426,0.938,0.557s0.209,0.593-0.23,1.066l-6.117,6.167
		c-0.253,0.274-0.63,0.446-1.025,0.461L11.749,24.001z M11.762,22.513l5.2-5.262h-2.208c-0.414,0-0.75-0.336-0.75-0.75V2.25
		c0-0.414-0.336-0.75-0.75-0.75h-3c-0.414,0-0.75,0.336-0.75,0.75V16.5c0,0.414-0.336,0.75-0.75,0.75H6.543L11.762,22.513z"/>
</g>
</svg>
