<?xml version="1.0" encoding="utf-8"?>
<!-- Generator: Adobe Illustrator 22.1.0, SVG Export Plug-In . SVG Version: 6.00 Build 0)  -->
<svg version="1.1" id="Regular" xmlns="http://www.w3.org/2000/svg" xmlns:xlink="http://www.w3.org/1999/xlink" x="0px" y="0px"
	 viewBox="0 0 24 24" style="enable-background:new 0 0 24 24;" xml:space="preserve">
<title>diagram-arrow-dash-up-1</title>
<g>
	<path d="M8.752,14.25c-0.414,0-0.75-0.336-0.75-0.75V8.25H5.641c-0.644,0-0.88-0.426-0.937-0.557
		C4.647,7.563,4.496,7.1,4.935,6.627l5.687-6.137c0.275-0.312,0.682-0.495,1.112-0.495c0.366,0,0.719,0.133,0.993,0.374
		c0.059,0.052,0.114,0.109,0.164,0.169l5.324,6.102c0.424,0.458,0.272,0.919,0.215,1.05c-0.057,0.13-0.293,0.556-0.938,0.556h-1.989
		v5.25c0,0.414-0.336,0.75-0.75,0.75s-0.75-0.336-0.75-0.75v-6c0-0.414,0.336-0.75,0.75-0.75h1.563L11.748,1.51L6.869,6.75h1.883
		c0.414,0,0.75,0.336,0.75,0.75v6C9.502,13.913,9.166,14.25,8.752,14.25z"/>
	<path d="M8.752,19.5c-0.414,0-0.75-0.336-0.75-0.75V16.5c0-0.414,0.336-0.75,0.75-0.75s0.75,0.336,0.75,0.75v2.25
		C9.502,19.163,9.166,19.5,8.752,19.5z"/>
	<path d="M8.752,24c-0.414,0-0.75-0.336-0.75-0.75V21c0-0.414,0.336-0.75,0.75-0.75s0.75,0.336,0.75,0.75v2.25
		C9.502,23.663,9.166,24,8.752,24z"/>
	<path d="M14.752,19.5c-0.414,0-0.75-0.336-0.75-0.75V16.5c0-0.414,0.336-0.75,0.75-0.75s0.75,0.336,0.75,0.75v2.25
		C15.502,19.163,15.166,19.5,14.752,19.5z"/>
	<path d="M14.752,24c-0.414,0-0.75-0.336-0.75-0.75V21c0-0.414,0.336-0.75,0.75-0.75s0.75,0.336,0.75,0.75v2.25
		C15.502,23.663,15.166,24,14.752,24z"/>
</g>
</svg>
