<?xml version="1.0" encoding="utf-8"?>
<!-- Generator: Adobe Illustrator 22.1.0, SVG Export Plug-In . SVG Version: 6.00 Build 0)  -->
<svg version="1.1" id="Regular" xmlns="http://www.w3.org/2000/svg" xmlns:xlink="http://www.w3.org/1999/xlink" x="0px" y="0px"
	 viewBox="0 0 24 24" style="enable-background:new 0 0 24 24;" xml:space="preserve">
<title>diagram-arrow-right</title>
<g>
	<path d="M16.657,19.004c-0.153,0-0.275-0.039-0.351-0.072c-0.131-0.057-0.556-0.293-0.556-0.938v-2.745H2.25
		C1.01,15.249,0,14.24,0,12.999v-3c0-1.241,1.009-2.25,2.25-2.25h13.5V5.01c0-0.645,0.426-0.881,0.557-0.938
		c0.078-0.033,0.201-0.073,0.354-0.073c0.176,0,0.442,0.053,0.711,0.303l6.167,6.117c0.274,0.254,0.446,0.631,0.461,1.026
		c0.015,0.4-0.127,0.783-0.399,1.077c-0.031,0.032-0.055,0.057-0.08,0.08l-6.131,6.082C17.104,18.95,16.835,19.004,16.657,19.004z
		 M2.25,9.249c-0.414,0-0.75,0.336-0.75,0.75v3c0,0.414,0.336,0.75,0.75,0.75H16.5c0.414,0,0.75,0.336,0.75,0.75v2.212l5.265-5.223
		L17.25,6.29v2.209c0,0.414-0.336,0.75-0.75,0.75H2.25z"/>
</g>
</svg>
