<?xml version="1.0" encoding="utf-8"?>
<!-- Generator: Adobe Illustrator 22.1.0, SVG Export Plug-In . SVG Version: 6.00 Build 0)  -->
<svg version="1.1" id="Regular" xmlns="http://www.w3.org/2000/svg" xmlns:xlink="http://www.w3.org/1999/xlink" x="0px" y="0px"
	 viewBox="0 0 24 24" style="enable-background:new 0 0 24 24;" xml:space="preserve">
<title>diagram-arrow-bow</title>
<g>
	<path d="M0.992,24c-0.413-0.004-0.746-0.344-0.742-0.758c0.004-0.396,0.337-0.729,0.741-0.742l0.126,0
		c5.561,0,10.137-4.252,10.583-9.75H0.75C0.336,12.75,0,12.413,0,12s0.336-0.75,0.75-0.75h10.952
		c-0.443-5.499-5.022-9.75-10.591-9.75l-0.103,0C0.589,1.494,0.254,1.16,0.25,0.757c-0.002-0.2,0.074-0.389,0.214-0.532
		C0.604,0.082,0.792,0.002,0.992,0l0.125-0.001c6.395,0,11.636,4.913,12.087,11.251h8.235l-1.72-1.72C19.578,9.389,19.5,9.2,19.5,9
		s0.078-0.389,0.22-0.53s0.33-0.22,0.53-0.22s0.389,0.078,0.53,0.22l3,3c0.07,0.07,0.125,0.152,0.163,0.245
		c0.003,0.008,0.007,0.017,0.01,0.026C23.984,11.822,24,11.91,24,12c0,0.087-0.016,0.174-0.047,0.258
		c-0.002,0.006-0.004,0.011-0.006,0.016c-0.042,0.104-0.098,0.187-0.168,0.257L20.78,15.53c-0.142,0.142-0.33,0.22-0.53,0.22
		s-0.389-0.078-0.53-0.22S19.5,15.2,19.5,15s0.078-0.389,0.22-0.53l1.72-1.72h-8.235C12.75,19.087,7.509,24,1.118,24L0.992,24z"/>
</g>
</svg>
