<?xml version="1.0" encoding="utf-8"?>
<!-- Generator: Adobe Illustrator 22.1.0, SVG Export Plug-In . SVG Version: 6.00 Build 0)  -->
<svg version="1.1" id="Regular" xmlns="http://www.w3.org/2000/svg" xmlns:xlink="http://www.w3.org/1999/xlink" x="0px" y="0px"
	 viewBox="0 0 24 24" style="enable-background:new 0 0 24 24;" xml:space="preserve">
<title>diagram-arrow-dash-up</title>
<g>
	<path d="M0.75,24C0.336,24,0,23.663,0,23.25s0.336-0.75,0.75-0.75h3c0.414,0,0.75,0.336,0.75,0.75S4.164,24,3.75,24H0.75z"/>
	<path d="M6.75,24C6.336,24,6,23.663,6,23.25s0.336-0.75,0.75-0.75h10.5c0.414,0,0.75,0.336,0.75,0.75S17.664,24,17.25,24H6.75z"/>
	<path d="M20.251,24c-0.414,0-0.75-0.336-0.75-0.75s0.336-0.75,0.75-0.75h2.999c0.414,0,0.75,0.336,0.75,0.75S23.664,24,23.25,24
		H20.251z"/>
	<path d="M20.25,19.5c-0.414,0-0.75-0.336-0.75-0.75S19.836,18,20.25,18h3c0.414,0,0.75,0.336,0.75,0.75s-0.336,0.75-0.75,0.75
		H20.25z"/>
	<path d="M15,19.5c-0.414,0-0.75-0.336-0.75-0.75V7.505c0-0.414,0.336-0.75,0.75-0.75h2.092l-5.088-5.256L7.105,6.75H9
		c0.414,0,0.75,0.336,0.75,0.75v11.25c0,0.414-0.336,0.75-0.75,0.75H6.75C6.336,19.5,6,19.163,6,18.75S6.336,18,6.75,18h1.5V8.25
		H5.87c-0.643,0-0.879-0.425-0.936-0.556C4.878,7.563,4.727,7.102,5.164,6.631l5.735-6.143c0.259-0.289,0.625-0.464,1.025-0.485
		C11.952,0.001,11.982,0,12.011,0c0.366,0,0.72,0.136,0.995,0.383c0.04,0.036,0.078,0.074,0.114,0.113l5.934,6.129
		c0.448,0.489,0.296,0.949,0.239,1.078c-0.057,0.129-0.292,0.551-0.934,0.551H15.75V18h1.5c0.414,0,0.75,0.336,0.75,0.75
		s-0.336,0.75-0.75,0.75H15z"/>
	<path d="M0.75,19.5C0.336,19.5,0,19.163,0,18.75S0.336,18,0.75,18h3c0.414,0,0.75,0.336,0.75,0.75S4.164,19.5,3.75,19.5H0.75z"/>
</g>
</svg>
