<?xml version="1.0" encoding="utf-8"?>
<!-- Generator: Adobe Illustrator 22.1.0, SVG Export Plug-In . SVG Version: 6.00 Build 0)  -->
<svg version="1.1" id="Regular" xmlns="http://www.w3.org/2000/svg" xmlns:xlink="http://www.w3.org/1999/xlink" x="0px" y="0px"
	 viewBox="0 0 24 24" style="enable-background:new 0 0 24 24;" xml:space="preserve">
<title>diagram-arrow-bend-down</title>
<g>
	<path d="M0.96,7.67c-0.414,0-0.75-0.336-0.75-0.75s0.336-0.75,0.75-0.75h10.5c0.414,0,0.75,0.336,0.75,0.75s-0.336,0.75-0.75,0.75
		H0.96z"/>
	<path d="M17.444,23.999c-0.275,0-0.539-0.1-0.745-0.282c-0.006-0.005-0.042-0.039-0.05-0.047l-5.829-5.828
		c-0.213-0.214-0.329-0.497-0.328-0.798s0.119-0.583,0.332-0.795c0.211-0.21,0.491-0.326,0.788-0.327h2.099V9.17
		c0-4.864-1.195-7.5-7.5-7.5H0.96c-0.414,0-0.75-0.336-0.75-0.75s0.336-0.75,0.75-0.75h14.45c3.579,0,5.803,2.224,5.803,5.803
		L21.21,15.92h1.415c0.623,0.003,1.126,0.51,1.124,1.13c-0.001,0.274-0.102,0.538-0.283,0.742l-5.182,5.829
		C18.072,23.861,17.766,23.999,17.444,23.999z M17.428,22.328l4.362-4.907l-1.33,0c-0.197,0-0.39-0.08-0.53-0.22
		s-0.22-0.333-0.22-0.53l0.003-10.697c0-1.607-0.559-4.303-4.303-4.303h-3.013c2.447,1.725,2.813,4.714,2.813,7.5v7.5
		c0,0.414-0.336,0.75-0.75,0.75h-1.94L17.428,22.328z"/>
</g>
</svg>
