<?xml version="1.0" encoding="utf-8"?>
<!-- Generator: Adobe Illustrator 22.1.0, SVG Export Plug-In . SVG Version: 6.00 Build 0)  -->
<svg version="1.1" id="Regular" xmlns="http://www.w3.org/2000/svg" xmlns:xlink="http://www.w3.org/1999/xlink" x="0px" y="0px"
	 viewBox="0 0 24 24" style="enable-background:new 0 0 24 24;" xml:space="preserve">
<title>diagram-arrow-diagonal</title>
<g>
	<path d="M14.453,24c-0.631-0.002-0.873-0.417-0.933-0.544c-0.06-0.128-0.221-0.581,0.18-1.063l1.696-2.064L3.671,8.603
		l-2.066,1.699C1.35,10.52,1.097,10.567,0.93,10.567c-0.166,0-0.298-0.044-0.379-0.082C0.422,10.426,0.002,10.184,0,9.55V1.239
		c-0.001-0.329,0.127-0.64,0.361-0.874C0.595,0.13,0.905,0.001,1.235,0h8.342c0.63,0,0.873,0.415,0.932,0.542
		c0.06,0.128,0.221,0.581-0.184,1.064l-1.727,2.05l11.78,11.715l2.014-1.696c0.264-0.222,0.517-0.268,0.683-0.268
		c0.167,0,0.3,0.045,0.381,0.083C23.585,13.55,24,13.792,24,14.423v8.34c-0.001,0.332-0.13,0.643-0.364,0.876
		C23.402,23.872,23.091,24,22.762,24H14.453z M22.5,22.5v-6.954l-1.717,1.446c-0.135,0.114-0.307,0.176-0.483,0.176
		c-0.222,0-0.431-0.097-0.574-0.267c-0.043-0.052-0.079-0.108-0.107-0.17L7.052,4.234C7.038,4.219,7.023,4.202,7.01,4.183
		C6.964,4.13,6.927,4.071,6.899,4.008c-0.009-0.019-0.014-0.034-0.02-0.05C6.851,3.883,6.835,3.803,6.833,3.722
		c0-0.006,0-0.029,0-0.036C6.834,3.6,6.851,3.514,6.882,3.432c0.002-0.006,0.008-0.02,0.011-0.026
		c0.028-0.068,0.066-0.132,0.115-0.189L8.454,1.5H1.5v6.946l1.744-1.434c0.051-0.042,0.11-0.077,0.178-0.107
		c0.006-0.003,0.031-0.013,0.037-0.015c0.076-0.028,0.158-0.045,0.242-0.047c0.003,0,0.033,0,0.035,0
		c0.085,0.002,0.168,0.018,0.247,0.047c0.006,0.002,0.029,0.012,0.035,0.014c0.071,0.03,0.137,0.072,0.196,0.124
		C4.227,7.04,4.239,7.051,4.25,7.062l12.688,12.687c0.011,0.011,0.021,0.023,0.031,0.035c0.048,0.053,0.092,0.122,0.125,0.196
		c0.002,0.005,0.01,0.026,0.012,0.03c0.032,0.084,0.048,0.167,0.05,0.251c0,0.008,0,0.033,0,0.042
		c-0.002,0.078-0.018,0.161-0.048,0.24c-0.002,0.006-0.011,0.028-0.014,0.033c-0.03,0.069-0.065,0.127-0.107,0.178l-1.432,1.743
		L22.5,22.5z"/>
</g>
</svg>
