<?xml version="1.0" encoding="utf-8"?>
<!-- Generator: Adobe Illustrator 22.1.0, SVG Export Plug-In . SVG Version: 6.00 Build 0)  -->
<svg version="1.1" id="Regular" xmlns="http://www.w3.org/2000/svg" xmlns:xlink="http://www.w3.org/1999/xlink" x="0px" y="0px"
	 viewBox="0 0 24 24" style="enable-background:new 0 0 24 24;" xml:space="preserve">
<title>diagram-curve-down</title>
<g>
	<path d="M20.248,24c-0.207,0-0.407-0.088-0.549-0.241L16.72,20.78c-0.142-0.142-0.22-0.33-0.22-0.53s0.078-0.389,0.22-0.53
		s0.33-0.22,0.53-0.22s0.389,0.078,0.53,0.22l1.718,1.718v-6.862c0.035-1.771-1.368-3.26-3.126-3.326l-11.709,0
		c-0.02,0.001-0.08,0.002-0.137,0.002c-1.198,0-2.327-0.464-3.179-1.305C0.486,9.098,0.008,7.964,0,6.755V0.75
		C0,0.336,0.336,0,0.75,0S1.5,0.336,1.5,0.75v6c0.005,0.804,0.325,1.562,0.901,2.13c0.57,0.563,1.324,0.873,2.123,0.873
		c0.052,0,0.082-0.001,0.112-0.002l11.764,0c2.592,0.097,4.649,2.269,4.598,4.841v6.851l1.722-1.722
		c0.142-0.142,0.33-0.22,0.53-0.22s0.389,0.078,0.53,0.22S24,20.05,24,20.25s-0.078,0.389-0.22,0.53l-3,3
		c-0.012,0.012-0.025,0.023-0.04,0.034c-0.058,0.051-0.126,0.094-0.199,0.125c-0.011,0.005-0.026,0.01-0.039,0.014
		c-0.071,0.026-0.147,0.042-0.225,0.045C20.269,24,20.259,24,20.25,24C20.25,24,20.249,24,20.248,24z"/>
</g>
</svg>
