<?xml version="1.0" encoding="utf-8"?>
<!-- Generator: Adobe Illustrator 22.1.0, SVG Export Plug-In . SVG Version: 6.00 Build 0)  -->
<svg version="1.1" id="Regular" xmlns="http://www.w3.org/2000/svg" xmlns:xlink="http://www.w3.org/1999/xlink" x="0px" y="0px"
	 viewBox="0 0 24 24" style="enable-background:new 0 0 24 24;" xml:space="preserve">
<title>diagram-arrow-dash-corner-point-right</title>
<g>
	<path d="M0.749,24c-0.414,0-0.75-0.336-0.75-0.75V19.5c0-0.414,0.336-0.75,0.75-0.75s0.75,0.336,0.75,0.75v3.75
		C1.499,23.664,1.163,24,0.749,24z"/>
	<path d="M5.999,17.25c-0.414,0-0.75-0.336-0.75-0.75V12c0-1.241,1.009-2.25,2.25-2.25h9c0.414,0,0.75,0.336,0.75,0.75v2.206
		l5.233-5.191l0.017-0.021L22.493,7.49l-5.243-5.196V4.5c0,0.414-0.336,0.75-0.75,0.75H2.249c-0.414,0-0.75,0.336-0.75,0.75v10.5
		c0,0.414-0.336,0.75-0.75,0.75s-0.75-0.336-0.75-0.75V6c0-1.241,1.009-2.25,2.25-2.25h13.5V1.011c0-0.645,0.425-0.881,0.556-0.938
		C16.381,0.04,16.505,0,16.659,0c0.175,0,0.441,0.052,0.711,0.302l6.167,6.112c0.001,0,0.031,0.03,0.06,0.06
		c0.274,0.295,0.416,0.678,0.401,1.079c-0.015,0.401-0.185,0.772-0.479,1.044l-6.13,6.082c-0.285,0.266-0.555,0.32-0.732,0.32l0,0
		c-0.152,0-0.274-0.039-0.35-0.072c-0.131-0.057-0.558-0.293-0.558-0.938V11.25h-8.25c-0.414,0-0.75,0.336-0.75,0.75v4.5
		C6.749,16.914,6.413,17.25,5.999,17.25z"/>
	<path d="M5.999,24c-0.414,0-0.75-0.336-0.75-0.75V19.5c0-0.414,0.336-0.75,0.75-0.75s0.75,0.336,0.75,0.75v3.75
		C6.749,23.664,6.413,24,5.999,24z"/>
</g>
</svg>
