<?xml version="1.0" encoding="utf-8"?>
<!-- Generator: Adobe Illustrator 22.1.0, SVG Export Plug-In . SVG Version: 6.00 Build 0)  -->
<svg version="1.1" id="Regular" xmlns="http://www.w3.org/2000/svg" xmlns:xlink="http://www.w3.org/1999/xlink" x="0px" y="0px"
	 viewBox="0 0 24 24" style="enable-background:new 0 0 24 24;" xml:space="preserve">
<title>diagram-dash-wave-down</title>
<g>
	<path d="M0.747,1.5c-0.2-0.001-0.388-0.079-0.53-0.221s-0.219-0.331-0.218-0.531C0.001,0.336,0.337,0,0.749,0l3.102,0.009
		c0.414,0.001,0.749,0.339,0.748,0.752c-0.001,0.412-0.338,0.748-0.75,0.748L0.747,1.5z"/>
	<path d="M6.75,5.977c-0.031,0-0.062-0.002-0.093-0.006C6.459,5.948,6.282,5.847,6.158,5.69C6.035,5.532,5.981,5.335,6.005,5.136
		C6.107,4.3,6.007,3.441,5.716,2.651C5.646,2.463,5.654,2.259,5.738,2.077c0.084-0.182,0.234-0.32,0.422-0.39
		c0.084-0.031,0.171-0.046,0.259-0.046c0.313,0,0.596,0.197,0.704,0.49c0.374,1.013,0.502,2.115,0.371,3.187
		C7.448,5.694,7.128,5.977,6.75,5.977z"/>
	<path d="M6.749,12.05c-0.414,0-0.75-0.336-0.75-0.75V8.408c0-0.414,0.336-0.75,0.75-0.75s0.75,0.336,0.75,0.75V11.3
		C7.499,11.714,7.163,12.05,6.749,12.05z"/>
	<path d="M6.749,18.123c-0.414,0-0.75-0.336-0.75-0.75v-2.892c0-0.414,0.336-0.75,0.75-0.75s0.75,0.336,0.75,0.75v2.892
		C7.499,17.787,7.163,18.123,6.749,18.123z"/>
	<path d="M8.267,23.637c-0.127,0-0.253-0.033-0.365-0.095c-1.079-0.6-1.786-1.694-1.888-2.925c-0.017-0.199,0.045-0.394,0.175-0.547
		c0.129-0.153,0.311-0.247,0.51-0.263c0.023-0.001,0.041-0.002,0.058-0.002c0.396,0,0.719,0.295,0.752,0.687
		c0.061,0.732,0.481,1.382,1.123,1.74c0.175,0.097,0.302,0.257,0.357,0.449s0.032,0.395-0.066,0.57
		C8.79,23.489,8.539,23.637,8.267,23.637z"/>
	<path d="M11.373,23.87c-0.332,0-0.62-0.213-0.717-0.531c-0.121-0.396,0.102-0.816,0.498-0.937c0.706-0.216,1.267-0.763,1.499-1.463
		c0.102-0.307,0.388-0.514,0.711-0.514c0.08,0,0.16,0.013,0.236,0.038c0.393,0.131,0.606,0.556,0.476,0.949
		c-0.386,1.161-1.315,2.067-2.484,2.425C11.522,23.859,11.448,23.87,11.373,23.87z"/>
	<path d="M13.499,18.759c-0.414,0-0.75-0.336-0.75-0.75v-2.892c0-0.414,0.336-0.75,0.75-0.75s0.75,0.336,0.75,0.75v2.892
		C14.249,18.423,13.913,18.759,13.499,18.759z"/>
	<path d="M13.499,12.687c-0.414,0-0.75-0.336-0.75-0.75V9.044c0-0.414,0.336-0.75,0.75-0.75s0.75,0.336,0.75,0.75v2.892
		C14.249,12.35,13.913,12.687,13.499,12.687z"/>
	<path d="M13.499,6.613c-0.414,0-0.75-0.336-0.75-0.75V4.417c-0.034-0.497,0.003-1.053,0.107-1.583
		c0.069-0.351,0.378-0.605,0.735-0.605c0.048,0,0.097,0.005,0.146,0.014c0.196,0.038,0.365,0.151,0.477,0.318
		c0.112,0.166,0.152,0.366,0.113,0.563c-0.081,0.41-0.107,0.828-0.08,1.245l0.001,1.495C14.249,6.277,13.913,6.613,13.499,6.613z"/>
	<path d="M18.588,1.801c-0.113,0-0.227-0.026-0.329-0.076c-0.302-0.147-0.64-0.225-0.976-0.225c0,0-0.093,0.002-0.097,0.002
		c-0.017,0-0.035-0.001-0.052-0.002c-0.089-0.005-0.186-0.008-0.283-0.008c-0.32,0-0.639,0.032-0.95,0.095
		c-0.051,0.01-0.1,0.015-0.147,0.015c-0.357,0-0.667-0.253-0.737-0.601c-0.04-0.196-0.001-0.396,0.11-0.563
		c0.111-0.167,0.28-0.281,0.476-0.321c0.409-0.083,0.83-0.125,1.251-0.125c0.116,0,0.233,0.003,0.349,0.01l0.065-0.001
		c0.574,0,1.144,0.13,1.65,0.377c0.18,0.088,0.315,0.241,0.38,0.43C19.363,0.996,19.35,1.2,19.262,1.38
		C19.138,1.635,18.873,1.801,18.588,1.801z"/>
	<path d="M20.249,7.22c-0.413,0-0.749-0.336-0.75-0.748L19.493,3.58c0-0.2,0.077-0.389,0.219-0.531s0.33-0.22,0.53-0.221
		c0.414,0,0.751,0.336,0.752,0.748l0.006,2.892c0,0.2-0.077,0.389-0.219,0.531s-0.33,0.22-0.53,0.221
		C20.251,7.22,20.249,7.22,20.249,7.22z"/>
	<path d="M20.249,15.752c-0.052,0-0.106-0.006-0.16-0.018c-0.014-0.003-0.041-0.011-0.055-0.016
		c-0.027-0.008-0.063-0.02-0.098-0.036c-0.01-0.004-0.039-0.02-0.048-0.025c-0.031-0.017-0.059-0.034-0.084-0.054
		c-0.016-0.011-0.032-0.025-0.049-0.04c-0.019-0.016-0.038-0.035-0.057-0.056c-0.013-0.013-0.027-0.028-0.036-0.04l-2.999-3.748
		c-0.258-0.323-0.206-0.796,0.117-1.054c0.134-0.106,0.3-0.164,0.469-0.164c0.229,0,0.443,0.103,0.586,0.281l1.664,2.08V9.651
		c0-0.414,0.336-0.75,0.75-0.75s0.75,0.336,0.75,0.75v3.212l1.665-2.08c0.143-0.179,0.356-0.281,0.586-0.281
		c0.169,0,0.335,0.058,0.468,0.164c0.323,0.259,0.375,0.732,0.117,1.054l-3,3.75c-0.009,0.011-0.023,0.026-0.035,0.039
		c-0.018,0.02-0.037,0.038-0.056,0.055c-0.022,0.019-0.036,0.03-0.05,0.041c-0.025,0.018-0.052,0.035-0.081,0.051
		c-0.02,0.011-0.038,0.021-0.056,0.029c-0.029,0.013-0.065,0.026-0.103,0.037c-0.007,0.002-0.037,0.011-0.044,0.012
		C20.355,15.746,20.302,15.752,20.249,15.752z"/>
</g>
</svg>
