<?xml version="1.0" encoding="utf-8"?>
<!-- Generator: Adobe Illustrator 22.1.0, SVG Export Plug-In . SVG Version: 6.00 Build 0)  -->
<svg version="1.1" id="Regular" xmlns="http://www.w3.org/2000/svg" xmlns:xlink="http://www.w3.org/1999/xlink" x="0px" y="0px"
	 viewBox="0 0 24 24" style="enable-background:new 0 0 24 24;" xml:space="preserve">
<title>diagram-wave-both-direction</title>
<g>
	<path d="M20.25,8.25c-0.2,0-0.389-0.078-0.53-0.22C19.578,7.889,19.5,7.7,19.5,7.5s0.078-0.389,0.22-0.53l1.72-1.72h-3.724
		c-0.414,0-0.75-0.336-0.75-0.75s0.336-0.75,0.75-0.75h3.724l-1.72-1.72C19.578,1.889,19.5,1.7,19.5,1.5s0.078-0.389,0.22-0.53
		s0.33-0.22,0.53-0.22s0.389,0.078,0.53,0.22l3,3c0.07,0.07,0.125,0.152,0.163,0.245c0.003,0.008,0.007,0.017,0.01,0.026
		C23.984,4.322,24,4.411,24,4.5c0,0.087-0.016,0.174-0.047,0.258c-0.002,0.006-0.004,0.011-0.006,0.016
		c-0.042,0.104-0.098,0.186-0.168,0.257L20.78,8.03C20.639,8.172,20.45,8.25,20.25,8.25z"/>
	<path d="M11.433,5.25c-0.414,0-0.75-0.336-0.75-0.75s0.336-0.75,0.75-0.75h2.991c0.414,0,0.75,0.336,0.75,0.75
		s-0.336,0.75-0.75,0.75H11.433z"/>
	<path d="M6.801,8.463c-0.036,0-0.072-0.003-0.109-0.008C6.495,8.427,6.319,8.323,6.199,8.162s-0.17-0.358-0.141-0.556
		c0.172-1.191,0.828-2.281,1.8-2.99C7.987,4.521,8.14,4.471,8.3,4.471c0.239,0,0.466,0.115,0.606,0.308
		C9.024,4.94,9.072,5.139,9.041,5.337C9.01,5.535,8.904,5.709,8.742,5.827C8.094,6.3,7.657,7.026,7.542,7.82
		C7.49,8.187,7.171,8.463,6.801,8.463z"/>
	<path d="M10.322,12.742c-1.2-0.046-2.354-0.586-3.16-1.481C7.028,11.112,6.96,10.92,6.97,10.72c0.01-0.2,0.098-0.384,0.247-0.518
		c0.138-0.124,0.316-0.193,0.502-0.193c0.212,0,0.415,0.09,0.557,0.248c0.537,0.596,1.305,0.956,2.107,0.986
		c0.2,0.008,0.385,0.093,0.522,0.24c0.136,0.147,0.207,0.338,0.199,0.538c-0.016,0.405-0.345,0.721-0.749,0.721
		C10.349,12.743,10.328,12.742,10.322,12.742z"/>
	<path d="M16.281,13.991c-0.212,0-0.416-0.091-0.557-0.248c-0.537-0.596-1.305-0.956-2.107-0.986
		c-0.413-0.016-0.736-0.365-0.721-0.778c0.016-0.405,0.35-0.721,0.761-0.721c1.222,0.046,2.375,0.586,3.182,1.482
		c0.277,0.307,0.252,0.782-0.055,1.059C16.646,13.922,16.467,13.991,16.281,13.991z"/>
	<path d="M15.707,19.529c-0.239,0-0.465-0.115-0.606-0.308c-0.244-0.334-0.171-0.804,0.163-1.048c0.648-0.473,1.086-1.199,1.2-1.994
		c0.052-0.366,0.371-0.643,0.741-0.643c0.036,0,0.072,0.002,0.109,0.008c0.198,0.029,0.373,0.133,0.493,0.293
		c0.12,0.16,0.17,0.358,0.141,0.557c-0.172,1.19-0.828,2.28-1.8,2.99C16.02,19.479,15.867,19.529,15.707,19.529z"/>
	<path d="M9.576,20.25c-0.414,0-0.75-0.336-0.75-0.75s0.336-0.75,0.75-0.75h2.991c0.414,0,0.75,0.336,0.75,0.75
		s-0.336,0.75-0.75,0.75H9.576z"/>
	<path d="M3.75,23.25c-0.2,0-0.389-0.078-0.53-0.22l-3-3c-0.07-0.07-0.125-0.153-0.163-0.245c-0.003-0.007-0.006-0.016-0.009-0.024
		C0.017,19.68,0,19.591,0,19.5c0-0.089,0.016-0.176,0.048-0.261c0.004-0.011,0.008-0.022,0.012-0.032
		c0.035-0.085,0.09-0.167,0.16-0.238l3-3c0.142-0.142,0.33-0.22,0.53-0.22s0.389,0.078,0.53,0.22C4.422,16.111,4.5,16.3,4.5,16.5
		s-0.078,0.389-0.22,0.53l-1.72,1.72h3.724c0.414,0,0.75,0.336,0.75,0.75s-0.336,0.75-0.75,0.75H2.561l1.72,1.72
		C4.422,22.111,4.5,22.3,4.5,22.5s-0.078,0.389-0.22,0.53C4.139,23.172,3.95,23.25,3.75,23.25z"/>
</g>
</svg>
