<?xml version="1.0" encoding="utf-8"?>
<!-- Generator: Adobe Illustrator 22.1.0, SVG Export Plug-In . SVG Version: 6.00 Build 0)  -->
<svg version="1.1" id="Regular" xmlns="http://www.w3.org/2000/svg" xmlns:xlink="http://www.w3.org/1999/xlink" x="0px" y="0px"
	 viewBox="0 0 24 24" style="enable-background:new 0 0 24 24;" xml:space="preserve">
<title>diagram-arrow-up-1</title>
<g>
	<path d="M0.75,24C0.336,24,0,23.663,0,23.25s0.336-0.75,0.75-0.75h22.5c0.414,0,0.75,0.336,0.75,0.75S23.664,24,23.25,24H0.75z"/>
	<path d="M15,19.5c-0.414,0-0.75-0.336-0.75-0.75V7.505c0-0.414,0.336-0.75,0.75-0.75h2.092l-5.088-5.256L7.105,6.75H9
		c0.414,0,0.75,0.336,0.75,0.75v11.25c0,0.414-0.336,0.75-0.75,0.75H0.75C0.336,19.5,0,19.163,0,18.75S0.336,18,0.75,18h7.5V8.25
		H5.869c-0.643,0-0.878-0.426-0.935-0.556c-0.057-0.13-0.208-0.592,0.229-1.063l5.735-6.143c0.259-0.289,0.625-0.464,1.025-0.485
		C11.952,0.001,11.982,0,12.011,0c0.366,0,0.72,0.136,0.995,0.383c0.04,0.036,0.078,0.074,0.114,0.113l5.934,6.129
		c0.448,0.489,0.296,0.949,0.239,1.078c-0.057,0.129-0.292,0.551-0.934,0.551H15.75V18h7.5c0.414,0,0.75,0.336,0.75,0.75
		s-0.336,0.75-0.75,0.75H15z"/>
</g>
</svg>
