<?xml version="1.0" encoding="utf-8"?>
<!-- Generator: Adobe Illustrator 22.1.0, SVG Export Plug-In . SVG Version: 6.00 Build 0)  -->
<svg version="1.1" id="Regular" xmlns="http://www.w3.org/2000/svg" xmlns:xlink="http://www.w3.org/1999/xlink" x="0px" y="0px"
	 viewBox="0 0 24 24" style="enable-background:new 0 0 24 24;" xml:space="preserve">
<title>diagram-dash-circle</title>
<g>
	<path d="M0.759,14.758c-0.2,0-0.389-0.078-0.53-0.22c-0.292-0.292-0.292-0.768,0-1.061l3-3c0.137-0.137,0.33-0.215,0.53-0.215l0,0
		c0.2,0,0.393,0.078,0.53,0.215l3,3c0.292,0.292,0.292,0.768,0,1.061c-0.142,0.142-0.33,0.22-0.53,0.22s-0.389-0.078-0.53-0.22
		l-2.47-2.47l-2.47,2.47C1.147,14.68,0.959,14.758,0.759,14.758z"/>
	<path d="M18.643,4.572c-0.145,0-0.286-0.042-0.408-0.121c-0.798-0.517-1.669-0.901-2.589-1.14c-0.4-0.104-0.641-0.515-0.537-0.915
		c0.086-0.33,0.385-0.561,0.726-0.561c0.063,0,0.127,0.008,0.189,0.024c1.075,0.28,2.094,0.729,3.027,1.333
		c0.347,0.225,0.447,0.69,0.222,1.037C19.134,4.444,18.899,4.572,18.643,4.572z"/>
	<path d="M22.628,9.531c-0.315,0-0.598-0.199-0.706-0.495c-0.323-0.894-0.785-1.725-1.375-2.47
		c-0.256-0.324-0.201-0.797,0.123-1.053c0.131-0.104,0.297-0.162,0.465-0.162c0.23,0,0.445,0.104,0.588,0.284
		c0.691,0.873,1.232,1.846,1.61,2.892c0.14,0.389-0.062,0.82-0.451,0.96C22.8,9.516,22.714,9.531,22.628,9.531z"/>
	<path d="M22.832,15.884c-0.072,0-0.143-0.01-0.211-0.03c-0.396-0.115-0.625-0.532-0.51-0.929c0.267-0.918,0.398-1.869,0.389-2.826
		c-0.002-0.2,0.074-0.389,0.215-0.532c0.14-0.143,0.328-0.223,0.528-0.224c0.424,0,0.753,0.326,0.757,0.743
		c0.01,1.103-0.141,2.199-0.449,3.259C23.459,15.662,23.163,15.884,22.832,15.884z"/>
	<path d="M19.15,21.069c-0.241,0-0.469-0.117-0.61-0.313c-0.241-0.336-0.163-0.806,0.173-1.046c0.772-0.553,1.444-1.225,1.997-1.997
		c0.141-0.196,0.369-0.313,0.61-0.313c0.157,0,0.308,0.049,0.436,0.14c0.163,0.117,0.271,0.29,0.303,0.487s-0.013,0.396-0.13,0.559
		c-0.649,0.906-1.438,1.695-2.344,2.343C19.458,21.021,19.307,21.069,19.15,21.069z"/>
	<path d="M13.087,23c-0.201-0.002-0.389-0.082-0.529-0.225c-0.14-0.143-0.217-0.332-0.215-0.532c0.004-0.41,0.34-0.743,0.749-0.743
		l0.111,0c0.918,0,1.834-0.131,2.723-0.39c0.068-0.02,0.139-0.03,0.21-0.03c0.331,0,0.627,0.222,0.72,0.541
		c0.056,0.192,0.034,0.395-0.063,0.571s-0.256,0.303-0.448,0.359c-1.025,0.298-2.086,0.449-3.154,0.449L13.087,23z"/>
	<path d="M9.778,22.377c-0.088,0-0.174-0.015-0.256-0.045c-1.044-0.378-2.015-0.919-2.886-1.608
		c-0.324-0.257-0.379-0.73-0.123-1.054c0.143-0.181,0.357-0.285,0.588-0.285c0.168,0,0.333,0.057,0.465,0.162
		c0.745,0.589,1.575,1.052,2.467,1.375c0.389,0.141,0.591,0.572,0.45,0.96C10.376,22.178,10.092,22.377,9.778,22.377z"/>
	<path d="M4.823,18.393c-0.255,0-0.491-0.128-0.63-0.342C3.588,17.118,3.14,16.1,2.86,15.024c-0.05-0.194-0.022-0.396,0.079-0.569
		c0.101-0.173,0.264-0.296,0.458-0.346c0.062-0.016,0.125-0.024,0.189-0.024c0.341,0,0.639,0.231,0.725,0.561
		c0.239,0.92,0.623,1.791,1.141,2.589c0.225,0.347,0.126,0.812-0.221,1.037C5.108,18.352,4.968,18.393,4.823,18.393z"/>
</g>
</svg>
