<?xml version="1.0" encoding="utf-8"?>
<!-- Generator: Adobe Illustrator 22.1.0, SVG Export Plug-In . SVG Version: 6.00 Build 0)  -->
<svg version="1.1" id="Regular" xmlns="http://www.w3.org/2000/svg" xmlns:xlink="http://www.w3.org/1999/xlink" x="0px" y="0px"
	 viewBox="0 0 24 24" style="enable-background:new 0 0 24 24;" xml:space="preserve">
<title>diagram-dash-up-steady</title>
<g>
	<path d="M0.75,24C0.336,24,0,23.664,0,23.25s0.336-0.75,0.75-0.75h3.087c0.414,0,0.75,0.336,0.75,0.75S4.251,24,3.837,24H0.75z"/>
	<path d="M6.874,22.731c-0.188,0-0.367-0.07-0.505-0.196c-0.305-0.279-0.327-0.754-0.049-1.059c0.573-0.628,0.871-1.442,0.839-2.291
		c-0.016-0.413,0.308-0.762,0.721-0.778c0.005,0,0.025,0,0.029,0c0.404,0,0.733,0.317,0.748,0.722
		c0.047,1.245-0.39,2.438-1.229,3.359C7.286,22.642,7.084,22.731,6.874,22.731z"/>
	<path d="M7.908,16.51c-0.414,0-0.75-0.336-0.75-0.75v-3.087c0-0.414,0.336-0.75,0.75-0.75s0.75,0.336,0.75,0.75v3.087
		C8.658,16.174,8.322,16.51,7.908,16.51z"/>
	<path d="M7.907,10.026c-0.392,0-0.713-0.295-0.747-0.685C7.064,8.227,7.157,7.114,7.437,6.032C7.523,5.701,7.821,5.47,8.163,5.47
		c0.063,0,0.127,0.008,0.188,0.024c0.4,0.104,0.641,0.514,0.538,0.914c-0.237,0.917-0.316,1.86-0.234,2.803
		c0.036,0.412-0.27,0.776-0.682,0.812C7.952,10.025,7.93,10.026,7.907,10.026z"/>
	<path d="M10.508,4.736c-0.349,0-0.65-0.238-0.73-0.578c-0.095-0.403,0.156-0.807,0.558-0.902c0.797-0.188,1.617-0.283,2.435-0.283
		c0.285,0,0.574,0.012,0.858,0.035c0.412,0.033,0.72,0.396,0.687,0.808c-0.031,0.387-0.358,0.69-0.745,0.69c0,0,0,0,0,0
		c-0.022,0-0.044-0.001-0.066-0.003c-0.242-0.02-0.49-0.03-0.735-0.03c-0.703,0-1.406,0.082-2.091,0.243
		C10.624,4.729,10.566,4.736,10.508,4.736z"/>
	<path d="M20.25,7.5c-0.2,0-0.389-0.078-0.53-0.22c-0.142-0.141-0.22-0.33-0.22-0.53s0.078-0.389,0.22-0.53l1.72-1.72H18
		c-0.414,0-0.75-0.336-0.75-0.75S17.586,3,18,3h3.439l-1.72-1.72c-0.142-0.141-0.22-0.33-0.22-0.53s0.078-0.389,0.22-0.53
		S20.05,0,20.25,0s0.389,0.078,0.53,0.22l3,3c0.07,0.07,0.125,0.152,0.163,0.245c0.003,0.008,0.007,0.017,0.01,0.026
		C23.983,3.572,24,3.66,24,3.75c0,0.087-0.016,0.174-0.047,0.258c-0.002,0.006-0.004,0.011-0.006,0.016
		c-0.042,0.104-0.098,0.186-0.168,0.257L20.78,7.28C20.639,7.422,20.45,7.5,20.25,7.5z"/>
</g>
</svg>
