<?xml version="1.0" encoding="utf-8"?>
<!-- Generator: Adobe Illustrator 22.1.0, SVG Export Plug-In . SVG Version: 6.00 Build 0)  -->
<svg version="1.1" id="Regular" xmlns="http://www.w3.org/2000/svg" xmlns:xlink="http://www.w3.org/1999/xlink" x="0px" y="0px"
	 viewBox="0 0 24 24" style="enable-background:new 0 0 24 24;" xml:space="preserve">
<title>diagram-wave-down</title>
<g>
	<path d="M10.124,24c-2.275,0-4.125-1.851-4.125-4.125V3.75c0-1.241-1.009-2.25-2.25-2.25h-3c-0.414,0-0.75-0.336-0.75-0.75
		S0.336,0,0.749,0h3c2.068,0,3.75,1.682,3.75,3.75v16.125c0,1.448,1.178,2.625,2.625,2.625s2.625-1.177,2.625-2.625V4.125
		C12.749,1.85,14.6,0,16.874,0s4.125,1.85,4.125,4.125v8.737l1.665-2.08c0.143-0.179,0.356-0.281,0.586-0.281
		c0.169,0,0.335,0.058,0.468,0.164c0.323,0.259,0.375,0.732,0.117,1.054l-3,3.75c-0.009,0.011-0.023,0.026-0.035,0.039
		c-0.018,0.02-0.037,0.038-0.056,0.055c-0.022,0.019-0.036,0.03-0.05,0.04c-0.025,0.019-0.052,0.036-0.081,0.052
		c-0.02,0.011-0.038,0.021-0.056,0.029c-0.029,0.013-0.065,0.026-0.103,0.037c-0.007,0.002-0.037,0.011-0.044,0.012
		c-0.054,0.012-0.108,0.018-0.16,0.018s-0.106-0.006-0.16-0.018c-0.014-0.003-0.041-0.011-0.055-0.016
		c-0.027-0.008-0.063-0.02-0.098-0.036c-0.01-0.004-0.039-0.02-0.048-0.025c-0.031-0.017-0.059-0.034-0.084-0.054
		c-0.016-0.012-0.032-0.025-0.049-0.04c-0.019-0.016-0.038-0.035-0.057-0.056c-0.013-0.013-0.027-0.028-0.036-0.04l-2.998-3.748
		c-0.258-0.323-0.206-0.796,0.117-1.054c0.133-0.106,0.3-0.164,0.469-0.164c0.229,0,0.443,0.103,0.586,0.282l1.664,2.08V4.125
		c0-1.447-1.177-2.625-2.625-2.625s-2.625,1.178-2.625,2.625v15.75C14.249,22.149,12.399,24,10.124,24z"/>
</g>
</svg>
