<?xml version="1.0" encoding="utf-8"?>
<!-- Generator: Adobe Illustrator 22.1.0, SVG Export Plug-In . SVG Version: 6.00 Build 0)  -->
<svg version="1.1" id="Regular" xmlns="http://www.w3.org/2000/svg" xmlns:xlink="http://www.w3.org/1999/xlink" x="0px" y="0px"
	 viewBox="0 0 24 24" style="enable-background:new 0 0 24 24;" xml:space="preserve">
<title>diagram-arrow-corner-point-right</title>
<g>
	<path d="M2.249,24c-1.241,0-2.25-1.009-2.25-2.25V6c0-1.241,1.009-2.25,2.25-2.25h13.5V1.011c0-0.645,0.425-0.881,0.556-0.938
		C16.381,0.04,16.505,0,16.659,0c0.175,0,0.441,0.052,0.711,0.302l6.119,6.068c0.009,0.007,0.018,0.015,0.027,0.023
		c0.03,0.028,0.056,0.054,0.081,0.081c0.274,0.295,0.416,0.678,0.401,1.079c-0.015,0.401-0.185,0.772-0.479,1.044l-6.13,6.082
		c-0.285,0.266-0.555,0.32-0.732,0.32l0,0c-0.152,0-0.274-0.039-0.35-0.072c-0.131-0.057-0.558-0.293-0.558-0.938V11.25h-8.25
		c-0.414,0-0.75,0.336-0.75,0.75v9.75c0,1.241-1.009,2.25-2.25,2.25H2.249z M2.249,5.25c-0.414,0-0.75,0.336-0.75,0.75v15.75
		c0,0.414,0.336,0.75,0.75,0.75h2.25c0.414,0,0.75-0.336,0.75-0.75V12c0-1.241,1.009-2.25,2.25-2.25h9c0.414,0,0.75,0.336,0.75,0.75
		v2.206l5.233-5.191c0,0,0.01-0.011,0.014-0.017c-0.004-0.004-5.247-5.203-5.247-5.203V4.5c0,0.414-0.336,0.75-0.75,0.75H2.249z"/>
</g>
</svg>
