<?xml version="1.0" encoding="utf-8"?>
<!-- Generator: Adobe Illustrator 22.1.0, SVG Export Plug-In . SVG Version: 6.00 Build 0)  -->
<svg version="1.1" id="Regular" xmlns="http://www.w3.org/2000/svg" xmlns:xlink="http://www.w3.org/1999/xlink" x="0px" y="0px"
	 viewBox="0 0 24 24" style="enable-background:new 0 0 24 24;" xml:space="preserve">
<title>diagram-fall-fast-dash</title>
<g>
	<path d="M20.249,24c-0.052,0-0.106-0.006-0.16-0.018c-0.014-0.003-0.041-0.011-0.055-0.016c-0.027-0.008-0.063-0.02-0.098-0.036
		c-0.01-0.004-0.039-0.02-0.048-0.025c-0.031-0.017-0.059-0.034-0.084-0.054c-0.016-0.012-0.032-0.025-0.049-0.04
		c-0.019-0.016-0.038-0.035-0.057-0.056c-0.013-0.013-0.027-0.028-0.036-0.04l-2.998-3.748c-0.258-0.323-0.206-0.796,0.117-1.054
		c0.133-0.106,0.3-0.165,0.469-0.165c0.229,0,0.442,0.103,0.585,0.281l1.665,2.081V17.52c0-0.414,0.336-0.75,0.75-0.75
		s0.75,0.336,0.75,0.75v3.592l1.665-2.081c0.143-0.179,0.356-0.281,0.585-0.281c0.17,0,0.336,0.058,0.469,0.165
		c0.323,0.258,0.375,0.731,0.117,1.054l-3,3.75c-0.009,0.011-0.023,0.026-0.035,0.039c-0.018,0.02-0.037,0.038-0.056,0.055
		c-0.022,0.019-0.036,0.03-0.05,0.04c-0.025,0.019-0.052,0.036-0.081,0.052c-0.02,0.011-0.038,0.021-0.056,0.029
		c-0.029,0.013-0.065,0.026-0.103,0.037c-0.007,0.002-0.037,0.011-0.044,0.012C20.355,23.994,20.302,24,20.249,24z"/>
	<path d="M20.232,14.863c-0.386,0-0.714-0.301-0.747-0.686c-0.073-0.85-0.472-1.624-1.122-2.177
		c-0.153-0.13-0.246-0.311-0.262-0.511c-0.016-0.2,0.046-0.394,0.176-0.546c0.143-0.168,0.351-0.264,0.572-0.264
		c0.178,0,0.35,0.063,0.486,0.179c0.953,0.811,1.537,1.944,1.644,3.191c0.017,0.2-0.044,0.394-0.173,0.548s-0.31,0.247-0.51,0.264
		C20.275,14.862,20.253,14.863,20.232,14.863z"/>
	<path d="M12.567,11.25c-0.414,0-0.75-0.336-0.75-0.75s0.336-0.75,0.75-0.75h3.097c0.414,0,0.75,0.336,0.75,0.75
		s-0.336,0.75-0.75,0.75H12.567z"/>
	<path d="M6.062,11.25c-0.414,0-0.75-0.336-0.75-0.75s0.336-0.75,0.75-0.75h3.097c0.414,0,0.75,0.336,0.75,0.75
		s-0.336,0.75-0.75,0.75H6.062z"/>
	<path d="M2.74,10.75c-0.127,0-0.253-0.033-0.365-0.095c-1.083-0.603-1.891-1.636-2.214-2.834C0.054,7.422,0.291,7.01,0.69,6.902
		c0.064-0.017,0.13-0.026,0.196-0.026c0.338,0,0.636,0.228,0.724,0.554c0.218,0.809,0.764,1.507,1.496,1.914
		c0.175,0.097,0.302,0.257,0.357,0.45c0.055,0.193,0.031,0.395-0.066,0.57C3.263,10.602,3.012,10.75,2.74,10.75z"/>
	<path d="M0.749,4.98c-0.414,0-0.75-0.336-0.75-0.75V0.75c0-0.414,0.336-0.75,0.75-0.75s0.75,0.336,0.75,0.75v3.48
		C1.499,4.644,1.163,4.98,0.749,4.98z"/>
</g>
</svg>
