<?xml version="1.0" encoding="utf-8"?>
<!-- Generator: Adobe Illustrator 22.1.0, SVG Export Plug-In . SVG Version: 6.00 Build 0)  -->
<svg version="1.1" id="Regular" xmlns="http://www.w3.org/2000/svg" xmlns:xlink="http://www.w3.org/1999/xlink" x="0px" y="0px"
	 viewBox="0 0 24 24" style="enable-background:new 0 0 24 24;" xml:space="preserve">
<title>diagram-curve-rise-dash</title>
<g>
	<path d="M20.249,16.363c-0.414,0-0.75-0.336-0.75-0.75v-3.545l-1.72,1.72c-0.142,0.142-0.33,0.22-0.53,0.22s-0.389-0.078-0.53-0.22
		c-0.292-0.292-0.292-0.768,0-1.061l3-3c0.141-0.142,0.33-0.22,0.531-0.22s0.389,0.078,0.531,0.22l3,3
		c0.292,0.292,0.292,0.768,0,1.061c-0.142,0.142-0.33,0.22-0.53,0.22s-0.389-0.078-0.53-0.22l-1.72-1.72v3.545
		C20.999,16.027,20.663,16.363,20.249,16.363z"/>
	<path d="M0.748,13.257c-0.415-0.001-0.75-0.339-0.749-0.753l0.008-2.25c0.011-0.362,0.063-0.708,0.155-1.041
		c0.089-0.324,0.386-0.551,0.722-0.551c0.068,0,0.135,0.009,0.201,0.028c0.192,0.053,0.353,0.178,0.452,0.352
		c0.099,0.174,0.124,0.377,0.071,0.57c-0.06,0.218-0.094,0.443-0.101,0.668L1.499,12.51c-0.001,0.412-0.338,0.747-0.75,0.747H0.748z
		"/>
	<path d="M2.8,7.728c-0.289,0-0.555-0.168-0.678-0.429C2.036,7.118,2.026,6.914,2.093,6.726C2.161,6.537,2.298,6.386,2.479,6.3
		c0.795-0.376,1.68-0.575,2.559-0.575c0.22,0,0.443,0.012,0.662,0.037c0.199,0.022,0.378,0.12,0.503,0.277
		c0.125,0.156,0.182,0.352,0.16,0.551C6.32,6.97,5.999,7.257,5.616,7.257l0,0c-0.027,0-0.054-0.001-0.082-0.004
		C5.369,7.234,5.202,7.225,5.037,7.225c-0.658,0-1.321,0.149-1.917,0.431C3.019,7.704,2.911,7.728,2.8,7.728z"/>
	<path d="M10.359,10.137c-0.339,0-0.636-0.229-0.724-0.556C9.43,8.819,8.95,8.165,8.284,7.741c-0.349-0.222-0.452-0.687-0.23-1.036
		c0.139-0.218,0.375-0.347,0.633-0.347c0.142,0,0.282,0.041,0.402,0.117c0.984,0.626,1.692,1.591,1.995,2.717
		c0.107,0.399-0.13,0.812-0.53,0.919C10.491,10.128,10.425,10.137,10.359,10.137z"/>
	<path d="M10.499,16.204c-0.414,0-0.75-0.336-0.75-0.75v-2.895c0-0.414,0.336-0.75,0.75-0.75s0.75,0.336,0.75,0.75v2.895
		C11.249,15.868,10.913,16.204,10.499,16.204z"/>
	<path d="M13.724,20.688c-0.046,0-0.092-0.004-0.139-0.013c-1.141-0.217-2.158-0.841-2.867-1.759
		c-0.122-0.158-0.176-0.355-0.15-0.554s0.127-0.376,0.286-0.498c0.13-0.101,0.293-0.156,0.458-0.156
		c0.234,0,0.451,0.106,0.594,0.292c0.484,0.627,1.18,1.053,1.959,1.201c0.406,0.077,0.674,0.47,0.597,0.877
		C14.393,20.431,14.083,20.688,13.724,20.688z"/>
	<path d="M16.899,20.721c-0.378,0-0.698-0.283-0.744-0.658c-0.025-0.198,0.029-0.395,0.153-0.553c0.123-0.158,0.301-0.259,0.5-0.283
		c0.782-0.097,1.485-0.487,1.98-1.099c0.143-0.177,0.356-0.278,0.583-0.278c0.171,0,0.338,0.059,0.472,0.167
		c0.322,0.261,0.372,0.734,0.111,1.055c-0.741,0.915-1.793,1.498-2.962,1.643C16.961,20.719,16.93,20.721,16.899,20.721z"/>
</g>
</svg>
