<?xml version="1.0" encoding="utf-8"?>
<!-- Generator: Adobe Illustrator 22.1.0, SVG Export Plug-In . SVG Version: 6.00 Build 0)  -->
<svg version="1.1" id="Regular" xmlns="http://www.w3.org/2000/svg" xmlns:xlink="http://www.w3.org/1999/xlink" x="0px" y="0px"
	 viewBox="0 0 24 24" style="enable-background:new 0 0 24 24;" xml:space="preserve">
<title>diagram-lower-steady</title>
<g>
	<path d="M3.685,24C1.653,24,0,22.347,0,20.315V0.75C0,0.336,0.336,0,0.75,0S1.5,0.336,1.5,0.75v19.565
		c0,1.205,0.98,2.185,2.185,2.185H6c1.222,0,2.227-0.987,2.25-2.199l0-6.834c0.035-2.04,1.715-3.704,3.745-3.717h9.425l-1.704-1.723
		c-0.141-0.142-0.218-0.331-0.217-0.531c0.001-0.2,0.08-0.388,0.223-0.529c0.141-0.14,0.328-0.217,0.527-0.217
		c0.202,0,0.392,0.079,0.534,0.223l2.856,2.888C23.861,9.996,24,10.239,24,10.5c0,0.005,0,0.03,0,0.035
		c-0.001,0.202-0.08,0.39-0.223,0.531l-3,2.967c-0.141,0.14-0.328,0.217-0.527,0.217c-0.202,0-0.392-0.079-0.533-0.223
		c-0.141-0.142-0.218-0.331-0.217-0.531s0.08-0.388,0.223-0.529l1.736-1.717H12c-1.219,0.008-2.229,1.008-2.25,2.23v6.835
		C9.712,22.35,8.034,24,6.009,24H3.685z"/>
</g>
</svg>
