<?xml version="1.0" encoding="utf-8"?>
<!-- Generator: Adobe Illustrator 22.1.0, SVG Export Plug-In . SVG Version: 6.00 Build 0)  -->
<svg version="1.1" id="Regular" xmlns="http://www.w3.org/2000/svg" xmlns:xlink="http://www.w3.org/1999/xlink" x="0px" y="0px"
	 viewBox="0 0 24 24" style="enable-background:new 0 0 24 24;" xml:space="preserve">
<title>diagram-dash-rise-steady</title>
<g>
	<path d="M0.75,19.486c-0.414,0-0.75-0.336-0.75-0.75s0.336-0.75,0.75-0.75h3.08c0.414,0,0.75,0.336,0.75,0.75
		s-0.336,0.75-0.75,0.75H0.75z"/>
	<path d="M7.436,19.515c-0.179,0-0.359-0.012-0.536-0.036c-0.409-0.055-0.698-0.433-0.643-0.843c0.05-0.371,0.369-0.651,0.741-0.651
		c0.034,0,0.069,0.002,0.104,0.007c0.108,0.014,0.22,0.022,0.331,0.022c0.636,0,1.241-0.241,1.705-0.677
		c0.141-0.132,0.323-0.204,0.515-0.204c0.206,0,0.405,0.086,0.546,0.236c0.283,0.301,0.269,0.776-0.032,1.06
		C9.423,19.129,8.453,19.515,7.436,19.515z"/>
	<path d="M10.5,15.688c-0.414,0-0.75-0.336-0.75-0.75v-2.881c0-0.414,0.336-0.75,0.75-0.75s0.75,0.336,0.75,0.75v2.881
		C11.25,15.351,10.914,15.688,10.5,15.688z"/>
	<path d="M11.947,10.159c-0.291,0-0.558-0.171-0.681-0.434c-0.174-0.375-0.01-0.822,0.365-0.996c0.771-0.357,1.59-0.539,2.436-0.539
		c0.26,0,0.522,0.018,0.78,0.053c0.198,0.027,0.375,0.129,0.496,0.289s0.173,0.356,0.146,0.555c-0.05,0.37-0.369,0.65-0.742,0.65
		l0,0c-0.034,0-0.069-0.002-0.104-0.007c-0.189-0.026-0.384-0.039-0.576-0.039c-0.628,0-1.235,0.134-1.806,0.399
		C12.163,10.135,12.057,10.159,11.947,10.159z"/>
	<path d="M20.25,12.736c-0.2,0-0.389-0.078-0.53-0.22c-0.142-0.141-0.22-0.33-0.22-0.53s0.078-0.389,0.22-0.53l1.72-1.72h-3.52
		c-0.414,0-0.75-0.336-0.75-0.75s0.336-0.75,0.75-0.75h3.52l-1.72-1.72c-0.142-0.141-0.22-0.33-0.22-0.53s0.078-0.389,0.22-0.53
		s0.33-0.22,0.53-0.22s0.389,0.078,0.53,0.22l3,3c0.07,0.07,0.125,0.152,0.163,0.245c0.004,0.009,0.007,0.018,0.01,0.028
		C23.985,8.814,24,8.899,24,8.986c0,0.088-0.016,0.174-0.047,0.259c-0.002,0.005-0.003,0.01-0.005,0.015
		c-0.043,0.104-0.098,0.187-0.168,0.257l-2.999,2.999C20.639,12.658,20.45,12.736,20.25,12.736z"/>
</g>
</svg>
