<?xml version="1.0" encoding="utf-8"?>
<!-- Generator: Adobe Illustrator 22.1.0, SVG Export Plug-In . SVG Version: 6.00 Build 0)  -->
<svg version="1.1" id="Regular" xmlns="http://www.w3.org/2000/svg" xmlns:xlink="http://www.w3.org/1999/xlink" x="0px" y="0px"
	 viewBox="0 0 24 24" style="enable-background:new 0 0 24 24;" xml:space="preserve">
<title>diagram-fall-down</title>
<g>
	<path d="M12,24c-0.088,0-0.175-0.016-0.26-0.047c-0.008-0.003-0.015-0.005-0.022-0.008c-0.096-0.039-0.179-0.094-0.249-0.165
		L8.47,20.78c-0.142-0.142-0.22-0.33-0.22-0.53s0.078-0.389,0.22-0.53C8.611,19.578,8.8,19.5,9,19.5s0.389,0.078,0.53,0.22
		l1.72,1.72V9h-9C1.009,9,0,7.991,0,6.75v-6C0,0.336,0.336,0,0.75,0S1.5,0.336,1.5,0.75v6c0,0.414,0.336,0.75,0.75,0.75h19.5
		c0.414,0,0.75-0.336,0.75-0.75v-6C22.5,0.336,22.836,0,23.25,0S24,0.336,24,0.75v6C24,7.991,22.991,9,21.75,9h-9v12.439l1.72-1.72
		c0.142-0.142,0.33-0.22,0.53-0.22s0.389,0.078,0.53,0.22s0.22,0.33,0.22,0.53s-0.078,0.389-0.22,0.53l-3,3
		c-0.07,0.07-0.153,0.125-0.246,0.164c-0.008,0.003-0.018,0.007-0.027,0.01C12.172,23.985,12.086,24,12,24z"/>
</g>
</svg>
