<?xml version="1.0" encoding="utf-8"?>
<!-- Generator: Adobe Illustrator 22.1.0, SVG Export Plug-In . SVG Version: 6.00 Build 0)  -->
<svg version="1.1" id="Regular" xmlns="http://www.w3.org/2000/svg" xmlns:xlink="http://www.w3.org/1999/xlink" x="0px" y="0px"
	 viewBox="0 0 24 24" style="enable-background:new 0 0 24 24;" xml:space="preserve">
<title>diagram-zig-zag-fall</title>
<g>
	<path d="M11.25,24c-0.088,0-0.175-0.016-0.26-0.047c-0.008-0.003-0.015-0.005-0.022-0.008c-0.096-0.039-0.179-0.094-0.249-0.165
		L7.72,20.78c-0.142-0.142-0.22-0.33-0.22-0.53s0.078-0.389,0.22-0.53c0.142-0.142,0.33-0.22,0.53-0.22s0.389,0.078,0.53,0.22
		l1.72,1.72V15H6.75c-0.33,0-0.618-0.212-0.716-0.527c-0.098-0.314,0.018-0.652,0.289-0.84l7.776-5.384H11.25
		c-0.414,0-0.75-0.336-0.75-0.75V0.75C10.5,0.336,10.836,0,11.25,0S12,0.336,12,0.75v6h4.5c0.33,0,0.618,0.212,0.716,0.527
		c0.098,0.315-0.018,0.653-0.289,0.84L9.151,13.5h2.099c0.414,0,0.75,0.336,0.75,0.75v7.189l1.72-1.72
		c0.142-0.142,0.33-0.22,0.53-0.22s0.389,0.078,0.53,0.22S15,20.05,15,20.25s-0.078,0.389-0.22,0.53l-3,3
		c-0.07,0.07-0.153,0.125-0.246,0.164c-0.008,0.003-0.017,0.007-0.027,0.01C11.422,23.985,11.336,24,11.25,24z"/>
</g>
</svg>
