<?xml version="1.0" encoding="utf-8"?>
<!-- Generator: Adobe Illustrator 22.1.0, SVG Export Plug-In . SVG Version: 6.00 Build 0)  -->
<svg version="1.1" id="Regular" xmlns="http://www.w3.org/2000/svg" xmlns:xlink="http://www.w3.org/1999/xlink" x="0px" y="0px"
	 viewBox="0 0 24 24" style="enable-background:new 0 0 24 24;" xml:space="preserve">
<title>diagram-curve-up-1</title>
<g>
	<path d="M0.75,24C0.336,24,0,23.664,0,23.25s0.336-0.75,0.75-0.75h6c1.665-0.011,3.013-1.378,3.002-3.047
		c0-0.03-0.001-0.059-0.002-0.089l0-11.764c0.094-2.543,2.22-4.601,4.74-4.601L14.591,3l6.848,0l-1.72-1.72
		c-0.142-0.141-0.22-0.33-0.22-0.53s0.078-0.389,0.22-0.53S20.05,0,20.25,0s0.389,0.078,0.53,0.22l3,3
		c0.07,0.07,0.125,0.152,0.163,0.245c0.003,0.008,0.007,0.017,0.01,0.026C23.984,3.572,24,3.661,24,3.75
		c0,0.087-0.016,0.174-0.047,0.258c-0.002,0.006-0.004,0.011-0.006,0.016c-0.042,0.104-0.098,0.186-0.168,0.257L20.78,7.28
		c-0.142,0.142-0.33,0.22-0.53,0.22s-0.389-0.078-0.53-0.22c-0.142-0.141-0.22-0.33-0.22-0.53s0.078-0.389,0.22-0.53l1.72-1.72
		l-6.931-0.001c-1.732,0-3.194,1.403-3.259,3.129l0,11.709c0.001,0.015,0.002,0.061,0.002,0.107c0.016,2.496-2.001,4.54-4.497,4.556
		c-0.001,0-0.002,0-0.002,0H0.75z"/>
</g>
</svg>
