<?xml version="1.0" encoding="utf-8"?>
<!-- Generator: Adobe Illustrator 22.1.0, SVG Export Plug-In . SVG Version: 6.00 Build 0)  -->
<svg version="1.1" id="Regular" xmlns="http://www.w3.org/2000/svg" xmlns:xlink="http://www.w3.org/1999/xlink" x="0px" y="0px"
	 viewBox="0 0 24 24" style="enable-background:new 0 0 24 24;" xml:space="preserve">
<title>diagram-arrow-down-right-corner</title>
<g>
	<path d="M14.364,24.001c-0.632,0-0.875-0.417-0.935-0.545c-0.059-0.128-0.222-0.583,0.187-1.067l1.745-2.071L0.359,5.378
		C-0.114,4.916-0.122,4.15,0.343,3.672c0.024-0.025,0.05-0.049,0.077-0.072l3.693-3.282c0.235-0.205,0.532-0.318,0.841-0.318
		c0.344,0,0.665,0.135,0.905,0.38c0.003,0.003,14.47,14.937,14.47,14.937l2.019-1.7c0.209-0.176,0.446-0.268,0.684-0.268
		c0.168,0,0.301,0.045,0.383,0.083c0.128,0.06,0.545,0.302,0.547,0.933l0.037,8.388c0.001,0.685-0.554,1.244-1.238,1.248
		c0,0-0.001,0-0.002,0H14.364z M22.498,22.501l-0.031-7.023l-1.707,1.438c-0.135,0.114-0.307,0.176-0.483,0.176
		c-0.202,0-0.398-0.083-0.539-0.228L4.941,1.589l-3.308,2.94l15.276,15.213c0.274,0.272,0.294,0.718,0.044,1.014l-1.469,1.744
		H22.498z"/>
</g>
</svg>
