<?xml version="1.0" encoding="utf-8"?>
<!-- Generator: Adobe Illustrator 22.1.0, SVG Export Plug-In . SVG Version: 6.00 Build 0)  -->
<svg version="1.1" id="Regular" xmlns="http://www.w3.org/2000/svg" xmlns:xlink="http://www.w3.org/1999/xlink" x="0px" y="0px"
	 viewBox="0 0 24 24" style="enable-background:new 0 0 24 24;" xml:space="preserve">
<title>diagram-steady-rise</title>
<g>
	<path d="M0.75,18.5C0.336,18.5,0,18.164,0,17.75S0.336,17,0.75,17H7.6c1.188-0.003,2.153-0.973,2.15-2.162l0-3.903
		c0.019-2.033,1.684-3.685,3.712-3.685h7.978l-1.72-1.72C19.578,5.389,19.5,5.2,19.5,5s0.078-0.389,0.22-0.53s0.33-0.22,0.53-0.22
		s0.389,0.078,0.53,0.22l3,3c0.07,0.07,0.125,0.152,0.163,0.245c0.003,0.008,0.007,0.017,0.01,0.026C23.984,7.822,24,7.911,24,8
		c0,0.087-0.016,0.174-0.047,0.258c-0.002,0.006-0.004,0.011-0.006,0.016c-0.042,0.104-0.098,0.186-0.168,0.257L20.78,11.53
		c-0.142,0.142-0.33,0.22-0.53,0.22s-0.389-0.078-0.53-0.22C19.578,11.389,19.5,11.2,19.5,11s0.078-0.389,0.22-0.53l1.72-1.72
		h-7.972c-1.213,0-2.206,0.983-2.217,2.192v3.873c0.005,2.027-1.632,3.68-3.648,3.685C7.601,18.5,0.75,18.5,0.75,18.5z"/>
</g>
</svg>
