<?xml version="1.0" encoding="utf-8"?>
<!-- Generator: Adobe Illustrator 22.1.0, SVG Export Plug-In . SVG Version: 6.00 Build 0)  -->
<svg version="1.1" id="Regular" xmlns="http://www.w3.org/2000/svg" xmlns:xlink="http://www.w3.org/1999/xlink" x="0px" y="0px"
	 viewBox="0 0 24 24" style="enable-background:new 0 0 24 24;" xml:space="preserve">
<title>diagram-curvy</title>
<g>
	<path d="M6.75,24C3.028,24,0,20.972,0,17.25c0-0.414,0.336-0.75,0.75-0.75s0.75,0.336,0.75,0.75c0,2.895,2.355,5.25,5.25,5.25
		S12,20.145,12,17.25v-7.5c0-2.895,2.355-5.25,5.25-5.25h4.189l-1.72-1.72c-0.142-0.141-0.22-0.33-0.22-0.53s0.078-0.389,0.22-0.53
		s0.33-0.22,0.53-0.22s0.389,0.078,0.53,0.22l3,3c0.07,0.07,0.125,0.152,0.163,0.245c0.003,0.008,0.007,0.017,0.01,0.026
		C23.984,5.072,24,5.161,24,5.25c0,0.087-0.016,0.174-0.047,0.258c-0.002,0.006-0.004,0.011-0.006,0.016
		c-0.042,0.104-0.098,0.186-0.168,0.257L20.78,8.78C20.639,8.922,20.45,9,20.25,9s-0.389-0.078-0.53-0.22
		c-0.142-0.141-0.22-0.33-0.22-0.53s0.078-0.389,0.22-0.53L21.439,6H17.25c-2.068,0-3.75,1.682-3.75,3.75v7.5
		C13.5,20.972,10.472,24,6.75,24z"/>
	<path d="M0.75,15C0.336,15,0,14.664,0,14.25v-3c0-0.414,0.336-0.75,0.75-0.75s0.75,0.336,0.75,0.75v3C1.5,14.664,1.164,15,0.75,15z
		"/>
	<path d="M0.75,9C0.336,9,0,8.664,0,8.25v-3C0,4.836,0.336,4.5,0.75,4.5S1.5,4.836,1.5,5.25v3C1.5,8.664,1.164,9,0.75,9z"/>
	<path d="M0.75,3C0.336,3,0,2.664,0,2.25v-1.5C0,0.336,0.336,0,0.75,0S1.5,0.336,1.5,0.75v1.5C1.5,2.664,1.164,3,0.75,3z"/>
</g>
</svg>
