<?xml version="1.0" encoding="utf-8"?>
<!-- Generator: Adobe Illustrator 22.1.0, SVG Export Plug-In . SVG Version: 6.00 Build 0)  -->
<svg version="1.1" id="Regular" xmlns="http://www.w3.org/2000/svg" xmlns:xlink="http://www.w3.org/1999/xlink" x="0px" y="0px"
	 viewBox="0 0 24 24" style="enable-background:new 0 0 24 24;" xml:space="preserve">
<title>diagram-arrow-dash-left</title>
<g>
	<path d="M7.336,18.37c-0.175,0-0.441-0.052-0.711-0.302l-6.1-5.322c-0.046-0.038-0.103-0.093-0.155-0.152
		c-0.547-0.621-0.486-1.571,0.135-2.118l6.124-5.674C6.898,4.552,7.164,4.5,7.34,4.5c0.155,0,0.279,0.04,0.355,0.073
		c0.13,0.057,0.556,0.293,0.556,0.938v2.36h5.25c0.414,0,0.75,0.336,0.75,0.75s-0.336,0.75-0.75,0.75h-6
		c-0.414,0-0.75-0.336-0.75-0.75V6.734l-5.24,4.855l5.235,4.591v-1.56c0-0.414,0.336-0.75,0.75-0.75h6c0.414,0,0.75,0.336,0.75,0.75
		s-0.336,0.75-0.75,0.75h-5.25v1.99c0,0.644-0.425,0.88-0.555,0.937C7.613,18.331,7.49,18.37,7.336,18.37z"/>
	<path d="M16.501,9.371c-0.414,0-0.75-0.336-0.75-0.75s0.336-0.75,0.75-0.75h2.25c0.414,0,0.75,0.336,0.75,0.75
		s-0.336,0.75-0.75,0.75H16.501z"/>
	<path d="M21.001,9.371c-0.414,0-0.75-0.336-0.75-0.75s0.336-0.75,0.75-0.75h2.25c0.414,0,0.75,0.336,0.75,0.75
		s-0.336,0.75-0.75,0.75H21.001z"/>
	<path d="M16.501,15.371c-0.414,0-0.75-0.336-0.75-0.75s0.336-0.75,0.75-0.75h2.25c0.414,0,0.75,0.336,0.75,0.75
		s-0.336,0.75-0.75,0.75H16.501z"/>
	<path d="M21.001,15.371c-0.414,0-0.75-0.336-0.75-0.75s0.336-0.75,0.75-0.75h2.25c0.414,0,0.75,0.336,0.75,0.75
		s-0.336,0.75-0.75,0.75H21.001z"/>
</g>
</svg>
