<?xml version="1.0" encoding="utf-8"?>
<!-- Generator: Adobe Illustrator 22.1.0, SVG Export Plug-In . SVG Version: 6.00 Build 0)  -->
<svg version="1.1" id="Regular" xmlns="http://www.w3.org/2000/svg" xmlns:xlink="http://www.w3.org/1999/xlink" x="0px" y="0px"
	 viewBox="0 0 24 24" style="enable-background:new 0 0 24 24;" xml:space="preserve">
<title>diagram-dash-down-fast</title>
<g>
	<path d="M20.249,24c-0.087,0-0.174-0.016-0.258-0.046c-0.006-0.002-0.011-0.004-0.017-0.006c-0.104-0.042-0.186-0.097-0.256-0.167
		l-3-3c-0.292-0.292-0.292-0.768,0-1.061c0.142-0.142,0.33-0.22,0.53-0.22s0.389,0.078,0.53,0.22l1.72,1.72V18
		c0-0.414,0.336-0.75,0.75-0.75s0.75,0.336,0.75,0.75v3.439l1.72-1.72c0.142-0.142,0.33-0.22,0.53-0.22s0.389,0.078,0.53,0.22
		c0.292,0.292,0.292,0.768,0,1.061l-3,3c-0.07,0.07-0.152,0.125-0.245,0.163c-0.008,0.003-0.017,0.007-0.026,0.01
		C20.427,23.984,20.339,24,20.249,24z"/>
	<path d="M0.749,4.588c-0.414,0-0.75-0.336-0.75-0.75V0.75c0-0.414,0.336-0.75,0.75-0.75s0.75,0.336,0.75,0.75v3.088
		C1.499,4.252,1.163,4.588,0.749,4.588z"/>
	<path d="M4.69,8.661c-1.177,0-2.306-0.438-3.177-1.233c-0.148-0.135-0.235-0.319-0.244-0.52c-0.009-0.2,0.06-0.392,0.195-0.54
		c0.141-0.156,0.344-0.245,0.554-0.245c0.187,0,0.367,0.07,0.505,0.196C3.119,6.862,3.888,7.161,4.69,7.161
		c0.042,0,0.083-0.001,0.125-0.002c0,0,0.001,0,0.001,0c0.432,0,0.762,0.317,0.777,0.721c0.016,0.413-0.308,0.762-0.721,0.778
		C4.811,8.66,4.751,8.661,4.69,8.661z"/>
	<path d="M8.239,8.658c-0.414,0-0.75-0.336-0.75-0.75s0.336-0.75,0.75-0.75h3.087c0.414,0,0.75,0.336,0.75,0.75
		s-0.336,0.75-0.75,0.75H8.239z"/>
	<path d="M17.78,8.913c-0.063,0-0.127-0.008-0.188-0.024c-0.679-0.176-1.379-0.265-2.08-0.265c-0.24,0-0.483,0.011-0.723,0.031
		c-0.021,0.002-0.043,0.003-0.065,0.003c-0.385,0-0.713-0.301-0.747-0.685c-0.018-0.199,0.044-0.394,0.173-0.547
		c0.129-0.153,0.31-0.247,0.509-0.265c0.283-0.025,0.571-0.037,0.854-0.037c0.826,0,1.652,0.105,2.455,0.313
		c0.194,0.05,0.357,0.173,0.458,0.345c0.102,0.173,0.13,0.375,0.08,0.569C18.42,8.682,18.122,8.913,17.78,8.913z"/>
	<path d="M20.188,14.317c-0.416-0.033-0.724-0.396-0.691-0.808c0.077-0.95,0.005-1.901-0.214-2.829
		c-0.046-0.195-0.013-0.396,0.092-0.567c0.105-0.17,0.271-0.289,0.466-0.335c0.056-0.013,0.115-0.02,0.173-0.02
		c0.349,0,0.648,0.238,0.729,0.578c0.254,1.08,0.338,2.188,0.249,3.294c-0.031,0.387-0.359,0.689-0.747,0.689
		C20.226,14.319,20.207,14.318,20.188,14.317z"/>
</g>
</svg>
