<?xml version="1.0" encoding="utf-8"?>
<!-- Generator: Adobe Illustrator 22.1.0, SVG Export Plug-In . SVG Version: 6.00 Build 0)  -->
<svg version="1.1" id="Regular" xmlns="http://www.w3.org/2000/svg" xmlns:xlink="http://www.w3.org/1999/xlink" x="0px" y="0px"
	 viewBox="0 0 24 24" style="enable-background:new 0 0 24 24;" xml:space="preserve">
<title>diagram-dash-up-then-down</title>
<g>
	<path d="M20.25,23c-0.2,0-0.389-0.078-0.53-0.22s-0.22-0.33-0.22-0.53s0.078-0.389,0.22-0.53l1.72-1.72L9.015,20
		c-4.784,0-8.733-3.744-8.99-8.523c-0.266-4.959,3.552-9.21,8.51-9.476C8.542,2,8.57,2,8.577,2c0.398,0,0.727,0.312,0.748,0.71
		c0.022,0.413-0.296,0.767-0.709,0.789c-2.002,0.107-3.843,0.988-5.182,2.48c-1.34,1.492-2.018,3.416-1.911,5.418
		C1.737,15.379,5.029,18.5,9.017,18.5l12.422,0l-1.72-1.72c-0.292-0.292-0.292-0.768,0-1.061c0.142-0.142,0.33-0.22,0.53-0.22
		s0.389,0.078,0.53,0.22l3,3c0.07,0.07,0.125,0.152,0.163,0.245c0.003,0.008,0.007,0.017,0.01,0.026
		C23.984,19.072,24,19.161,24,19.25c0,0.087-0.016,0.174-0.046,0.258c-0.002,0.006-0.004,0.011-0.006,0.017
		c-0.042,0.103-0.097,0.186-0.167,0.256l-3,3C20.639,22.922,20.45,23,20.25,23z"/>
	<path d="M12.451,3.5c-0.414,0-0.75-0.336-0.75-0.75S12.037,2,12.451,2h1.971c0.414,0,0.75,0.336,0.75,0.75s-0.336,0.75-0.75,0.75
		H12.451z"/>
	<path d="M17.106,3.5c-0.414,0-0.75-0.336-0.75-0.75S16.692,2,17.106,2h1.709c0.414,0,0.75,0.336,0.75,0.75s-0.336,0.75-0.75,0.75
		H17.106z"/>
	<path d="M21.173,3.5c-0.414,0-0.75-0.336-0.75-0.75S20.759,2,21.173,2h2.077C23.663,2,24,2.336,24,2.75S23.663,3.5,23.25,3.5
		H21.173z"/>
</g>
</svg>
