<?xml version="1.0" encoding="utf-8"?>
<!-- Generator: Adobe Illustrator 22.1.0, SVG Export Plug-In . SVG Version: 6.00 Build 0)  -->
<svg version="1.1" id="Regular" xmlns="http://www.w3.org/2000/svg" xmlns:xlink="http://www.w3.org/1999/xlink" x="0px" y="0px"
	 viewBox="0 0 24 24" style="enable-background:new 0 0 24 24;" xml:space="preserve">
<title>diagram-down</title>
<g>
	<path d="M20.249,24c-0.2,0-0.389-0.078-0.53-0.22s-0.22-0.33-0.22-0.53s0.078-0.389,0.22-0.53l1.729-1.729
		C10.176,20.9,0.774,12.064,0.001,0.801c-0.014-0.2,0.051-0.393,0.183-0.544c0.132-0.151,0.314-0.242,0.514-0.255
		C0.715,0,0.732,0,0.75,0C1.142,0,1.47,0.307,1.497,0.699c0.719,10.473,9.456,18.691,19.932,18.792l-1.711-1.711
		c-0.142-0.142-0.22-0.33-0.22-0.53s0.078-0.389,0.22-0.53s0.33-0.22,0.53-0.22s0.389,0.078,0.53,0.22l2.937,2.937
		c0.168,0.133,0.271,0.331,0.282,0.547c0.001,0.014,0,0.035,0,0.051c0,0.01-0.001,0.02-0.002,0.03
		c-0.004,0.08-0.019,0.152-0.044,0.22c-0.008,0.023-0.021,0.049-0.034,0.076c-0.025,0.046-0.046,0.08-0.069,0.11
		c-0.013,0.022-0.035,0.056-0.069,0.09l-3,3C20.638,23.922,20.449,24,20.249,24z"/>
</g>
</svg>
