<?xml version="1.0" encoding="utf-8"?>
<!-- Generator: Adobe Illustrator 22.1.0, SVG Export Plug-In . SVG Version: 6.00 Build 0)  -->
<svg version="1.1" id="Regular" xmlns="http://www.w3.org/2000/svg" xmlns:xlink="http://www.w3.org/1999/xlink" x="0px" y="0px"
	 viewBox="0 0 24 24" style="enable-background:new 0 0 24 24;" xml:space="preserve">
<title>diagram-curve-rise</title>
<g>
	<path d="M14.446,19c-2.573,0-4.678-2.089-4.696-4.658V8.663c0.001-0.847-0.325-1.642-0.917-2.239
		C8.242,5.829,7.456,5.501,6.619,5.5H4.663C2.919,5.5,1.5,6.919,1.5,8.663V11.5c0,0.414-0.336,0.75-0.75,0.75S0,11.914,0,11.5V8.663
		C0,6.092,2.092,4,4.663,4H6.62c1.239,0.002,2.402,0.485,3.277,1.362c0.874,0.877,1.355,2.041,1.353,3.279l0,5.696
		c0.012,1.743,1.444,3.163,3.191,3.163H16.4c0.827-0.002,1.606-0.328,2.193-0.917c0.586-0.589,0.908-1.37,0.906-2.199l0-4.072
		L17.78,12.03c-0.142,0.142-0.33,0.22-0.53,0.22s-0.389-0.078-0.53-0.22S16.5,11.7,16.5,11.5s0.078-0.389,0.22-0.53l2.989-2.989
		c0.132-0.143,0.333-0.231,0.54-0.231c0.009,0,0.018,0,0.027,0.001c0.08,0.003,0.156,0.018,0.229,0.045
		c0.014,0.005,0.031,0.011,0.042,0.016c0.067,0.028,0.134,0.07,0.194,0.123c0.015,0.011,0.028,0.023,0.041,0.035l3,3
		C23.922,11.111,24,11.3,24,11.5s-0.078,0.389-0.22,0.531c-0.142,0.141-0.33,0.219-0.53,0.219s-0.389-0.078-0.53-0.22l-1.722-1.722
		l0,4.074c0.003,1.228-0.474,2.385-1.343,3.259c-0.869,0.873-2.025,1.356-3.254,1.359C16.402,19,14.446,19,14.446,19z"/>
</g>
</svg>
