<?xml version="1.0" encoding="utf-8"?>
<!-- Generator: Adobe Illustrator 22.1.0, SVG Export Plug-In . SVG Version: 6.00 Build 0)  -->
<svg version="1.1" id="Regular" xmlns="http://www.w3.org/2000/svg" xmlns:xlink="http://www.w3.org/1999/xlink" x="0px" y="0px"
	 viewBox="0 0 24 24" style="enable-background:new 0 0 24 24;" xml:space="preserve">
<title>diagram-steady-down</title>
<g>
	<path d="M11.25,23.75c-0.088,0-0.175-0.016-0.26-0.047c-0.008-0.003-0.015-0.005-0.022-0.008c-0.096-0.039-0.179-0.094-0.249-0.165
		L7.72,20.53C7.578,20.389,7.5,20.2,7.5,20s0.078-0.389,0.22-0.53c0.142-0.142,0.33-0.22,0.53-0.22s0.389,0.078,0.53,0.22l1.72,1.72
		V13.25H0.75C0.336,13.25,0,12.914,0,12.5s0.336-0.75,0.75-0.75h9.75V7.625c0-3.929,3.196-7.125,7.125-7.125
		C21.14,0.5,24,3.36,24,6.875s-2.86,6.375-6.375,6.375H12v7.939l1.72-1.72c0.142-0.142,0.33-0.22,0.53-0.22s0.389,0.078,0.53,0.22
		S15,19.8,15,20s-0.078,0.389-0.22,0.53l-3,3c-0.07,0.07-0.153,0.125-0.246,0.164c-0.008,0.003-0.017,0.007-0.027,0.01
		C11.422,23.735,11.336,23.75,11.25,23.75z M17.625,11.75c2.688,0,4.875-2.187,4.875-4.875S20.313,2,17.625,2
		C14.523,2,12,4.523,12,7.625v4.125H17.625z"/>
</g>
</svg>
