<?xml version="1.0" encoding="utf-8"?>
<!-- Generator: Adobe Illustrator 22.1.0, SVG Export Plug-In . SVG Version: 6.00 Build 0)  -->
<svg version="1.1" id="Regular" xmlns="http://www.w3.org/2000/svg" xmlns:xlink="http://www.w3.org/1999/xlink" x="0px" y="0px"
	 viewBox="0 0 24 24" style="enable-background:new 0 0 24 24;" xml:space="preserve">
<title>diagram-fast-up</title>
<g>
	<path d="M0.75,24.001c-0.394,0-0.722-0.308-0.748-0.701c-0.027-0.413,0.287-0.77,0.7-0.797c0.375-0.024,0.753-0.06,1.122-0.105
		c0.033-0.004,0.061-0.005,0.089-0.005c0.38,0,0.701,0.283,0.747,0.659c0.024,0.199-0.03,0.395-0.154,0.553
		c-0.123,0.158-0.301,0.258-0.5,0.282C1.606,23.936,1.2,23.974,0.799,24C0.791,24,0.758,24.001,0.75,24.001z"/>
	<path d="M4.007,23.525c-0.352,0-0.653-0.24-0.731-0.584c-0.091-0.403,0.162-0.806,0.565-0.897c0.659-0.149,1.32-0.335,1.963-0.553
		c0.078-0.026,0.158-0.04,0.24-0.04c0.322,0,0.608,0.205,0.711,0.51c0.132,0.392-0.078,0.818-0.47,0.951
		c-0.69,0.233-1.4,0.433-2.111,0.595C4.119,23.519,4.063,23.525,4.007,23.525z"/>
	<path d="M8.069,22.151c-0.292,0-0.559-0.171-0.681-0.436c-0.173-0.375-0.009-0.822,0.366-0.995
		c0.832-0.384,1.646-0.831,2.419-1.327c0.121-0.078,0.261-0.119,0.405-0.119c0.257,0,0.493,0.129,0.631,0.345
		c0.108,0.169,0.144,0.369,0.102,0.565c-0.043,0.196-0.159,0.363-0.328,0.471c-0.83,0.533-1.705,1.013-2.601,1.427
		C8.284,22.128,8.178,22.151,8.069,22.151z"/>
	<path d="M12.353,19.501c-0.23,0-0.443-0.103-0.586-0.282c-0.125-0.156-0.182-0.352-0.159-0.551c0.022-0.199,0.12-0.378,0.277-0.503
		c4.777-3.819,7.539-9.491,7.606-15.594l-1.71,1.71c-0.142,0.142-0.33,0.22-0.53,0.22s-0.389-0.078-0.53-0.22
		c-0.142-0.141-0.22-0.33-0.22-0.53s0.078-0.389,0.22-0.53l2.941-2.941c0.134-0.166,0.33-0.267,0.542-0.278
		c0.005,0,0.075,0.002,0.075,0.002c0.082,0.003,0.164,0.019,0.239,0.048c0.012,0.005,0.039,0.017,0.051,0.023
		c0.06,0.029,0.113,0.063,0.16,0.102c0.021,0.015,0.041,0.031,0.056,0.047l2.997,2.997C23.922,3.363,24,3.551,24,3.751
		s-0.078,0.389-0.22,0.53s-0.33,0.22-0.53,0.22s-0.389-0.078-0.53-0.22l-1.729-1.729c-0.061,6.568-3.03,12.674-8.17,16.784
		C12.689,19.443,12.522,19.501,12.353,19.501z"/>
</g>
</svg>
