<?xml version="1.0" encoding="utf-8"?>
<!-- Generator: Adobe Illustrator 22.1.0, SVG Export Plug-In . SVG Version: 6.00 Build 0)  -->
<svg version="1.1" id="Regular" xmlns="http://www.w3.org/2000/svg" xmlns:xlink="http://www.w3.org/1999/xlink" x="0px" y="0px"
	 viewBox="0 0 24 24" style="enable-background:new 0 0 24 24;" xml:space="preserve">
<title>diagram-arrow-up</title>
<g>
	<path d="M10.247,24c-1.241,0-2.25-1.009-2.25-2.25v-13.5H5.258c-0.645,0-0.881-0.426-0.938-0.557
		C4.263,7.562,4.112,7.099,4.551,6.627l6.113-6.166c0.269-0.291,0.666-0.462,1.08-0.462c0.381,0,0.744,0.142,1.022,0.401
		c0.027,0.025,0.056,0.054,0.083,0.083l6.08,6.128c0.456,0.491,0.304,0.954,0.248,1.085c-0.057,0.13-0.293,0.556-0.938,0.556h-2.742
		v13.5c0,1.241-1.009,2.25-2.25,2.25H10.247z M8.747,6.749c0.414,0,0.75,0.336,0.75,0.75v14.25c0,0.414,0.336,0.75,0.75,0.75h3
		c0.414,0,0.75-0.336,0.75-0.75V7.499c0-0.414,0.336-0.75,0.75-0.75h2.209l-5.219-5.261l0.01,0.01c0,0-5.206,5.251-5.206,5.251
		H8.747z"/>
</g>
</svg>
