<?xml version="1.0" encoding="utf-8"?>
<!-- Generator: Adobe Illustrator 22.1.0, SVG Export Plug-In . SVG Version: 6.00 Build 0)  -->
<svg version="1.1" id="Regular" xmlns="http://www.w3.org/2000/svg" xmlns:xlink="http://www.w3.org/1999/xlink" x="0px" y="0px"
	 viewBox="0 0 24 24" style="enable-background:new 0 0 24 24;" xml:space="preserve">
<title>diagram-increase</title>
<g>
	<path d="M0.751,20.751c-0.414,0-0.75-0.336-0.75-0.75s0.336-0.75,0.75-0.75h10.083c3.225,0,6.043-2.181,6.851-5.303l2.192-8.47
		l-1.944,1.2c-0.119,0.073-0.255,0.112-0.394,0.112c-0.262,0-0.501-0.133-0.638-0.356c-0.105-0.17-0.138-0.372-0.092-0.567
		c0.046-0.195,0.166-0.36,0.336-0.465l3.531-2.18c0.008-0.005,0.017-0.01,0.026-0.015c0.029-0.016,0.056-0.028,0.083-0.04
		c0.012-0.006,0.013-0.006,0.025-0.011c0.042-0.015,0.082-0.026,0.122-0.033c0.011-0.002,0.023-0.004,0.033-0.006
		c0.023-0.004,0.061-0.006,0.098-0.006c0.005,0,0.036-0.001,0.036-0.001c0.024,0.001,0.048,0.004,0.072,0.008
		c0.022,0.003,0.04,0.005,0.058,0.009c0.009,0.002,0.018,0.003,0.026,0.005c0.017,0.004,0.051,0.016,0.068,0.023
		c0.019,0.006,0.041,0.014,0.063,0.024c0.024,0.011,0.045,0.023,0.065,0.036c0.026,0.015,0.046,0.028,0.065,0.042
		s0.037,0.03,0.055,0.047c0.021,0.019,0.037,0.034,0.052,0.051c0.019,0.021,0.035,0.042,0.051,0.064
		c0.01,0.011,0.022,0.029,0.033,0.047l2.181,3.532c0.105,0.17,0.138,0.372,0.092,0.567c-0.046,0.195-0.166,0.36-0.336,0.466
		c-0.118,0.073-0.255,0.112-0.394,0.112c-0.262,0-0.5-0.133-0.638-0.356L21.355,5.75l-2.219,8.574
		c-0.979,3.784-4.394,6.427-8.303,6.427H0.751z"/>
</g>
</svg>
