<?xml version="1.0" encoding="utf-8"?>
<!-- Generator: Adobe Illustrator 22.1.0, SVG Export Plug-In . SVG Version: 6.00 Build 0)  -->
<svg version="1.1" id="Regular" xmlns="http://www.w3.org/2000/svg" xmlns:xlink="http://www.w3.org/1999/xlink" x="0px" y="0px"
	 viewBox="0 0 24 24" style="enable-background:new 0 0 24 24;" xml:space="preserve">
<title>diagram-curvy-both-direction</title>
<g>
	<path d="M3.75,23.25c-0.2,0-0.389-0.078-0.53-0.22l-3-3c-0.07-0.07-0.125-0.153-0.163-0.245c-0.003-0.007-0.006-0.016-0.009-0.024
		C0.017,19.68,0,19.591,0,19.5c0-0.089,0.016-0.176,0.048-0.261c0.004-0.011,0.008-0.022,0.012-0.032
		c0.035-0.085,0.09-0.168,0.16-0.238l3-3c0.142-0.142,0.33-0.22,0.53-0.22s0.389,0.078,0.53,0.22c0.292,0.292,0.292,0.768,0,1.061
		l-1.72,1.72H13.5c1.654,0,3-1.346,3-3s-1.346-3-3-3h-3c-2.481,0-4.5-2.019-4.5-4.5s2.019-4.5,4.5-4.5h10.939l-1.72-1.72
		C19.578,1.889,19.5,1.7,19.5,1.5s0.078-0.389,0.22-0.53s0.33-0.22,0.53-0.22s0.389,0.078,0.53,0.22l3,3
		c0.07,0.07,0.125,0.152,0.163,0.245c0.003,0.008,0.007,0.017,0.01,0.026C23.984,4.322,24,4.411,24,4.5
		c0,0.087-0.016,0.174-0.047,0.258c-0.002,0.006-0.004,0.011-0.006,0.016c-0.042,0.104-0.098,0.186-0.168,0.257L20.78,8.03
		c-0.142,0.142-0.33,0.22-0.53,0.22s-0.389-0.078-0.53-0.22C19.578,7.889,19.5,7.7,19.5,7.5s0.078-0.389,0.22-0.53l1.72-1.72H10.5
		c-1.654,0-3,1.346-3,3s1.346,3,3,3h3c2.481,0,4.5,2.019,4.5,4.5s-2.019,4.5-4.5,4.5H2.561l1.72,1.72
		c0.292,0.292,0.292,0.768,0,1.061C4.139,23.172,3.95,23.25,3.75,23.25z"/>
</g>
</svg>
