<?xml version="1.0" encoding="utf-8"?>
<!-- Generator: Adobe Illustrator 22.1.0, SVG Export Plug-In . SVG Version: 6.00 Build 0)  -->
<svg version="1.1" id="Regular" xmlns="http://www.w3.org/2000/svg" xmlns:xlink="http://www.w3.org/1999/xlink" x="0px" y="0px"
	 viewBox="0 0 24 24" style="enable-background:new 0 0 24 24;" xml:space="preserve">
<title>diagram-dash-fast-up</title>
<g>
	<path d="M0.731,20.392c-0.414,0-0.75-0.336-0.75-0.75s0.336-0.75,0.75-0.75h1.54c0.414,0,0.75,0.336,0.75,0.75
		s-0.336,0.75-0.75,0.75H0.731z"/>
	<path d="M4.731,20.392c-0.414,0-0.75-0.336-0.75-0.75s0.336-0.75,0.75-0.75h1.54c0.414,0,0.75,0.336,0.75,0.75
		s-0.336,0.75-0.75,0.75H4.731z"/>
	<path d="M8.878,20.392c-0.414,0-0.75-0.336-0.75-0.75s0.336-0.75,0.75-0.75h1.54c0.414,0,0.75,0.336,0.75,0.75
		s-0.336,0.75-0.75,0.75H8.878z"/>
	<path d="M12.75,20.151c-0.344,0-0.643-0.233-0.727-0.566c-0.049-0.194-0.02-0.396,0.083-0.568c0.103-0.172,0.266-0.294,0.46-0.343
		c2.508-0.634,4.469-2.584,5.118-5.088l2.191-8.466l-1.943,1.2c-0.118,0.073-0.254,0.112-0.394,0.112
		c-0.262,0-0.501-0.133-0.638-0.356c-0.105-0.171-0.138-0.372-0.092-0.567c0.046-0.195,0.166-0.36,0.336-0.466l3.531-2.181
		c0.008-0.005,0.016-0.009,0.024-0.014c0.012-0.006,0.026-0.014,0.041-0.02c0.028-0.014,0.052-0.025,0.076-0.034
		c0.013-0.005,0.044-0.013,0.058-0.017c0.028-0.008,0.055-0.015,0.083-0.019c0.014-0.002,0.047-0.005,0.062-0.005
		c0.021-0.002,0.04-0.003,0.06-0.003c0.006,0,0.02,0,0.026,0.001c0.017,0.001,0.039,0.003,0.062,0.007
		c0.022,0.002,0.048,0.006,0.074,0.012c0.004,0.001,0.021,0.005,0.026,0.007c0.072,0.018,0.149,0.054,0.221,0.102
		c0.007,0.004,0.013,0.008,0.018,0.012c0.073,0.054,0.133,0.115,0.18,0.185c0.008,0.01,0.015,0.02,0.021,0.031l2.181,3.532
		c0.105,0.17,0.138,0.372,0.092,0.567c-0.046,0.195-0.166,0.36-0.336,0.466c-0.118,0.073-0.255,0.112-0.394,0.112
		c-0.262,0-0.5-0.133-0.638-0.356l-1.258-2.036l-2.219,8.571c-0.787,3.035-3.164,5.398-6.203,6.166
		C12.874,20.143,12.812,20.151,12.75,20.151z"/>
</g>
</svg>
