<?xml version="1.0" encoding="utf-8"?>
<!-- Generator: Adobe Illustrator 22.1.0, SVG Export Plug-In . SVG Version: 6.00 Build 0)  -->
<svg version="1.1" id="Regular" xmlns="http://www.w3.org/2000/svg" xmlns:xlink="http://www.w3.org/1999/xlink" x="0px" y="0px"
	 viewBox="0 0 24 24" style="enable-background:new 0 0 24 24;" xml:space="preserve">
<title>diagram-arrow-down-1</title>
<g>
	<path d="M0.75,1.5C0.336,1.5,0,1.164,0,0.75S0.336,0,0.75,0h22.5C23.664,0,24,0.337,24,0.75S23.664,1.5,23.25,1.5H0.75z"/>
	<path d="M11.992,24.005c-0.367,0-0.72-0.133-0.994-0.375c-0.041-0.036-0.08-0.074-0.117-0.115L4.946,17.38
		c-0.448-0.489-0.296-0.948-0.239-1.078c0.057-0.129,0.292-0.552,0.934-0.552H8.25V6h-7.5C0.336,6,0,5.664,0,5.25
		S0.336,4.5,0.75,4.5H9c0.414,0,0.75,0.336,0.75,0.75V16.5c0,0.414-0.336,0.75-0.75,0.75H6.908l5.067,5.238l4.917-5.238H15
		c-0.414,0-0.75-0.336-0.75-0.75V5.25c0-0.414,0.336-0.75,0.75-0.75h8.25C23.664,4.5,24,4.837,24,5.25S23.664,6,23.25,6h-7.5v9.75
		h2.381c0.642,0,0.877,0.425,0.934,0.555c0.057,0.131,0.208,0.592-0.229,1.063l-5.736,6.144
		C12.828,23.822,12.421,24.005,11.992,24.005z"/>
</g>
</svg>
