<?xml version="1.0" encoding="utf-8"?>
<!-- Generator: Adobe Illustrator 22.1.0, SVG Export Plug-In . SVG Version: 6.00 Build 0)  -->
<svg version="1.1" id="Regular" xmlns="http://www.w3.org/2000/svg" xmlns:xlink="http://www.w3.org/1999/xlink" x="0px" y="0px"
	 viewBox="0 0 24 24" style="enable-background:new 0 0 24 24;" xml:space="preserve">
<title>diagram-arrow-up-left-corner</title>
<g>
	<path d="M19.483,23.998c-0.329,0-0.636-0.129-0.865-0.365L3.684,8.637l-2.072,1.746c-0.265,0.223-0.518,0.269-0.685,0.269
		c-0.167,0-0.3-0.045-0.382-0.083c-0.128-0.06-0.545-0.303-0.545-0.935V1.24c0.003-0.685,0.56-1.241,1.243-1.241l8.393,0.037
		c0.424,0.001,0.772,0.206,0.931,0.547c0.059,0.128,0.222,0.582-0.182,1.065L8.684,3.669c0,0,14.94,14.469,14.944,14.472
		c0.483,0.476,0.506,1.245,0.054,1.75l-3.29,3.698c-0.02,0.022-0.038,0.041-0.056,0.059C20.103,23.875,19.801,23.998,19.483,23.998z
		 M3.729,6.869c0.201,0,0.39,0.078,0.531,0.221l15.212,15.276l2.945-3.309L7.138,4.26C6.856,3.987,6.833,3.538,7.086,3.238
		l1.437-1.705L1.501,1.5v7.015l1.745-1.47C3.381,6.931,3.552,6.869,3.729,6.869z"/>
</g>
</svg>
