<?xml version="1.0" encoding="utf-8"?>
<!-- Generator: Adobe Illustrator 22.1.0, SVG Export Plug-In . SVG Version: 6.00 Build 0)  -->
<svg version="1.1" id="Regular" xmlns="http://www.w3.org/2000/svg" xmlns:xlink="http://www.w3.org/1999/xlink" x="0px" y="0px"
	 viewBox="0 0 24 24" style="enable-background:new 0 0 24 24;" xml:space="preserve">
<title>diagram-up-double</title>
<g>
	<path d="M12,24c-4.963,0-9-4.037-9-9V2.561L1.28,4.28C1.139,4.422,0.95,4.5,0.75,4.5S0.361,4.422,0.22,4.28
		C0.078,4.139,0,3.95,0,3.75s0.078-0.389,0.22-0.53L3.219,0.22c0.07-0.07,0.152-0.125,0.245-0.163
		C3.472,0.053,3.481,0.05,3.49,0.047C3.575,0.016,3.662,0,3.75,0c0.089,0,0.177,0.016,0.261,0.048
		C4.018,0.05,4.026,0.053,4.032,0.055c0.097,0.04,0.179,0.095,0.249,0.166L7.28,3.22C7.422,3.361,7.5,3.55,7.5,3.75
		S7.422,4.139,7.28,4.28C7.139,4.422,6.95,4.5,6.75,4.5S6.361,4.422,6.22,4.28L4.5,2.561V15c0,4.135,3.365,7.5,7.5,7.5
		s7.5-3.365,7.5-7.5V2.561l-1.72,1.72c-0.142,0.142-0.33,0.22-0.53,0.22s-0.389-0.078-0.53-0.22c-0.142-0.141-0.22-0.33-0.22-0.53
		s0.078-0.389,0.22-0.53l3-3c0.07-0.07,0.153-0.125,0.245-0.163c0.007-0.003,0.016-0.006,0.024-0.009C20.07,0.017,20.159,0,20.25,0
		c0.089,0,0.176,0.016,0.261,0.048c0.011,0.004,0.022,0.008,0.032,0.012c0.085,0.035,0.168,0.09,0.238,0.16l3,3
		C23.922,3.361,24,3.55,24,3.75s-0.078,0.389-0.22,0.53S23.45,4.5,23.25,4.5s-0.389-0.078-0.53-0.22L21,2.561V15
		C21,19.963,16.963,24,12,24z"/>
</g>
</svg>
