<?xml version="1.0" encoding="utf-8"?>
<!-- Generator: Adobe Illustrator 22.1.0, SVG Export Plug-In . SVG Version: 6.00 Build 0)  -->
<svg version="1.1" id="Regular" xmlns="http://www.w3.org/2000/svg" xmlns:xlink="http://www.w3.org/1999/xlink" x="0px" y="0px"
	 viewBox="0 0 24 24" style="enable-background:new 0 0 24 24;" xml:space="preserve">
<title>diagram-arrow-dash-corner-point-left</title>
<g>
	<path d="M23.25,24.001c-0.414,0-0.75-0.336-0.75-0.75v-3.75c0-0.414,0.336-0.75,0.75-0.75S24,19.088,24,19.501v3.75
		C24,23.665,23.664,24.001,23.25,24.001z"/>
	<path d="M23.25,17.251c-0.414,0-0.75-0.336-0.75-0.75v-10.5c0-0.414-0.336-0.75-0.75-0.75H7.5c-0.414,0-0.75-0.336-0.75-0.75V2.295
		L1.489,7.511L6.75,12.71v-2.208c0-0.414,0.336-0.75,0.75-0.75h9c1.241,0,2.25,1.009,2.25,2.25v4.5c0,0.414-0.336,0.75-0.75,0.75
		s-0.75-0.336-0.75-0.75v-4.5c0-0.414-0.336-0.75-0.75-0.75H8.25v2.739c0,0.645-0.426,0.881-0.557,0.938
		c-0.076,0.033-0.199,0.073-0.354,0.073c-0.176,0-0.442-0.053-0.712-0.304L0.461,8.583C0.186,8.329,0.015,7.952,0,7.557
		c-0.015-0.4,0.127-0.783,0.399-1.076C0.422,6.455,0.448,6.43,0.475,6.404L6.61,0.322c0.286-0.266,0.556-0.319,0.733-0.319
		c0.153,0,0.275,0.039,0.351,0.072C7.825,0.132,8.25,0.368,8.25,1.012v2.739h13.5c1.241,0,2.25,1.009,2.25,2.25v10.5
		C24,16.915,23.664,17.251,23.25,17.251z"/>
	<path d="M18,24.001c-0.414,0-0.75-0.336-0.75-0.75v-3.75c0-0.414,0.336-0.75,0.75-0.75s0.75,0.336,0.75,0.75v3.75
		C18.75,23.665,18.414,24.001,18,24.001z"/>
</g>
</svg>
