<?xml version="1.0" encoding="utf-8"?>
<!-- Generator: Adobe Illustrator 22.1.0, SVG Export Plug-In . SVG Version: 6.00 Build 0)  -->
<svg version="1.1" id="Regular" xmlns="http://www.w3.org/2000/svg" xmlns:xlink="http://www.w3.org/1999/xlink" x="0px" y="0px"
	 viewBox="0 0 24 24" style="enable-background:new 0 0 24 24;" xml:space="preserve">
<title>diagram-arrow-diagonal-1</title>
<g>
	<path d="M1.237,23.999c-0.332-0.001-0.643-0.13-0.876-0.364C0.127,23.4-0.001,23.089,0,22.758v-8.307
		c0.002-0.63,0.417-0.873,0.544-0.933c0.084-0.039,0.217-0.084,0.384-0.084c0.237,0,0.472,0.091,0.679,0.264l2.064,1.696
		L15.397,3.67l-1.699-2.066c-0.399-0.48-0.237-0.932-0.178-1.059c0.06-0.128,0.303-0.543,0.93-0.545l8.344-0.001
		c0.309,0,0.608,0.128,0.842,0.361C23.87,0.593,23.999,0.904,24,1.234v8.342c0,0.63-0.415,0.873-0.543,0.932
		c-0.081,0.038-0.214,0.083-0.382,0.083c-0.166,0-0.419-0.046-0.682-0.267l-2.05-1.727L8.629,20.377l1.696,2.015
		c0.406,0.483,0.244,0.937,0.185,1.064c-0.059,0.128-0.302,0.543-0.932,0.543H1.237z M8.454,22.499l-1.446-1.717
		c-0.129-0.153-0.191-0.347-0.173-0.547c0.017-0.199,0.111-0.381,0.264-0.51c0.052-0.044,0.109-0.08,0.17-0.107L19.766,7.051
		c0.014-0.014,0.032-0.029,0.05-0.042c0.053-0.046,0.113-0.083,0.176-0.112C20,6.894,20.031,6.882,20.038,6.879
		c0.079-0.029,0.158-0.045,0.238-0.047c0.004,0,0.032,0,0.035,0c0.089,0.002,0.175,0.018,0.256,0.049
		c0.008,0.003,0.025,0.01,0.033,0.014c0.061,0.025,0.126,0.063,0.183,0.112L22.5,8.453V1.499h-6.946l1.434,1.744
		c0.043,0.053,0.079,0.112,0.108,0.18c0.001,0.004,0.01,0.024,0.011,0.027c0.031,0.083,0.048,0.166,0.05,0.251
		c0,0.008,0,0.033,0,0.041c-0.002,0.078-0.018,0.16-0.047,0.24c-0.003,0.007-0.012,0.03-0.015,0.037
		c-0.03,0.068-0.071,0.134-0.122,0.192c-0.01,0.014-0.021,0.026-0.033,0.038L4.251,16.937c-0.014,0.014-0.03,0.027-0.047,0.04
		c-0.061,0.052-0.121,0.089-0.186,0.117c-0.007,0.003-0.03,0.012-0.037,0.015c-0.066,0.025-0.139,0.041-0.214,0.045
		c-0.016,0.002-0.032,0.003-0.047,0.003c-0.015,0-0.031-0.001-0.046-0.003c-0.074-0.005-0.147-0.02-0.218-0.047
		c-0.002-0.001-0.021-0.009-0.023-0.01c-0.078-0.034-0.136-0.069-0.188-0.111l-1.744-1.433L1.5,22.499H8.454z"/>
</g>
</svg>
