<?xml version="1.0" encoding="utf-8"?>
<!-- Generator: Adobe Illustrator 22.1.0, SVG Export Plug-In . SVG Version: 6.00 Build 0)  -->
<svg version="1.1" id="Regular" xmlns="http://www.w3.org/2000/svg" xmlns:xlink="http://www.w3.org/1999/xlink" x="0px" y="0px"
	 viewBox="0 0 24 24" style="enable-background:new 0 0 24 24;" xml:space="preserve">
<title>diagram-arrow-dash-corner-right-down</title>
<g>
	<path d="M6.75,11.25c-0.2,0-0.389-0.078-0.53-0.22L4.345,9.155c-0.142-0.141-0.22-0.33-0.22-0.53s0.078-0.389,0.22-0.53
		c0.141-0.142,0.33-0.22,0.53-0.22s0.389,0.078,0.53,0.22L7.28,9.97C7.422,10.111,7.5,10.3,7.5,10.5s-0.078,0.389-0.22,0.53
		C7.139,11.172,6.95,11.25,6.75,11.25z"/>
	<path d="M2.625,7.125c-0.2,0-0.389-0.078-0.53-0.22L0.22,5.03C0.078,4.889,0,4.7,0,4.5s0.078-0.389,0.22-0.53
		c0.141-0.142,0.33-0.22,0.53-0.22s0.389,0.078,0.53,0.22l1.875,1.875c0.142,0.141,0.22,0.33,0.22,0.53s-0.078,0.389-0.22,0.53
		C3.014,7.047,2.825,7.125,2.625,7.125z"/>
	<path d="M14.405,24c-0.301,0-0.583-0.118-0.796-0.33c-0.212-0.212-0.33-0.495-0.329-0.796c0.001-0.301,0.118-0.582,0.329-0.794
		l1.83-1.83l-6.97-6.97c-0.142-0.142-0.22-0.33-0.22-0.53s0.078-0.389,0.22-0.53C8.611,12.078,8.8,12,9,12s0.389,0.078,0.53,0.22
		l7.5,7.5c0.142,0.142,0.22,0.33,0.22,0.53s-0.078,0.389-0.22,0.53l-1.72,1.72l7.19,0v-7.189l-1.72,1.72
		c-0.142,0.142-0.33,0.22-0.53,0.22s-0.389-0.078-0.53-0.22l-7.5-7.5C12.078,9.389,12,9.2,12,9s0.078-0.389,0.22-0.53
		c0.141-0.142,0.33-0.22,0.53-0.22s0.389,0.078,0.53,0.22l6.97,6.97l1.83-1.83c0.212-0.212,0.495-0.329,0.795-0.329
		c0.301,0,0.583,0.117,0.796,0.329C23.88,13.819,24,14.109,24,14.405v8.47C24,23.495,23.495,24,22.875,24H14.405z"/>
	<path d="M10.5,7.5c-0.2,0-0.389-0.078-0.53-0.22L8.095,5.405c-0.142-0.141-0.22-0.33-0.22-0.53s0.078-0.389,0.22-0.53
		c0.141-0.142,0.33-0.22,0.53-0.22s0.389,0.078,0.53,0.22L11.03,6.22c0.142,0.141,0.22,0.33,0.22,0.53s-0.078,0.389-0.22,0.53
		C10.889,7.422,10.7,7.5,10.5,7.5z"/>
	<path d="M6.375,3.375c-0.2,0-0.389-0.078-0.53-0.22L3.97,1.28C3.828,1.139,3.75,0.95,3.75,0.75s0.078-0.389,0.22-0.53
		C4.111,0.078,4.3,0,4.5,0s0.389,0.078,0.53,0.22l1.875,1.875c0.142,0.141,0.22,0.33,0.22,0.53s-0.078,0.389-0.22,0.53
		C6.764,3.297,6.575,3.375,6.375,3.375z"/>
</g>
</svg>
