<?xml version="1.0" encoding="utf-8"?>
<!-- Generator: Adobe Illustrator 22.1.0, SVG Export Plug-In . SVG Version: 6.00 Build 0)  -->
<svg version="1.1" id="Regular" xmlns="http://www.w3.org/2000/svg" xmlns:xlink="http://www.w3.org/1999/xlink" x="0px" y="0px"
	 viewBox="0 0 24 24" style="enable-background:new 0 0 24 24;" xml:space="preserve">
<title>diagram-arrow-left</title>
<g>
	<path d="M7.34,19.754c-0.175,0-0.441-0.052-0.711-0.302l-6.168-6.118l0,0c-0.001,0-0.033-0.031-0.063-0.063
		c-0.562-0.606-0.525-1.557,0.081-2.119l6.131-6.079c0.285-0.266,0.555-0.32,0.732-0.32c0.153,0,0.275,0.039,0.351,0.072
		c0.131,0.057,0.557,0.293,0.557,0.938v2.739h13.5c1.241,0,2.25,1.009,2.25,2.25v3c0,1.241-1.009,2.25-2.25,2.25h-13.5v2.742
		c0,0.645-0.425,0.881-0.556,0.938C7.618,19.714,7.494,19.754,7.34,19.754z M1.518,12.234l-0.017,0.021l0.009,0.007l5.241,5.199
		v-2.209c0-0.414,0.336-0.75,0.75-0.75h14.25c0.414,0,0.75-0.336,0.75-0.75v-3c0-0.414-0.336-0.75-0.75-0.75H7.501
		c-0.414,0-0.75-0.336-0.75-0.75V7.045L1.518,12.234z"/>
</g>
</svg>
