<?xml version="1.0" encoding="utf-8"?>
<!-- Generator: Adobe Illustrator 22.1.0, SVG Export Plug-In . SVG Version: 6.00 Build 0)  -->
<svg version="1.1" id="Regular" xmlns="http://www.w3.org/2000/svg" xmlns:xlink="http://www.w3.org/1999/xlink" x="0px" y="0px"
	 viewBox="0 0 24 24" style="enable-background:new 0 0 24 24;" xml:space="preserve">
<title>diagram-round</title>
<g>
	<path d="M13.232,23c-2.913-0.001-5.654-1.139-7.716-3.203c-1.576-1.577-2.603-3.521-3.005-5.671l-1.131,1.734
		c-0.139,0.213-0.374,0.34-0.629,0.34c-0.145,0-0.286-0.042-0.409-0.121c-0.347-0.227-0.445-0.692-0.219-1.039l2.32-3.558
		c0.006-0.009,0.013-0.019,0.02-0.028c0.016-0.022,0.032-0.041,0.048-0.059c0.006-0.006,0.027-0.031,0.033-0.037
		c0.019-0.019,0.043-0.039,0.067-0.057c0.011-0.009,0.028-0.023,0.046-0.034c0.025-0.017,0.054-0.033,0.085-0.047
		c0.013-0.007,0.027-0.014,0.038-0.018c0.029-0.012,0.058-0.021,0.088-0.029c0.011-0.004,0.032-0.01,0.052-0.014
		c0.014-0.003,0.047-0.007,0.062-0.009c0.023-0.003,0.045-0.005,0.067-0.006c0.008,0,0.042,0,0.048,0
		c0.014,0.001,0.04,0.004,0.054,0.006c0.013,0,0.042,0.004,0.071,0.01c0.02,0.004,0.041,0.01,0.063,0.017
		c0.033,0.01,0.056,0.017,0.078,0.027c0.025,0.01,0.051,0.024,0.076,0.038c0.003,0,0.022,0.011,0.042,0.023l3.558,2.319
		c0.168,0.109,0.283,0.278,0.324,0.474c0.041,0.196,0.004,0.396-0.105,0.564c-0.139,0.213-0.374,0.341-0.629,0.341
		c-0.146,0-0.287-0.042-0.409-0.122l-2.316-1.51c0.271,2.039,1.205,3.936,2.674,5.406c1.779,1.781,4.145,2.762,6.663,2.763h0.19
		c2.472-0.025,4.787-1.012,6.521-2.781c1.734-1.769,2.675-4.103,2.65-6.573c-0.051-5.056-4.205-9.17-9.26-9.17l-0.094,0
		c-0.419,0-0.754-0.333-0.758-0.743c-0.004-0.413,0.329-0.753,0.743-0.757l0.109,0c5.874,0,10.701,4.78,10.76,10.654
		c0.029,2.87-1.065,5.583-3.08,7.638c-2.014,2.055-4.704,3.203-7.574,3.231l-0.107,0L13.232,23z"/>
</g>
</svg>
