<?xml version="1.0" encoding="utf-8"?>
<!-- Generator: Adobe Illustrator 22.1.0, SVG Export Plug-In . SVG Version: 6.00 Build 0)  -->
<svg version="1.1" id="Regular" xmlns="http://www.w3.org/2000/svg" xmlns:xlink="http://www.w3.org/1999/xlink" x="0px" y="0px"
	 viewBox="0 0 24 24" style="enable-background:new 0 0 24 24;" xml:space="preserve">
<title>diagram-arrow-dash-down-1</title>
<g>
	<path d="M11.763,24.005c-0.364,0-0.716-0.133-0.99-0.375c-0.058-0.051-0.113-0.108-0.164-0.169l-5.324-6.107
		c-0.424-0.457-0.271-0.919-0.214-1.049c0.057-0.13,0.293-0.556,0.938-0.556h1.989V10.5c0-0.414,0.336-0.75,0.75-0.75
		s0.75,0.336,0.75,0.75v6c0,0.414-0.336,0.75-0.75,0.75H7.184l4.568,5.24l4.879-5.24h-1.883c-0.414,0-0.75-0.336-0.75-0.75v-6
		c0-0.414,0.336-0.75,0.75-0.75s0.75,0.336,0.75,0.75v5.25h2.361c0.645,0,0.88,0.426,0.937,0.557
		c0.057,0.13,0.208,0.593-0.231,1.066l-5.686,6.137c-0.254,0.289-0.618,0.467-1.019,0.492
		C11.829,24.004,11.796,24.005,11.763,24.005z"/>
	<path d="M14.748,8.25c-0.414,0-0.75-0.336-0.75-0.75V5.25c0-0.414,0.336-0.75,0.75-0.75s0.75,0.336,0.75,0.75V7.5
		C15.498,7.914,15.161,8.25,14.748,8.25z"/>
	<path d="M14.748,3.75c-0.414,0-0.75-0.336-0.75-0.75V0.75c0-0.414,0.336-0.75,0.75-0.75s0.75,0.336,0.75,0.75V3
		C15.498,3.414,15.161,3.75,14.748,3.75z"/>
	<path d="M8.748,8.25c-0.414,0-0.75-0.336-0.75-0.75V5.25c0-0.414,0.336-0.75,0.75-0.75s0.75,0.336,0.75,0.75V7.5
		C9.498,7.914,9.161,8.25,8.748,8.25z"/>
	<path d="M8.748,3.75c-0.414,0-0.75-0.336-0.75-0.75V0.75C7.998,0.337,8.334,0,8.748,0s0.75,0.336,0.75,0.75V3
		C9.498,3.414,9.161,3.75,8.748,3.75z"/>
</g>
</svg>
