<?xml version="1.0" encoding="utf-8"?>
<!-- Generator: Adobe Illustrator 22.1.0, SVG Export Plug-In . SVG Version: 6.00 Build 0)  -->
<svg version="1.1" id="Regular" xmlns="http://www.w3.org/2000/svg" xmlns:xlink="http://www.w3.org/1999/xlink" x="0px" y="0px"
	 viewBox="0 0 24 24" style="enable-background:new 0 0 24 24;" xml:space="preserve">
<title>diagram-fall-fast</title>
<g>
	<path d="M20.249,24c-0.052,0-0.106-0.006-0.16-0.018c-0.014-0.003-0.041-0.011-0.055-0.016c-0.027-0.008-0.063-0.02-0.098-0.036
		c-0.01-0.004-0.039-0.02-0.048-0.025c-0.031-0.017-0.059-0.034-0.084-0.054c-0.016-0.012-0.032-0.025-0.049-0.04
		c-0.019-0.016-0.038-0.035-0.057-0.056c-0.013-0.013-0.027-0.028-0.036-0.04l-2.998-3.748c-0.258-0.323-0.206-0.796,0.117-1.054
		c0.133-0.106,0.3-0.165,0.469-0.165c0.229,0,0.442,0.103,0.585,0.281l1.665,2.081V14.45c0.004-1.752-1.417-3.188-3.168-3.2l-11.7,0
		c-1.223,0-2.377-0.474-3.25-1.334c-0.882-0.869-1.372-2.03-1.381-3.268c0-0.001,0-5.898,0-5.898c0-0.414,0.336-0.75,0.75-0.75
		s0.75,0.336,0.75,0.75v5.87c0.006,0.848,0.338,1.64,0.934,2.228c0.59,0.582,1.371,0.902,2.2,0.902c0.002,0,11.703,0,11.703,0
		c2.579,0.018,4.669,2.128,4.663,4.702v6.66l1.665-2.081c0.143-0.179,0.356-0.281,0.585-0.281c0.17,0,0.336,0.058,0.469,0.165
		c0.323,0.258,0.375,0.731,0.117,1.054l-3,3.75c-0.009,0.011-0.023,0.026-0.035,0.039c-0.018,0.02-0.037,0.038-0.056,0.055
		c-0.022,0.019-0.036,0.03-0.05,0.04c-0.025,0.019-0.052,0.036-0.081,0.052c-0.02,0.011-0.038,0.021-0.056,0.029
		c-0.029,0.013-0.065,0.026-0.103,0.037c-0.007,0.002-0.037,0.011-0.044,0.012C20.355,23.994,20.302,24,20.249,24z"/>
</g>
</svg>
