<?xml version="1.0" encoding="UTF-8"?>
<svg width="1024px" height="1024px" viewBox="0 0 1024 1024" version="1.1" xmlns="http://www.w3.org/2000/svg" xmlns:xlink="http://www.w3.org/1999/xlink">
    <!-- Generator: Sketch 53.2 (72643) - https://sketchapp.com -->
    <title>appicon-settings</title>
    <desc>Created with Sketch.</desc>
    <defs>
        <linearGradient x1="50%" y1="0%" x2="50%" y2="100%" id="linearGradient-1">
            <stop stop-color="#323232" offset="0%"></stop>
            <stop stop-color="#121212" offset="100%"></stop>
        </linearGradient>
        <path d="M393.978253,0.421875 L579.021747,0.421875 C715.869873,0.421875 765.494311,14.6706063 815.52394,41.426745 C865.55357,68.1828837 904.817116,107.44643 931.573255,157.47606 C958.329394,207.505689 972.578125,257.130127 972.578125,393.978253 L972.578125,579.021747 C972.578125,715.869873 958.329394,765.494311 931.573255,815.52394 C904.817116,865.55357 865.55357,904.817116 815.52394,931.573255 C765.494311,958.329394 715.869873,972.578125 579.021747,972.578125 L393.978253,972.578125 C257.130127,972.578125 207.505689,958.329394 157.47606,931.573255 C107.44643,904.817116 68.1828837,865.55357 41.426745,815.52394 C14.6706063,765.494311 0.421875,715.869873 0.421875,579.021747 L0.421875,393.978253 C0.421875,257.130127 14.6706063,207.505689 41.426745,157.47606 C68.1828837,107.44643 107.44643,68.1828837 157.47606,41.426745 C207.505689,14.6706063 257.130127,0.421875 393.978253,0.421875 Z" id="path-2"></path>
        <filter x="-2.7%" y="-2.0%" width="105.3%" height="105.3%" filterUnits="objectBoundingBox" id="filter-3">
            <feOffset dx="0" dy="7" in="SourceAlpha" result="shadowOffsetOuter1"></feOffset>
            <feGaussianBlur stdDeviation="7.5" in="shadowOffsetOuter1" result="shadowBlurOuter1"></feGaussianBlur>
            <feComposite in="shadowBlurOuter1" in2="SourceAlpha" operator="out" result="shadowBlurOuter1"></feComposite>
            <feColorMatrix values="0 0 0 0 0   0 0 0 0 0   0 0 0 0 0  0 0 0 0.428555254 0" type="matrix" in="shadowBlurOuter1"></feColorMatrix>
        </filter>
    </defs>
    <g id="appicon-settings" stroke="none" stroke-width="1" fill="none" fill-rule="evenodd">
        <g id="icon" transform="translate(24.000000, 26.000000)">
            <g id="squircle2">
                <g id="Rectangle">
                    <use fill="black" fill-opacity="1" filter="url(#filter-3)" xlink:href="#path-2"></use>
                    <path stroke-opacity="0.214787138" stroke="#FFFFFF" stroke-width="6" d="M393.978253,3.421875 C327.481005,3.421875 280.308729,6.77440569 243.739038,13.8363388 C211.311278,20.0984281 186.85487,29.1168666 158.890856,44.0721846 C109.384032,70.5487239 70.5487239,109.384032 44.0721846,158.890856 C29.1168666,186.85487 20.0984281,211.311278 13.8363388,243.739038 C6.77440569,280.308729 3.421875,327.481005 3.421875,393.978253 L3.421875,579.021747 C3.421875,645.518995 6.77440569,692.691271 13.8363388,729.260962 C20.0984281,761.688722 29.1168666,786.14513 44.0721846,814.109144 C70.5487239,863.615968 109.384032,902.451276 158.890856,928.927815 C186.85487,943.883133 211.311278,952.901572 243.739038,959.163661 C280.308729,966.225594 327.481005,969.578125 393.978253,969.578125 L579.021747,969.578125 C645.518995,969.578125 692.691271,966.225594 729.260962,959.163661 C761.688722,952.901572 786.14513,943.883133 814.109144,928.927815 C863.615968,902.451276 902.451276,863.615968 928.927815,814.109144 C943.883133,786.14513 952.901572,761.688722 959.163661,729.260962 C966.225594,692.691271 969.578125,645.518995 969.578125,579.021747 L969.578125,393.978253 C969.578125,327.481005 966.225594,280.308729 959.163661,243.739038 C952.901572,211.311278 943.883133,186.85487 928.927815,158.890856 C902.451276,109.384032 863.615968,70.5487239 814.109144,44.0721846 C786.14513,29.1168666 761.688722,20.0984281 729.260962,13.8363388 C692.691271,6.77440569 645.518995,3.421875 579.021747,3.421875 L393.978253,3.421875 Z" stroke-linejoin="square" fill="url(#linearGradient-1)" fill-rule="evenodd"></path>
                </g>
            </g>
        </g>
        <path d="M512,836.5 C691.216401,836.5 836.5,691.216401 836.5,512 C836.5,332.783599 691.216401,187.5 512,187.5 C332.783599,187.5 187.5,332.783599 187.5,512 C187.5,691.216401 332.783599,836.5 512,836.5 Z M512.209808,673.675717 C511.567093,673.688369 511.284492,673.779651 511.032016,673.981464 C510.918212,674.092108 510.814197,674.192494 510.807938,674.198675 C510.807617,674.198992 510.807341,674.199264 510.80711,674.199489 L496.744942,689.703342 C485.917955,701.653116 470.462653,708.5 454.293965,708.5 C440.06248,708.5 426.418043,703.247111 415.878485,693.711861 C403.087431,682.138522 396.231701,665.595618 397.111376,648.369741 L398.201521,627.278008 C398.252389,626.432981 397.68314,625.732184 396.946244,625.610912 C396.900366,625.610912 396.846348,625.610912 396.781876,625.610912 C396.62092,625.610912 396.525123,625.610912 396.458457,625.610912 L375.67968,626.685453 L375.506198,626.692648 L375.506143,626.69265 C373.99856,626.739752 373.651317,626.748504 372.913325,626.748504 C342.298186,626.748504 317.093503,602.855849 315.575315,572.376845 C314.695902,555.156084 321.551632,538.61318 334.331652,527.049842 L349.83035,512.977174 C350.435375,512.429341 350.503635,511.52175 350.01949,510.912448 C349.987185,510.879083 349.95166,510.842256 349.910546,510.799569 C349.859243,510.746316 349.859243,510.746316 349.826396,510.712434 C349.821315,510.707209 349.819349,510.705109 349.819612,510.7052 L334.294276,496.603575 C322.985868,486.297791 316.348868,472.157229 315.650673,456.891184 C314.952794,441.601717 320.253425,426.938365 330.55444,415.670215 C341.371005,403.792699 356.78914,396.992952 372.887465,396.992952 C374.092738,396.992952 374.699074,397.003267 375.505736,397.060332 C376.085535,397.089987 376.204392,397.096064 378.734236,397.225417 C381.223129,397.352663 383.712826,397.47991 386.037649,397.598671 C386.047369,397.599168 386.047369,397.599168 386.05709,397.599665 C389.041545,397.752123 391.530033,397.879142 393.357363,397.972262 C394.395001,398.02514 395.205509,398.066377 395.767999,398.094903 C396.172266,398.115387 396.17401,398.115475 396.44064,398.128904 C397.20317,398.11401 397.498916,397.997218 397.760732,397.761678 C398.041942,397.510122 398.21195,397.172752 398.247992,396.78208 C398.247612,396.764575 398.247135,396.744412 398.246037,396.697999 C398.243154,396.576949 398.241144,396.48511 398.239841,396.400718 L397.110661,375.642051 C395.532876,344.092919 419.870453,317.170627 451.387931,315.564877 C451.898842,315.533918 452.412792,315.516231 452.971648,315.507501 C453.375448,315.501193 453.680795,315.5 454.345685,315.5 C470.486581,315.5 485.937974,322.364954 496.78189,334.360628 L510.857967,349.957346 C511.099205,350.223002 511.395648,350.380417 511.743889,350.426802 C512.42181,350.409057 512.706152,350.294957 512.924002,350.095822 L513.06805,349.964148 L513.107836,349.931 C513.120176,349.917469 513.150749,349.886016 513.207825,349.828029 L527.203343,334.425929 C538.02438,322.482724 553.502619,315.629272 569.65432,315.629272 C583.885805,315.629272 597.530242,320.882161 608.078016,330.424854 C620.862575,342.022678 627.7167,358.561709 626.836909,375.759531 L625.7507,396.781044 C625.704259,397.675904 626.080015,398.106088 626.771475,398.141958 L627.891454,398.200058 L648.321914,397.209755 L648.459448,397.204204 C649.858926,397.159069 650.291324,397.148078 651.03496,397.148078 C681.665285,397.148078 706.875506,421.028417 708.42469,451.519738 C709.304634,468.750901 702.440423,485.294669 689.642493,496.846741 L674.15564,510.908663 C673.827186,511.207196 673.664229,511.551038 673.644383,511.95977 C673.623763,512.384473 673.748879,512.736407 674.003398,513.01669 C674.075547,513.096037 674.082056,513.102546 674.153555,513.167006 L689.683894,527.273178 C713.08401,548.450426 714.888617,584.694798 693.69926,608.125706 C682.857781,620.118681 667.379466,626.981194 651.190119,626.981194 L651.053068,626.980089 C650.957834,626.978552 650.798378,626.975858 650.592483,626.972169 C650.249074,626.966016 649.905328,626.959364 649.582244,626.952418 C649.153524,626.9432 648.792874,626.934153 648.511168,626.925068 L648.347261,626.918198 C647.689489,626.884266 647.689489,626.884266 645.057909,626.748533 C642.590681,626.621284 640.123051,626.494035 637.819377,626.37527 C637.814523,626.37502 637.814523,626.37502 637.809668,626.374769 C634.850103,626.22219 632.383079,626.095056 630.572709,626.001837 C629.544404,625.948889 628.741751,625.907593 628.185389,625.879015 C627.798043,625.859128 627.784204,625.858417 627.543893,625.846116 C626.306336,625.884667 625.821808,626.365644 625.776117,627.229429 L625.772241,627.289142 C625.775286,627.229058 625.77636,627.182615 625.776479,627.145604 C625.777089,627.191701 625.778077,627.242404 625.780199,627.339307 C625.781326,627.390751 625.781326,627.390751 625.782562,627.449763 C625.78413,627.526249 625.785373,627.596511 625.786271,627.664523 L626.863651,648.413019 C627.622081,663.699778 622.383575,678.391641 612.137771,689.696033 C601.897706,701.024395 587.819626,707.699535 572.549683,708.488672 L572.205575,708.506455 L571.861157,708.496327 C571.521052,708.486326 571.225866,708.486326 570.514461,708.493787 C570.410907,708.494874 570.410907,708.494874 570.303642,708.495953 C570.028694,708.498658 569.818524,708.5 569.602601,708.5 C553.472616,708.5 538.022067,701.643526 527.184778,689.685529 L513.087432,674.165964 C512.807968,673.855075 512.560815,673.717255 512.209808,673.675717 Z M513.5,593.5 C557.68278,593.5 593.5,557.68278 593.5,513.5 C593.5,469.31722 557.68278,433.5 513.5,433.5 C469.31722,433.5 433.5,469.31722 433.5,513.5 C433.5,557.68278 469.31722,593.5 513.5,593.5 Z" id="icon-custom" stroke="#FFFFFF" stroke-width="17"></path>
    </g>
</svg>