<?xml version="1.0" encoding="UTF-8"?>
<svg width="1024px" height="1024px" viewBox="0 0 1024 1024" version="1.1" xmlns="http://www.w3.org/2000/svg" xmlns:xlink="http://www.w3.org/1999/xlink">
    <!-- Generator: Sketch 53 (72520) - https://sketchapp.com -->
    <title>appicon-custom</title>
    <desc>Created with Sketch.</desc>
    <defs>
        <linearGradient x1="50%" y1="0%" x2="50%" y2="100%" id="linearGradient-1">
            <stop stop-color="#323232" offset="0%"></stop>
            <stop stop-color="#121212" offset="100%"></stop>
        </linearGradient>
        <path d="M393.978253,0.421875 L579.021747,0.421875 C715.869873,0.421875 765.494311,14.6706063 815.52394,41.426745 C865.55357,68.1828837 904.817116,107.44643 931.573255,157.47606 C958.329394,207.505689 972.578125,257.130127 972.578125,393.978253 L972.578125,579.021747 C972.578125,715.869873 958.329394,765.494311 931.573255,815.52394 C904.817116,865.55357 865.55357,904.817116 815.52394,931.573255 C765.494311,958.329394 715.869873,972.578125 579.021747,972.578125 L393.978253,972.578125 C257.130127,972.578125 207.505689,958.329394 157.47606,931.573255 C107.44643,904.817116 68.1828837,865.55357 41.426745,815.52394 C14.6706063,765.494311 0.421875,715.869873 0.421875,579.021747 L0.421875,393.978253 C0.421875,257.130127 14.6706063,207.505689 41.426745,157.47606 C68.1828837,107.44643 107.44643,68.1828837 157.47606,41.426745 C207.505689,14.6706063 257.130127,0.421875 393.978253,0.421875 Z" id="path-2"></path>
        <filter x="-2.7%" y="-2.0%" width="105.3%" height="105.3%" filterUnits="objectBoundingBox" id="filter-3">
            <feOffset dx="0" dy="7" in="SourceAlpha" result="shadowOffsetOuter1"></feOffset>
            <feGaussianBlur stdDeviation="7.5" in="shadowOffsetOuter1" result="shadowBlurOuter1"></feGaussianBlur>
            <feComposite in="shadowBlurOuter1" in2="SourceAlpha" operator="out" result="shadowBlurOuter1"></feComposite>
            <feColorMatrix values="0 0 0 0 0   0 0 0 0 0   0 0 0 0 0  0 0 0 0.428555254 0" type="matrix" in="shadowBlurOuter1"></feColorMatrix>
        </filter>
    </defs>
    <g id="appicon-custom" stroke="none" stroke-width="1" fill="none" fill-rule="evenodd">
        <g id="icon" transform="translate(24.000000, 26.000000)">
            <g id="squircle2">
                <g id="Rectangle">
                    <use fill="black" fill-opacity="1" filter="url(#filter-3)" xlink:href="#path-2"></use>
                    <path stroke-opacity="0.214787138" stroke="#FFFFFF" stroke-width="6" d="M393.978253,3.421875 C327.481005,3.421875 280.308729,6.77440569 243.739038,13.8363388 C211.311278,20.0984281 186.85487,29.1168666 158.890856,44.0721846 C109.384032,70.5487239 70.5487239,109.384032 44.0721846,158.890856 C29.1168666,186.85487 20.0984281,211.311278 13.8363388,243.739038 C6.77440569,280.308729 3.421875,327.481005 3.421875,393.978253 L3.421875,579.021747 C3.421875,645.518995 6.77440569,692.691271 13.8363388,729.260962 C20.0984281,761.688722 29.1168666,786.14513 44.0721846,814.109144 C70.5487239,863.615968 109.384032,902.451276 158.890856,928.927815 C186.85487,943.883133 211.311278,952.901572 243.739038,959.163661 C280.308729,966.225594 327.481005,969.578125 393.978253,969.578125 L579.021747,969.578125 C645.518995,969.578125 692.691271,966.225594 729.260962,959.163661 C761.688722,952.901572 786.14513,943.883133 814.109144,928.927815 C863.615968,902.451276 902.451276,863.615968 928.927815,814.109144 C943.883133,786.14513 952.901572,761.688722 959.163661,729.260962 C966.225594,692.691271 969.578125,645.518995 969.578125,579.021747 L969.578125,393.978253 C969.578125,327.481005 966.225594,280.308729 959.163661,243.739038 C952.901572,211.311278 943.883133,186.85487 928.927815,158.890856 C902.451276,109.384032 863.615968,70.5487239 814.109144,44.0721846 C786.14513,29.1168666 761.688722,20.0984281 729.260962,13.8363388 C692.691271,6.77440569 645.518995,3.421875 579.021747,3.421875 L393.978253,3.421875 Z" stroke-linejoin="square" fill="url(#linearGradient-1)" fill-rule="evenodd"></path>
                </g>
            </g>
        </g>
        <path d="M512,836.5 C691.216401,836.5 836.5,691.216401 836.5,512 C836.5,332.783599 691.216401,187.5 512,187.5 C332.783599,187.5 187.5,332.783599 187.5,512 C187.5,691.216401 332.783599,836.5 512,836.5 Z M384.983403,292.441861 C405.165623,280.711879 428.883934,277.494568 451.647018,283.400961 C474.690343,289.349372 494.040393,303.886637 506.023738,324.245487 C507.009392,325.906159 507.825648,327.628599 508.49417,329.441938 L658.637938,589.538605 C661.594071,594.602667 662.952284,600.46262 662.565133,606.344799 L655.627844,713.997288 C655.545877,715.96493 655.236005,717.924303 654.71822,719.856703 C652.668361,727.506882 647.720011,733.952837 640.90252,737.856665 C632.299103,742.856216 621.777305,743.196356 612.896664,738.770718 L516.085686,690.90286 C510.806912,688.301439 506.442951,684.218361 503.50451,679.128832 L351.125639,415.200884 C339.211032,394.564179 336.043683,370.422823 342.224933,347.354085 C348.406183,324.285346 363.219865,304.961993 383.85657,293.047386 C384.18839,292.855809 384.517304,292.680797 384.983403,292.441861 Z M588.226729,646.599713 L590.590147,609.908295 L449.746584,365.960088 C449.253729,365.106437 448.81663,364.235904 448.435531,363.342197 C442.355728,355.371748 431.184074,353.185418 422.184595,358.487629 C421.971292,358.61078 421.778809,358.715908 421.448235,358.893395 C421.442208,358.89663 421.442208,358.89663 421.436212,358.899849 C421.165317,359.04526 421.071806,359.095835 421.099706,359.079569 C416.984382,361.468024 413.788748,365.740016 412.408749,370.890241 C410.987601,376.194037 411.70063,381.667801 414.425377,386.387201 L555.267099,630.332219 L588.226729,646.599713 Z M421.099706,359.079569 C421.100297,359.079224 421.100942,359.07885 421.101642,359.078445 C421.100997,359.07882 421.100351,359.079194 421.099706,359.079569 Z M413.628724,343.797732 C413.626309,343.799173 413.623282,343.800956 413.61962,343.803094 C413.622655,343.801307 413.625689,343.799519 413.628724,343.797732 Z" id="icon-custom" stroke="#FFFFFF" stroke-width="17"></path>
    </g>
</svg>