<?xml version="1.0" encoding="UTF-8"?>
<svg width="1024px" height="1024px" viewBox="0 0 1024 1024" version="1.1" xmlns="http://www.w3.org/2000/svg" xmlns:xlink="http://www.w3.org/1999/xlink">
    <!-- Generator: Sketch 52.6 (67491) - http://www.bohemiancoding.com/sketch -->
    <title>appicon-topics</title>
    <desc>Created with Sketch.</desc>
    <defs>
        <linearGradient x1="50%" y1="0%" x2="50%" y2="100%" id="linearGradient-1">
            <stop stop-color="#323232" offset="0%"></stop>
            <stop stop-color="#121212" offset="100%"></stop>
        </linearGradient>
        <path d="M393.978253,0.421875 L579.021747,0.421875 C715.869873,0.421875 765.494311,14.6706063 815.52394,41.426745 C865.55357,68.1828837 904.817116,107.44643 931.573255,157.47606 C958.329394,207.505689 972.578125,257.130127 972.578125,393.978253 L972.578125,579.021747 C972.578125,715.869873 958.329394,765.494311 931.573255,815.52394 C904.817116,865.55357 865.55357,904.817116 815.52394,931.573255 C765.494311,958.329394 715.869873,972.578125 579.021747,972.578125 L393.978253,972.578125 C257.130127,972.578125 207.505689,958.329394 157.47606,931.573255 C107.44643,904.817116 68.1828837,865.55357 41.426745,815.52394 C14.6706063,765.494311 0.421875,715.869873 0.421875,579.021747 L0.421875,393.978253 C0.421875,257.130127 14.6706063,207.505689 41.426745,157.47606 C68.1828837,107.44643 107.44643,68.1828837 157.47606,41.426745 C207.505689,14.6706063 257.130127,0.421875 393.978253,0.421875 Z" id="path-2"></path>
        <filter x="-2.7%" y="-2.0%" width="105.3%" height="105.3%" filterUnits="objectBoundingBox" id="filter-3">
            <feOffset dx="0" dy="7" in="SourceAlpha" result="shadowOffsetOuter1"></feOffset>
            <feGaussianBlur stdDeviation="7.5" in="shadowOffsetOuter1" result="shadowBlurOuter1"></feGaussianBlur>
            <feComposite in="shadowBlurOuter1" in2="SourceAlpha" operator="out" result="shadowBlurOuter1"></feComposite>
            <feColorMatrix values="0 0 0 0 0   0 0 0 0 0   0 0 0 0 0  0 0 0 0.428555254 0" type="matrix" in="shadowBlurOuter1"></feColorMatrix>
        </filter>
    </defs>
    <g id="appicon-topics" stroke="none" stroke-width="1" fill="none" fill-rule="evenodd">
        <g id="icon" transform="translate(24.000000, 26.000000)">
            <g id="squircle2">
                <g id="Rectangle">
                    <use fill="black" fill-opacity="1" filter="url(#filter-3)" xlink:href="#path-2"></use>
                    <path stroke-opacity="0.214787138" stroke="#FFFFFF" stroke-width="6" d="M393.978253,3.421875 C327.481005,3.421875 280.308729,6.77440569 243.739038,13.8363388 C211.311278,20.0984281 186.85487,29.1168666 158.890856,44.0721846 C109.384032,70.5487239 70.5487239,109.384032 44.0721846,158.890856 C29.1168666,186.85487 20.0984281,211.311278 13.8363388,243.739038 C6.77440569,280.308729 3.421875,327.481005 3.421875,393.978253 L3.421875,579.021747 C3.421875,645.518995 6.77440569,692.691271 13.8363388,729.260962 C20.0984281,761.688722 29.1168666,786.14513 44.0721846,814.109144 C70.5487239,863.615968 109.384032,902.451276 158.890856,928.927815 C186.85487,943.883133 211.311278,952.901572 243.739038,959.163661 C280.308729,966.225594 327.481005,969.578125 393.978253,969.578125 L579.021747,969.578125 C645.518995,969.578125 692.691271,966.225594 729.260962,959.163661 C761.688722,952.901572 786.14513,943.883133 814.109144,928.927815 C863.615968,902.451276 902.451276,863.615968 928.927815,814.109144 C943.883133,786.14513 952.901572,761.688722 959.163661,729.260962 C966.225594,692.691271 969.578125,645.518995 969.578125,579.021747 L969.578125,393.978253 C969.578125,327.481005 966.225594,280.308729 959.163661,243.739038 C952.901572,211.311278 943.883133,186.85487 928.927815,158.890856 C902.451276,109.384032 863.615968,70.5487239 814.109144,44.0721846 C786.14513,29.1168666 761.688722,20.0984281 729.260962,13.8363388 C692.691271,6.77440569 645.518995,3.421875 579.021747,3.421875 L393.978253,3.421875 Z" stroke-linejoin="square" fill="url(#linearGradient-1)" fill-rule="evenodd"></path>
                </g>
            </g>
        </g>
        <path d="M512.113281,836.5 C691.267119,836.5 836.5,691.267119 836.5,512.113281 C836.5,332.959443 691.267119,187.726562 512.113281,187.726562 C332.959443,187.726562 187.726562,332.959443 187.726562,512.113281 C187.726562,691.267119 332.959443,836.5 512.113281,836.5 Z M305.023666,625.396472 L298.047801,625.396472 L298.453457,620.11457 C292.07152,613.597534 288.363851,604.788073 288.363851,595.379988 C288.363851,575.851146 304.201953,560.013658 323.731223,560.013658 L392.908103,560.013658 L418.72545,482.564624 L373.238205,482.564446 C353.672117,482.658964 337.759636,466.793744 337.759636,447.231314 C337.759636,427.712956 353.603709,411.864984 373.127008,411.864984 L442.303893,411.864984 L475.419244,312.522912 C480.260277,298.094374 493.752294,288.380315 508.965416,288.380315 C512.710518,288.380315 516.425224,288.978103 520.112148,290.175669 C529.038083,293.135206 536.360583,299.485195 540.624832,307.966596 C544.798625,316.360752 545.483757,325.991054 542.525848,334.911277 L516.879105,411.84852 L565.809817,411.84852 L598.903807,312.570433 C603.710856,298.102721 617.207256,288.363851 632.454878,288.363851 C636.286697,288.363851 640.091589,288.984552 643.652582,290.18714 C652.578807,293.162433 659.925632,299.542534 664.114295,307.966596 C668.288087,316.360752 668.973219,325.991054 666.01531,334.911277 L640.368567,411.84852 L694.199609,411.84852 C713.72888,411.84852 729.566982,427.686007 729.566982,447.214849 C729.566982,466.743692 713.72888,482.581179 694.199609,482.581179 L616.790099,482.581179 L590.972782,560.030123 L644.803825,560.030123 C664.333095,560.030123 680.171197,575.86761 680.171197,595.396452 C680.171197,614.925295 664.333095,630.762782 644.803825,630.762782 L567.394312,630.762782 L542.51875,705.386544 C537.685903,719.837602 524.191989,729.566982 508.965416,729.566982 C505.133598,729.566982 501.328706,728.94628 497.767712,727.743692 C488.879092,724.780934 481.567416,718.439901 477.352008,710.056249 C473.126046,701.651607 472.432564,691.967076 475.404985,683.003091 L492.819097,630.762782 L443.90485,630.762782 L419.043491,705.343935 C414.238425,719.805679 400.729865,729.550517 385.492419,729.550517 C381.660601,729.550517 377.855709,728.929816 374.294716,727.727228 C365.406095,724.764469 358.094419,718.423436 353.879011,710.039785 C349.653049,701.635142 348.959568,691.950611 351.931988,682.986626 L369.3461,630.746317 L323.731223,630.746317 C317.019807,630.746317 310.575665,628.863541 305.023666,625.396472 Z M522.527077,562.094928 L549.223034,481.448169 L490.601456,481.448169 L463.905499,562.094928 L522.527077,562.094928 Z" id="icon-topics" stroke="#FFFFFF" stroke-width="17"></path>
    </g>
</svg>