<?xml version="1.0" encoding="UTF-8"?>
<svg width="421px" height="421px" viewBox="0 0 421 421" version="1.1" xmlns="http://www.w3.org/2000/svg" xmlns:xlink="http://www.w3.org/1999/xlink">
    <!-- Generator: Sketch 52.5 (67469) - http://www.bohemiancoding.com/sketch -->
    <title>icon-people</title>
    <desc>Created with Sketch.</desc>
    <g id="Symbols" stroke="none" stroke-width="1" fill="none" fill-rule="evenodd">
        <g id="icon-people" fill="#000000">
            <path d="M210.5625,420.439184 C326.637221,420.439184 420.734375,326.34203 420.734375,210.267309 C420.734375,94.1925874 326.637221,0.0954337964 210.5625,0.0954337964 C94.4877786,0.0954337964 0.390625,94.1925874 0.390625,210.267309 C0.390625,326.34203 94.4877786,420.439184 210.5625,420.439184 Z M209.988618,258.319883 C223.132165,258.319883 236.197008,261.572316 248.828979,265.787252 C273.128799,273.921686 291.585801,289.468785 303.219511,303.012416 C323.80414,286.849576 342.899782,242.031403 342.899782,209.060359 C342.899782,135.751979 283.320951,76.1125979 210.086998,76.1125979 C136.853045,76.1125979 77.2742142,135.751979 77.2742142,209.060359 C77.2742142,242.031403 87.1697739,270.171375 102.194234,289.060723 C112.210541,301.653621 116.882285,307.380007 116.209466,306.23988 C126.150612,292.146436 139.249411,280.86161 155.505863,272.3854 C172.499085,263.525035 191.001309,258.319883 209.988618,258.319883 Z M210.086998,235.669253 C183.339984,235.669253 161.585401,213.91467 161.585401,187.167656 C161.585401,160.420642 183.339984,138.666059 210.086998,138.666059 C236.834012,138.666059 258.588595,160.420642 258.588595,187.167656 C258.588595,213.91467 236.834012,235.669253 210.086998,235.669253 Z"></path>
        </g>
    </g>
</svg>