<?xml version="1.0" encoding="UTF-8"?>
<svg width="421px" height="421px" viewBox="0 0 421 421" version="1.1" xmlns="http://www.w3.org/2000/svg" xmlns:xlink="http://www.w3.org/1999/xlink">
    <!-- Generator: Sketch 52.6 (67491) - http://www.bohemiancoding.com/sketch -->
    <title>icon-sources</title>
    <desc>Created with Sketch.</desc>
    <g id="icon-sources" stroke="none" stroke-width="1" fill="none" fill-rule="evenodd">
        <path d="M298.655483,182.838823 L354.78418,154.130068 L211,81.5872092 L67.2158203,154.130068 L123.344517,182.838823 L67.2158203,211.547579 L119.434303,238.256334 L67.2158203,264.965089 L211,338.507948 L354.78418,264.965089 L302.565697,238.256334 L354.78418,211.547579 L298.655483,182.838823 Z M140.972892,191.8554 L211,227.672927 L281.027108,191.8554 L313.499401,208.498914 L211,261.034476 L108.500599,208.498914 L140.972892,191.8554 Z M137.066741,247.274989 L211,285.090437 L284.933259,247.274989 L313.499401,261.916425 L211,314.451987 L108.500599,261.916425 L137.066741,247.274989 Z M210,420.5 C94.0202025,420.5 0,326.479797 0,210.5 C0,94.5202025 94.0202025,0.5 210,0.5 C325.979797,0.5 420,94.5202025 420,210.5 C420,326.479797 325.979797,420.5 210,420.5 Z M106.500599,153.081403 L211,99.5458406 L315.499401,152.081403 L211,204.616966 L106.500599,153.081403 Z" id="icon-lists" fill="#000000"></path>
    </g>
</svg>