<?xml version="1.0" encoding="UTF-8"?>
<svg width="421px" height="421px" viewBox="0 0 421 421" version="1.1" xmlns="http://www.w3.org/2000/svg" xmlns:xlink="http://www.w3.org/1999/xlink">
    <!-- Generator: Sketch 52.6 (67491) - http://www.bohemiancoding.com/sketch -->
    <title>icon-custom</title>
    <desc>Created with Sketch.</desc>
    <g id="icon-custom" stroke="none" stroke-width="1" fill="none" fill-rule="evenodd">
        <path d="M210.75,420.921875 C94.7702025,420.921875 0.75,326.901672 0.75,210.921875 C0.75,94.9420775 94.7702025,0.921875 210.75,0.921875 C326.729797,0.921875 420.75,94.9420775 420.75,210.921875 C420.75,326.901672 326.729797,420.921875 210.75,420.921875 Z M295.57477,340.615316 C295.800653,339.772311 295.940514,338.906256 295.972541,338.029747 L300.35172,270.07388 C300.525836,267.428384 299.922059,264.795724 298.595044,262.522455 L203.650954,98.0492797 C203.321693,97.0759638 202.905176,96.1530253 202.371604,95.2540402 C195.529174,83.6293017 184.508816,75.3474227 171.349756,71.9505388 C158.29853,68.5641098 144.744234,70.4271847 133.220581,77.1676249 C133.007051,77.276364 132.771706,77.3976975 132.619008,77.4858579 C120.839432,84.2867994 112.393496,95.3000767 108.862353,108.478481 C105.33121,121.656885 107.138967,135.417631 113.939908,147.197207 L210.034692,313.638255 C211.357098,315.928729 213.317955,317.763335 215.69608,318.935294 L276.754381,349.125357 C280.756117,351.119589 285.480938,350.965768 289.346631,348.719366 C292.439614,346.948175 294.652801,344.056152 295.57477,340.615316 Z M263.653693,304.167538 L234.205888,289.633334 L144.574246,134.386777 C142.140974,130.172226 141.504971,125.256319 142.766996,120.546375 C144.008389,115.913433 146.92546,112.059609 150.736639,109.848376 C150.88309,109.763822 151.250478,109.573407 151.429474,109.470063 C159.66171,104.619545 170.05929,106.882877 175.399148,114.572234 C175.596194,115.120214 175.842056,115.640009 176.133297,116.144453 L265.764939,271.391011 L263.653693,304.167538 Z" id="icon-list" fill="#000000"></path>
    </g>
</svg>