<?xml version="1.0" encoding="UTF-8"?>
<svg width="421px" height="421px" viewBox="0 0 421 421" version="1.1" xmlns="http://www.w3.org/2000/svg" xmlns:xlink="http://www.w3.org/1999/xlink">
    <!-- Generator: Sketch 53.2 (72643) - https://sketchapp.com -->
    <title>icon-home</title>
    <desc>Created with Sketch.</desc>
    <g id="icon-home" stroke="none" stroke-width="1" fill="none" fill-rule="evenodd">
        <path d="M210,420.5 C94.0202025,420.5 0,326.479797 0,210.5 C0,94.5202025 94.0202025,0.5 210,0.5 C325.979797,0.5 420,94.5202025 420,210.5 C420,326.479797 325.979797,420.5 210,420.5 Z M247.5625,319.990252 L247.5625,320 L311.152,320 C311.152,320 311.16175,320 311.16175,320 C320.4145,319.970755 327.961,312.415764 328,303.154808 L327.99025,180.637227 C327.7075,175.743543 325.582,171.220297 321.9745,167.876604 C321.799,167.710882 321.61375,167.554908 321.41875,167.408682 L215.45575,87.4720047 C214.198,86.5264123 212.62825,86 211.04875,86 C209.46925,86 207.90925,86.5264123 206.6515,87.4720047 L100.591,167.408682 C100.38625,167.564656 100.1815,167.730378 100.0255,167.876604 C96.418,171.210548 94.273,175.811781 94,181.046659 L94,303.135311 C94.02925,312.386519 101.5855,319.94151 110.848,319.961006 L174.4375,319.961006 C178.474,319.961006 181.75,316.685552 181.75,312.649725 L181.75,261.5 C181.75,245.376187 194.8735,232.254874 211,232.254874 C227.1265,232.254874 240.25,245.376187 240.25,261.5 L240.25,312.67897 C240.25,316.714798 243.526,319.990252 247.5625,319.990252 Z" id="icon-lists" fill="#000000"></path>
    </g>
</svg>