<?xml version="1.0" encoding="UTF-8"?>
<svg width="422px" height="421px" viewBox="0 0 422 421" version="1.1" xmlns="http://www.w3.org/2000/svg" xmlns:xlink="http://www.w3.org/1999/xlink">
    <!-- Generator: Sketch 52.5 (67469) - http://www.bohemiancoding.com/sketch -->
    <title>icon-topics</title>
    <desc>Created with Sketch.</desc>
    <g id="Symbols" stroke="none" stroke-width="1" fill="none" fill-rule="evenodd">
        <g id="icon-topics" fill="#000000">
            <path d="M211.039892,420.857982 C327.082253,420.857982 421.153173,326.787061 421.153173,210.7447 C421.153173,94.7023395 327.082253,0.631419203 211.039892,0.631419203 C94.9975307,0.631419203 0.926610407,94.7023395 0.926610407,210.7447 C0.926610407,326.787061 94.9975307,420.857982 211.039892,420.857982 Z M81.9807623,276.882335 L81.7177776,276.882335 L81.7323428,276.692686 C77.743955,273.589551 75.1775649,268.744353 75.1775649,263.301441 C75.1775649,253.938215 82.7722725,246.343802 92.1358617,246.343802 L139.666189,246.343802 L159.538572,186.728968 L123.358036,186.728889 C113.975935,186.774211 106.35547,179.161058 106.35547,169.792141 C106.35547,160.437606 113.951874,152.834503 123.313767,152.834503 L170.844095,152.834503 L192.965562,86.4727302 C195.287534,79.5521694 201.755218,74.8927659 209.053005,74.8927659 C210.849172,74.8927659 212.634977,75.1800609 214.400176,75.7533426 C218.681625,77.1729257 222.188369,80.2143714 224.231981,84.2789346 C226.233377,88.3040572 226.566688,92.9166757 225.146124,97.2007133 L206.604272,152.824111 L248.799249,152.824111 L270.912211,86.4878106 C273.217266,79.5503164 279.683819,74.8823737 286.997767,74.8823737 C288.836819,74.8823737 290.658402,75.180231 292.369069,75.7579095 C296.646564,77.1836861 300.166985,80.2369936 302.176743,84.2789346 C304.178139,88.3040572 304.51145,92.9166757 303.090887,97.2007133 L284.549034,152.824111 L325.970148,152.824111 C335.333737,152.824111 342.928445,160.418523 342.928445,169.781749 C342.928445,179.144975 335.333737,186.739388 325.970148,186.739388 L273.243503,186.739388 L253.37113,246.354195 L294.792243,246.354195 C304.155832,246.354195 311.75054,253.948607 311.75054,263.311833 C311.75054,272.675059 304.155832,280.269472 294.792243,280.269472 L242.065598,280.269472 L225.143299,331.034387 C222.824788,337.967141 216.356786,342.633254 209.053005,342.633254 C207.213953,342.633254 205.39237,342.335396 203.681703,341.757718 C199.414249,340.335288 195.914258,337.294529 193.892345,333.273323 C191.863727,329.238784 191.535387,324.600424 192.959885,320.304522 L206.30542,280.269472 L164.120836,280.269472 L147.204191,331.017424 C144.899751,337.953068 138.42414,342.622861 131.118635,342.622861 C129.279583,342.622861 127.458001,342.325004 125.747334,341.747325 C121.479879,340.324896 117.979889,337.284136 115.957975,333.262931 C113.929357,329.228392 113.601018,324.590031 115.025516,320.29413 L128.37105,280.25908 L92.1358617,280.25908 C88.3275853,280.25908 84.8119066,279.002858 81.9807623,276.882335 Z M221.488344,247.65747 L241.890377,186.024248 L193.586524,186.024248 L173.184491,247.65747 L221.488344,247.65747 Z"></path>
        </g>
    </g>
</svg>