<?xml version="1.0" encoding="UTF-8"?>
<svg width="33px" height="33px" viewBox="0 0 33 33" version="1.1" xmlns="http://www.w3.org/2000/svg" xmlns:xlink="http://www.w3.org/1999/xlink">
    <!-- Generator: Sketch 46.2 (44496) - http://www.bohemiancoding.com/sketch -->
    <title>Fill 50</title>
    <desc>Created with Sketch.</desc>
    <defs></defs>
    <g id="Page-1" stroke="none" stroke-width="1" fill="none" fill-rule="evenodd">
        <g id="GitHub-Mark" transform="translate(-35.000000, -331.000000)" fill="#FFFFFE">
            <path d="M51.608,331.455 C42.614,331.455 35.32,338.748 35.32,347.745 C35.32,354.942 39.987,361.047 46.46,363.201 C47.275,363.351 47.572,362.848 47.572,362.416 C47.572,362.029 47.558,361.005 47.55,359.646 C43.019,360.63 42.063,357.462 42.063,357.462 C41.322,355.58 40.254,355.079 40.254,355.079 C38.775,354.069 40.366,354.089 40.366,354.089 C42.001,354.204 42.861,355.768 42.861,355.768 C44.314,358.257 46.674,357.538 47.602,357.121 C47.75,356.069 48.171,355.351 48.636,354.944 C45.019,354.533 41.216,353.135 41.216,346.893 C41.216,345.115 41.851,343.66 42.893,342.522 C42.725,342.11 42.166,340.453 43.053,338.211 C43.053,338.211 44.42,337.773 47.532,339.881 C48.831,339.519 50.225,339.339 51.61,339.332 C52.994,339.339 54.387,339.519 55.688,339.881 C58.798,337.773 60.163,338.211 60.163,338.211 C61.052,340.453 60.493,342.11 60.326,342.522 C61.37,343.66 62,345.115 62,346.893 C62,353.151 58.191,354.528 54.563,354.931 C55.147,355.434 55.668,356.428 55.668,357.947 C55.668,360.125 55.648,361.882 55.648,362.416 C55.648,362.852 55.942,363.359 56.768,363.2 C63.236,361.041 67.899,354.94 67.899,347.745 C67.899,338.748 60.605,331.455 51.608,331.455" id="Fill-50"></path>
        </g>
    </g>
</svg>