<?xml version="1.0" encoding="UTF-8"?>
<svg width="471px" height="148px" viewBox="0 0 471 148" version="1.1" xmlns="http://www.w3.org/2000/svg" xmlns:xlink="http://www.w3.org/1999/xlink">
    <!-- Generator: Sketch 46.2 (44496) - http://www.bohemiancoding.com/sketch -->
    <title>orbit</title>
    <desc>Created with Sketch.</desc>
    <defs></defs>
    <g id="Page-1" stroke="none" stroke-width="1" fill="none" fill-rule="evenodd">
        <g id="orbit" transform="translate(0.318359, -0.652344)">
            <path d="M203.579734,45.7683748 C204.579734,46.2065051 207.643066,43 218.935594,41.5353465 C228.007629,40.3586934 234.754049,41.2298865 239.174852,44.1489258 L237.174852,78 C234.308935,77.194987 231.207357,76.702474 227.870117,76.5224609 C222.864258,76.2524414 216.812012,77.4916992 212.845703,80.9326172 C208.879395,84.3735352 206.983276,88.8083496 207.034546,93.1141357 C207.085815,97.4199219 207.034546,107.177584 207.034546,117.203433 L207.034546,145.85376 L170.536765,145.976383 L170.536765,44 L201.579734,40 L203.579734,45.7683748 Z" id="Path" fill="#000000"></path>
            <polygon id="Path" fill="#000000" points="365.015065 145.976383 365.015065 46.7734375 365.015065 41.5353465 401.058034 38.5353465 401.058034 145.976383"></polygon>
            <path d="M422.303776,112 C422.303776,105.333333 422.303776,92.3311575 422.303776,72.9934724 L413.21875,70.9934724 L413.21875,40.9091797 L422.303776,38.9091797 L423.303776,22.9560547 L457.468327,20.9560547 L458.468327,37.9091797 L469.705631,38.9091797 L469.705631,68.9934724 L458.468327,71.9934724 C458.22252,78.0449527 458.099617,86.5589108 458.099617,97.5353465 C458.099617,105.811766 458.099617,121.89764 458.099617,145.792969 L422.303776,145.792969 C422.303776,135.572266 422.303776,124.307943 422.303776,112 Z" id="Path" fill="#000000"></path>
            <path d="M283.811174,7 C283.824344,8.8776251 283.834221,10.2858439 283.840806,11.2246565 C283.899077,19.5323717 283.986485,31.9939445 284.103027,48.609375 C284.103027,48.609375 294.847656,41.2148438 310.452008,41.4204493 C327.219661,41.6413826 338.838178,47.8974982 344.984375,56.0839844 C352.803711,66.4990234 355.322266,76.8231664 355.318389,94.9528157 C355.314025,115.357961 348.535252,129.332969 336.192978,138.837801 C329.880276,143.699236 321.161133,147.069336 308.025482,146.603336 C299.268382,146.292669 291.322388,144.796635 284.1875,142.115234 L282.103027,145.923828 C260.21871,144.590495 248.694217,143.923828 247.529549,143.923828 C247.529549,138.912166 247.520143,94.2708897 247.501331,10 L283.811174,7 Z M306.171298,113.84735 C319.057412,113.738636 324.136167,106.953886 324.969731,93.2320343 C325.803294,79.5101823 318.167109,71.2005879 305.863309,71.4863233 C293.559509,71.7720587 285.165183,75.3564438 285.311583,93.0388254 C285.457984,110.721207 293.285184,113.956065 306.171298,113.84735 Z" id="Combined-Shape" fill="#000000"></path>
            <path d="M62.4975435,131.436566 C52.0825126,121.607946 46.3766145,107.661504 46.3766145,88.6816406 C46.3766145,69.701777 52.8316024,55.6103846 62.4975435,45.8873371 C72.1634845,36.1642895 84.5227216,28.7929687 103.801749,28.7929687 C123.080776,28.7929687 135.78391,36.1586993 145.105954,45.8873371 C154.427998,55.6159748 161.226883,68.9153152 161.226883,88.6816406 C161.226883,108.447966 155.23299,121.889813 145.105954,131.475944 C134.978918,141.062075 123.292749,148.570313 103.801749,148.570313 C84.3107491,148.570313 72.9125743,141.265186 62.4975435,131.436566 Z M103.850994,111.841965 C110.384263,111.841965 116.634478,109.438039 120.73829,105.005922 C124.842102,100.573806 126.086667,95.2477394 126.086667,88.6816406 C126.086667,82.1155418 124.842102,76.7894755 120.73829,72.3573588 C116.634478,67.9252421 110.351433,65.5213167 103.752503,65.5213167 C97.219235,65.5213167 90.9690194,67.9252421 86.8652077,72.3573588 C82.7613959,76.7894755 81.5168305,82.1155418 81.5168305,88.6816406 C81.5168305,95.2477394 82.7613959,100.573806 86.8652077,105.005922 C90.9690194,109.438039 97.252065,111.841965 103.850994,111.841965 Z" id="Combined-Shape" fill="#000000"></path>
            <path d="M7.80444336,10.4091797 C20.3165563,7.90662818 40.5503965,3.72320159 52.904541,1.16430664 C63.6860352,-1.06884766 70.4395519,14.0011149 61.6911621,20.3435059 C50.2680664,28.625 39.4790039,39.0605469 33.6843262,52.8535156 C30.5886935,60.2219952 18.440918,60.6464844 14.5827637,52.8535156 C8.67836312,40.9273962 5.95596711,36.586369 0.928955078,24.8693848 C-1.96777344,18.1176758 3.06591797,11.3569336 7.80444336,10.4091797 Z" id="notch" fill="#684CC3"></path>
        </g>
    </g>
</svg>